/* XPM */
static char *d7553c18cc9e46c4e1d96add5ef196a5TXRBr3L4kDNp21N5[] = {
/* columns rows colors chars-per-pixel */
"64 64 232 2 ",
"   c #0B0907",
".  c #120F0A",
"X  c #17130D",
"o  c #1B150C",
"O  c #161513",
"+  c #1B1814",
"@  c #1D1C1A",
"#  c #21190F",
"$  c #231C13",
"%  c #211F1A",
"&  c #2C2317",
"*  c #25221B",
"=  c #2B251B",
"-  c #372A1A",
";  c #3C321E",
":  c #1F2023",
">  c #242422",
",  c #2C2924",
"<  c #26282A",
"1  c #2B2C2C",
"2  c #322D25",
"3  c #332E28",
"4  c #2F302D",
"5  c #3A3325",
"6  c #34322C",
"7  c #3B352C",
"8  c #3E392E",
"9  c #292D31",
"0  c #2E3235",
"q  c #2D333A",
"w  c #343533",
"e  c #3B3B35",
"r  c #333639",
"t  c #36393A",
"y  c #3B3D3B",
"u  c #4A361E",
"i  c #483B27",
"p  c #443B2D",
"a  c #533E26",
"s  c #433D33",
"d  c #403F3B",
"f  c #3F413E",
"g  c #54431E",
"h  c #4C422E",
"j  c #59462A",
"k  c #454135",
"l  c #4B4334",
"z  c #4F4831",
"x  c #44433B",
"c  c #4A463B",
"v  c #4C4A3D",
"b  c #564A37",
"n  c #534C3C",
"m  c #5B523D",
"M  c #664C29",
"N  c #6B522D",
"B  c #77572D",
"V  c #664E32",
"C  c #6B5333",
"Z  c #68573B",
"A  c #755A38",
"S  c #7C613D",
"D  c #383D43",
"F  c #3C4245",
"G  c #3C434B",
"H  c #434643",
"J  c #4B4C44",
"K  c #444848",
"L  c #464B4B",
"P  c #4B4D4C",
"I  c #524E42",
"U  c #4F5147",
"Y  c #4D514D",
"T  c #545145",
"R  c #5A5444",
"E  c #54534B",
"W  c #5A564A",
"Q  c #5C5849",
"!  c #5C5A4C",
"~  c #464D52",
"^  c #4D5254",
"/  c #4D545B",
"(  c #525553",
")  c #555954",
"_  c #5C5D54",
"`  c #535659",
"'  c #545B5B",
"]  c #5A5E5B",
"[  c #665B47",
"{  c #745E44",
"}  c #625E52",
"|  c #5F6056",
" . c #5E615B",
".. c #766447",
"X. c #7B6343",
"o. c #73624A",
"O. c #7B664C",
"+. c #626155",
"@. c #6B6454",
"#. c #6E6854",
"$. c #63645B",
"%. c #69685B",
"&. c #6B6A5D",
"*. c #786955",
"=. c #726D5C",
"-. c #4F5962",
";. c #565D61",
":. c #5B6363",
">. c #5C666D",
",. c #5E6C77",
"<. c #626663",
"1. c #656963",
"2. c #6B6C63",
"3. c #606669",
"4. c #636B6B",
"5. c #6B6E6A",
"6. c #746E62",
"7. c #6D7167",
"8. c #6D716C",
"9. c #737264",
"0. c #7B7566",
"q. c #73756B",
"w. c #76796E",
"e. c #7C7A6C",
"r. c #656E71",
"t. c #6C7473",
"y. c #6C7678",
"u. c #727673",
"i. c #757A74",
"p. c #7B7D73",
"a. c #747C7A",
"s. c #7A7E79",
"d. c #845F3B",
"f. c #83633B",
"g. c #8B663C",
"h. c #89693D",
"j. c #996F37",
"k. c #846543",
"l. c #8B6A44",
"z. c #836A48",
"x. c #8B6C4A",
"c. c #936E45",
"v. c #8C714A",
"b. c #94724C",
"n. c #98754A",
"m. c #866D52",
"M. c #936F50",
"N. c #8D7254",
"B. c #84725A",
"V. c #8E755C",
"C. c #957756",
"Z. c #A47C50",
"A. c #867A66",
"S. c #877E6E",
"D. c #7B8077",
"F. c #7C827C",
"G. c #A6845B",
"H. c #B08B5B",
"J. c #838274",
"K. c #83867C",
"L. c #898778",
"P. c #85897E",
"I. c #8B8B7D",
"U. c #968C74",
"Y. c #A98A63",
"T. c #B19267",
"R. c #B49871",
"E. c #697883",
"W. c #747E81",
"Q. c #7C8483",
"!. c #7A8687",
"~. c #858B83",
"^. c #858A87",
"/. c #8B8D83",
"(. c #848C8A",
"). c #938F80",
"_. c #8D9186",
"`. c #84918E",
"'. c #8C938C",
"]. c #939285",
"[. c #92958C",
"{. c #999788",
"}. c #94988E",
"|. c #999A8C",
" X c #848F91",
".X c #8D9592",
"XX c #899696",
"oX c #949A93",
"OX c #969B96",
"+X c #9A9D93",
"@X c #949D9A",
"#X c #9CA196",
"$X c #96A19B",
"%X c #9CA39C",
"&X c #A2A396",
"*X c #A2A59C",
"=X c #A5A89E",
"-X c #A9AA9C",
";X c #97A3A5",
":X c #9DA5A2",
">X c #9FA8A5",
",X c #9DA9AA",
"<X c #A1A7A2",
"1X c #A4AAA4",
"2X c #AAADA4",
"3X c #A4ADAA",
"4X c #A9AFAA",
"5X c #ADB0A6",
"6X c #A6B1AE",
"7X c #ACB2AC",
"8X c #B1B2A6",
"9X c #B2B5AC",
"0X c #B9B7AB",
"qX c #B5B8AE",
"wX c #BBBBAD",
"eX c #A3AEB2",
"rX c #A6B1B2",
"tX c #ACB5B2",
"yX c #AEB8B5",
"uX c #ADB9BC",
"iX c #B1B7B2",
"pX c #B4BAB4",
"aX c #BABDB3",
"sX c #B4BCBA",
"dX c #BABFB9",
"fX c #C0BFB1",
"gX c #BDC0B6",
"hX c #BCC2BB",
"jX c #C3C3B5",
"kX c #C4C7BB",
"lX c #BBC4C1",
"zX c #C4CAC4",
/* pixels */
"l n I E _ R } } l i h p E @X;X@X@X.X/.P.q.%.=.].8X9X4X1X#XD.p.}.%X1Xt.D a.<.Y ( 4.r.y.!.`.@X@X XD.F.:.( / ^ ;.!.!.XXQ.>.[ 2.E.E.",
"} %.w.K.D.q.9.=.9.&.q.9.2..X`.(.(. X~.K.p.e.9.J.].oXs.J.0.R } p./.OX4.r a.Q.a.3.:.L :.!.!. X`.(.~.<.) ` L ^ L ^ ' a.Q.>.^ P ,.E.",
"K.K./././.[.}.+X/././.p.%.F.5.u.F.4.u.~.[.*X=X=X~.2.2.Q [ m =.L.P./. .r r. X Xa.4.r.8.t.W.!.!.F.Q.t.4.Y L L H w e P ( ' L 1 D -.",
"/.oXoX/.].J.L.J.=.L.L.0.Q v 5 x x 8 v +.+.%.2.I k c J +.@.m @.I.~.I.) @ x 6 , * + * $ $ = J 1.i.4.:.L * . O @ > t H Y P L ~ D r ",
":XrX4.P.%XP.L.L./.].I.L.].L.! 3 * X       . X + * = , d $.S.+X&X&X2XD.u.s.P y J ` 1.i.8.p.p.~.P.K.s.~.(.u.] H O O < L y.r.~ t ~ ",
"@X@Xx i.1X+X*X*X=X1X1X%X*X2X=X|.L.9.E J _ 2.e.p.p.L.}.*X2X5X5XiXiX1X%X2XqXhXdX1X3X5XdXhXpXdX7X1X7X6X3XrX>X.X~.y r.t.t.!.!.W.XX,X",
"~.Q.H p.:X'.s./.&X+X[.[.+X+X+X|.].).#X=X=X&X&X-X-X*X5X<X#X*X1X1X%XOX@X#X#X%X'.^.%X1X%X'./.oX@X:X;XXXXX(.a.2.<.>. Xy.<.a.!.;X,X,X",
"E 7 d ~.~./.I.].+X#X*X+X+X[././.].{.+X*X*X*X&X*X|.*X*XoX*X1X2X%X@X%X%X<X:XoX~.%XoXD.&.v c _ _ _ 1.8.(.Q.i.u.s.Q.yXeXF.t.r. X;X,X",
"X X , ~./.2.*.I.oX~./.].[.].|./.L.#X5X1X+X+X/.J.P.=X/.P.[._./.}./.w.P.@XoX'.%X/.7.i.q.$.2.%.J 2 2 8 v ] u.`.t.5.uXuX>Xu.t.(.;XXX",
". . @ u.$.k I %.E v T &.q.K._./.J./._._.P.q.9.} @.&.! n Q z z m v n } $.$.} W 8 - 5 8 s T W I x I _ | E E 8.^ ` a.Q..X(.u. .3.W.",
"      % 7 2 7 c l s p p p 5 i p n I n R h z b m m i i ; ; 5 5 5 = & & = - & o X o $ $ & & $ o o = 6 , * $ ,   @ = * * * % o @ * ",
"7 s c 5 7 = $ & = & $ $ $ $ & & $ $ $ $ # # $ o o X . + % > , 1 1 w r 1 > @ O > O > J E E J x w % . . O O O @ @ @ .       . . . ",
"k.N.A.A V i ; i h h j j & o   . 2 v J k k s l +.&.&.p./.[.{.&X&X-XaXdX5X2XoXi.e.v  .OX%X%X}.I./.p.q.i.s.W.F.Q.!.s.<.J x J J J ` ",
"A z.{ V C a j N A X.X.A u u & 3 0.I.}./.I.I.&XgXjXkXkXwXwXwXgXwX-X3X1X#X{.'._.J.W <.OX>X3X3X1X%X%X:X>X,XeXeXeXeX;X Xs.7.2.$.7.(.",
"l.z.V N S j M A f.v.v.X.j M u n ].+X{.+X=X8X2X*X#XoX[.&X+X1X5X5X<X%X%X[.]._.K.J.+.$._.1XsXyXuXsXtXrXrXrXrXrXtXrX@X.X:X@X(.u.s.,X",
"O.C B f.{ j B f.l.v.N.X.j N h +.L.2X2X8XwXgX{.}.+X[./.I.}.1X*X%X1X2X1X1X1X*X#X|.e.F.pX%X.XF.w.'.`.OXrXrX3X>X.XF.Q.`.F.i.`.`.'.Q.",
"z.A f.h.O.M B g.h.l.C.m.N B j =.L.9XaXjXqX2X+X%X#X].'.oX%X%X%X%X%X%X%X1X2X2X2X8X}.^.oX+._ +.Q I I ! q.7.5.Q.oX'.q.2.$.! $.%.+.! ",
"A.S h.C.0.M v.c.g.f.l.x.B B j J.{.aXqX2X1X%X+X}.OX[.'.oX[.oX$XoX%X#XoX#X%X2XpXdX*X5.e.#.%.+.%.6.2.e.2._ $.q.s.2.q.u.i.p.2.2.&.+.",
"X.f.l.V.*.M h.c.n.c.n.C.S B C ).&X#X%X%X%X}.}.[.[.+XoX+X+XoX}.}.[.}.].oX%X%X#X%X.X) '.J.9.#.9.9.7.&.T T ! I $.i.D.(.~.p.D.p.} ! ",
"C A z...j M g.c.n.c.n.V.S B b A.S.L.>X%XoX/.{.}.}.].I.e.I.].[.oX{.oX%X%X#X#X#X%X.XJ q.K.9.e.9.$.I E %.$.$.&.&.`.'.(.(./.~.W p n ",
"$ $ $ # o & - - ; ; ; ; ; - & m ..A.=.@.&.m m [ [ Z j g j V Z Z Z ..6.0.[ W %.$.I 7 _ K.P.q.e.&.! x E 8.2.$.E H ] 1.u.2.v 6 x U ",
"Q.i.i.u.u.8.5.u.4.8.u.q.i.i.u.F.].{.J.0.e.e.e.e.e.e.e.q.2.&.%.} +.%.&.E x * o $ , w s 8 p z l L H :.E P Y H x e e t L f H E @.*.",
"%X5X9X5X2X*XqX9X1X*X*X2XqX1X%XoX%X9XqXdXaX9X9XqX5X8X9X5X2X5X2X5X9XpX1X'.oX) h R [ *.o...x.f.X.) ( :.4._ $.1.5.$.+._ 2.e.S.S.V.b.",
"`.(.F.P.oXoXoX%X@X'.[.#XOX}.|.[.}.=X9X9X1X=X*X#X*X&X}.+X*X=X8X2X5X*X#X[.'._ Z B.m...V A l.b.z.p R | 2.2.&.$.3.7.$.+.=.=.B.V.U.V.",
"'.(.D.oXoXK./.@XoXoX*X<X1X*X].I./.|.5X2X1X*X*X1X5X=X+X+X}.&X*X2X=X+X&X+XiXa.[ B.B.o.C V A N.o.l Q m o.+.[ 1.] _ _ @.0.A.S.J.S.=.",
"^.s.P.oX~.K.K.K./.#X<X<X%X<X%X%X*X*X[.oX1X*X5X4X[.}.=X[.].|.}.+X*X+X[.*X=X~.m X.0.C C C S O...E  .b z n Z 4.H 6 2 6 e H H ' 4.( ",
"~.^.}.^.s.2.2.7.q.~.@X%X:X4XoX~.[.#X[.[.oX1X[.D.K./././.+X{./.I.P.P.J.p.'.(.b X.O.Z k.l.b.X.Z d J J I n [ 3.F r w F ~ L k s ( ^ ",
"D.2.2.D.1.$.$.$.2.~.1X1X7X%X`.q.p.p.p.P._.i.W &.p.2.$.! P.'.J.e.E T _ i._.$.a k.O.k.C.n.b.N...7 T J E J _ ( r r t H L P P J x r ",
"6 = = = + $ 3 8 I ! I } _ c v E J k J ! W p p T $.! k k ! ! ! c v J s E I + 5 Z [ { l.k.m.A.#.L P E ` ] 1. .:.^ P ^ P D w 1 1 > ",
"Y ( ( (  .:.` ] <.) J k 8 e k k x * o $ $ $ $ & = = $ & & o 3 1.8.8.$.u.~.Q.~.[.[.}.}.}.*X1X<X*X=X%X1X2X3XyXyXQ.F.i..X>X@X`.,X:X",
"+X%X:X>X3X7XtX7X4X1XOX/.J.p.p.K./.<.2 s k c k k l k s p 5 * q.%X}./.K.+XhXdXdXgXwX9XtX*X8XqX5X=X5X5X=X*X1X3X%XE $.w.'.oXoX@X:X3X",
">X>X:X:X3X3X1X%X:XoX+X+XoX[.oX[.oX}.$.&.e.p.p.p.p.q.9.&.} c _.J.K.[.}.+XiX9XiXqX9XqX1X|.+X=X=X5X8X&X1X2X%X7X:X_ 8.P.(.`.}.%X@X@X",
"3X:X:X:X1X%X:X3X7X1X%X1X<X%X3X%X<X1X(.2.~.[.oXoX'./.I.J.9.s _./.D.[.*X&X4XiX4X2X0XdX=X}.2X5X2X2X&X#X5X5X7XpXtXw.~.'.p.`.oX/.@X>X",
"3X3X1X1X@X1X7X7XrXtX7X:X3X3XtXtXtXtX3Xs.P.#X#X*XoX}.}./.J.6 /.OX'.oX#X|.#X7X1X=X*XiX1X+XqX1X*X2X1X9X9XdXhXhXyX~.'.@X'.P.@X~.D.oX",
"3X3X7X3X%X7X2X3X3X<X<X1X1X7X7XtXrXrXyX%XJ.+X#X%X%X#XoX[./., e.1X1X*X*X=X2XtXiXiX5XiX1X#X1X+X1X7XdXaXpXpXqXtXiX%X(.+XOXK.D.^.D.p.",
"1XtXtX@X1XtX5X5X7X1X1X4X1XtXrX1X4XiXsXsX'.].*X1X=X+X%X%X'.3 K.7X5X1X+X+X2XrXtXdXhXsX3X1X4X5XpXiX5X1X9XqX5X1XrXoX^.'.OX*XOX'.K.p.",
"tXrX1X:XtXpXtX7X5X2X4X7X6XtX7X7XiXsXpXsX3X].&X2X1X#X1X1X[.e /.2X=X1X5X5X#X4X7X4XiXtX@X2X5X5XiXlXhXqXqX7X7XtXsX.X_.[.1X2X7XtX1X}.",
"3X>X%X4XpXiXtX7XtX7X7XiXpXtXiXsXsXsXsXsXsX%X|.=X*X=X1X%X.XH }.*X+X2X5X5X2X4X7X7XtX3X:X1X*X9XdXaXtXyXtXpXtX1XP.D.'.1X6X2X1X>X%X`.",
"3X3X7X7XtX7XtXtXyXpXpXpX2X2X7XpXtXtX3X,XrXtX].+X=X2X*X1X:X] *X1X2X9X9X2X2X2X1X4X:X:X@X}.*XaXpX1X>X>X3X3X[.&.W s.OX1X1X3X%X:X1X3X",
"%X*X7X7XtX7X7XtXtXtXiX9X5X7X5X2X5X2X<X:X7XyX<X}.2X2X7X9X1X$.=X7X9X5X9XpX5X1X7X6X3X3X%X3X:X#X:X1X3X3X.X2.Q +.p.oX%X*X5X7X5X1X>X%X",
"*X4XyXtXrX7XtXtXiXtX7X2X7XpXpX9X9XtXtXiXsXsXtX[.&X2X2X2X=X$.1XpX9X1X5X5X9X7X%X.X`.F.}.%X@XoX~./._.i.! ! $.D.}.%X1X2X9X7X5X1X:XOX",
"9X7XtX3X1XtXtXtXpXtX2X2X7XiX5X7XiXsXpXsXdXsXrX:X].&X=X*X%X$.3XhX9XiXqXiX%Xw.+.E I ! 2.+.n l p s p c 2.~.'.OX$X%X1X5X7X7X2X1X:X@X",
"3X7XrX3X7X7X4X2X3X7X5X9X9XiX5X7XiXiXiX5X5X3XrX3XP.+X1X7X7X_ %X%X+X#X[.'.q.q.q.$.E ! +.} I E _ _ +.q.D.'.%X1X6XtX2X5X5X%X<X1XtX1X",
"2XsXtXpXsXpX7XiXsXsXhXhXdXsXsXdXsXlXlXhXdXtX<X+.k 9.q.9.c + 9.i.p.w.J.p.`.oXw.W +.$.q.s.w.2.2.2.q.s.K.~././.~.~.P.K.~.F.~.F._.'.",
"_ _ H _ p.p.e.J.K.S.L.I.P././.P.J.p.e.9.2.$.P < : @ @ < 0 t x 6 e d x x x x e e > > 7 k k k c n R b c l 7 > * , , , 6 v W l 7 w ",
"C l 7 , 2 * % @ % > 3 e H P H H P P x x P P ' 3.4.5.w.D.K.K.7.L L ( H t e e t H r c [ [ { { O.O.m.k.{ A k.{ Z { A Z A x.C.C.l.A ",
"Z.j.k.0.] P ~ r t x J  .t.r.8.8.8.<.5.5.<.<. .$.$.7.q.2._ $. .]  .3.:.' ;.` ` / F [ *.B.N.k.l.x.B.z.N.S.V.V.C.c.b.b.c.n.Y.Y.b.c.",
"O.o.B.Q.^ L G q w J _ $.q.u.8.$.2.i.i.8.1._ E E _ 1.7.$._ _ _ _ ] ' r.y.4.r.' L y @.B.A.A.f.g.d.k.x.A.U.N.k.N.C.C.b.n.b.V.N.k.k.",
"=.p.i.3.L D D q 1 Y ) _ +.2.<.7.s.8.$.$. ._ _ | +.$.&.2.2.$.$.$._ Y Y ' y.:.L H t [ B.A.x.l.g.g.g.l.N.N.k.B A N.x.k.A C Z { O.f.",
"5.5.3.^ G D G F < ` 1._ $.1.7.q.8.) ! 2.1. ._ $.+.W _ 2.u.7.%._ ) ) H H :.:.) ' F A x.V.M.N.x.n.M.N.B.O.X.B l.l.A M M C { C { *.",
"] ;.3.:.-.L t 9 O r H w 2 e k H t 6 k x e e d x k k E J J J v x I E E U x ` ( Y H V l.B.X.C A X.{ *.O.*.A g.k.V j M j b l a i b ",
"0 H t 1 F q r F / / ~ F D F r < 1 0 0 0 0 0 0 r 0 0 9 < 9 9 9 < @ < H P L H H P Y R B...[ o.[ [ Z m @.@.$.6.! P ( ( ( ' ^ ~ P 3.",
"<.' 0 D / y.W.W.!.(.Q.y.F.Q.a.4.s.s.F.Q.(.Q.Q.F.a.s.Q.F.Q.!.!.>.~ ^ pXzXlXsXlXlXzXzXdXwXaXaX9XpXqX9XwXaXdXhXhXkXjXkXzXhXzXkXkXhX",
"^.^.' ;.y.y.a.a.i.i.s.t.t.w.i.i.F.D.F.^.F.Q.D.D.i.a.s.D.s.a.t.4.;.) 2X2X1XdXkXhXdXgXaXjXjXjXjXjXjXjXkXjXjXwXpXpXaXaX9X9XwXfXqXqX",
".X@X:.t.!.a.~.(.t.D.P.~.F.i.s.s.F.`.s.^.^.(.Q.^.Q.t.3.8.s.t./ ^ F x *X'.@X7X5X7X7X2X8XqX9X8X8XwX9X8XwX9X2X1X*X*X*X#X*X*X=X5X2X&X",
"@X'.] r.a.4.t.a.a.u.i.D.t.3.u.Q.D.s.F.Q.^.F.D.8.i.s.a.a.a.y.>.:.t x *X1X*X%X@X%X#X5X5X2X5X2X2X5X=X5X2X1X1X1X*X*X#X1X1X#X*X%X].).",
"@XoXH L ' >.r.<.4.t.4.t.a.u.F.i.u.u.8.i.t.s.3.^ ' a.s.a.4.:.L ^ 1 H ].P.=.@.9.9.9.J.[.1XtXiX7X1X*X%X[.<X2X:X<X3X2X1X1X3X1XK.q.q.",
"$X(.r ~ / :.' F H L L ` ]  .i.i.4.) Y ^ ` ] Y ( ] ] ' ] ^ L F F : x =.n l l z W R R Q 9.K./.J.}.3X}.e.P.oX%X3X%X2X1X@X.Xi.1. .) ",
"OXP.< . r y w 1 4 1 e f 4 , e 6 6 4 t f w 6 w 6 t y e f L ^ / ~ > % W l p l n [ Q Q Q Q n T n W +.J c 8 x c E n ! $.$._ E 6 6 3 ",
"Q.3.~ G 0 < > 1 t t 0 1 , 1 0 0 r r 1 1 , 6 6 , 6 , % 2 6 3 6 t q q y y r t k e , > , * % * * % + O O @ @ O O @ + @ , , 1 1 r F ",
":X7XyXyX;Xy.3.t.!.!.Q.a.1.4. ._ 1.` 2 p p l p p l s s s 7 2 p m A.U.].L.0.! _ } [ W J > H T v k x J ( _ ` E H H E _ ]  .$.1.D.~.",
"8X9XiXyXtX6X,X%X@X$X'._.F.F.i.s.i.8.[ [ [ [ b b V { { o.O.*.V.Y.T.H.T.R.Y.m.0.6.*.O.[ e 7.&._ ` :.4.F.(.^.K.w.9.D.D.J.p.s.D.K./.",
"6X3X3XtXrXyXtXtX3X>X$X%X$X$X:X;X(.t.o.O.o.{ o.X.S v.C.b.G.Y.Y.G.Y.Y.G.T.G.C.G.C.m.X.A k u.s.F.(.@XoX}.%X:X%XoX'.'.[.}.oXoX'./.}.",
"7X6X2X7XyXyXrXrX,X@X;X>X3X>X3X6X,Xa.[ k.z.b.n.C.n.n.H.T.Y.Y.Y.R.T.Y.Y.R.R.Y.Z.c.g.S A c `./.].*X3X#XU.U.%X6X3X$X#X%X%X%X3X6X>X%X"
};
