/* XPM */
static char *_0ad7c5928f5459da028b40011be1b3cMFhpZ5HTMGPi3EtM[] = {
/* columns rows colors chars-per-pixel */
"64 64 256 2 ",
"   c #2B1C16",
".  c #312417",
"X  c #372924",
"o  c #383230",
"O  c #1D1210",
"+  c #593717",
"@  c #533211",
"#  c #653C1A",
"$  c #6F3B0B",
"%  c #453A36",
"&  c #4C392B",
"*  c #633920",
"=  c #67441B",
"-  c #784816",
";  c #564639",
":  c #4B4338",
">  c #6A4824",
",  c #784E23",
"<  c #7C552A",
"1  c #785B38",
"2  c #6A542E",
"3  c #3C3E42",
"4  c #443F44",
"5  c #3C484A",
"6  c #484849",
"7  c #544A46",
"8  c #585346",
"9  c #4B4E54",
"0  c #4B5458",
"q  c #535255",
"w  c #555559",
"e  c #5B5A5C",
"r  c #585858",
"t  c #50504E",
"y  c #655B57",
"u  c #6F5A4B",
"i  c #56615C",
"p  c #7A6549",
"a  c #69645C",
"s  c #786758",
"d  c #7A715A",
"f  c #575C64",
"g  c #4E5963",
"h  c #5C6C6C",
"j  c #5A6567",
"k  c #5C6C73",
"l  c #596C77",
"z  c #5D7273",
"x  c #5C7578",
"c  c #556E6C",
"v  c #63656B",
"b  c #686868",
"n  c #756A66",
"m  c #69756B",
"M  c #76776A",
"N  c #636D74",
"B  c #6A6C75",
"V  c #647374",
"C  c #6B7375",
"Z  c #63747B",
"A  c #6B747B",
"S  c #667B7B",
"D  c #6C7B7C",
"F  c #687A75",
"G  c #727474",
"H  c #737B75",
"J  c #73757A",
"K  c #737B7C",
"L  c #7B7C7C",
"P  c #7B7974",
"I  c #736E73",
"U  c #685D65",
"Y  c #8B5518",
"T  c #9C6214",
"R  c #A96A1A",
"E  c #875B28",
"W  c #855C34",
"Q  c #8E562C",
"!  c #98672A",
"~  c #8B6436",
"^  c #966939",
"/  c #986C31",
"(  c #A9742B",
")  c #B8782A",
"_  c #A46C34",
"`  c #A97738",
"'  c #B77D37",
"]  c #A56D29",
"[  c #C17F32",
"{  c #876848",
"}  c #926D48",
"|  c #9A7547",
" . c #846D55",
".. c #8A7358",
"X. c #967858",
"o. c #8C714E",
"O. c #A67A45",
"+. c #B57D44",
"@. c #A87C55",
"#. c #887769",
"$. c #967C66",
"%. c #857A74",
"&. c #937C77",
"*. c #816F62",
"=. c #69827B",
"-. c #7B837D",
";. c #77837A",
":. c #BC833B",
">. c #BA8438",
",. c #B68233",
"<. c #C4842E",
"1. c #C38434",
"2. c #C58A3D",
"3. c #CB8C3C",
"4. c #C78738",
"5. c #D7953C",
"6. c #CF8F39",
"7. c #AD834B",
"8. c #AC8246",
"9. c #B58344",
"0. c #BB8544",
"q. c #BC8A45",
"w. c #BC8B4C",
"e. c #B6874B",
"r. c #AA8556",
"t. c #B58B53",
"y. c #BC8C53",
"u. c #B68956",
"i. c #BD9254",
"p. c #BD935B",
"a. c #B9935D",
"s. c #BE914E",
"d. c #9B8269",
"f. c #86847B",
"g. c #978477",
"h. c #928773",
"j. c #B99466",
"k. c #BB9A77",
"l. c #AC8B6B",
"z. c #BFA17B",
"x. c #C48C43",
"c. c #C28B4B",
"v. c #C98C47",
"b. c #CC9344",
"n. c #CC934B",
"m. c #C79248",
"M. c #D49A4C",
"N. c #D79847",
"B. c #C28D53",
"V. c #C58E58",
"C. c #C39354",
"Z. c #CA9452",
"A. c #C3945B",
"S. c #C9985A",
"D. c #D49B58",
"F. c #D9A459",
"G. c #D6A157",
"H. c #E4A24B",
"J. c #E3A65A",
"K. c #C79966",
"L. c #D39C67",
"P. c #C69C76",
"I. c #D6A365",
"U. c #CCA475",
"Y. c #D4A476",
"T. c #CDA168",
"R. c #E4A965",
"E. c #E19E49",
"W. c #647B83",
"Q. c #6B7B83",
"!. c #6C7D8B",
"~. c #667683",
"^. c #737C83",
"/. c #7B7E84",
"(. c #727C89",
"). c #646D80",
"_. c #5F7582",
"`. c #8A7E84",
"'. c #6C8484",
"]. c #6D828C",
"[. c #678488",
"{. c #748283",
"}. c #7C8484",
"|. c #7D8985",
" X c #74838C",
".X c #7B858B",
"XX c #7D8A8C",
"oX c #74898A",
"OX c #6B8392",
"+X c #6B8896",
"@X c #738593",
"#X c #748A94",
"$X c #7B8B93",
"%X c #748B9B",
"&X c #7B8D9B",
"*X c #788694",
"=X c #7C9194",
"-X c #7C929D",
";X c #769499",
":X c #77918D",
">X c #7C93A2",
",X c #7B96A5",
"<X c #7B8EA1",
"1X c #72A1AB",
"2X c #838485",
"3X c #83858B",
"4X c #848B8C",
"5X c #898986",
"6X c #978987",
"7X c #88918B",
"8X c #959289",
"9X c #838C94",
"0X c #8B8D93",
"qX c #818D9A",
"wX c #8B8F98",
"eX c #849294",
"rX c #8A9295",
"tX c #83939B",
"yX c #8A959C",
"uX c #899A9C",
"iX c #939698",
"pX c #948E95",
"aX c #A28E85",
"sX c #A4938C",
"dX c #A8968A",
"fX c #AA9A91",
"gX c #B39F8A",
"hX c #B4A593",
"jX c #8394A3",
"kX c #8B9AA3",
"lX c #839AAA",
"zX c #879AA7",
"xX c #949CA6",
"cX c #889FB1",
"vX c #89A5AB",
"bX c #96A5AB",
"nX c #8BA6B2",
"mX c #97B5BA",
"MX c #92A7B3",
"NX c #B8B8A9",
"BX c #A8B6B9",
"VX c #A8AEB1",
"CX c #9AA297",
"ZX c #C7A885",
"AX c #CFB191",
"SX c #CCBDAA",
"DX c #E1BEA8",
"FX c #D3C5B2",
"GX c #E5C5AC",
"HX c #95BCC5",
"JX c #A7BBC6",
"KX c #9AC1CA",
"LX c #A5C2C9",
"PX c #BAC5C7",
"IX c #B1CAD3",
"UX c #BFC5BB",
/* pixels */
"H ;.H -.;.H H |.-.4X4X}.4X|.4X7X|.7X4X}.|.|.XXeXXXoXeX$X.XrXqX$XrXeXeXeXrXeX7XrX4X7X0X4X0X4X3X0X4X2X4X4X2X4X4X}.|.-.-.;.{.}.K {.",
"}.K 2X-.2X-.5XL 4X4X}.4X}.4X}.4X4X|.}.7X4X}.0X4XXXrX.X4XrX.X9X0X.X4X0X4XXX0XrX4X4X4X4X3X}.3X4X/.2X2X2X}.}.L L L }.}.;.4XK C K A ",
"9 6 9 2XL 2Xq 6 q 6 q q 9 9 w w 0 0 w w e f q e f r w q w e e w e r e e w w w e w w w w w q q w 6 w q q q t t 6 w 8X7XG 6 q 6 9 ",
"w f v 2X2X5Xf v v J A v /.A B .XD A 9XA ^.0XB /.3XJ 3X2XJ 4X0X/.3X3X/.wX3X^.9X.X/.rX/.}.rXK K 0X/.2X2XJ 2X3XJ G v 4X2X}.K /.N /.",
"N V {..XrXXXN D  XQ.Q.*XQ. X*X X@X&X!.&X#X!.jX@X].-X].@XtX X.XtX(.&X&X!.jXjX!.&X-XW.-X#XQ.=XoX X$X XQ.qX(.~.qXZ k 9XtX X XZ *XQ.",
"W.c Z oX.X.Xk S Z  X!.Q.@X@X!.#X].!.&XOXOX%XOX+X;X[.+X>XOX#XjX!.%X&XOX>X%XOXlXOXOXlXOX].-X@X].&X].@X&X!.@X&X).!.Z =X#X*X XW.!.!.",
"k Z  X$X$X$XA Q.x &X#X~.jX%X].jX@X#XzX@X&XzX!.&XlXOX>X>XOX,X,XOXlX>X%XlX<X%XlX<X%XnX%X&XkX$X$XkX].&XjXOX#X>X!. XZ tX$X#XoX X~.@X",
"Z Q.Q..X9XXXN ^.*XQ.#X>X!.&XjX!.>X-X].-X-X@XjX&X+XlX%X%X,X%X%XlX#X&XzX%X>XlXOX<XlX@XzXjX@XjXjX*XjX&X!.&X#X!.&XQ.Z tXtX$X$XQ.&X!.",
"Q.A ^.9X9X9XA ^.Q.&X@X!.qX*X!.zXOX%X>XOX+XnX!.-XlXOX,X>XOX,X,X!.kXkX@XvX&X!.nX%X%XnX%X&XMX@X&XMX@X#XjX!.#XtX~. XQ.9X9X$X9X.X(.(.",
"k Q.XX.X.XrX^././.yX(.*XxXqX&XjX%X,XvX;X%XlX#XlXvX&X-X-X&XkXbXyXxXyXyXkXjXjXjXzXjXvXjXjXjX>XjXnX&XjXjX*X&XtX*X*XZ kXkX$X*XtX~.*X",
"Q.S {.eX4X4XV ^.9XQ.tXtX!.$XjX].lX,X+XlXlX&XcX*X$XbXrX3X3Xb U I b J 5X/.yXbX9XqXtX&XjXzX%XlXlX%X,X,X%X<X%X@X-X#X~.=XtX=X&X@X&XOX",
"S F ^.4X4X4XC K ^.yX X!.jX X].xXOX*XzX(.qXbXXXiX}.v 6 o X   X   X   O X 6 y rXrXrXxX X&XMX#X#XnX%X%XcXOX%XcXW.$XQ.tXtXtX&X$XW.@X",
"V D }.4X3X0XK /./.9X.X$XqX$XtXtXtXrXyXyXiXpXy % . & & ; u u 2 p u u u : & .   % a 5XiXuXeX=XtX-X-X>X-XzXtX$XtX$XZ tXuXeX$X=X].*X",
"K D /.4X5X5XG 2X3X}.9X$X.XqX9X.X4XiX7XL 7 X & & u s ........{ {  . . ... .p u : X X t 2XiXuXeXkXjX#X-XjX$X$X9X$XQ.eXuXtX9X XtX!.",
"A A L 3X5X0XJ 2X2XwX^.9XxX.X.XxXpX%.%   ; a *.&.h.d .. .1 { X.o.o.{ { o.o.X.$.$.s u % X 6 /.iXbX@X>XMX@XqXbXQ..XXXkXkXtXqXtX~.@X",
"C J 2X0X5X5XG 2X3X3X9X9X9X0X0XpX7   ; s #.#.*.#.p  ...l.k.ZXZXk.P.ZXP.j.@.} { ..$.#.#.a % X I xXxXxXqXkXjX&XcX&X~.rXkXtX9X&X<X*X",
"D K L 5X8X5XG 2X3X/.9X}.4X8X%.X o n #.#.#. .*...l.U.ZXj.^ , # @ $ E ^ @.Y.ZXU.X. .d #.#.*.y o : pXxXrXtXyXtX#X-X!.kXyXuX9X$X#X%X",
"A C L 6X5X5XP L L iX}.;.8Xa & ; M P #.#.d ..k.AXj.~ $ $ Y ! ^ W Q ! Y $ $ E r.ZXZXX. .#.#.#.n : o 2XVXoXrXbX#X-X$XyXuXrXyXkXOXOX",
"N K 2X5X5Xf.I /.2X/.4XiXr X a %.%.f.....gXDXj., - Y ` q.c.S.A.O.,.F.M.2.' _ - - O.AXZX$.p h.M %.q o }.bXrX$XzX&X!.kXyXuX9X$X%X;X",
"Q.J L 5Xf.5XL /.2XJ 2Xy X a 5XM f.n d.AXZXE Y ` x.n.G.M.M.I.T.7.q.F.J.F.F.R.Z.+.Y - l.GXl. .h.M %.q o 4XrXxX$X&X].tXxXiXwXtXOX+X",
"A C L 5Xf.f.L 3X/.pXn X a f.P f.%.g.DXl.$ / D.M.N.N.N.M.M.F.S.t.9.F.F.H.J.J.D.L.K.@., W AXZXp #.f.P r 5 iXxXkXtXoXtXiXiXyXxXOXOX",
"N J L 5X5X-.C 3X3X`.% : P ;.f.n 6XGXX.- / c.3.6.5.6.N.N.N.n.w.e.y.S.D.J.J.D.R.S.L.Y.@., < ZXZXd P M L t q 0XxXtX'.uXyXuX9XrX&X-X",
"K N L 5Xf.5X}.L 5X7 % f.M ;.M 8XGXX., 0.m.b.H.H.5.5.H.N.N.F.S.y.C.R.J.J.J.R.I.Y.Y.Y.U.j.~ < AXgXd ;.;.a o I 9X9X XeXvXuXyXxX].@X",
"N G 2X5X2X2XL 5Xb o y P -.M f.FXl., 9.D.b.N.H.N.5.N.N.N.M.J.S.y.y.I.J.J.F.R.G.I.U.U.U.T.T.~ W DXg.M m f.e 3 0XrX/.rXuXuXyXyX X X",
"H m L 2X2X2XI 5X7 % f.H ;.M NXAX1 | B.D.x.v.v.v.v.M.D.D.v.v.B.y.B.F.b.N.M.J.F.G.A.K.T.K.L.j.W l.SX#.M m C 6 b pXJ 4XbX=XoX$X$XxX",
"b G H 2X2XP %.%.o a ;.;.H 8XSXo.| K.w.Z.Z.c.D.n.n.D.D.n.v.c.C.8.0.F.M.N.N.F.G.G.D.I.I.Z.L.L.u.W AXhXm m H 6 6 pX/.4X=XuX=XrXyXXX",
"P G K }.4XL %.n : H =.=.m NXhX~ j.A.S.c.B.L.I.L.Z.Z.Z.c.M.D.S.` ' D.H.N.N.H.M.M.I.R.I.D.D.L.Y.@.d.FXM m F h o 2XP rXuXeX=XkXrX6 ",
"n P K }.5XP %.y r ;.'.=.-.FX..} j.a.A.A.V.y.A.e.C.Z.Z.Z.x.x.q.>.>.b.N.N.H.E.b.M.D.D.D.D.L.I.L.j.{ SXh.m F F 6 b }.;.uX=X=XuXC q ",
"% f.H -.2XM &.7 i oX[.D iXSXo.r.j.U.K.K.K.u.A.y.S.S.m.n.x.x.w.9.2.b.N.N.E.N.b.M.D.D.Z.S.L.Y.K.P.{ gXhXm z S 6 q 4XoXyXbX=XkX9 J ",
"X I H ;.f.P %.6 h [.[.F hXAXX.k.P.ZXY.K.K.K.L.I.S.m.x.x.M.D.K.9.:.M.M.N.N.H.M.M.F.I.D.L.L.L.Y.U.} l.NXH z =.q q H 4XyXyXoXoX3 e ",
"% r H H f.P a 6 '.[.#XD NXgXX.j.j.k.P.Y.K.A.S.c.:.x.b.2.v.n.V.O.' D.M.b.b.F.M.b.M.n.Z.D.T.A.T.j.o.d.NXF =.oXi r K |.yXrXeXN w j ",
"% r -.H -.P n t $X;X:X;.NXgXX.j.r.j.u.A.y.e.9.:.4.6.3.4.>.x.e.` ` Z.x.2.3.M.M.b.x.M.S.Z.S.S.p.j.X.d.NX;.=.=.j w }.}.yXyX9XN V C ",
"% 6 }.{.}.G b 9 ^.;X;X:XSXgX} K.K.u.A.w.c.n.D.v.3.<.6.4.<.3.2.( ( x.b.3.N.5.3.b.M.M.D.S.S.K.P.ZXl.g.NX=.=.'.0 0 K D $X$XuXV j 9X",
": e N N F h I q N =X:X=.NXhXr.j.p.e.V.B.Z.n.v.' 1.4.5.5.6.3.:.( ( x.b.6.5.5.3.b.M.n.S.S.A.L.P.ZXX.dXNX=.[.'.5 j /.N $X X'.z k $X",
"3 C k W.S j L w j $X:X:XiXFXX.X.r.e.y.B.0.c.c.' ' 1.6.4.<.1.' _ _ c.v.4.3.b.x.x.b.m.B.A.y.K.j.k...hXCXV '.'.0 D .Xk $X#XQ.Q.5 9X",
"0 D l W.'.j v I q XXoXD 7XFXd.X.a.K.V.V.+.+.c.x.4.1.4.<.4.v.0.` ` c.b.b.3.b.x.:.m.Z.V.K.A.K.P.l.o.SX8XF '.z 0 .XA ~.&X=XQ.tX0 ^.",
"B D l W.S j b y % G C }.P hXAX| r.u.w.Z.x.m.n.2.4.4.3.4.b.M.:.` ' v.b.3.3.N.b.x.n.Z.S.K.A.p.P.l.l.AXn j h 0 o J J N #XoXV yX0 g ",
"j g l W.x j w 6 L 2XXX}.pXhXp ~ @.e.9.q.>.>.>.) >.1.4.4.4.v.>.] ( 2.4.1.4.N.v.b.x.c.B.y.y.7.a.@.2 ..8XJ K ^.B f j Z oX].S N f B ",
"g g nXHXIXMX9 C K ^.oXA 2Xy 1 r.u.e.:.' ) >.,.>.>.' 4.4.:.w.' / ] x.1.1.<.3.>.:.:.c.B.B.C.u.K.k.X.; L Z Q.Q. XN g JXIXIXmXc ~.l ",
"x x mXKXLXmX X XXX{.oXS B 8 X.U.K.c.:.) 1.3.>.) >.' 4.3.x.B.+.! ! q.x.2.2.b.:.x.0.c.B.B.B.y.K.P.k.p m Q.].].Q.^. XMXHXHXvX'.W.~.",
"V S l -XvXk ~.9XXXXXXXoXG u } O.0.' 1.4.4.4.) ) ' ' <.3.:._ | ~ ^ ^ +.0.' Z.S.c.c.w.+.B.c.e.u.K.j.p n /.^.K K ^.D c nXvXx {.^.^.",
"V F x MXmXZ Q.9X.XXXoX{.C ; ~ +.' [ [ 4.' ) 1.) 4.4.<.4.( E W W W E / 9.c.e.y.w.w.e.+.0.0.9.e.a.j.p n /././.{.}.}.S HXmX=.{.^.^.",
"V V x mXJX_.!.&X#X;X#X'.H 8 ~ +.) 1.) ) ) ) 1.2.3.1.,.1.:._ ^ } ^ @._ ` A.B.y.9.e.B.B.y.w.w.A.K.j.p b !.Q.Q.S Q..XQ.HXHXS '.W.~.",
"V Z x mXJX~.!.&X X].oX'.N 8 } _ ] ) 1.1.' ' x.2.:.>.>.:.' / ~ ~ ~ ~ E ` y.y.i.e.w.C.A.B.c.e.C.u.u.1 b !.].'.'.'. XQ.LXKX=.'.W.W.",
"N V F BXLXZ !. X.XoXoX{.m 8 } ` +.B.' ' 2.' q.0.0.q.c.c.w.+.O.^ ~ E / C.s.s.S.C.w.y.A.C.B.w.j.a.e.1 b ^.^.^.D {.}.D LXLX=.;.S ~.",
"N V V BXBXV Q./.K -.;.K C 8 { u.K.y.+.0.0.c.A.e.C.B.B.B.B.p.7.~ | r.A.S.C.i.y.i.i.i.A.K.A.A.P.K.y.1 a ^.A D F D K C JXLXF =.A Z ",
"N V x BXBXz Q.{.K L -.;.C 8 o.K.j.r.e.y.S.T.u.7.w.w.C.C.y.y.7.^ ^ j.j.A.S.i.p.K.K.p.K.K.A.p.j.j.p.W a Q.Q.Q.S D H C JXIXF H Z Z ",
"N N V LXPXV A ^.K H ;.{.h 7 o.r.a.r.u.A.i.i.p.7.y.e.C.A.A.A.7.~ ~ u.t.y.p.y.T.u.t.t.u.K.p.p.K.K.V.W y ~.Q.Q.Z Z J A JXIXV F k l ",
"h h N PXBXh k W.F F F {.h 7 { r.r.j.t.t.7.8.t.e.C.S.e.y.y.t.r.~ ~ t.t.p.A.y.A.y.w.i.S.K.A.i.p.p.V.W e Z Z Z x Z Z N BXPXV V l l ",
"k h k PXBXh x S S D D D j 8 } O.7.a.a.t.e.7.O.A.S.C.C.s.C.K.r.W ~ p.t.p.A.e.i.w.c.C.S.S.S.A.K.A.y.< r Z S S Z x Z N BXPXV Z l l ",
"c h V PXBXj V Q.D '.Q.^.v 8 } ` 7.t.p.i.e.e.e.C.w.9.s.C.S.p.r.~ ^ 7.u.A.i.A.A.C.c.B.S.B.y.y.K.K.e.2 q x Z V x x V h BXPXV z c c ",
"j h V PXVXj V D F F S Q.v : W _ t.t.7.i.9.9.i.9.w.w.q.Z.i.O.O.~ E u.7.p.A.y.y.B.w.w.V.y.w.e.K.p.7.2 0 x A V V V V h BXPXm h c c ",
"b v m PXVXv C G H C A Q.v % W ` y.e._ 8.w.9.9.' w.Z.q.q.9.O.O.E E O.A.K.e.e.e.w.9.9.w.y.y.y.i.e.8.2 w ).A C C m C j BXPXm h h h ",
"b v C PXVXv I G H D W.Z v ; ^ +.e._ _ q.c.w.` ` ' 0.c.c.0.w.O.E E t.t.i.i.8.y.C.9.9.9.w.y.t.t.8.O.> q ).A B B m C f BXPXV h h h ",
"j v S PXVXj G G V S W.l j : ~ _ ` / ` w.9.9.' ` w.0.c.Z.Z.w.O.E ~ O.7.7.7.8.A.y.9.9.9.i.e.8.7.8.O.> 9 ).Z N V V A f BXIXz h h h ",
"N h Z IXBXv G C A D W.x j % < ! ] ` ( ( ] ] ' ' n.x.' ' q.0.+.Y E ` 8.9.w.,.S.q.` 9.q.Z.' ` _ ` / + 9 Z Z V V V A f JXIXV h k k ",
"h k x IXBXf G J C Z Q.k j & < Y Y R R R R T ) 1.1.) ) ) 1.>.] Y T 0.>.:.,.>.>.' ( ' x.q.( ! ` ' _ # 8 k z z h V B j VXIXS j c k ",
"g z nXLXBXXXv J B V Z N v & # $ T T R ) ( T T ( T R ) 4.2.' ! Y Y ` ` q.>.` ' ( ( ( ` ] ! ! 9.y._ * 7 k z z h V v 9XJXIXvXx k j ",
"h Z MXmXJXrXv K K V D F j o * = E E Y Y E ! ! ! ! ! ! / _ _ ~ , , ^ ~ | ^ E E E ! ! ^ E E E ~ W < & 6 l Z Z N A k ,XHX1XHX[.).B ",
"9 j vXmXPXJ e b w j i t t   . @ @ @ + = = = = = = , , = = > > # + # @ # + + = > # # > = > > = @ + . 5 g g g g f 0 ].KX1XnXc 9 w ",
"y n rXrXCXP a b a a b b n a d p p  ...$.d.$.$.$.$.X.$.d.$.$.$.$.$.l.$.d.d.$.X.$.d.$.$.$.$.$.$...p u a m m m H G b K BXbXbX-.m G ",
"u s a e y s n n y n s s %.f.g.g.#.#.#.#.$.g.aXaXaXg.$.$.g.g.g.g.g.h.g.g.h.g.g.d.$.#.#.&.h.g.g.g.$.*.n M M P L P %.%.5XP f.P M G ",
"p *.M M d *.&.%.%.%.$.#.*.%.6X6X6Xg.g.g.g.g.g.sXdXfXgXdXaXaXsXsXaXdXfXfXfXfXfXdXdXdXaXsXaXaX6XsXsX6X6X6X6X6X5X`.6X6X6X6Xg.%.%.%.",
"{  .h.#.h.h.&.#.g.g.h.g.&.&.6X6X6X6XsXaXsXsXsXfXsXaXdXdXdXsXsXsXsXsXfXfXsXsXfXsXsXfXsXdXaXsXsXsXsXsXaXaX6X6X6X6X&.&.`.6X%.#.*.#."
};
