/* XPM */
static char *e4fbe7189bb74d4e9898b42fdbb20289tEQvkuxhpZtILKCG[] = {
/* columns rows colors chars-per-pixel */
"64 64 38 1 ",
"  c #6A6A6A",
". c #6C6C6C",
"X c gray45",
"o c #767676",
"O c gray47",
"+ c #7C7C7C",
"@ c #818282",
"# c #868686",
"$ c gray54",
"% c gray55",
"& c #929292",
"* c #979797",
"= c #989898",
"- c gray62",
"; c #A0A0A0",
": c gray65",
"> c gray66",
", c #ACACAC",
"< c #B1B1B1",
"1 c #B7B7B7",
"2 c #B9B9B9",
"3 c gray",
"4 c #C0C0C0",
"5 c gray77",
"6 c #CACACA",
"7 c #CBCBCB",
"8 c #D1D0D0",
"9 c gray84",
"0 c gray85",
"q c #DCDCDB",
"w c #DDDDDD",
"e c #E1E1E1",
"r c #E6E6E6",
"t c gray91",
"y c #ECECEB",
"u c #EEEEEE",
"i c #F8F8F8",
"p c white",
/* pixels */
"oooooooooooooooooooooooooooooooooooooooooooooooooooooooooooooooo",
"oX  ........................................................  Xo",
"o @oOOoooooooooooooooooooooooooooooooooooooooooooooooooooooOo+ o",
"o o##########################################################O.o",
"o.O##########################################################+.o",
"o.O###+OOOOOOOOOOOOOOOOOOOOOOOOOOOOOOOOOOOOOOOOOOOOOOOOOO+@##O.o",
"o.o##+&#$$#############################################$#$+##o.o",
"o.o##O#*=================================================$+##o.o",
"o.o##O$==================================================%O##o.o",
"o.o##O$==*%$$$$$$$$$$$$$$$$$$$$$$$$$$$$$$$$$$$$$$$$$%%*==$O##o.o",
"o.o##O#==%-*===*********=*************************==*=%==#O##o.o",
"o.o##O#==$*>>>>>>>>>>>>>>>>>>>>>>>>>>>>>>>>>>>>>>>>>>=%==#O##o.o",
"o.o##O#==$=>>>>>>>>>>>>>>>>>>>>>>>>>>>>>>>>>>>>>>>>>>;%==#O##o.o",
"o.o##O#==$=>>:-=----------------------------------:>>-$==#O##o.o",
"o.o##O#==$=>>->:>>>>>>>>>>>>>>>>>>>>>>>>>>>>>>>>::->>*$==#O##o.o",
"o.o##O#==$*>>=:2222222222222222222222222222222222,->>*$==#O##o.o",
"o.o##O#==$*>>->2222222222222222222222222222222222<->>*$==#O##o.o",
"o.o##O#==$*>>->221,,,,,,,,,,,,,,,,,,,,,,,,,,,,122,->>*$==#O##o.o",
"o.o##O#==$*>>->22,2233222232222322222322223321,22>->>*$==#O##o.o",
"o.o##O#==$*>>->22,2666666666666666666666666664,22>->>*$==#O##o.o",
"o.o##O#==$*>>->22,3666666666666666666666666664<22>->>*$==#O##o.o",
"o.o##O#==$*>>->22,3666434444444444444444446663,22>->>*$==#O##o.o",
"o.o##O#==$*>>->22,2664800000009999999999084662,22>->>*$==#O##o.o",
"o.o##O#==$*>>->22,26630wwwwwwwwwwwwwwwwww04662,22>->>=$==#O##o.o",
"o.o##O#==$*>>->22,26639wwwwwwwwwwwwwwwwww04663,22>->>*$==#O##o.o",
"o.o##O#==$*>>->22,26649wwwwwwwwwwwwwwewww94663,22>->>*$==#O##o.o",
"o.o##O#==$*>>->22,26649wweutrrtttttttueww94662,22>->>*$==#O##o.o",
"o.o##O#==$*>>->22,26649wwwuuuuuuuuuuutwww94662,22>->>*$==#O##o.o",
"o.o##O#==$*>>->22,26649wwqtuuuuuuuuuutwww94662,22>->>*$==#O##o.o",
"o.o##O#==$*>>->22,36649wwwtuuuuuuuuuutwww94662,22>->>*$==#O##o.o",
"o.o##O#==$*>>->22,26649wwwtuuuiiiiuuutwww94662,22>->>*$==#O##o.o",
"o.o##O#==$*>>->22,26649wwwtuuuippiuuutwww94662,22>->>*$==#O##o.o",
"o.o##O#==$*>>->22,36649wwwtuuuippiuuutwww94662,22>->>*$==#O##o.o",
"o.o##O#==$*>>->22,26649wwwtuuuiiiiuuutwww94662,22>->>*$==#O##o.o",
"o.o##O#==$*>>->22,36649wwwtuuuuuuuuuutwww94662,22>->>*$==#O##o.o",
"o.o##O#==$*>>->22,26649wwwtuuuuuuuuuutwww94662,22>->>*$==#O##o.o",
"o.o##O#==$*>>->22,26649wwwyuuuuuuuuuutwww94662,22>->>*$==#O##o.o",
"o.o##O#==$*>>->22,26649wweuutttttttttueww94663,22>->>*$==#O##o.o",
"o.o##O#==$*>>->22,26649wwwewwwwwwwwwwewww94662,22>->>*$==#O##o.o",
"o.o##O#==$*>>->22,26649wwwwwwwwwwwwwwwwww04663,22>->>*$==#O##o.o",
"o.o##O#==$*>>->22,26640wwwwwwwwwwwwwwwwww04662,22>->>*$==#O##o.o",
"o.o##O#==$*>>->22,2664800999999999999990084663,22>->>*$==#O##o.o",
"o.o##O#==$*>>->22,2666444444444444444444446663,22>->>*$==#O##o.o",
"o.o##O#==$*>>->22,3666666666666666666666666665<22>->>*$==#O##o.o",
"o.o##O#==$*>>->22,2666666666666666666666666665<22>->>*$==#O##o.o",
"o.o##O#==$*>>->22,1443332222222222223322223541,22>->>*$==#O##o.o",
"o.o##O#==$*>>->221,,,,,,,,,,,,,,,,,,,,,,,,,<<,122,->>*$==#O##o.o",
"o.o##O#==$*>>->2222222222222222222222222222222222<->>*$==#O##o.o",
"o.o##O#==$*>>->2222222222222222222222222222222222<->>*$==#O##o.o",
"o.o##O#==$*>>-:><,>>>>>>>>>>>>>>>>>>>>>>>>>>>>,<<:->>=$==#O##o.o",
"o.o##O#==$*>>:------------------------------------:>>-$==#O##o.o",
"o.o##O#==$=>>>>>>>>>>>>>>>>>>>>>>>>>>>>>>>>>>>>>>>>>>;%==#O##o.o",
"o.o##O#==%=>>>>>>>>>>>>>>>>>>>>>>>>>>>>>>>>>>>>>>>>>>;%==#O##o.o",
"o.o##O#==%*=;==***********************************-;;*%==#O##o.o",
"o.o##O#==*%%%$$$$$$$$$$$$$$$$$$$$$$$$$$$$$$$$$$$$$$%%%*==$O##o.o",
"o.o##O$==================================================&+##o.o",
"o.o##O$==================================================%+##o.o",
"o.o##+$$%$############################################$&%#+##o.o",
"o.o##@++OOOOOOOOOOOOOOOOOOOOOOOOOOOOOOOOOOOOOOOOOOOOOOO++O@##O.o",
"o.O##########################################################@.o",
"o o######################################################$###+.o",
"o OO+OooooooooooooooooooooooooooooooooooooooooooooooooooooO@+o.o",
"oX .......................................................... Xo",
"oooooooooooooooooooooooooooooooooooooooooooooooooooooooooooooooo"
};
