/* XPM */
static const char *ZmlsaXN0aW42NF82NA__[] = {
/* columns rows colors chars-per-pixel */
"64 64 250 2 ",
"   c #050505",
".  c #010C04",
"X  c #0C0C0C",
"o  c #0A0709",
"O  c #140A07",
"+  c #061106",
"@  c #080D11",
"#  c #140B14",
"$  c #111212",
"%  c #1B181A",
"&  c #0F140F",
"*  c #3C080B",
"=  c #272727",
"-  c #323233",
";  c #560E18",
":  c #6A0914",
">  c #7C0B16",
",  c #7E0C19",
"<  c #760A14",
"1  c #7B1218",
"2  c #71060E",
"3  c #562916",
"4  c #054B15",
"5  c #094916",
"6  c #065519",
"7  c #0A531B",
"8  c #045B1B",
"9  c #095B1C",
"0  c #045614",
"q  c #145C1C",
"w  c #124E1A",
"e  c #04641D",
"r  c #0B641D",
"t  c #026A1C",
"y  c #0A6B1E",
"u  c #036416",
"i  c #11651A",
"p  c #04721E",
"a  c #09711E",
"s  c #027C1B",
"d  c #027615",
"f  c #095D20",
"g  c #175522",
"h  c #0D6422",
"j  c #056C22",
"k  c #0B6D23",
"l  c #056221",
"z  c #116B23",
"x  c #146926",
"c  c #057322",
"v  c #0B7424",
"b  c #047B24",
"n  c #0B7C26",
"m  c #0D7529",
"M  c #0C7C29",
"N  c #047A2B",
"B  c #147728",
"V  c #177737",
"C  c #266D35",
"Z  c #414220",
"A  c #69522A",
"S  c #43752F",
"D  c #4F4F4F",
"F  c #626263",
"G  c #777876",
"H  c #840A16",
"J  c #830B1A",
"K  c #8B0C1B",
"L  c #930D1C",
"P  c #9C0D1D",
"I  c #95061A",
"U  c #8D111C",
"Y  c #85141C",
"T  c #9C111D",
"R  c #92111D",
"E  c #A30E1E",
"W  c #AB0E1E",
"Q  c #AB0313",
"!  c #B20D1F",
"~  c #BA0A1B",
"^  c #AC101F",
"/  c #A5101C",
"(  c #B8131E",
")  c #960E22",
"_  c #9C1222",
"`  c #981628",
"'  c #8F0622",
"]  c #A40E21",
"[  c #AB0E21",
"{  c #AB0C2B",
"}  c #B40E21",
"|  c #BC0E23",
" . c #B80723",
".. c #A51122",
"X. c #AC1121",
"o. c #AA1526",
"O. c #B51122",
"+. c #BB1224",
"@. c #BD152A",
"#. c #B81628",
"$. c #872825",
"%. c #943326",
"&. c #AF2C2F",
"*. c #C8071D",
"=. c #DC091A",
"-. c #C0101A",
";. c #C20E24",
":. c #CD0D25",
">. c #C80B27",
",. c #D40E2A",
"<. c #D80B25",
"1. c #C31226",
"2. c #CC1226",
"3. c #C41429",
"4. c #CC1329",
"5. c #C81927",
"6. c #D41226",
"7. c #DA1226",
"8. c #D3132A",
"9. c #DC142B",
"0. c #D21A2C",
"q. c #D91C2B",
"w. c #DE1132",
"e. c #DD0F35",
"r. c #E50926",
"t. c #F60B27",
"y. c #E31729",
"u. c #E61333",
"i. c #E6213F",
"p. c #E2181E",
"a. c #86422D",
"s. c #D53449",
"d. c #E52E51",
"f. c #F43F60",
"g. c #AC6B6F",
"h. c #DD5A6D",
"j. c #038525",
"k. c #0B8326",
"l. c #038B25",
"z. c #0B8A27",
"x. c #05842A",
"c. c #0C842A",
"v. c #048D2A",
"b. c #0C8C2B",
"n. c #12852C",
"m. c #128C2D",
"M. c #158A27",
"N. c #04942B",
"B. c #0C932D",
"V. c #049C2D",
"C. c #0C9A2E",
"Z. c #079625",
"A. c #12932D",
"S. c #159C2E",
"D. c #0A8D31",
"F. c #158833",
"G. c #0D9431",
"H. c #0D9C31",
"J. c #079B33",
"K. c #119431",
"L. c #119C32",
"P. c #179C39",
"I. c #02A32D",
"U. c #0DA22E",
"Y. c #00AB2D",
"T. c #14A52D",
"R. c #0DA333",
"E. c #0DAA34",
"W. c #07A836",
"Q. c #12A333",
"!. c #11AB35",
"~. c #17A638",
"^. c #15B030",
"/. c #22862E",
"(. c #189C41",
"). c #2D934C",
"_. c #1BA644",
"`. c #23A846",
"'. c #37AD57",
"]. c #699C73",
"[. c #67A46C",
"{. c #519D5F",
"}. c #59C270",
"|. c #E27882",
" X c #8D8D8D",
".X c #939393",
"XX c #9C9C9C",
"oX c #939D92",
"OX c #8C9F89",
"+X c #8BAE93",
"@X c #9D9EA5",
"#X c #9CB3A1",
"$X c #A3A3A3",
"%X c #ACACAC",
"&X c #A8A8A8",
"*X c #B4A8AA",
"=X c #A8B5AD",
"-X c #AAB8B4",
";X c #B4B3B4",
":X c #BCBCBC",
">X c #B8B4B5",
",X c #B2AEB2",
"<X c #AB9A83",
"1X c #F1949B",
"2X c #C4B5B4",
"3X c #E8B2B6",
"4X c #F2A39C",
"5X c #82C38C",
"6X c #ACD3B3",
"7X c #AFE7BC",
"8X c #C6C2BF",
"9X c #BBBDC2",
"0X c #CABDC3",
"qX c #BDC9C5",
"wX c #BEEBC8",
"eX c #C3C4C3",
"rX c #C3CBCA",
"tX c #CBCBCC",
"yX c #C9C7C9",
"uX c #CED7D6",
"iX c #D2D2D3",
"pX c #DBDBDB",
"aX c #D7D7D7",
"sX c #D3CECE",
"dX c #E5DCDD",
"fX c #FEC0C5",
"gX c #DBE6DA",
"hX c #D1EDD4",
"jX c #EBF9DD",
"kX c #DCDDE0",
"lX c #E5DCE3",
"zX c #F2DFE5",
"xX c #DAE6E5",
"cX c #DEFFE1",
"vX c #E4E4E5",
"bX c #E4E9E5",
"nX c #E6E6E9",
"mX c #EBEBEC",
"MX c #E8E8EB",
"NX c #F6E7EA",
"BX c #E9F4EC",
"VX c #ECEDF3",
"CX c #F6EBF6",
"ZX c #EBF7F9",
"AX c #F4F4F3",
"SX c #FDFDF5",
"DX c #FFF4FB",
"FX c #FDFEFD",
"GX c #F6F7F8",
"HX c #FBF4ED",
/* pixels */
"| #.J O   @ o . o o o o o o X X o o o X X X X o o o X X X X X X X X X X X X X o o o o X X X X o o o o X X X X X o o o o   o o X ",
"1.1...; . o X   X o o o o X X X o o o X X X X o o o X X X X X o X X X X X X X X X o X X X X X X o o o X X X X X X X o     . o X ",
"5.:.O.J * . o o X X o o X X X X X X X X X X X X o X X X X X o o o o X X X X X X X X X X X X X X X o o o X X X X X X o .   . o X ",
"8.,.P H > O   @ X X o X X X X X X X X X X X X X X X X X X X X o o o o o X X X X X X X X X X X X X o . o X $ X X X X o .     o X ",
",.3.L > , : + o X X X X X X X X X X o X X X X X X X X X X X X o o o o o o X X X X X X X X X X X X o   . o X X X X X o o     o X ",
"8.O.] 1 : ' ;   X X X X X X X X X X o o X X X X X X X X X X X o o o o o o X X X $ X X X X X X X o o   . o X X X X X o o     o X ",
"1.} { , 2 1 ' * X X X X X X X X X X X o X X X X X X X X X X X o o o o o o o X X $ X X X X X X X o o . o o X X X X X X o .   o o ",
"( } ] I < 1 U _ X X X X X X X X X X X o X X X X X X X X X X o o o o o o o o o X $ X X X X X X X o o o o o o X X X X X o .   . o ",
"O.O.E K , , L [ ] O @ # o & X @ X X X X o X X X X X X X X X X X o o       o o o $ $ $ X X X X X X X o o . o X X X X X o o o o o ",
"O.O.E L , , L ] ;.` . o @ . % o X X X X X X X X X X X X X X X X o o     . o o o X X $ X X X X $ X X o o . o o X X X X o o o o o ",
"+.O.W L , , L ] ~ 3.) . X %   O X X X X X X X X X X X X X X X X o o o o . . o o o X $ $ X X X $ $ X X o o o o o X X X X o o o o ",
"+.O.W L , , L E / ~ 0.) O o & O X X X X X X X X X o X X X X X X o o o . . . o o o X X X X X X X $ X X o o o o o X X X X o o o o ",
"| +.^ L J J L E { 3.-.0.) X @ # X X X X X X X X X X X X X X X X o o o . . . o o o o o X X X o o $ X X o o o o o X X X X X o o o ",
";.+.X.L , J L E { 1.-.~ u.` o @ X X X X X X X X X X X X X X X X X X o o . . o o o o o X X $ X X X X X X X o o o X X X X X o X o ",
"1.1.O.L , J L P [ W +.6.2.w.` O X X X X X X X X X X X X X X X X X X o o o o o o o o o X X X X X X X X X X X X o X X X X X X X X ",
"1.1.O.L , J L E / X.#.#.1.9.9.{ X X X X X X X X X X X X X X X X X X o o o o o o   o o o o o o o X X X X X X X X X X X X X X X X ",
"2.2.} L , K L T ] [ O.+.1.4.8.9.~ + o X X $ @ # o X X X   $ o X X X o o o o o   o . . o   - D       X o $ X   X o $ $ X @ @ o X ",
"2.2.} L , K L T W [ } +.1.1.8.9.q.3.$ $ @       o X o o $ $   $ $ X X X o     X o o     F bXFXiXD X   o   o $ X         X $ X X ",
"4.2.O.L J K P P W [ O.+.+.1.5.8.7.t.s.sXlX=XG =   X $ o X o   X   $ % X o X X   o     F %X:XmXFXFX%XF - X       = D D =     o X ",
"4.4.O.L J K P E W ..O.O.+.+.1.5.6.=.y.f.HXFXmXiXG %         % % = o     X X o o     F .X.X%XaXFXFXFXmX:X%X$X$XeXbXFXFXpX@XF -   ",
"4.4.+.L , K P E / ..O.O.O.+.+.1.w.q.y.=.s.NXAXlXiXeX.XF G XXyXAXmXeXG - o       = G $X X XXXyXmXFXFXGXAXAXFXFXFXmXFXFXAXnXbXtX$X",
"2.4.O.L , K P E ..[ } O.O.+.+.+.4.,.9.q.t.f.FXxXeXyXAXFXFXGXFXGXFXFXFXGXaX%X$X>X2X%X.X X X.X;XpXFXFXFXFXGXGXFXFXFXFXFXFXaX9XyXkX",
"2.2.O.K > K P E ..X.} } O.O.+.+.+.4.8.7.y.r.h.HXaX;XeXFXFXmXpXmXFXFXFXFXFXFXFXFXiX>X$X X.X.XXXeXmXFXFXFXFXFXFXFXGXFXFXFXnXtXeXtX",
"2.2.O.K > J P E ..[ } } O.O.+.} ( ( 1.e.7.y.<.h.mXeX>XvXFXFXmXbXAXFXFXFXFXFXFXFXmXyX,XXX X X$X:XaXFXFXFXFXFXFXFXFXFXFXFXmXiXeXyX",
"2.3.[ K , J L ..} O.O.O.} +.+.O.} +.+.+.5.q.9.<.1XhX-XtXAXSXCXCXMXGXFXFXFXFXFXFXFXbX:X$XXX.XXX;XtXbXFXFXFXFXFXFXFXFXFXFXAXaXyXyX",
"2.1.[ K , J L ..} O.O.O.} +.+.O.! O.+.+.1.4.9.7.u.3XqX,XpXFXFXVXbXmXFXFXFXFXFXFXFXGXaX;XXX.XXX%XyXvXFXFXFXFXFXFXFXFXFXFXFXbXiXtX",
"2.1.] K , J L E } O.O.} } +.+.+.! O.O.O.O.;.2.8.=.i.yX-X:XSXSXZXbXnXAXFXFXFXFXFXFXFXmXyX%XXX$X%XeXaXAXFXFXFXFXFXFXFXFXFXFXAXpXiX",
"2.1.] K , K L E [ O.+.} } +.+.+.O.O.[ X.[ } | 3.q.r.d.>X*XiXFXSXVXbXbXGXFXFXFXFXFXFXFXvX:X%X$X%X:XaXmXFXFXFXFXFXFXFXFXFXFXGXnXpX",
"2.1.] J J K L E X.O.+.+.} +.1.1.+.} W ....[ } +.3.r.<.f.-X,XNXSXSXmXvXmXFXFXFXFXFXFXFXGXaX>X%X;X:XiXmXFXFXFXFXFXFXFXFXFXFXFXmXvX",
"6.1._ J J K P E X.O.+.+.+.+.+.1.+.} W [ ..[ ..X.>.5.r.1XqX@X0XSXFXAXvXbXGXFXFXFXFXFXFXFXmXtX>X>XeXtXvXGXFXFXFXFXFXFXFXFXFXFXAXMX",
"6.+._ J J ) P E ..O.1.1.+.+.| 2.1.+.} ........[ #. .|.SXBX%X%XgXFXFXmXbXmXFXFXFXFXFXFXFXFXvXyXeXeXyXaXmXFXFXFXFXFXFXFXFXFXGXmXMX",
"6.@._ J J ) _ E ..} ;.3.+.O.| 4.2.1.+.[ W W W W Q &.zXZXFXdXoXeXFXFXGXbXbXAXFXFXFXFXFXFXFXAXaXyXeXeXaXmXFXFXFXFXFXFXFXGXGXAXMXnX",
"2.1.] > > L [ W [ O.+.1.1.1.1.O.:.1.+.+.[ | P ..Q <XxXCXFXSX>X=XbXFXFXGXmXbXFXFXFXFXFXFXFXFXbXtXyX0XyXvXAXFXFXFXFXFXZXVXmXvXnXvX",
"2.1.] > > L [ W [ X.+.1.2.4.1.+.1.9.*.^ @.T } E &.2XuXMXFXFXdX&XyXFXFXFXGXmXmXGXFXFXFXFXFXFXmXiX>X:XrXaXbXAXSXGXHXFXFXmXdXaXiXkX",
"2.+.P > > L ] [ W [ O.+.4.4.3.1.| ,.8.3.^ } X.Q g.tXrXlXGXFXFX9X>XmXFXFXFXFXGXAXGXFXFXFXFXFXmXiX:X,X>XtXdXHXSXSXFXAXSXNXdXaXiXuX",
"4.+.P > > L ] X.[ X.O.+.4.4.4.1.~ 3.9.6.5.*.#.o.2XrXrXkXBXAXDXxX:XiXFXFXFXFXFXmXmXAXGXFXFXFXbXyX>X%X;XrXuXxXBXFXGXFXFXBXpXiXyXyX",
"4.O.L , > K ..O.! ! O.+.3.4.4.4.+.1.9.<.y.4.Q g.uXeXiXpXbXmXmXAXaXeXAXFXFXFXFXFXmXbXmXAXGXmXaXeX-X&X%X:XiXvXVXFXFXFXFXFXbXrXeX2X",
"2.O.R J > K / O.O.! } +.3.4.8.8.5.| 4.0.y.r.s.aXuXtXaXpXbXbXvXMXAXaXaXmXFXFXFXFXAXbXvXbXmXvXiXeX=X$X*X0XsXiXuXBXFXFXDXFXGXuXeX8X",
"2.X.U J J K T +.+.O.} +.1.4.8.8.,.2.@.4.q.w.fXZXkXpXpXvXmXaXiXdXGXAXaXiXaXFXFXFXFXmXvXvXpXaXtXeX*X*X%X+X[.).V ).5XcXSXAXFXMXeXyX",
"2...U J J K T +.1.+.} O.1.4.8.8.0.9.0.:.*.4XSXFXGXbXbXmXVXqX-XdXFXFXFXvXeXaXFXFXFXAXbXpXaXaXtX:X,X#X].V p j.s d l.'.wXFXDXCXvXeX",
"1...K K K K P } #.;.| O.#.5.2.5.7.0.<.d.3XFXDXFXFXZXFXjX[.b b ).+X7XwX6X+X=XVXFXFXGXVXbXgXuXrX9X>X+Xx u F.m M m M.V._.6XFXFXVXiX",
"1./ K K U K P O.+.:.+...;.,.6.6.0.7.5.<X7X#X6XhXSXSXhX'.v.b.n p s B.Y.I.l.v [.jXSXFXDXNXlXdXaXyX+XC 0 M n.M v a m G.I.l.5XSXDXxX",
"3.E H K R L P O.:.5.+.! O.3.8.r.u.<.S V.b.D.N F.{.}.`.H.K.v z B j.A.Q.T.~.B.s (.7XBXSXSXmXaX6XOXC 8 v k.b k.v y N b.S.T.s ).wXnX",
"3.E H K _ L P X.;.@.,.+.O.,.4.0.r.A Y.R.Q.L.k.a s V.Y.Q.M.k.c c c.b.K.L.~._.G.x.Z.`.'.'.`.(.z.d t y y b D.k.c i z d B.M.n c m [.",
"3.P > K _ E P ..1.2.2.1.#.+.:.u.%.P.z.A.R.R.~.b n.z.!.E.H.b M c b j.N.R.V.C.P.m.N.H.R.I.V.V.G.D.k.y u n.G.j.n y i a j.(.F.y a d ",
"3.L < K ..^ E ] 1.2.1.6.+.( <.&.b.v.V.Z.L.!.V.n.j.P.R.W.J.v B r n F.z.B.Q.R.E.V.B.Z.C.^.^.T.B.k.b r B m.v.k.B j j z t x.b.a z c ",
"@.R < H ..O.] ] o.1.2.6.6.2.%.m b.m.G.A.U.~.E.B.k.N.Q.Q.b.F.t n.n x.j.N.R.V.N.~.P.G.v.N.H.~.P.L.M 0 B G.C.M.a N 8 h y p b.F.v k ",
"| L < H ..O...] ^ +.2.2.8.a.x.n j.n G.W.R.Y.Q.Z.m.Z.E.U.b.v n s j.z.A.M.A.A.Z.S.!.S.z.k.B.Q.R.Z.n u B H.Z.M.B j e 0 q k b c.n.M ",
"} I : > ! 1.#.E E #.1.<.&.J.v.z v n A.C.U.!.R.N.b.H.R.H.c.n n x.b.b.b.B.C.b.v.H.E.E.H.b.b.m.L.C.x u b.Q.Z.b.c.c r 9 9 8 c m.b.z.",
"} 1 : , ! 5.1.] U } <.7./.W.B.n j b A.R.R.!.L.B.B.H.R.C.c.n M x.b.C.B.C.C.b.l.B.U.!.H.C.b.b.B.v.h t B.Q.C.b.c.v e 8 7 6 y n.b.b.",
"..H : > X.0.4.X.1 Y <.A V.P.L.j.y a B.E.E.!.H.C.C.C.C.B.c.n c.b.C.H.H.G.K.z.x.b.C.Q.R.H.B.b.b.b e c K.Q.C.G.c.n j 8 7 4 e M b.G.",
"} > : I ..9.0.;.H Q $.b.V.E.Q.l.k p b.E.E.E.C.C.H.H.B.z.n n c.B.C.J.J.H.G.b.c.b.B.L.H.R.R.B.c.c t c.L.H.H.K.b.n c 9 7 5 9 v c.b.",
"[ < : K ;.y.0.<.Y 3 c G.A.Q.Y.k.z p z.E.E.E.C.C.H.C.b.k.n n z.C.U.C.R.H.B.b.c.c.b.G.C.R.E.L.m.v c K.L.C.H.K.b.k.v r 7 5 6 v M b.",
"` > < Y :.y.t.%.g 0 k G.H.Q.H.n.z p z.R.E.E.C.G.H.B.z.n n k.B.C.Q.U.R.L.B.c.c.c.b.b.b.C.E.R.K.n c.K.C.C.C.K.A.z.n e 7 5 6 k n c.",
"_ < , P #.y.y.C l 7 c G.W.R.K.x.v c b.L.R.R.C.G.C.b.k.n M c.B.R.Q.C.R.L.B.z.b.c.b.b.z.C.R.R.L.z.B.L.C.C.C.b.K.b.n r 7 4 6 k v M ",
" .J > _ 2.t.A v.f 6 i m.Q.W.A.x.v n K.Q.R.C.B.G.B.z.n n m b.H.E.Q.C.J.H.B.z.b.b.b.b.k.A.H.R.U.Z.C.C.Z.C.C.b.K.B.c.y 6 4 6 z v n ",
"T L K P <.&.x.v 7 6 y b.Q.S.b.B y k.C.H.H.B.B.B.B.c.n v n b.Q.!.C.H.R.C.b.c.b.B.b.b.c.b.G.L.H.C.G.B.B.B.B.B.B.B.k.v 6 4 9 k v b ",
"W L I ] 6.S l.z 7 8 j b.Q.C.k.v c k.C.H.C.b.b.b.b.k.v v n B.R.E.C.H.R.B.b.c.b.B.b.b.c.b.C.L.C.B.b.b.b.B.B.B.B.B.k.v 6 4 9 k v v ",
"..P 1 >.A N.v r 7 8 j m.L.B.n k c c.B.C.b.c.b.b.k.b c v k.B.Q.E.C.H.J.B.z.c.b.B.b.z.c.c.b.B.b.b.c.c.z.b.B.B.C.C.b.v 6 4 f k v v ",
"[ L L $.x.x.k 9 7 8 c b.K.b.v k c c.b.b.c.c.c.b.c.v c v k.C.R.R.H.H.B.b.z.b.b.G.B.z.k.k.b.b.c.c.n k.k.b.b.B.C.G.b.v 6 4 f k v v ",
" .R Y k B c q 9 7 8 c b.m.k.c k c M b.c.n m c.c.n v v v c.L.Q.J.G.G.B.z.c.b.B.C.B.c.n n c.k.n n n n k.c.b.B.C.C.D.v 6 4 h k c v ",
"} T q k x h e 6 7 8 v c.c.v k r c M c.n v m M k.v v v n c.L.L.C.G.B.b.c.c.b.B.C.b.k.b n n n n m v n n c.b.b.B.C.b.v 6 7 h k c v ",
"{ Z t h h l 8 6 7 e c k.M k r r v n n v v m m b v k v n c.K.L.B.B.b.c.k.c.b.B.C.b.k.n n n b v v v v n k.c.b.B.B.c.j 6 6 h j c v ",
"$.t t q l f w 0 7 e c k.m k r r c v b p j m n b v k v n c.K.L.B.v.z.c.n c.b.B.B.b.k.n v v v c v c c v n c.b.b.B.c.j 6 7 h j c v "
};
