/* XPM */
static char *_2a0ad20787a4960bd030b661e056cc0Baq18zEgClMdBwvi[] = {
/* columns rows colors chars-per-pixel */
"64 64 193 2 ",
"   c #10100F",
".  c gray9",
"X  c #1B1C1D",
"o  c #1B1314",
"O  c #360303",
"+  c #3A0203",
"@  c #320A0B",
"#  c #3D0D0D",
"$  c #2B1A1B",
"%  c #2E1516",
"&  c #351213",
"*  c #3B1515",
"=  c #321D1E",
"-  c #3B1C1C",
";  c #30151E",
":  c #191825",
">  c #291C21",
",  c #391E20",
"<  c #1C2324",
"1  c #1E2929",
"2  c #1F2728",
"3  c #242526",
"4  c #2A2424",
"5  c #222827",
"6  c #262729",
"7  c #232929",
"8  c #2B2B2D",
"9  c #312222",
"0  c #322D2E",
"q  c #392728",
"w  c #2E2E31",
"e  c #392F31",
"r  c #2E3133",
"t  c #2F373A",
"y  c #333335",
"u  c #393436",
"i  c #353639",
"p  c #39373A",
"a  c #36393B",
"s  c #3A3B3D",
"d  c #450000",
"f  c #450808",
"g  c #540C0C",
"h  c #5B0C0C",
"j  c #590304",
"k  c #441414",
"l  c #4A1414",
"z  c #431718",
"x  c #441A1B",
"c  c #4B1B1C",
"v  c #551212",
"b  c #650304",
"n  c #6D0303",
"m  c #6D0708",
"M  c #630A0A",
"N  c #690909",
"B  c #6C0807",
"V  c #730303",
"C  c #7A0202",
"Z  c #730905",
"A  c #790B06",
"S  c #740A0A",
"D  c #7B1507",
"F  c #771C0B",
"G  c #6A1617",
"H  c #731011",
"J  c #4A1E20",
"K  c #462627",
"L  c #5D2C2E",
"P  c #5A2628",
"I  c #46393A",
"U  c #423133",
"Y  c #57373A",
"T  c #682728",
"R  c #7E2525",
"E  c #772728",
"W  c #6C393B",
"Q  c #544C27",
"!  c #776827",
"~  c #373E41",
"^  c #3E3E41",
"/  c #5B3E41",
"(  c #3D4144",
")  c #3F464A",
"_  c #424345",
"`  c #454649",
"'  c #494748",
"]  c #47484C",
"[  c #4A4A4D",
"{  c #4D4E51",
"}  c #454E51",
"|  c #504F53",
" . c #475052",
".. c #4E5054",
"X. c #4E5559",
"o. c #525255",
"O. c #555659",
"+. c #595659",
"@. c #57585C",
"#. c #5A5A5D",
"$. c #6A4244",
"%. c #684446",
"&. c #664F53",
"*. c #755153",
"=. c #754748",
"-. c #5D5E61",
";. c #575F63",
":. c #615F62",
">. c #5E6064",
",. c #5E6468",
"<. c #616266",
"1. c #636466",
"2. c #626265",
"3. c #636468",
"4. c #66676A",
"5. c #646569",
"6. c #6A676C",
"7. c #66686C",
"8. c #6A6A6D",
"9. c #6C6C6F",
"0. c #6A6A6D",
"q. c #686165",
"w. c #706364",
"e. c #6D6E71",
"r. c #6D6E71",
"t. c #716E71",
"y. c #6E7174",
"u. c #6F767A",
"i. c #727275",
"p. c #727275",
"a. c #767679",
"s. c #757679",
"d. c #76787B",
"f. c #7A7A7D",
"g. c #862A0C",
"h. c #892A0B",
"j. c #8E340D",
"k. c #91340D",
"l. c #913A0D",
"z. c #903E10",
"x. c #802727",
"c. c #822B2B",
"v. c #883535",
"b. c #9E4C12",
"n. c #A1480F",
"m. c #A55412",
"M. c #A25815",
"N. c #B26D16",
"B. c #B87B1A",
"V. c #A96516",
"C. c #887929",
"Z. c #BF811C",
"A. c #A28D27",
"S. c #BEA428",
"D. c #C4891E",
"F. c #C9941F",
"G. c #CCA121",
"H. c #CAAA25",
"J. c #DBAE23",
"K. c #D5AB23",
"L. c #DBB324",
"P. c #DBBC26",
"I. c #D2B529",
"U. c #DABB27",
"Y. c #DEC026",
"T. c #E2C327",
"R. c #E5C428",
"E. c #EBC728",
"W. c #E5CA28",
"Q. c #EBCA28",
"!. c #E7C827",
"~. c #F2CE29",
"^. c #EDD12A",
"/. c #F3D32A",
"(. c #F6D92C",
"). c #FBDA2B",
"_. c #FEE22C",
"`. c #7E7E81",
"'. c #7D7E81",
"]. c #767E82",
"[. c #7E8183",
"{. c #818184",
"}. c #848587",
"|. c #828285",
" X c #858689",
".X c #87888B",
"XX c #8A8B8D",
"oX c #958C8F",
"OX c #8D8D91",
"+X c #8F9093",
"@X c #929395",
"#X c #969699",
"$X c #99999D",
/* pixels */
"}.f.e.{ 0.`.7.9.|.a.OXa.{ {.a.}.p.|. Xa.o.}.@X}.`.9.p.' @.XXp.f.|.9.9.@.-.#XXX}.OX[.9.<.' d.d.}.XXf.0.a.<.XXXXf.d. X|.0.3.@X.X|.",
"s.@.@.@.1.s.-.<.0.-.>.i ` y.-.@.@.3.<.[ s e.1.@.-.<.3.y o.e.o.-.-.e.0.^ 3.`.-.e.p.-.3.{ o. X0.3.O.@.0.o.{ p.-.-.-.<.p.o.#.`.-.3.",
"-...{ y ' @.@.@.o.3.o.a _ <.O.o.-.{ o.^ _ 0.o.{ { 3._ y [ 0.@.' { -.[ ' o.<.<.' ' _ i i ' @.[ @.@.{ @.` ^ -.{ ..o.<.-.6 ' @.@.[ ",
"[ [ @.w ` @.{ [ <.<.o.^ ( e.<.@...[ @.^ ` <.@.[ -.@.[ p [ <.#.<.@.' ] p ` <.@.[ @.o.@.[ [ @...>.@.@.-.' ( 3.@.{ O.-.{ w -.3.{ o.",
"8 3 w 8 y y 6 y i y 8 6 p ' y 6 8 w i 8 r i 8 6 8 3 3 w y a ^ y a p y X ' _ X 6 8 6 y ' y i w 8 8 8 y y 8 _ y i a w 6 6 s ^ w r ",
"[ o.' <.a.#.@.s o.<.#.3.p.3.-.i ` <.[ -.-.7.-._ ' e.3.7.3.1.o.` #.<.o.@.@.@.<.' _ -.<.' #.<.-.` _ 0.0.-.<.0.1.[ a @.@.@.3.-.[ y ",
"f.p.1.d.<.7.f.{ 0.a.p.e.e.a.9._ 3.`.a.a.<.3.|.{ 1.XXp.0.3.3.@.^ @.<.0.-.3.`.|.o.9. X|.-.e.e.e.@.3..Xe.0.`.|.p.<.<.XXp.a.[.|.<.^ ",
"-.o.@.@.] [ [ y @.O.{ { -.@.] _ <.3.{ ] ( -.>.y o.-...o.] 3.@.i ' ( ^ O.<.<.>.' { -.i ' o.-.@.p o.<._ { @.@.-.[ ` p.<.@.<.o.[ w ",
"<.' ( ` ] @.' 8 [ [ ..@.7.p.}.o.+.@.+.o.@.o.` _ :.7.6.#.@.#.:.' @.:.#.6.#.o.o.0 [ +.o.#.t.q.| r <.e.-.>.3.7.1.' ` 0.<.{ o.o.@.w ",
"o.y ^ i r s a 6 y a y a s a.d.' <.w.v.c.c.c.R x.c.c.c.c.c.c.c.R c.c.c.c.c.R c.x.c.c.c.c.R T 1.1.XXo.r ^ ' a i w _ @.i 8 a _ ^ w ",
"<.[ [ y 8 y s y [ { ^ ' y y . . 3 $ j d d d d d d d d d d d d d d d d d d d d d d d d d d @ X 8 3   X ' ` y ^ ` [ ' y ^ a ` ' p ",
"f.p.@.3.( o.XXf.a.a.`.XX3._ _ ^ ] I d + + + + + + + + O O + + + + O O O + + + O O + + + + @ a o.{ y ^ e.<.[ e.`. Xd.e.e.^ @.9.<.",
"@...@.@.8 [ <.-.>.-.{ <.a i 3.{ >./ V V V V V V n n n n n n n b n n n n n b b n b n n n V l ) [ -.@.-.p.[ _ 0.3.@.-.-.{ y _ @.' ",
"-.-.y.@.y o.e.@.O.{ -.@.y ' 3.@.;.$.V V V V V V V V n n n n n V V n N N B V V n n V V V C k ( o.o.<.e.@._ _ #.{ @.<.o...y ' -.o.",
"^ [ _ _ p { 3.^ _ { ^ i y [ 3.@. .P V V V V V V V V n n n n V h - 4 6 4 4 - g V V V V V C & t ' { [ a ^ ( i ' a { a a [ i [ o._ ",
"y 8 8 y 6 [ y 3 8 8 y 3 8 _ ' y t z V n n n n n n n n n n b - 7 6 4 7 7 6 3 7 - n V V V C & i _ y y y p 8 y o.y y p i a s [ ' 6 ",
"e.d.|.0.<.i.o.a 3.}.0.e.p.p.<.y X.=.n n n n n n n n n V n x l N n N h - 3 6 6 1 = V V V C K y.<.[ `.p.f.i.f.d.@.' .Xp.p.}.OX-.8 ",
"7.<.e.<.0.o.] ' 7.p.@.@.@.3.<.w  .W n b n n n n n n n V M b V V V C C C v 6 6 4 7 x C V C x  .p [ a.7.>.<.3.o.^ ^ e.o.>.3.e.[ y ",
"<.o.-.o.o...' y o.@.@.-.[ [ [ 8 X.W n n n n V V V V V V V V n V V V V V C v 7 6 6 6 N C C - ) y ' -.@...{ o.<.[ _ -.@.o.o._ i 8 ",
"e.O.[ ' ( _ ..w o.7.{ _ o.-.[ y >.W n n n n n V V V V V V V n n V V V V V V - 7 4 7 l C C - ] y ^ <.@.{ o.>.@.' ' 0.{ ' @.o._ y ",
"[ w 8 r y 6 8 6 _ y 8 8 y y y 3 a J V n n n n n V V V V V V n V V V C V V V M 6 6 5 - C C * < 6 i _ w s ( 8 6 6 8 _ w 6 s y 8 8 ",
"0.o.-.o.w [ 3.o.3.@.[ @._ ` @.o.7.$.V V n n n n V V V V V V V n V V C V V V n = 6 7 - C C x X.@.#.0.9.0.' a 7.0.1.#.o.@._ [ #.@.",
"e.p.e.7.i 1. X#.<.e.e.`.o.<.|.1.d.=.V V n n n n n V V C V n n Z D A V V V V V - 3 3 - C C x ,.p.0.`.a.0.{ @.#Xe.d.p.e.0.s e.p.@.",
"{ @.<.-.w 7.y.{ [ ` { [ y ' 0.o.>.Y V V V n n n n V V V C b.D.H.L.K.F.m.V n V - 7 7 l C C l } | [ O.o.@.{ { 0.[ o.@.@.O.a 1.0.o.",
"<.@.3._ 6 @.@.[ o.@.3.@.w ' -.o.,.&.V V V V V n n V n h.G.W.Y.Y.T.W.^./.J.h.n - 3 6 M C C v ( @.@.o.3.<.[ ' e.-.>.3.3.@.p -.>.@.",
"y y _ y 8 { s ^ ' [ { ( i [ ' ^ ~ e V V V V V n V n k.R.W.U.U.U.P.P.T.R./.~.z.> 7 - C V C g 7 ^ ' o.o.^ w _ { ' ` ^ [ i 8 ` _ ^ ",
"` ^ p y s o.y w ^ @.o.^ a o.' p i I V V V V n n n A L.W.P.P.U.U.U.T.R.!.R._.A.: 4 b V V C h r s _ _ i s ' ' { a y a s a _ [ a w ",
" X X`.0.f.`.3.i e.{.<.<.7.f.p.o.9.oXS C V V V V b N.(.T.T.P.P.U.U.T.R.R.).I.3 9 N V V V C M O.<.#.`.p.f.f.0.`.e.@.$XXX`.|.`.o.8 ",
"1.3.@.[ @.@.^ y 0.{ O.@.{ ' ' y { +.m C V V V n n L.^.R.T.T.P.U.U.P.T.E.H.Q C.K.Z n V V C b ~ | o.<.-.o.o.O...' [ y.O...>.-.a w ",
"0.-.[ [ { ] o.[ #.@.@.-.{ [ [ a ` @.H C V V V n g./.Q.!.R.T.Y.U.U.P.T.P.S.T.)./.g.n V V C b i y s <.[ [ 3.@.<.o.' <.@.<.@.{ ' 8 ",
"{ [ @.{ ' { [ p ' { #.o...O.o.8 { <.H C V V V n l.(.~./.!.R.T.P.U.P.T.R././.Q.(.l.n V V C m 6 w _ @.#.7.@._ [ s ' 3.<.o.' [ _ y ",
"o.y y 6 y 8 i 8 a i y 6 r y 8 8 ^ a M C V V V b j._.T.I.!.R.T.P.U.U.Y.T.R.!.Q.(.k.n V V C n o 8 a p y y 6 6 y y y s w y 8 y 8 w ",
"{.f.0.s o.a.<.-.<.7.0.` ` [.0.9.f.].E C V V V V F ! C.P.Q.!.T.P.U.U.P.T.R.!.Q.E.D n V V C V q 7.|.a.0.@.p @.a.0.d.|.e.` [ f.p.a.",
"3.<.0.s <.XXe.@.@.7.p.{ @.XX3.s.d.u.E C V V V M : ! )./.Q.!.T.T.U.U.P.Y.T.R./.F.n V V V V V U 9.p.e.3.@.@.0.e.3.s.f.p._ -.OXe.3.",
"o.@.O.8 ` <.{ o.o.>.o.[ o.@._ o.[ ) T C V C N 6 ; n.).Q.Q.!.R.T.P.U.U.P.T.T.^.l.b Z V V V V 9 ) { _ [ a _ e.o.o.@.-.<.y [ 0.o.[ ",
"[ @.@.w { -.[ @.-.' _ ' ' -.@.o.{ @.T C C V = 1 h n Z._.E.!.R.T.P.U.U.U.P.^.B.n n n V V V V , ` o.@.<.o._ <.o.0.@.@.o.y @.0.{ o.",
"_ ' _ 3 _ ' 8 ^ _ 8 y X y ' y ' '  .L C C v 1 9 n V V D.(.Q.R.P.P.U.U.T.W.B.V n n n n n V V * i p i a a a ^ _ ' s y [ y ` [ y ^ ",
"' [ p _ o.{ ' y y ' ^ _ @.@._ p _  .L C C - 1 - V n V V m.J.Q.^.W.W.Y.G.b.V V V n n n n n V * r y ' p ' ' o.' y 8 ' ' ` <.o.p 8 ",
"p.a.<.p.a.|.f.a 7.f.`.`.@XXXp.[ +.[.$.C V 4 2 - V n V V n C k.M.V.M.j.A n V V V V n n n n V x ~ -..X.X].e.f.`.-.@.OXd.f.|.p.<.s ",
"p.{ ' ( _ { _ i @.@.{ @.@.' ..i -.].%.C S 4 7 9 n n V V A V V n n b n V V V V n V n n n n V z 8 o.3.-.@.o.O.-.@.[ 0.O.@.{ o.@.y ",
"3.3.@.@.-.O.] y @.3.<.o.{ o.>.y @.7.Y C V 4 6 3 h V V V V V V V V n V V V V V V n n n n n V l r [ d.o.o.@.@.<.a ' |.>.@.@.@.o.8 ",
"@.] i { [ ] { y ` >.[ ' ' { @.a o. .Y C C - 3 3 - V V V V V V V V n n V V V n n n n n n n V k < _ @.' { ' o.[ a ' o.^ ] ' @.' 8 ",
"' 8 { ^ 8 p p 8 ` ' w s 8 8 y a _ ~ K C C g 7 4 7 l V V V V V V n n V h b n n b n n n n n V k r _ _ i w w 8 y ' ^ _ _ _ 8 8 w y ",
"9.e.`.p.[ [ p.9.[.<.7.9...o.|.p.t.s.*.V V V 9 7 4 3 z n C C V V V n l v V n n V V V V V V V c  .p. X|..Xf.[ <.y.a.|.p.-._ @.e.`.",
"y.e.@.{ 8 o.p.[ ' { @.{ ^ #.e.@.<.u.%.V V V M 6 3 4 7 4 x h h h l 4 - n n n V n V V V V n V c ( o.{ @.r.@._ a.0.a.e.@.-.@.1.@.@.",
"o.o.o.{ 8 @.<.( _ { { 7.s s o.o.+.X.Y V V V V h 4 2 3 3 7 7 5 1 1 x n n n V V V V V V V V C x t { { -.[ i a a.p.@.@.{ @.^ ' ' ' ",
"[ ' ' { ` ' [ [ { o.@.@.r _ -.-._ ( L V n V n n b z 4 6 3 6 4 - h V n b n n V C C C C C V C x i [ @.[ _ [ ^ o._ ( ' _ ' w s { _ ",
"8 y ` _ 8 y a y a i 6 a 8 p s 6 8 ) P V n n n b n V b h h h b V V V V V V V b j j b n C C C % < y 8 r a p 8 a w 8 w y y 8 y a 3 ",
"7.1.3.@.{ e.3._ { 0.0.o.@.i.1.y ' y.G V n n n n n n n V V V C C V b h l x q 4 X 8 y 0 U v b q ~ _ <.e.e.@.7.{.[ [ p.0.<.3.p.-.8 ",
"3.7.@.<.s.p.-.y -.f.@.@.y.f.7._ o.y./ v b n V V V V V n b j g # = 0 y ( ~ ` @._ i.<.o.O. .u u a #.d.-.@.3.a.>.^ #.p.@.0.`.`.>.w ",
"-.@.@...>.3.^ 6 -.{ ' ....@.{ y o.-. .a 8 = & @ # * & $ 4 3 < < [ O.@.@.[ { 3.[ o.o.' [ -.o._ y [ -.@...@.@.{ s _ 0.' -.e.0.[ 8 ",
"<.@.@...o.o.] ^ 1.@.{ @.@...[ y @.e.@.@.@. .( 7 a ( ( ` { @.{ p :.-.@.o.] 3.<.y [ @.{ -.@...{ p [ p.@.-.@.o.{ _ { e.{ o.@.@.^ 6 ",
"[ a 8 w _ i ^ ` [ a i i _ 8 y _ [ i w w i a i _ ' o.p y s ` ( i { r 8 y ' _ w 6 ' ' s { ^ a ' r s [ w w 8 i y w _ { _ y y y 8 3 ",
"9.<...' p _ { @.@.o.{ @.y y o.o.o.[ [ [ _ _ @.#.-.o.[ ` y o.1.o.@.o.o...' { @.` 7.0.o.' y y o.' 1.@.' { ` p @.@.#.@.@.' y i _ ` ",
"p.0.p.0.y <.+X}.0.1.a.e.s @.f.<.i.<.f.f.-.1.f.<.p.d.f.-.[ e.<.#.a.|. X0.^ 1.`.a.f.<.3.r.' [ p.a.d.7.f.].<.o.a.f.f.p.3.<.s <.f.>.",
"[ [ [ ^ r 1.-._ a ' @.@.i [ <.{ _ { [ -.{ [ o.[ { -.@.[ a <.@.o.<.@.' o.6 ' @.' a ..<.' s ' @.{ @.[ ' @.( ' 3.{ o.o.o._ 6 @.3.( ",
"..[ { o.s @.-.] @...{ o.y o.e.@.-.3.3.>.y _ e.O.>.@.<.@.8 0.0.3.-.{ o.o.a o.@.{ ..o.[ o._ o.<.o.{ o.o.@.{ ' 0.<.O.@.@.{ y e.e...",
"@.o.a a 3 a ( ^ ^ a s _ 8 s { ' { @.@.' 6 ^ @.^ _ _ ( y 6 { o.a w r s _ y ' { _ ' ' { _ 6 a @.{ ' a ^ ^ i _ @.o.-.{ ' ^ s #.' i ",
"s s 8 a ..{ _ a 8 w s y p [ ` s ` _ 8 y s { @.w y o.^ a _ o.y y y y a _ 8 [ { y ' s y y 8 s ' y 8 s _ s y _ [ i 8 y ' _ _ { _ y ",
"#.7.p.`.a.i.7.i 1.e.0.p.e. Xa.s @.0.e.i.`.}.p._ #.9.e.a.e.e.@.a 7.|.f.1.<.9.@.' @.f.`.p.p.a.f.[ o. X Xa.a.|.|.-.{ f.p.f.`.f.>.a ",
"o.[ <.@.' ^ _ 8 <.3.@.3.0.-.-._ [ -.@.@.<.-.@.^ @.-.{ -.o.@.@.o.0.o.{ o.o.' [ [ <.p._ { @.{ .._ @.p.-.@.>.e.-.[ ' 0.@.-.@.o.[ 8 ",
"<.O.[ [ _ @.' p e.0.>.@...{ <.` [ -.@.3.@.@.@.^ @.>.-.-.' @.@.p @.3.@.o.] o.-.8 { o.o.@.@.-.{ ^ { 0.@.@.<.@.@.' [ e.@._ { { _ y ",
"3.o.{ { o.>._ 8 @.@.' _ _ ' ..8 ' <...o.{ { { y [ @.[ ' O.o.[ 8 @.3.[ { <.@.[ ^ { -.#.-.o.{ o.y ` -.{ ..@.[ { _ _ 7.@.@.@...( 8 ",
"y 6 6 8 8 8 8 8 y w w w y y 6 6 8 8 w 6 8 8 y 8 8 8 8 8 w w 8 8 y 3 6 w y 6 y 8 y w 3 8 w 8 w 8 y y 8 8 8 y w 6 8 y w y 8 y y 8 "
};
