/* XPM */
static char *_002218a34514acaa0d6c43aa97f7ddeZftHyEoxA4Lil8Yk[] = {
/* columns rows colors chars-per-pixel */
"64 64 237 2 ",
"   c #0A1E14",
".  c #091A15",
"X  c #0B1C14",
"o  c #250A1B",
"O  c #0C2214",
"+  c #0D241A",
"@  c #0D291B",
"#  c #0E2C15",
"$  c #13251C",
"%  c #142A1E",
"&  c #192A1F",
"*  c #142219",
"=  c #18351D",
"-  c #1C1E22",
";  c #251422",
":  c #231D23",
">  c #2A1C25",
",  c #2A1B28",
"<  c #351C29",
"1  c #361F31",
"2  c #162422",
"3  c #1C2525",
"4  c #152B22",
"5  c #1B2C24",
"6  c #1E2629",
"7  c #1D2B29",
"8  c #1C3225",
"9  c #1C3A23",
"0  c #1D332A",
"q  c #1B3529",
"w  c #232225",
"e  c #2C2026",
"r  c #212D26",
"t  c #23252B",
"y  c #2B232A",
"u  c #222C2C",
"i  c #2A2B2F",
"p  c #32232D",
"a  c #3B222D",
"s  c #32292E",
"d  c #213426",
"f  c #23342C",
"g  c #29342E",
"h  c #243A2D",
"j  c #293A2E",
"k  c #203C23",
"l  c #262630",
"z  c #252D31",
"x  c #2C2C33",
"c  c #2D2D39",
"v  c #26283B",
"b  c #352432",
"n  c #322C34",
"m  c #392C35",
"M  c #322D3A",
"N  c #3B2D3A",
"B  c #3A2634",
"V  c #253431",
"C  c #2A3433",
"Z  c #253B32",
"A  c #2A3D34",
"S  c #2D3339",
"D  c #2B3D39",
"F  c #313B37",
"G  c #33333C",
"H  c #39353D",
"J  c #333C3B",
"K  c #363A3A",
"L  c #452C3A",
"P  c #42343C",
"I  c #1C412A",
"U  c #25422D",
"Y  c #29432C",
"T  c #264134",
"R  c #2C4235",
"E  c #2D4339",
"W  c #2D4A3C",
"Q  c #2C4A36",
"!  c #32443B",
"~  c #39453E",
"^  c #344A3D",
"/  c #354838",
"(  c #39513D",
")  c #33523B",
"_  c #2C2E42",
"`  c #2C2B45",
"'  c #3E2F41",
"]  c #302E43",
"[  c #353442",
"{  c #3A3443",
"}  c #353C42",
"|  c #3C3A44",
" . c #33344A",
".. c #3A3649",
"X. c #3D3C4B",
"o. c #3C3D51",
"O. c #2F3448",
"+. c #433543",
"@. c #423C44",
"#. c #433D4B",
"$. c #4B3C4B",
"%. c #473947",
"&. c #523D49",
"*. c #443C52",
"=. c #463E56",
"-. c #422D40",
";. c #334441",
":. c #3B4442",
">. c #354B42",
",. c #3A4D44",
"<. c #3D414A",
"1. c #3C4E49",
"2. c #374A48",
"3. c #365243",
"4. c #3B5245",
"5. c #3D534A",
"6. c #3D594A",
"7. c #395947",
"8. c #3E4454",
"9. c #434345",
"0. c #494246",
"q. c #43424C",
"w. c #4B434D",
"e. c #434B4B",
"r. c #4A4B4D",
"t. c #444F46",
"y. c #52444C",
"u. c #54494E",
"i. c #59454F",
"p. c #42554C",
"a. c #445B4D",
"s. c #445846",
"d. c #454452",
"f. c #4C4453",
"g. c #464B51",
"h. c #4D4B54",
"j. c #44435A",
"k. c #4B445A",
"l. c #4D4B5C",
"z. c #534553",
"x. c #5A4654",
"c. c #534A54",
"v. c #5B4B54",
"b. c #52465C",
"n. c #534B5B",
"m. c #5B4C5B",
"M. c #445451",
"N. c #4C5454",
"B. c #455B51",
"V. c #4A5D54",
"C. c #4D5A59",
"Z. c #5B5055",
"A. c #54525D",
"S. c #5C525C",
"D. c #545A5B",
"F. c #545759",
"G. c #604C56",
"H. c #624E5D",
"J. c #63545D",
"K. c #68585F",
"L. c #45614D",
"P. c #4B6255",
"I. c #4D6459",
"U. c #496856",
"Y. c #52645B",
"T. c #546959",
"R. c #576D57",
"E. c #4B4A62",
"W. c #474C60",
"Q. c #544D63",
"!. c #5C4C64",
"~. c #554D6A",
"^. c #575361",
"/. c #5A5462",
"(. c #5C5A65",
"). c #56526C",
"_. c #5C536A",
"`. c #5C5B68",
"'. c #5B5871",
"]. c #635462",
"[. c #635A64",
"{. c #6B5B64",
"}. c #62556C",
"|. c #6A576B",
" X c #635B6B",
".X c #6B5C6B",
"XX c #6B5263",
"oX c #705D6A",
"OX c #705C66",
"+X c #645671",
"@X c #655B73",
"#X c #6A5C73",
"$X c #675D79",
"%X c #715E71",
"&X c #604E64",
"*X c #556C61",
"=X c #5A6464",
"-X c #537260",
";X c #6F6167",
":X c #64636C",
">X c #6C626D",
",X c #646568",
"<X c #71636D",
"1X c #716D6E",
"2X c #6C6272",
"3X c #6E6A72",
"4X c #6C627A",
"5X c #656673",
"6X c #746573",
"7X c #756A75",
"8X c #7A6B74",
"9X c #71637E",
"0X c #756A7C",
"qX c #7B6B7C",
"wX c #747374",
"eX c #7C737C",
"rX c #78757B",
"tX c #69776C",
"yX c #82737C",
"uX c #806F77",
"iX c #6B6782",
"pX c #7C6E84",
"aX c #756A85",
"sX c #7C7483",
"dX c #7C738A",
"fX c #777585",
"gX c #7F7791",
"hX c #837384",
"jX c #857B8B",
"kX c #8B7C8A",
"lX c #877889",
"zX c #937B8E",
"xX c #847C98",
"cX c #89828B",
"vX c #958794",
"bX c #909297",
"nX c #A995A6",
/* pixels */
"o. . .8.W.W.j.8.j.E.E.E.).iXaXfX=X2.;.>.R W >.T q W 3.R 0 f D V ^ 8 h % 8 a.. E ^ ,.4.% 4 ,.R f R ^ R $ R A E R V.,.1.V.I.V.M.B.",
"v v v _ O. . ._  . .` `  .j.=. .8.D V V 0 q T R W 7.3.R A E 1.5.a.T T h R I.% f f T R R h 0 Z R R R R % f 4 4 O D E V 4 f >.>.V ",
" .o.8.X.o.j.l.l.j.E.'.$XiXiX~. .<.2.E D R T W 6.W 6.W q A E >.B.R q d k f 4.h 8 h a.E ! >.4.I.E a.,.,.f h h 4.^ E ! V 4 f 1.>.V ",
"_ o.j... .k.).).E.).iXxXxXaX).j.} } V 0 E A q W q W q + 0 0 4 Z A E ! R 8 A ,.A h 4.D 5 f 4.I.! ,.A ! q 8 Z V.a.! 5 $ V ! D 0 0 ",
"v ..X._ _ o.E.~.'._.$XdXaX~.~.$X8.;.7 2 Z 0 @ 4 Z 3.R h >.E 0 Z % h ^ ^ h R P.,.8 8 E q $ 5 D I.q % T h f 8 E 0 ,.5 4 ,.B.R V ;.",
"..d.l.d.*.k.~.~.$X'.4XxXgX@X$XgX5XC.S 7 V V 8 8 4 q 8 8 R V 4 4 8 f E R ! A ^ 8 4 4 ^ 0 4 D Z a.q 8 R h A 8 Z 5 0 @ + 5 0 5 7 Z ",
"#.d.l.Q.Q.n.k.k.k.k._.iXaX@X_._.`.8.D V 7 7 0 0 ^ R Z R >.>.;.! a.a.a.E ^ 8 $ O % h Z + % E D % q q h 8 ! h Z Z A D Z 0 5 0 Z D ",
"..X.k._.}.Q.k.*.Q.Q.Q.!.+X@X!.=.X.S } } 7 2 V f >.q 4 8 0 Z E D h h ^ 8 R q h a.A ! 0 Z 0 + f q 8 Z ! ! P.>.D D E E E V 4 + 4 V ",
"#.k.*.@XsXjXn.f._.}.+X4XdXjX9XQ.v S | } S u 0 Z f Z h f 0 h D E 5 R 4.R E Z P.I.a.5.! ,.5.D 0 ^ P.8 3.h 5 h D 5 Z h 0 D >.E Z ;.",
"[ #.*.n.Q._.Q._.@X@X@X+X#X$X$X+XQ.k.| S z V f 0 E 0 4 f h q D p.E a.T.L.a.^ 3.^ 4.4.E 0 >.,.>.^ Y.p.^ R E R 5.5.5.,.Z 7 E 5.>.D ",
"X.{ #.{ [ X._.#X+X+X@X@X9XpXpXaXdXfX5X(.`.=XM.E V.,.R A A h Z R $ 8 q k q ! ( 4.I.P.p.0 ! h D f O ^ h ^ ! % 0 Z $ E D + 4 >.5.1.",
"sX`. Xn.^. XjXdXdX4X_.}.9XpXaX#XdXdX0X5X:X=XM.D V D h % 0 ! R % ^ E 8 % + ! E 3.! h ,.Z ,.4 E >.+ E 8 A q E >.>.8 p.p.0 5 R >.;.",
"`.#.d.{ #.d.`.n.@Xn.*.=._.$X4X4X4X4X@Xl.<.} C 7 ,.p.,.A ! B.5.h 3.! h q $ R $ % 5   h 5 ! 5 >.,.4 O $ % % *XV.q ! >.R 0 Z D Z V ",
"X.{ q.X.X.X.k.d...#.k._.}.+X@X4X_.}.}.^.d.J C V C.>.Z h A f 5 4 h q T f h p.A R R f Z + f Z >.5 8 % 4.E 8 T.B.4 D f 4 0 Z 5 4 D ",
"G X.X.d.#.q.X.k.d.n.}.2X+XQ.k.b.k.k.n./.l.| S C 1.Z 5 Z E A Z D 5 O f O % R 8 f Z h D 5 5 E ,.q 8 8 A $   8 D 4 5.! E ,.>.4 + D ",
"[ q.M | #.f.[ #.f.#.%.*.b.n._.@X#Xb.*.f.d.} S J D V 0 0 f f 5 O f 8 p.f ! 3.Z T q 8 E >.4 $ 0 0 q h $ 5 P.4.,.% ! 0 5 >.I.;.5 0 ",
"z.f.M c.$.w.m.c.x.].H.x.x.].%X%X}.4X#Xn.| q.g.C 2 7 f + 4 8 R T % Z Z R 4.T 0 W B.W A 4 q >.Z Z R Z >.! 4.a.h + $ 4 D Z % Z >.4 ",
"m.m.+.z.P +.y.z.m.J.H.x.x.J.XXXX|.!.&X2X^.{ G G C V D h >.^ W 4 W T 0 q E B.>.@ 8 q >.W T >.W 3.4 5 V 5 4 f 0 R 0 + R B.E q h 0 ",
"<X8X]..Xz.$.$.z.v.m.H.v.m.XXJ.x.$.m.|./.f.l.q.u 7 7 D R V.B.6.Z W 3.Y.6.4 q 5.>.Z W B.>.T E >.B.R 0 Z f f D f R 4 8 >.,.Z Z D 4 ",
"].6X.X6XJ.z.m b m N N N N +.+.N %.b $.}./.f.| e.V D ,.^ a.6.U.a.T q W >.q q W 5.B.5.>.W W W W E >.h Z Z D D 0 Z Z D E q 4 D ,.D ",
"x.{.].<X{.S.y ; > > : : : e e , N ; $..X.XA.<.g.;.! >.h T q Z h V h 4 q >.>.E 4.^ A q Z E E V 4 E A ^ R f f D V.P.E q Z Z Z >.V.",
"J.oX{..X6X6Xm y b y e t t t t y ; 1 |.2X2XrXh.J D 0 f % q % % O 8 a.5.h A Z f ! V h 4 q Z q h 5 Z h ^ E E ! D >.B.>.Z V Z D ! 5.",
"H.{.J.J.>X6Xb y t w : : - - - : B ; H.lXjX3X:.e.! D >.R ^ Z E T D ,.! 0 8 f 5 + R E 0 V f 4 Z h 4 $ f h E ! 4   h ^ E 0 8 Z A Z ",
"H.oX{.{.6X7Xy y : : t t t 3 t i , 1 oX7X7XsXN.:.1.p.I.4.! 8 Z E >.Z >.5.Z Z >.! h D 0 >.>.f Z 5 $ 5 E f 0 A 0 0 8 0 f D Z $ $ ! ",
"v.oXv.J.].].m i y t w 3 3 3 6 t b B v.eXsX5XD.M.V Z @ q h Z ,.f Z f Z D D Z E ,.! D 0 0 D ^ ! D 0 f D f 5 A ! Z 0 E >.E h f Z D ",
"i.J.v.<X6XJ.e : w w w w 3 3 6 t , a v.yXeX,XN.1.>.D Z 0 Z p.4.f E D 8 + $ 5 5 + ,.Z 0 R 5.5.! Z E f h E ! ^ ! Z 4 4 0 Z f 8 0 Z ",
"G.G.&.{.8XK.s n : - w 3 3 3 3 w , a v.yXrX(.e.D >.5 Z 5 5 ! f f f E A 5 h 5.p.E h $ $ D 5.,.>.,.! 7 f ! ! A A A ! f f A ! f f Z ",
"v.G.$.J.{.v.p n y y i i i i i i B L G.eXrX,XN.! 1.0 R R 0 5 5 ! 4 E >.Z f E ! R R D D D f 4 0 E 5 4 f f 4 % f E ,.D f f Z f 5 7 ",
"v.;XJ.<X;XJ.p : 0.0.r.r.r.r.r.w.P L x.8XeXwX=X5.>.W Z E f 5 ! R D ! ,.>.D Z R >.E ,.,.D 5 0 f Z $ 4 Z f % 4 f f ! ! Z 5 f Z A f ",
"v.<XJ.{.{.{.m y : : : w w w w e a a &.;XwXwX=X5.V >.q q 0 Z ,.* f % % f h 0 f ! 8 D R Z A ,.>.Z 4 5 Z A D ! A % ! >.~ f f ! ! f ",
"J.K.y.J.{.J.s e > : : : : w w > < a y.;X1X,XV.! A W W ^ E ! ! 5 ,.! ! >.! f f A f Z f f Z A f % f 5 g ! ~ ~ J 5 f C C f f Z f % ",
"yXuX;XcXvX8Xm > e e e > w w e e < L K.yXwX=Xp.D A 4 6.I.>.0 $ ! 5 Z ,.5.R $ $ 0 4 4 7 7 u u u C C 5 f F g f Z A u 5 f ! ,.>.D f ",
"J.{.Z.v.J.u.m p > y p y > > , p ; < OXyXeXwXr.J ! 0 0 8 4 % 8 3.O 4 8 q h h h E D V 1.3 i i x H S F 3 * g f 4 f f h f Z ! A u 3 ",
"v.{.{.K.;Xu.p e > > > > ; > p m XX< i.8X7XrX,X:.f . Z 4 P.Z @ % W T q T 5.3.R D p.;.M.J q.w.@.H | w g C 4 A p.A % 8 8 f D Z u V ",
"v.{.J.G.{.z.b p p p p p b B N +.nX&.H.lX7X3X,X:.! 7 8 V 7.I.4 ^ 4.R 4 4 Z T h D ,.! e.:.F.F.r.9.F.F.:.u f R ^ ^ 8 h f 8 f f f D ",
"{.{.v.v.{.v.p > < b N +.+.%.%.$.L o &.kXyX>XD.J J 0 D V.Z I.% R q R h + O @ 8 A E ! ,.~ :.9.9.K :.F.J * F 4.,.p.^ ( R f C f u C ",
"{.<X].{.<Xm.N N +.%.z.x.m.m.!.H.H.H.H.<X6X{.(.D.:.. ,.^ % q 8 +   4.Y.^ f h h f 8 j R ,.t.s.s.t.K C F F f t.V.f ^ ~ R A ! A 7 3 ",
"J.<X.X{.{.m.m.qX7X7X7X7XqXpXhXlXzXzXH.&..XeXbXbXe.X Z ! $ Z 3.q 8 V.T.,.! ,.! f R ( / P.T.R.P.~ J K :.~ :.,.! % f h h R 1.~ 3 * ",
"m.{.S.v.x.z.m.hX7X6X#X.X#X6XqXqX|.oXx.S.>X>X[.:.i V f Y.>.5.3.f A ,.! 0 f R T h P.R.s.P.s.s./ d u 9.F f t.,.R t.f h f Z ;.! u 7 ",
"m.J.m.m.].%.b N { ' N ' ' ' ' ' -.L %.6XeXsXcXA.S :.! f 1.  E h 5 f 8 5 f d 8 h h ( j ( Y / s.L.p.J F f   % ! ^ ^ ^ h 0 Z D C J ",
"$.c.w.c.m.z.w.M %.{ $.%.+.%.%.z.m.x.|.].qX7X3X[.h.:.J 5 4 q q R ! O 8 A h ^ Y % O 8 / 9 Y ) R.tXN.:.e.~ u j j A 8 f h h f ! ~ u ",
"+.w.$.c.S.m./.f.n.f.n.f.z.n.f.m.|.%XqX%XqX0XeX:Xh.C C D D f 5 ^ V.^ ^ ! R h k 4.( Y = k 9 = = Y D i :.t.,.,.h 8 5 8 A R u 7 u f ",
"c.J.S.{.{.{.>X].2X[.|.m.m./.z.x.].qXhXhXkXeXvX7XA.9.:.C f E V V 3.8 3.a.E ^ ^ 8 8 = # Y = = # k r 3 3 5 A ! 5 % R f A E f 3 f J ",
"$.c.w.c.z.w.c.z..X].|.m.n.m.z.m.b.6X7XlXvX7XcX>X,XF.e.u 7 D D W ^ L.7.h 4.T.( s.Q 4.4.4.Q 3.U 8 p.9.D 3 ! 4.A ! ! 8 $ % 2 7 f V ",
"0.c.y.v.c.c.K.].c.c.].c.z.S.S. X6XpXqXvXnX7XkX6X3X| S J V 4 0 P.6.) U.L.Y ^ a.6.E f q q L.-XU.R e.e.:.g ! ! 8 h ! h 8 4 4 V D u ",
"P @.P 0.0.@.c.c.S.].<XS.n.[.[.2X X}.].6XhX].6X[.].| K S V 7 5 >.I Q Q W L.U O ( a.f 4 @ ^ T W Z :.9.:.f r f & 8 R ^ 4.! V D ;.C ",
"u.c.w.v.Z.u.S.S.].{.<XS.c.].S.[. X4XpX0XhXqXsX6Xc.h.q.6 3 ! V @ 7.I I I T ^ Q 3.! Z h q Z Z 3.*XY.F.D.~ g ! ^ ,.h h D A f f C u ",
"w.u.@.c.Z.u.J.J.w.w.m.0.$.S.c.m.f. XlX.X2X2X[.w.A.9.K 6 V >.D 0 @ 3.7.9 U 4.h R ,.5.R V 4 W W W ,.J e.A * f f 8 ! 4 $ 0 f f C C ",
"0.w.c.S.S.c.c.c.w.f.c.@.@.c.c.n.n.m.^.2X2X X5XA.A.<.} V u V 7 V % q ( 6.! ^ 5.4.,.*XP.% 4 h % f f 4 5 D f % f ,.Z 5 5 r r f g g ",
"H @.0.h.c.f.f.f.f.w.c.#.#.n.f.S.n.n.c. X[.^.`.d.g.J D z V S V D R Z h E ^ q q a.$ E ^ f E ,.f R ^ A Z ! ~ J f f A F g 5 r g g r ",
"| @.w.c.c.c.c.c.c.#.f.#.#.f.w.n.f.f.f./.`.^.`.d.e.S S z z V 7 f 4 ^ A 5 ! A % h % 8 h 8 E ^ 8 ! 5 h R ! R A f 5 f ~ A 5 j ! g f ",
"@.0.r.c.c.f.w.w.n.#.f.w.w.w.#.n.f.n.n.:X X^.`.g.<.S S l u z 2 7   R h $ A ,.h 5 $ % h ! 4.! % d 4 h ! ! A f 8 8 * A f d ~ ~ r g ",
"H | @.0.#.@.@.@.n.#.w.w.f.f.#.n.n./. X3X Xn.A.<.G u z l u V 7 f Z % $ 5 f A ! ^ ! f 5 % 5 A ! Y.I.4.^ 3.3.R f f & f & 5 ! f * f ",
"G H @.@.#.@.#.#.w.| q.#.f.n.f.A.f.n.^.:X^.h.A.X.G l x z z C 7 z f % 5 f 8 A ,.! f h ,.4.,.>.f 8 V.3.,.4.,.E ^ p.^ A 5 8 j & * j ",
"H | @.q.q.q.q.q.X.| q.#.f.^.n.^.n.n.f.^.A.h.A.| } z x u u z 2 7 2 Z D f f R E Z ! ! 5.A Z >.f $ % h E T d d ! a.4.R d d f d d f ",
"G H | | | H H H | | f.X.d.`.^.A.5X`.h.A.n.g.h.G x 2 6 6 7 z 6 u C A 4 4 A 4 % a.Z f Z $ % ,.,.f 8 h h 8 % 8 d 8 h d f f d j j 5 ",
"x x x i x n G H | | | q.h.A./.`.^.n.n.A.A.A.q.G i u t u z z u 3 u f 5 4 4 5 f f 4 4 5 f Z f 5 5 8 A f % 8 f 8 5 ^ A j R ~ >.R d ",
"n x x x n n G G | | | X.d.h.n.A.^.A.l.l.h.d.} c i t 6 t u u 7 3 u f f f Z Z f 5 4 % % f Z Z f f A A 8 5 0 5 $ 5 j f f f Z A g d ",
"x x x x x x x x G M M G { X.#.#.X.X.#.q.X.| G x l t t 6 6 6 6 3 u f f f V C f 4 ! f 5 f C f u 5 A h 5 f A f 5 A 4 5 r r 3 5 u f ",
"i i x x x x l l x x l x M [ [ [ c G [ [ G G S c z u 6 6 3 3 6 3 f 7 4 % 7 f f 7 :.D f u u 7 4 4 f f 5 f D f u A 3 3 u r 3 3 r r ",
"i x x x x x l l x x x M [ { | { [ | | | G S x x z z u t 3 3 6 6 C f 3 2 3 f C C u r 3 3 3 3 3 f 3 f u 3 u u 2 * u u u f u u u 3 ",
"x x x n n n x x x x x c G [ [ [ G G [ [ S S S S x x z i t 6 6 6 u u u u u f C f 3 3 3 u u u f D 3 D C 3 V S u 3 C g x C S C t 3 ",
"i x x x x x x x l t l l c c c c x x x c c S S S x x C x i t t 6 3 u V u u u u u u u f C C V f C V S V u S J S G u i i i x i t w ",
"t t i i t l l l l l l x x c x x [ G c c S S x x x S S S z u t 7 u V C u 3 3 u u 3 3 7 V D V u 7 S z 2 6 u 2 - x t t t t w w t t "
};
