/* XPM */
static char *New_Project__34_1682524060[] = {
/* columns rows colors chars-per-pixel */
"64 64 108 2 ",
"   c None",
".  c #141413",
"X  c #171616",
"o  c #181716",
"O  c #1C1C1B",
"+  c #1E1E1E",
"@  c gray12",
"#  c #231F13",
"$  c #2B2414",
"%  c #332913",
"&  c #202020",
"*  c #212122",
"=  c #222425",
"-  c #242526",
";  c #242628",
":  c #252728",
">  c #26292A",
",  c #27292A",
"<  c #2A2E31",
"1  c #2D3235",
"2  c #2F3438",
"3  c #2F3538",
"4  c #303639",
"5  c #32383C",
"6  c #333B3F",
"7  c #423414",
"8  c #473819",
"9  c #493B1C",
"0  c #523E14",
"q  c #614407",
"w  c #614915",
"e  c #6B4E12",
"r  c #715314",
"t  c #715415",
"y  c #725415",
"u  c #7F5E15",
"i  c #745718",
"p  c #75581A",
"a  c #76591B",
"s  c #785C1E",
"d  c #454131",
"f  c #584F32",
"g  c #705732",
"h  c #7B6022",
"j  c #7B6124",
"k  c #7D6933",
"l  c #343C40",
"z  c #343C41",
"x  c #353D42",
"c  c #384146",
"v  c #3A4449",
"b  c #3D484D",
"n  c #3D484E",
"m  c #434644",
"M  c #42494C",
"N  c #404D53",
"B  c #495050",
"V  c #4C5455",
"C  c #4E5556",
"Z  c #4A565A",
"A  c #525A5B",
"S  c #5D625F",
"D  c #5E625F",
"F  c #69635F",
"G  c #495960",
"H  c #656A66",
"J  c #656A67",
"K  c #696F6D",
"L  c #6C726F",
"P  c #667274",
"I  c #6B7270",
"U  c #6F7673",
"Y  c #697475",
"T  c #777A79",
"R  c #855A00",
"E  c #885D02",
"W  c #805E15",
"Q  c #8E6207",
"!  c #916509",
"~  c #93680C",
"^  c #966B0E",
"/  c #876315",
"(  c #906815",
")  c #996D10",
"_  c #906B19",
"`  c #906B1B",
"'  c #9C7013",
"]  c #9F7315",
"[  c #8C6D26",
"{  c #826A2E",
"}  c #8A6D28",
"|  c #936F20",
" . c #937731",
".. c #76807F",
"X. c #7F8579",
"o. c #78817C",
"O. c #7C837F",
"+. c #80877C",
"@. c #82897E",
"#. c #7B8582",
"$. c #7B8583",
"%. c #848B81",
"&. c #858C84",
"*. c #878E87",
"=. c #899089",
"-. c #8A928C",
";. c #8E938E",
":. c #8C948F",
/* pixels */
"      5 4         4 z :         6 <         5 4         2 6                                                                     ",
"      4 = 4       c : :       n < *         4 = 4       c 1                                                                     ",
"    z + O 1 G   v >   > N   G 1 O + z     v + O 1 N   N > O                                                                     ",
"v v +     + z N > O   O 1 N z +     @ v v >     + 1 N 1 @                                                                       ",
"5 <         4 4         4 l ;         5 <         4 2 -                                                                         ",
"4 *         z = 5       c < +         4 * 4       c = >                                                                         ",
"+ + z     v + + 2 n   n > + @ v     z + + 1     v > O > N                                                                       ",
"    * v N >     & 2 Z 1 O     > N v @     + v N > O   O 2 n                                                                     ",
"      5 4         4 z -         5 <         5 4         5 5                                                                     ",
"      4 = 4       c < >       n < *         2 = 4       c <                                                                     ",
"    z + + 1 G   v >   > N   G 1 O + z     z + + 1 N   N > O                                                                     ",
"v v +     + z N > +   O 1 N z +     * v v >     + 1 N 1 O                                                                       ",
"5 <         4 4         4 l ;         5 <         4 4 :                                                                         ",
"4 *         z = 4       c < +         4 * 4       c = :                                                                         ",
"K L ..:.:.$.I S Z   R | h p s } ] ] { p e d     v > O > N                                                                       ",
":.:.:.:.=.=.:.Y V N ^ ] ] ] ] ] ] ] ] ] ) 8 v N > O   O 1 N                                                                     ",
":.:.:.;.T #.:.@.C l ] ] ] ] ] r r ( ] ] ]   5 4         4 l                                                                     ",
":.:.:.T F *.:.@.A 4 ] ] ] ] / . % u ] ] ] k 4 = 4       c <                                                                     ",
":.:.:.o.X.=.:.=.m   ]  .[ ] $ % ( ] ] ] ] f + O 1 N   N > O                                                                     ",
":.:.:.*.X.=.:.&.S   ] g _ u . # 7 w ] ] ] 9     + 1 N 1 O                                                                       ",
":.:.:.=.&.=.:.:.    ] E ) ] ] W 7 W ] ] ]         4 4 =                                                                         ",
":.:.:.:.*.=.:.:.    ] ! ) ] ] 0 0 ( ] ] ] k       c = >                                                                         ",
":.:.:.=.=.:.:.:.P   ] ! ] ] ] 0 0 ( ] ] ] f     v > O > N                                                                       ",
":.:.:.=.*.:.:.:.A N ] ) ] ] ] _ ( ] ] ] ] 9 v N > O   O 2 N                                                                     ",
":.:.:.:.:.:.:.Y B 5 ^ ~ ] ] ] ] ] ] ] ] )   5 4         4 5                                                                     ",
":.:.U H H I :.X.N 4 q i ` ] ] s t t h ] Q   4 = 4       c <                                                                     ",
"    1 X o > G   z -   * n   G > X o 1     v + + 1 N   N > O                                                                     ",
"v v +     + z N > O   O 2 n x @     * v v >     + 1 N 1 O                                                                       ",
"5 <         4 4         4 6 ;         5 <         4 4 :                                                                         ",
"4 *         z = 4       c < @         4 * 4       c = :                                                                         ",
"+ + z     v @ O 1 N   N > O # n     z + + 1     v > O > N                                                                       ",
"    @ v N >     + 1 G 1 O     > N v +     + v N > O   O 1 N                                                                     ",
"      5 4         4 z =         z <         5 4         5 5                                                                     ",
"      4 = 4       c : >       n < *         4 = 4       c <                                                                     ",
"    z + + 1 G   v >   > N   G 1 O + z     v + O 1 N   N > O                                                                     ",
"v v +     + z N > +   O 1 N z +     + v v >     + 1 N 1 O                                                                       ",
"5 <         4 4         2 6 :         5 <         4 4 :                                                                         ",
"4 *         z = 4       c < +         4 * 4       c = :                                                                         ",
"+ + z     v + O 1 N   N > O + v     z + + 1     v > O > N                                                                       ",
"    $ v N >     + 1 G 1 +     > N v +     + v N > O   O 1 N                                                                     ",
"      l 2         4 z :         z <         5 4         4 z                                                                     ",
"      3 = 2       c : :       n < *         4 = 4       c <                                                                     ",
"    x @ O 1 G   v >   > N   G 1 O + z     v + O 1 N   N > O                                                                     ",
"v v *     @ x N > +   + 1 N z +     + v v >     + 1 N 1 O                                                                       ",
"5 <         4 4         3 l ;         z <         4 4 =                                                                         ",
"4 *         x = 5       v < @         2 * 4       c = >                                                                         ",
"+ + z     v @ + 1 n   n ; + @ v     z + + 1     v > O > N                                                                       ",
"    + v N >     + 2 G 1 +     > N v $     + v N > O   O 1 N                                                                     ",
"      5 4         4 z :         5 <         5 4         4 6                                                                     ",
"      4 = 4       c : :       n < *         2 = 4       c <                                                                     ",
"    z + O 1 G   v >   > N   G 1 O + z     v + + 1 N   N > O                                                                     ",
"v v @     + z N > O   O 1 N z +     * v v >     + 1 N 1 O                                                                       ",
"5 <         4 4         4 l ;         5 <         4 2 :                                                                         ",
"4 *         z = 5       c < +         4 * 4       c = >                                                                         ",
"+ + z     v @ + 2 n   n > + @ v     z + + 1     v > O > N                                                                       ",
"    @ v N >     & 2 Z 1 O     > N v +     + v N > O   O 1 N                                                                     ",
"      5 4         4 z :         5 1         5 4         4 6                                                                     ",
"      4 = 5       c = >       n < *         4 = 4       c <                                                                     ",
"    z + O 1 G   v >   > N   G 1 O + z     v + O 1 N   N > O                                                                     ",
"v v @     + z N > +   O 1 N z +     * v v >     + 1 N 1 O                                                                       ",
"5 <         5 2         4 l :         5 <         4 4 :                                                                         ",
"4 *         z = 5       c < @         4 * 4       c = :                                                                         ",
"+ + z     b & O 2 n   n > + @ v     z + + 1     v > O > N                                                                       ",
"    @ v n >     & 2 Z 1 O     > N v +     + v N > O   O 1 N                                                                     "
};
