/* XPM */
static char *New_Project__47_1682524655[] = {
/* columns rows colors chars-per-pixel */
"64 64 53 1 ",
"  c None",
". c #141413",
"X c #171616",
"o c #181716",
"O c #1C1C1B",
"+ c #1E1E1E",
"@ c gray12",
"# c #231F13",
"$ c #2B2414",
"% c #332913",
"& c #212122",
"* c #222425",
"= c #242628",
"- c #252728",
"; c #26292A",
": c #27292A",
"> c #2A2E31",
", c #2D3235",
"< c #303639",
"1 c #32383C",
"2 c #333B3F",
"3 c #423414",
"4 c #473819",
"5 c #493B1C",
"6 c #523E14",
"7 c #614915",
"8 c #6B4E12",
"9 c #715314",
"0 c #715415",
"q c #725415",
"w c #7F5E15",
"e c #745718",
"r c #76591B",
"t c #785C1E",
"y c #454131",
"u c #584F32",
"i c #7B6022",
"p c #7D6933",
"a c #343C40",
"s c #343C41",
"d c #384146",
"f c #3A4449",
"g c #3D484E",
"h c #404D53",
"j c #495960",
"k c #805E15",
"l c #8E6207",
"z c #876315",
"x c #906815",
"c c #996D10",
"v c #9F7315",
"b c #826A2E",
"n c #8A6D28",
/* pixels */
"   2>    2<    <2                                               ",
"  g>&    <*<   d>                                               ",
" j,O+s  f+O,h h;O                                               ",
"hs+  +ff;  +,h,O                                                ",
"2=    2>    <<=                                                 ",
">+    <&<   d*=                                                 ",
"++f  s++,  f;O;h                                                ",
"  ;hf+  +fh;O O,h                                               ",
"   s>    2<    <2                                               ",
"  g>&    <*<   d>                                               ",
" j,O#s  2+O,h h;O                                               ",
"hs@  &fd;  +,h,O                                                ",
"s=    2>    <<=                                                 ",
">@    <&<   d*=                                                 ",
"etnvvbr8y  f;O;h                                                ",
"vvvvvvvc4fh;O O,h                                               ",
"vv00xvvv 2<    <2                                               ",
"vz.%kvvvp<&<   d>                                               ",
"v$%xvvvvu+O,h h;O                                               ",
"w.#37vvv5  +,h,O                                                ",
"vvk3kvvv    <<=                                                 ",
"vv66xvvvp   d*;                                                 ",
"vv66xvvvu  f;O;h                                                ",
"vvxxvvvv5fh;O O,h                                               ",
"vvvvvvvc 2<    <2                                               ",
"vvt0qivl <*<   d>                                               ",
" j;.o,  f+O,h h;O                                               ",
"hs@  +ff;  +,h,O                                                ",
"s=    2>    <<=                                                 ",
">@    <&<   d*=                                                 ",
"O@f  s++,  f;O;h                                                ",
"  ;hf@  +fh;O O,h                                               ",
"   2>    2<    <2                                               ",
"  g>&    <*<   d>                                               ",
" j,++s  f+O,h h;O                                               ",
"hs+  +ff;  +,h,O                                                ",
"2=    2>    <<=                                                 ",
">+    <&<   d*;                                                 ",
"O&f  s++,  f;O;h                                                ",
"  ;hf+  +fh;O O,h                                               ",
"   2>    2<    <2                                               ",
"  g>&    <&<   d>                                               ",
" j,O+s  f+O,h h;O                                               ",
"hs+  +ff;  +,h,O                                                ",
"s;    2>    <<=                                                 ",
">#    <&<   d*=                                                 ",
"O@f  s++,  f;O;h                                                ",
"  ;hf+  +fh;O O,h                                               ",
"   s>    2<    <2                                               ",
"  g>&    <*<   d>                                               ",
" j,O+s  f+O,h h;O                                               ",
"hs@  +ff;  +,h,O                                                ",
"s=    2>    <<=                                                 ",
">@    <&<   d*=                                                 ",
"O@f  s@+,  f;O;h                                                ",
"  ;hf@  +fh;O O,h                                               ",
"   2>    2<    <2                                               ",
"  g>*    <*<   d>                                               ",
" j,+@s  f+O,h h;O                                               ",
"hs+  @ff;  +,h,O                                                ",
"2=    s>    <<=                                                 ",
">+    <&<   d*=                                                 ",
"O&f  s++,  f;O;h                                                ",
"  ;hf$  +fh;O O,h                                               "
};
