/* XPM */
static char *New_Project__11_1682523511[] = {
/* columns rows colors chars-per-pixel */
"64 64 139 2 ",
"   c None",
".  c #141413",
"X  c #171616",
"o  c #181716",
"O  c #191716",
"+  c #1B1A19",
"@  c #1C1C1B",
"#  c #1E1E1E",
"$  c gray12",
"%  c #231F13",
"&  c #2B2414",
"*  c #332913",
"=  c #202020",
"-  c #202021",
";  c #212122",
":  c #222425",
">  c #242526",
",  c #242628",
"<  c #252728",
"1  c #26292A",
"2  c #27292A",
"3  c #2C2D2C",
"4  c #2A2E31",
"5  c #2D3235",
"6  c #2F3438",
"7  c #2F3538",
"8  c #303639",
"9  c #32383C",
"0  c #333B3F",
"q  c #3C3F3C",
"w  c #423414",
"e  c #473819",
"r  c #493B1C",
"t  c #523E14",
"y  c #614407",
"u  c #614915",
"i  c #6B4E12",
"p  c #715314",
"a  c #715415",
"s  c #725415",
"d  c #7F5E15",
"f  c #745718",
"g  c #75581A",
"h  c #76591B",
"j  c #785C1E",
"k  c #454131",
"l  c #584F32",
"z  c #705732",
"x  c #7B6022",
"c  c #7B6124",
"v  c #7D6933",
"b  c #343C40",
"n  c #343C41",
"m  c #353D42",
"M  c #384146",
"N  c #394247",
"B  c #3A4449",
"V  c #3D484D",
"C  c #3D484E",
"Z  c #434644",
"A  c #444846",
"S  c #42494C",
"D  c #404D53",
"F  c #495050",
"G  c #4C5250",
"H  c #4C5455",
"J  c #4E5556",
"K  c #45535A",
"L  c #4A565A",
"P  c #525754",
"I  c #545855",
"U  c #525A5B",
"Y  c #575B58",
"T  c #545B5A",
"R  c #5D625F",
"E  c #5E625F",
"W  c #69635F",
"Q  c #495960",
"!  c #646966",
"~  c #656A66",
"^  c #656A67",
"/  c #666A67",
"(  c #676E6C",
")  c #686E6B",
"_  c #696E6B",
"`  c #696F6D",
"'  c #6C736E",
"]  c #6C726F",
"[  c #667274",
"{  c #6B7270",
"}  c #6C7370",
"|  c #6F7673",
" . c #697475",
".. c #6F7775",
"X. c #717873",
"o. c #707875",
"O. c #777A79",
"+. c #727C7A",
"@. c #767D7A",
"#. c #855A00",
"$. c #885D02",
"%. c #805E15",
"&. c #8E6207",
"*. c #916509",
"=. c #93680C",
"-. c #966B0E",
";. c #876315",
":. c #906815",
">. c #996D10",
",. c #906B19",
"<. c #906B1B",
"1. c #9C7013",
"2. c #9F7315",
"3. c #8C6D26",
"4. c #826A2E",
"5. c #8A6D28",
"6. c #936F20",
"7. c #937731",
"8. c #76807F",
"9. c #7F8579",
"0. c #78817C",
"q. c #79817D",
"w. c #7C837F",
"e. c #80877C",
"r. c #82897E",
"t. c #7B8582",
"y. c #7B8583",
"u. c #7F8681",
"i. c #7F8783",
"p. c #7D8785",
"a. c #848B81",
"s. c #838B86",
"d. c #858C84",
"f. c #878E87",
"g. c #828C88",
"h. c #899089",
"j. c #8A928C",
"k. c #8E938E",
"l. c #8C948F",
/* pixels */
"  9 4         9 4         8 8 ,         0 ,         9 8         8 m ,         b 4         9 8         8 9                       ",
"C 8 ;       C 8 ; 8       m : 1       C 5 #         8 : 8       N , 1       C 4 ;         8 : 8       N 4                       ",
"5 # ; B     5 # # 5     B # + 1 D   D 5 + # B     n # @ 5 Q   B 1   1 C   Q 5 @ # m     B # @ 5 D   D 1 #                       ",
"#   + 1 D B #     # B D 1     # 5 Q 5 #     1 B B &     # m D 1 +   # 5 D m #     # B B 1     # 5 D 5 @                         ",
"        9 5         9 8         6 m ,         9 4         9 8         6 9 ,         9 4         8 8 :                           ",
"      C 4 ;         8 : 8       N , ,       C 8 :         m : 6       N 5 #         8 ; 8       N : 1                           ",
"B   K 5 + # B     B # @ 5 Q   D 1   1 B   Q 5 # # n     C # # 5 D   D 1 # # B     m # # 5     B 1 @ 1 D                         ",
"1 B N #     1 B B 1     # m D 5 @   @ 1 D m #     - B C 1     # 5 Q 5 @     1 D B #     # B D 1 +   @ 5 D                       ",
"  9 4         9 4         8 8 ,         9 1         9 8         8 m :         9 5         9 8         6 b                       ",
"C 8 ;       C 8 ; 8       m : ,       C 4 #         8 : 8       N 4 1       C 5 ;         6 : 8       N 4                       ",
"5 # ; B     5 # # 5     B & @ 1 D   D 5 # # B     m # @ 5 Q   B 1   1 D   Q 5 @ # m     m # @ 5 D   D 1 #                       ",
"#   + 1 D B #     # B D 1     @ 5 Q 5 #     1 B B #     # m D 1 @   @ 5 C m #     # B B 1     # 5 D 5 @                         ",
"        b 4         9 6         6 m ,         9 4         8 8         8 9 ,         9 4         8 6 ,                           ",
"      C 4 ;         6 : 7       N , 1       C 8 ;         m : 8       N 4 ;         8 ; 8       N : 1                           ",
"B   K 5 # # B     B 4 P 8.l.l.g.../ ..t.l.l.+.` ` 8.l.l.t.{ E L   #.6.c f j 5.2.2.4.h i k     B 1 @ 1 C                         ",
"1 B N #     1 B B 1 I +.p.l.l.l.l.l.l.l.l.l.l.l.l.l.l.h.h.l. .H D -.2.2.2.2.2.2.2.2.2.>.e B D 1 @   @ 7 D                       ",
"  9 4         9 4     f.f.o.} ) ) l.) q.X.! q.l.l.l.k.O.t.l.r.J 9 2.2.2.2.2.p p :.2.2.2.  9 8         8 0                       ",
"C 8 ;       C 8 ; 8   h.h.T G A A l.A ( T q ) l.l.l.O.W f.l.r.U 8 2.2.2.2.;.. * %.2.2.2.v 8 : 8       N 4                       ",
"5 # ; B     5 # # 5 [ l.l.q ( q.T q ( l.l.l.l.l.l.l.0.e.h.l.h.Z   2.7.3.2.& * :.2.2.2.2.l # @ 5 D   D 1 @                       ",
"#   + 1 D B #     # U l.l.! q.s.o.! q.l.l.l.l.l.l.l.f.9.h.l.f.E   2.z ,.d . % w u 2.2.2.r     # 5 D 5 @                         ",
"        9 4         J l.l.l.l.l.l.l.l.l.l.l.l.l.l.l.h.a.j.l.l.    2.$.>.2.2.%.w %.2.2.2.        8 8 ,                           ",
"      C 5 ;         U l.l.! ` ' a.! l.l.l.l.l.l.l.l.j.f.h.l.l.    2.*.2.2.2.t t :.2.2.2.v       N : ,                           ",
"B   K 5 @ # B     B Z l.l.! ) ' u.! l.l.l.l.l.l.l.l.h.f.l.l.l.[   2.*.>.2.2.t t :.2.2.2.l     B 1 @ 1 D                         ",
"1 B N #     1 B B 1 E l.l.q 8.( l.j.l.l.l.l.l.l.l.l.h.f.l.l.l.U D 2.>.2.2.2.:.:.2.2.2.2.r B D 1 @   @ 5 D                       ",
"  9 4         9 4     +.p.l.l.j.l.l.l.l.l.l.l.l.l.l.l.l.l.l. .F b -.=.2.2.2.2.2.2.2.2.>.  9 8         8 0                       ",
"C 8 ;       C 8 ; 8   ' @./ / ' i.l.i.{ ! / @.l.l...! ! { l.t.S 6 y h <.2.2.j s s x 2.&.  8 : 8       N 4                       ",
"5 # ; B     5 # # 5     m o o ; C   C , X O m     5 o O 1 L   m :   ; C   L 1 X o 5     B # # 5 D   D 1 @                       ",
"#   + 1 D B #     # B D 1     # 6 Q 6 %     1 B B #     # m D 1 #   + 5 C m #     # B B 1     # 5 D 5 @                         ",
"        9 5         9 6         7 m ,         9 4         8 8         6 m ,         9 4         8 6 ,                           ",
"      C 4 ;         6 : 9       M , ,       C 8 ;         m : 8       N 5 ;         8 ; 8       N : 1                           ",
"B   K 5 + # B     B # # 5 L   C 1   1 B   Q 5 # # m     B # # 5 D   D 1 # # B     m # # 5     B 1 @ 1 C                         ",
"1 B N #     1 B B 1     # 0 D 6 @   # 1 D m #     ; B D 1     # 5 Q 5 @     1 D B #     # B D 1 @   @ 7 D                       ",
"  9 4         9 4         8 8 ,         b :         9 8         8 m ,         9 4         9 8         8 0                       ",
"C 8 ;       C 8 ; 8       m : ,       C 4 ;         8 : 8       N , ,       C 5 ;         8 : 8       N 4                       ",
"5 # ; B     5 # # 5     B ; @ 1 D   D 5 @ # B     m # @ 5 Q   B 1   1 D   L 5 @ # m     B # @ 5 D   D 1 @                       ",
"#   + 1 D B #     # B D 1     # 5 Q 5 #     1 B B #     # m D 1 @   @ 5 C m #     # B B 1     # 5 D 5 @                         ",
"        9 5         9 8         8 m ,         9 4         8 8         6 m ,         9 4         8 8 ,                           ",
"      C 4 ;         8 : 8       N , 1       C 9 ;         m : 8       N 5 ;         8 ; 8       N : ,                           ",
"B   K 5 @ # B     B # @ 5 L   D 1   1 B   Q 5 # # m     B # @ 5 D   D 1 # # B     m # # 5     B 1 @ 1 D                         ",
"1 B N #     1 B B 1     # m D 5 @   + 1 C m #     # B D 1     # 5 Q 5 @     1 D B #     # B D 1 +   @ 5 D                       ",
"  9 4         9 4         8 8 ,         0 ,         9 8         8 m ,         9 5         9 8         8 0                       ",
"C 8 ;       C 8 ; 8       m : ,       C 4 #         8 : 8       N : 1       C 4 ;         8 : 8       N 4                       ",
"5 # ; B     5 # # 5     B # # 1 D   D 5 @ ; B     m # @ 5 L   C 1   1 D   Q 5 @ # m     B # @ 5 D   D 1 @                       ",
"#   + 1 D B #     # B D 1     @ 5 Q 5 #     1 B B #     # m D 1 @   @ 5 D m #     # B B 1     # 5 D 5 @                         ",
"        9 4         9 8         6 m ,         9 4         8 8         8 9 ,         9 4         8 6 ,                           ",
"      C 5 ;         8 : 9       N , 1       C 8 ;         m : 6       N 4 ;         8 ; 8       N : 1                           ",
"B   K 5 @ # B     B # # 5 Q   D 1   1 B   L 5 # # m     B ; @ 5 D   D 1 @ # B     m # # 5     B 1 @ 1 C                         ",
"1 B N #     1 B B 1     # b C 5 #   ; 2 C m #     # C C 1     ; 5 Q 5 @     1 D B #     # B D 1 @   @ 7 D                       ",
"  9 4         9 4         8 8 ,         9 1         9 8         6 m 1         9 4         9 8         8 9                       ",
"C 8 ;       C 8 ; 8       m : 1       C 4 #         8 : 7       M , 1       C 4 ;         8 : 8       N 4                       ",
"5 # ; B     5 # # 5     B # + 1 D   D 5 # # B     m # @ 5 L   B 1   1 C   Q 5 @ # m     B # @ 5 D   D 1 @                       ",
"#   + 1 D B #     # B D 1     # 5 Q 5 #     1 B B #     # m D 1 #   @ 7 D m #     # B B 1     # 5 D 5 @                         ",
"        9 5         9 8         6 m ,         9 4         8 8         8 9 1         9 4         8 8 ,                           ",
"      C 4 ;         8 : 8       N , 1       C 8 ;         m : 8       N 4 ;         8 ; 8       N : ,                           ",
"B   K 5 + # B     B # @ 5 Q   D 1   1 B   Q 5 # # m     B # # 5 D   D 1 @ # B     m # # 5     B 1 @ 1 D                         ",
"1 B N #     1 B B 1     # m D 5 @   @ 1 D m #     # B D 1     # 5 Q 5 @     1 D B #     # B D 1 @   @ 5 D                       ",
"  9 4         9 4         8 8 ,         0 ,         9 8         8 m ,         0 4         9 8         6 m                       ",
"C 8 ;       C 8 ; 8       m : ,       C 5 #         8 : 8       N , ,       C 4 ;         8 : 8       N 4                       ",
"5 # ; B     5 # # 5     B & @ 1 D   D 5 + # B     m # @ 5 Q   B 1   1 D   Q 5 @ # m     B # @ 5 D   D 1 @                       ",
"#   + 1 D B #     # B D 1     @ 5 Q 5 #     1 B B #     # m D 1 +   @ 5 D m #     # B B 1     # 7 D 5 @                         ",
"        9 4         b 7         6 m 1         9 4         8 8         6 9 ,         9 4         7 6 <                           ",
"      C 4 ;         6 : 7       M , >       C 8 ;         m : 8       N 5 #         8 ; 8       M : 1                           ",
"B   K 5 # # B     C # # 6 Q   D 1   2 B   Q 5 # # m     B # @ 5 D   D 1 # # B     m # # 5     B 1 @ 1 C                         ",
"1 B B #     1 B B ,     # m C 6 #   # 2 C m #     # B D 1     # 5 Q 5 @     1 D B #     # B D 1 @   @ 7 D                       "
};
