/* XPM */
static char *New_Project__27_1682524008[] = {
/* columns rows colors chars-per-pixel */
"64 64 125 2 ",
"   c None",
".  c #141413",
"X  c #171616",
"o  c #181716",
"O  c #191716",
"+  c #1C1C1B",
"@  c #1E1E1E",
"#  c gray12",
"$  c #231F13",
"%  c #2B2414",
"&  c #332913",
"*  c #202020",
"=  c #212122",
"-  c #222425",
";  c #242526",
":  c #242628",
">  c #252728",
",  c #26292A",
"<  c #27292A",
"1  c #2A2E31",
"2  c #2D3235",
"3  c #2F3438",
"4  c #2F3538",
"5  c #303639",
"6  c #32383C",
"7  c #333B3F",
"8  c #3C3F3C",
"9  c #423414",
"0  c #473819",
"q  c #493B1C",
"w  c #523E14",
"e  c #614407",
"r  c #614915",
"t  c #6B4E12",
"y  c #715314",
"u  c #715415",
"i  c #725415",
"p  c #7F5E15",
"a  c #745718",
"s  c #75581A",
"d  c #76591B",
"f  c #785C1E",
"g  c #454131",
"h  c #584F32",
"j  c #705732",
"k  c #7B6022",
"l  c #7B6124",
"z  c #7D6933",
"x  c #343C40",
"c  c #343C41",
"v  c #353D42",
"b  c #384146",
"n  c #3A4449",
"m  c #3D484D",
"M  c #3D484E",
"N  c #434644",
"B  c #444846",
"V  c #42494C",
"C  c #404D53",
"Z  c #495050",
"A  c #4C5455",
"S  c #4E5556",
"D  c #4A565A",
"F  c #525A5B",
"G  c #575B58",
"H  c #545B5A",
"J  c #5D625F",
"K  c #5E625F",
"L  c #69635F",
"P  c #495960",
"I  c #646966",
"U  c #656A66",
"Y  c #656A67",
"T  c #666A67",
"R  c #676E6C",
"E  c #686E6B",
"W  c #696F6D",
"Q  c #6C726F",
"!  c #667274",
"~  c #6B7270",
"^  c #6F7673",
"/  c #697475",
"(  c #6F7775",
")  c #717873",
"_  c #707875",
"`  c #777A79",
"'  c #727C7A",
"]  c #767D7A",
"[  c #855A00",
"{  c #885D02",
"}  c #805E15",
"|  c #8E6207",
" . c #916509",
".. c #93680C",
"X. c #966B0E",
"o. c #876315",
"O. c #906815",
"+. c #996D10",
"@. c #906B19",
"#. c #906B1B",
"$. c #9C7013",
"%. c #9F7315",
"&. c #8C6D26",
"*. c #826A2E",
"=. c #8A6D28",
"-. c #936F20",
";. c #937731",
":. c #76807F",
">. c #7F8579",
",. c #78817C",
"<. c #79817D",
"1. c #7C837F",
"2. c #80877C",
"3. c #82897E",
"4. c #7B8582",
"5. c #7B8583",
"6. c #7F8681",
"7. c #7F8783",
"8. c #848B81",
"9. c #858C84",
"0. c #878E87",
"q. c #899089",
"w. c #8A928C",
"e. c #8E938E",
"r. c #8C948F",
/* pixels */
"        7 :         6 5         3 v :         x 1         6 5         5 6                                                       ",
"      M 1 #         5 - 5       b , ,       M 1 =         5 - 5       b 2                                                       ",
"C   C 2 @ # n     v @ + 2 D   n ,   < M   D 3 + @ v     n @ + 2 C   C , +                                                       ",
"2 P 2 @     , n n #     # v C , +   @ 3 C v @     # n n ,     @ 2 C 2 +                                                         ",
"5 v :         6 1         5 5         5 x ,         6 1         5 5 :                                                           ",
"b : :       M 3 =         v - 5       n 1 *         5 = 5       b - :                                                           ",
",   , n   D 3 @ @ v     n # @ 2 M   M , + # n     v @ @ 2     n , + , C                                                         ",
"+   + , C v @     @ n C ,     @ 2 P 3 @     < M n @     @ n C , +   + 2 C                                                       ",
"        x :         6 5         5 v :         x 1         6 5         5 6                                                       ",
"      M 1 #         5 - 5       b 1 :       M 1 =         5 - 3       b 1                                                       ",
"C   C 2 + # n     v @ + 2 D   n ,   , C   D 3 + @ v     v @ @ 2 C   C , +                                                       ",
"2 P 2 @     , n n #     # v C , +   @ 2 C v @     @ n n ,     @ 2 C 2 +                                                         ",
"5 v :         6 1         5 5         5 v -         6 1         5 5 ;                                                           ",
"b : :       M 5 =         v - 5       b 1 =         5 = 5       b - ,                                                           ",
"( T _ 5.r.r.' R W 4.r.r.5.~ J D   [ -.l u f =.%.%.*.s t g     n , + , C                                                         ",
"r.r.r.r.r.r.r.r.r.w.r.q.w.r./ A C X.%.%.%.%.%.%.%.%.%.+.0 n C , +   + 2 C                                                       ",
"W w.W <.) I <.w.r.r.r.` 6.r.3.A x %.%.%.%.%.y y O.%.%.%.  6 5         5 v                                                       ",
"B r.B R G 8 W r.r.r.` L 0.r.3.F 3 %.%.%.%.o.X & } %.%.%.z 5 - 5       b 1                                                       ",
"H 8 R r.r.r.r.r.r.r.<.2.w.r.q.N   %.;.&.%.% & O.%.%.%.%.h # + 2 C   C , +                                                       ",
"_ Y <.r.r.r.r.r.r.r.9.>.q.r.9.J   %.j @.p . $ 9 r %.%.%.q     @ 2 C 2 +                                                         ",
"r.r.r.r.r.r.r.r.r.r.q.8.w.r.r.    %.{ +.%.%.p 9 } %.%.%.        5 5 :                                                           ",
"6.I r.r.r.r.r.r.r.r.w.9.w.r.r.    %. .%.%.%.w w O.%.%.%.z       b - ,                                                           ",
"6.I r.r.r.r.r.r.r.r.w.w.w.r.r.~   %. .+.%.%.w w O.%.%.%.h     n , + , M                                                         ",
"r.r.r.r.r.r.r.r.r.r.q.9.r.r.r.H C %.+.%.%.%.O.O.%.%.%.%.q n C , +   + 3 C                                                       ",
"r.r.r.r.r.r.r.r.r.r.r.r.r.r./ C 6 +...%.%.%.%.%.%.%.%.+.  6 5         5 7                                                       ",
"7.r.6.~ Y T ] r.r.( Y Y ~ r.6.V 3 e s #.%.%.f u u k %.|   3 - 5       b 1                                                       ",
"M   M , X O v     2 o X , D   v ;   * M   P , X X 3     n # + 2 C   C , +                                                       ",
"2 P 2 @     , n n @     @ v C , +   + 2 C v @     $ n n ,     # 2 C 2 +                                                         ",
"5 v ;         6 1         5 5         5 6 ,         6 1         5 3 :                                                           ",
"b : ,       M 3 =         v - 5       b 1 #         3 = 5       b - ,                                                           ",
",   , n   D 2 # @ v     n @ @ 2 C   C , + # n     c # # 2     n , + , C                                                         ",
"+   + , C v #     # n C ,     @ 2 P 2 +     , C n =     # n C , +   + 2 C                                                       ",
"        x :         6 3         5 v ,         6 1         6 5         5 7                                                       ",
"      M 1 =         5 = 5       b : ,       M 1 =         5 - 5       b 1                                                       ",
"C   C 2 + @ n     v @ @ 2 P   n ,   , M   P 2 @ @ v     n @ + 2 C   C , +                                                       ",
"2 P 2 @     , n n *     @ v C , +   @ 3 M v @     @ n n ,     @ 2 C 2 +                                                         ",
"5 v :         6 1         5 5         5 6 :         6 1         5 3 :                                                           ",
"b : ,       M 5 =         v - 5       b 1 =         5 = 5       b - ,                                                           ",
",   , n   P 2 @ @ v     n * + 2 M   C , + @ n     v @ @ 2     n , + , C                                                         ",
"+   + , M v @     # n C ,     # 3 D 3 +     , C n @     @ n C , +   + 2 C                                                       ",
"        6 :         6 5         6 b ,         7 1         6 5         5 6                                                       ",
"      M 2 @         5 - 5       b - ,       M 1 =         5 - 5       b 1                                                       ",
"C   C 2 @ @ n     v @ + 2 D   n ,   , M   D 2 + @ v     n @ + 2 C   C , @                                                       ",
"2 P 2 @     , n n @     @ v C , +   @ 2 M v @     @ n n ,     @ 2 C 2 +                                                         ",
"3 v ,         6 1         5 5         5 v :         6 1         5 5 -                                                           ",
"b : :       M 5 =         v - 5       b 2 *         5 = 5       b - ,                                                           ",
",   , n   D 2 @ @ v     n # + 2 C   M , + * n     v @ @ 2     n , + , C                                                         ",
"@   * < M v @     # n C ,     @ 3 P 2 @     , C n @     @ n C , +   + 2 C                                                       ",
"        6 :         6 5         3 v :         x 1         6 5         5 x                                                       ",
"      M 1 *         3 = 5       b , ,       M 1 =         5 - 5       b 1                                                       ",
"C   C 2 @ @ n     x * @ 3 P   n ,   < M   D 3 + @ v     n @ + 2 C   C , @                                                       ",
"2 P 2 @     , n n *     @ v C , +   @ 3 C v @     # n n ,     @ 2 C 2 +                                                         ",
"5 v :         6 1         5 5         5 x ,         6 1         5 5 :                                                           ",
"b : :       M 3 =         v - 5       n 1 *         5 = 5       b - :                                                           ",
",   , n   D 3 @ @ v     n @ + 2 M   M , + # n     v @ @ 2     n , + , C                                                         ",
"@   + , C v @     @ n C ,     @ 2 P 3 @     < M n @     @ n C , +   + 2 C                                                       ",
"        v :         6 5         5 v :         x 1         6 5         5 7                                                       ",
"      M 1 @         5 - 5       b : :       M 1 =         5 - 5       b 1                                                       ",
"C   C 2 + @ n     v @ + 3 D   n ,   , C   D 3 + @ v     n @ + 2 C   C , +                                                       ",
"2 P 2 @     , n n #     @ v C , +   + 2 C v @     @ n n ,     @ 2 C 2 +                                                         ",
"5 v :         6 1         5 5         5 v :         6 1         5 5 :                                                           ",
"b : :       M 5 =         v - 5       b 1 @         5 = 5       b = ,                                                           ",
",   , n   P 2 @ @ v     n @ @ 2 C   C , + @ n     v @ @ 2     n , @ , C                                                         ",
"+   + , C v @     @ n C ,     @ 2 P 2 +     , C n @     @ n C , +   + 2 C                                                       "
};
