/* XPM */
static char *New_Project__50_1682524655[] = {
/* columns rows colors chars-per-pixel */
"64 64 36 1 ",
"  c None",
". c #181716",
"X c #1C1C1B",
"o c #1E1E1E",
"O c gray12",
"+ c #212122",
"@ c #222425",
"# c #242628",
"$ c #252728",
"% c #26292A",
"& c #2A2E31",
"* c #2D3235",
"= c #303639",
"- c #32383C",
"; c #333B3F",
": c #473819",
"> c #493B1C",
", c #614915",
"< c #6B4E12",
"1 c #725415",
"2 c #76591B",
"3 c #454131",
"4 c #584F32",
"5 c #7B6022",
"6 c #7D6933",
"7 c #343C40",
"8 c #343C41",
"9 c #384146",
"0 c #3A4449",
"q c #404D53",
"w c #805E15",
"e c #8E6207",
"r c #906815",
"t c #996D10",
"y c #9F7315",
"u c #826A2E",
/* pixels */
"&    -=    =-                                                   ",
"+    =@=   9*                                                   ",
"O8  0OX*q q%X                                                   ",
" O00%  O*q*X                                                    ",
"  =&    ==#                                                     ",
"  =+=   9@#                                                     ",
" 8OO*  0%X%q                                                    ",
"0O  O0q%X X*q                                                   ",
"&    -=    =;                                                   ",
"+    =@=   9&                                                   ",
"O7  8OX*q q%X                                                   ",
" O00%  O*q*X                                                    ",
"  -&    ==#                                                     ",
"  =+=   9@%                                                     ",
"yu2<3  0%X%q                                                    ",
"yyyt:0q%X X*q                                                   ",
"ryyy -=    =-                                                   ",
"wyyy6=@=   9*                                                   ",
"yyyy4OX*q q%X                                                   ",
",yyy>  O*q*X                                                    ",
"wyyy    ==#                                                     ",
"ryyy6   9@%                                                     ",
"ryyy4  0%X%q                                                    ",
"yyyy>0q%X X*q                                                   ",
"yyyt -=    =;                                                   ",
"15ye =@=   9&                                                   ",
".*  0OX*q q%X                                                   ",
" O00%  O*q*X                                                    ",
"  =&    ==#                                                     ",
"  =+=   9@#                                                     ",
" 8OO*  0%X%q                                                    ",
"0O  O0q%X X*q                                                   ",
"&    -=    =;                                                   ",
"+    =@=   9&                                                   ",
"O7  0OX*q q%X                                                   ",
" O00%  O*q*X                                                    ",
"  -&    ==#                                                     ",
"  =+=   9@%                                                     ",
" 8OO*  0%X%q                                                    ",
"0O  O0q%X X*q                                                   ",
"&    -=    =;                                                   ",
"+    =@=   9&                                                   ",
"O8  0OX*q q%X                                                   ",
" O00%  O*q*X                                                    ",
"  =&    ==#                                                     ",
"  =+=   9@#                                                     ",
" 8OO*  0%X%q                                                    ",
"0O  O0q%X X*q                                                   ",
"&    -=    =-                                                   ",
"+    =@=   9*                                                   ",
"O8  0OX*q q%X                                                   ",
" O00%  O*q*X                                                    ",
"  =&    ==#                                                     ",
"  =+=   9@#                                                     ",
" 8OO*  0%X%q                                                    ",
"0O  O0q%X X*q                                                   ",
"&    -=    =;                                                   ",
"+    =@=   9&                                                   ",
"O7  0OX*q q%X                                                   ",
" O00%  O*q*X                                                    ",
"  -&    ==#                                                     ",
"  =+=   9@%                                                     ",
" 8OO*  0%X%q                                                    ",
"0O  O0q%X X*q                                                   "
};
