/* XPM */
static char *New_Project__39_1682524263[] = {
/* columns rows colors chars-per-pixel */
"64 64 96 2 ",
"   c None",
".  c #141413",
"X  c #171616",
"o  c #181716",
"O  c #1C1C1B",
"+  c #1E1E1E",
"@  c gray12",
"#  c #231F13",
"$  c #2B2414",
"%  c #332913",
"&  c #202020",
"*  c #212122",
"=  c #222425",
"-  c #242526",
";  c #242628",
":  c #252728",
">  c #26292A",
",  c #27292A",
"<  c #2A2E31",
"1  c #2D3235",
"2  c #2F3438",
"3  c #2F3538",
"4  c #303639",
"5  c #32383C",
"6  c #333B3F",
"7  c #423414",
"8  c #473819",
"9  c #493B1C",
"0  c #523E14",
"q  c #614407",
"w  c #614915",
"e  c #6B4E12",
"r  c #715314",
"t  c #715415",
"y  c #725415",
"u  c #7F5E15",
"i  c #745718",
"p  c #75581A",
"a  c #76591B",
"s  c #785C1E",
"d  c #454131",
"f  c #584F32",
"g  c #705732",
"h  c #7B6022",
"j  c #7B6124",
"k  c #7D6933",
"l  c #343C40",
"z  c #343C41",
"x  c #353D42",
"c  c #384146",
"v  c #3A4449",
"b  c #3D484D",
"n  c #3D484E",
"m  c #434644",
"M  c #42494C",
"N  c #404D53",
"B  c #495050",
"V  c #4C5455",
"C  c #4E5556",
"Z  c #4A565A",
"A  c #525A5B",
"S  c #5D625F",
"D  c #5E625F",
"F  c #495960",
"G  c #6C726F",
"H  c #667274",
"J  c #6B7270",
"K  c #697475",
"L  c #855A00",
"P  c #885D02",
"I  c #805E15",
"U  c #8E6207",
"Y  c #916509",
"T  c #93680C",
"R  c #966B0E",
"E  c #876315",
"W  c #906815",
"Q  c #996D10",
"!  c #906B19",
"~  c #906B1B",
"^  c #9C7013",
"/  c #9F7315",
"(  c #8C6D26",
")  c #826A2E",
"_  c #8A6D28",
"`  c #936F20",
"'  c #937731",
"]  c #7C837F",
"[  c #82897E",
"{  c #7B8582",
"}  c #7B8583",
"|  c #858C84",
" . c #878E87",
".. c #899089",
"X. c #8A928C",
"o. c #8C948F",
/* pixels */
"        4 z ;         6 <         6 2         4 6                                                                               ",
"4       c ; >       n < &         4 * 4       c <                                                                               ",
"1 F   v >   > N   F 1 O + z     v + O 1 N   N > O                                                                               ",
"+ z N > O   O 1 N z +     & v v >     + 1 N 1 +                                                                                 ",
"  4 4         4 6 ;         6 <         4 4 ;                                                                                   ",
"  z = 4       c < &         4 & 4       c = >                                                                                   ",
"v & O 1 N   N > O + v     z + + 1     v > O > N                                                                                 ",
">     + 1 F 1 O     > N v +     + v N > O   O 1 N                                                                               ",
"        4 z ;         6 <         6 2         4 6                                                                               ",
"4       c < ;       b < &         4 * 4       c <                                                                               ",
"1 F   v >   > N   F 1 + + z     z + O 1 N   N > O                                                                               ",
"+ z N > +   O 1 N z +     @ v v >     + 1 N 1 O                                                                                 ",
"  4 4         4 l ;         6 <         4 4 ;                                                                                   ",
"  z = 4       c < +         4 & 4       c * >                                                                                   ",
"} J D Z   L ` j i s _ / / ) a e d     v > + > N                                                                                 ",
"..o.K V N R / / / / / / / / / Q 8 v N > O   O 1 N                                                                               ",
"} o.[ V 6 / / / / / r r W / / /   6 4         4 6                                                                               ",
" .o.[ A 3 / / / / E . % I / / / k 3 = 4       c <                                                                               ",
"X.o...m   / ' ( / $ % W / / / / f + O 1 N   N > O                                                                               ",
"..o. .S   / g ! u . # 7 w / / / 9     + 1 N 1 O                                                                                 ",
"X.o.o.    / P Q / / I 7 I / / /         4 4 ;                                                                                   ",
"..o.o.    / Y ^ / / 0 0 W / / / k       c = ;                                                                                   ",
"o.o.o.H   / Y ^ / / 0 0 W / / / f     v > O > N                                                                                 ",
"o.o.o.A N / Q / / / W W / / / / 9 v N > O   O 1 N                                                                               ",
"o.o.K B z W T / / / / / / / / Q   6 3         4 6                                                                               ",
"G o.] M 2 q a ! / / s r y h / U   4 = 4       c <                                                                               ",
", Z   z ;   $ n   F > o o 1     v + O 1 N   N > O                                                                               ",
"@ z N > +   O 1 N z +     @ v v >     + 1 N 1 O                                                                                 ",
"  4 4         4 6 ;         z <         4 4 ;                                                                                   ",
"  x = 3       c < +         3 * 4       c = ;                                                                                   ",
"v @ + 1 N   N > O # n     z @ @ 1     v > O > N                                                                                 ",
",     + 1 F 1 +     > n n @     + v N > O   O 1 N                                                                               ",
"        4 z ;         6 <         6 4         4 6                                                                               ",
"4       c ; ;       n < &         4 = 4       c <                                                                               ",
"1 F   v >   > N   F 1 + @ z     v + O 1 N   N > O                                                                               ",
"+ z N > +   O 1 N z +     @ v v >     + 1 N 1 O                                                                                 ",
"  4 4         4 6 ;         6 <         4 4 ;                                                                                   ",
"  z = 4       c < +         4 & 4       c = ;                                                                                   ",
"v + + 1 N   N > O & v     z + + 1     v > O > N                                                                                 ",
">     + 1 F 1 O     > N v @     + v N > O   O 1 N                                                                               ",
"        4 z ;         6 <         6 4         4 6                                                                               ",
"4       c ; >       n 1 &         2 = 4       c <                                                                               ",
"1 F   v >   > N   F 1 + + z     v + O 1 N   N > O                                                                               ",
"+ z N > O   O 1 n z +     @ v v >     + 1 N 1 O                                                                                 ",
"  4 4         4 z ;         6 <         4 4 ;                                                                                   ",
"  z = 4       c < @         4 & 4       c = ;                                                                                   ",
"v & O 1 N   N > + @ n     z + + 1     v > O > N                                                                                 ",
">     + 1 F 1 O     > n n #     + v N > O   O 1 N                                                                               ",
"        4 z ;         6 <         6 3         4 6                                                                               ",
"4       c ; >       n < &         4 * 4       c <                                                                               ",
"1 F   v >   > N   F 1 O + z     v + O 1 N   N > O                                                                               ",
"+ z N > O   O 1 N z +     & v v >     + 1 N 1 +                                                                                 ",
"  4 4         4 6 ;         6 <         4 4 ;                                                                                   ",
"  z = 4       c < &         4 & 4       c = ;                                                                                   ",
"v & O 1 N   N > O + v     z + + 1     v > O > N                                                                                 ",
">     + 1 F 1 O     > N v +     + v N > O   O 1 N                                                                               ",
"        3 x >         6 <         6 3         4 6                                                                               ",
"5       v ; ;       b < &         4 * 4       c <                                                                               ",
"1 F   v >   > n   F 1 + + z     v + O 1 N   N > O                                                                               ",
"+ z n > +   O 1 N z +     @ v v >     + 1 N 1 +                                                                                 ",
"  4 4         6 6 ;         6 <         4 4 ;                                                                                   ",
"  z = 4       v < &         4 & 4       c = ;                                                                                   ",
"v + + 1 n   N > O + v     z + + 1     v > O > N                                                                                 ",
">     + 1 Z 1 +     > N v +     + v N > O   O 1 N                                                                               "
};
