/* XPM */
static char *New_Project__30_1682524009[] = {
/* columns rows colors chars-per-pixel */
"64 64 118 2 ",
"   c None",
".  c #141413",
"X  c #171616",
"o  c #181716",
"O  c #191716",
"+  c #1C1C1B",
"@  c #1E1E1E",
"#  c gray12",
"$  c #231F13",
"%  c #2B2414",
"&  c #332913",
"*  c #202020",
"=  c #212122",
"-  c #222425",
";  c #242526",
":  c #242628",
">  c #252728",
",  c #26292A",
"<  c #27292A",
"1  c #2A2E31",
"2  c #2D3235",
"3  c #2F3438",
"4  c #2F3538",
"5  c #303639",
"6  c #32383C",
"7  c #333B3F",
"8  c #3C3F3C",
"9  c #423414",
"0  c #473819",
"q  c #493B1C",
"w  c #523E14",
"e  c #614407",
"r  c #614915",
"t  c #6B4E12",
"y  c #715314",
"u  c #715415",
"i  c #725415",
"p  c #7F5E15",
"a  c #745718",
"s  c #75581A",
"d  c #76591B",
"f  c #785C1E",
"g  c #454131",
"h  c #584F32",
"j  c #705732",
"k  c #7B6022",
"l  c #7B6124",
"z  c #7D6933",
"x  c #343C40",
"c  c #343C41",
"v  c #353D42",
"b  c #384146",
"n  c #3A4449",
"m  c #3D484D",
"M  c #3D484E",
"N  c #434644",
"B  c #42494C",
"V  c #404D53",
"C  c #495050",
"Z  c #4C5455",
"A  c #4E5556",
"S  c #4A565A",
"D  c #525A5B",
"F  c #575B58",
"G  c #5D625F",
"H  c #5E625F",
"J  c #69635F",
"K  c #495960",
"L  c #646966",
"P  c #656A66",
"I  c #656A67",
"U  c #666A67",
"Y  c #676E6C",
"T  c #696F6D",
"R  c #6C726F",
"E  c #667274",
"W  c #6B7270",
"Q  c #6F7673",
"!  c #697475",
"~  c #717873",
"^  c #777A79",
"/  c #727C7A",
"(  c #767D7A",
")  c #855A00",
"_  c #885D02",
"`  c #805E15",
"'  c #8E6207",
"]  c #916509",
"[  c #93680C",
"{  c #966B0E",
"}  c #876315",
"|  c #906815",
" . c #996D10",
".. c #906B19",
"X. c #906B1B",
"o. c #9C7013",
"O. c #9F7315",
"+. c #8C6D26",
"@. c #826A2E",
"#. c #8A6D28",
"$. c #936F20",
"%. c #937731",
"&. c #76807F",
"*. c #7F8579",
"=. c #78817C",
"-. c #79817D",
";. c #7C837F",
":. c #80877C",
">. c #82897E",
",. c #7B8582",
"<. c #7B8583",
"1. c #848B81",
"2. c #858C84",
"3. c #878E87",
"4. c #899089",
"5. c #8A928C",
"6. c #8E938E",
"7. c #8C948F",
/* pixels */
"  7 :         7 3         4 v ,         v 2         7 4         5 7                                                             ",
"M 1 #         5 - 5       n : :       M 1 =         5 - 5       b 1                                                             ",
"2 + # n     x # + 2 S   n ,   , M   S 2 + # v     n # + 2 V   V , +                                                             ",
"#     , n n #     # v M , +   # 4 M v #     # n n ,     # 2 V 2 +                                                               ",
"        7 1         5 5         5 7 :         7 1         5 5 :                                                                 ",
"      m 5 *         c - 5       b 1 #         4 = 5       b - :                                                                 ",
"n   K 2 # # x     n # + 2 V   V , + # n     c # # 2     n , + , V                                                               ",
", V c #     # n V ,     # 2 K 2 +     , V n #     # n V , +   + 2 V                                                             ",
"  7 :         7 5         5 c :         v 2         7 4         5 7                                                             ",
"M 1 #         4 - 5       b 1 ,       M 1 =         4 - 5       b 1                                                             ",
"2 + # n     c # + 2 K   n ,   , M   S 2 + # v     c # + 2 V   V , +                                                             ",
"#     , n n #     # c V , +   + 4 M v #     # n n ,     # 2 V 2 +                                                               ",
"        6 1         5 5         5 7 :         7 1         5 5 -                                                                 ",
"      M 4 =         c - 5       b 1 #         5 = 5       b - ,                                                                 ",
"<.7.7./ T T ,.7.7.<.W G S   ) $.l a f #.O.O.@.d t g     n , + , V                                                               ",
"7.7.7.7.7.7.5.7.4.4.7.! Z V { O.O.O.O.O.O.O.O.O. .0 n V , +   + 2 V                                                             ",
"-.~ L -.7.7.7.6.^ ,.7.>.A 7 O.O.O.O.O.y y | O.O.O.  7 5         5 7                                                             ",
"Y F 8 Y 7.7.7.^ J 3.7.>.D 5 O.O.O.O.} . & p O.O.O.z 3 - 5       b 1                                                             ",
"7.7.7.7.7.7.7.-.;.5.7.3.N   O.%.+.O.% & | O.O.O.O.h # + 2 M   V , +                                                             ",
"7.7.7.7.7.7.7.3.*.4.7.3.H   O.j ..} . $ & r O.O.O.q     # 2 V 3 +                                                               ",
"7.7.7.7.7.7.7.4.1.4.7.7.    O._  .O.O.p 0 } O.O.O.        5 5 :                                                                 ",
"7.7.7.7.7.7.7.4.3.4.7.7.    O.] o.O.O.w w | O.O.O.z       b - :                                                                 ",
"7.7.7.7.7.7.7.5.4.5.7.7.E   O.] o.O.O.w w | O.O.O.h     n , + , V                                                               ",
"7.7.7.7.7.7.7.4.3.7.7.7.D V O. .O.O.O.| | O.O.O.O.q n V , +   + 2 V                                                             ",
"7.7.7.7.7.7.7.7.7.7.7.! C x { [ O.O.O.O.O.O.O.O. .  x 3         5 7                                                             ",
"W L U ( 7.7.Q L L W 7.;.B 4 e a ..O.O.f u a l O.'   4 - 5       b 1                                                             ",
", O O c     2 o X , K   7 -   = M   S , X o 2     n # + 2 V   V , +                                                             ",
"#     , n n #     $ c V , #   # 3 M v =     $ b n ,     # 2 V 2 +                                                               ",
"        7 1         4 4         4 7 :         7 1         5 5 :                                                                 ",
"      M 5 *         x - 6       b 2 #         4 - 5       b - :                                                                 ",
"n   K 2 # # x     M # # 2 M   M , + # n     c # # 2     n , + , V                                                               ",
", V c #     # n V ,     # 2 K 3 +     , V n #     # n V , +   + 2 V                                                             ",
"  7 :         6 5         5 c ;         7 1         7 4         5 7                                                             ",
"M 1 #         4 - 6       b : ,       m 1 =         4 - 5       b 1                                                             ",
"2 + # n     x # + 2 K   n ,   , V   K 2 + # x     n # + 2 V   V , +                                                             ",
"#     , n n =     # c M , #   + 2 V x #     # n n ,     # 2 V 2 +                                                               ",
"        5 1         5 5         5 7 :         7 1         5 5 -                                                                 ",
"      M 4 =         c - 5       b 1 #         6 = 5       b - ,                                                                 ",
"M   K 2 # # c     n = + 2 V   V , + # n     x # # 2     n , + , V                                                               ",
", M x #     # n V ,     # 2 K 2 +     , M n #     # n V , +   + 2 V                                                             ",
"  7 :         7 5         5 c :         7 1         7 5         5 7                                                             ",
"M 1 #         3 - 5       b : :       m 1 =         3 - 5       b 1                                                             ",
"2 + # n     c # + 2 K   n ,   , V   K 2 + # c     n # + 2 M   V , +                                                             ",
"#     , n n #     # c V , +   + 2 V c #     # n n ,     # 2 V 3 +                                                               ",
"        7 1         5 5         5 7 :         7 1         5 5 :                                                                 ",
"      M 3 =         c - 5       b 1 #         3 = 4       b - :                                                                 ",
"M   S 2 # # c     n # + 2 V   V , + # n     c # # 2     n , + , V                                                               ",
", M x #     # n V ,     # 2 K 2 +     , V n #     # n V , +   + 2 V                                                             ",
"  x :         7 3         4 v ,         v 2         7 4         5 7                                                             ",
"M 2 #         5 - 5       n : :       M 1 =         5 - 5       b 1                                                             ",
"2 + # n     x # + 2 S   n ,   , M   S 2 + # v     n # + 2 V   V , +                                                             ",
"#     , n n #     # v M , +   # 4 M v #     # n n ,     # 2 V 2 +                                                               ",
"        7 1         5 5         5 7 :         7 1         5 5 :                                                                 ",
"      m 5 *         c - 5       b 1 #         4 = 5       b - :                                                                 ",
"n   K 2 # # x     n # + 2 V   V , + # n     c # # 2     n , + , V                                                               ",
", V c #     # n V ,     # 2 K 2 +     , V n #     # n V , +   + 2 V                                                             ",
"  7 :         7 5         5 c :         v 2         7 4         5 7                                                             ",
"M 1 #         4 - 5       b ; ,       M 1 =         3 - 5       b 1                                                             ",
"2 + # n     c # + 2 K   n ,   , M   S 2 + # v     n # + 2 V   V , +                                                             ",
"#     , n n #     # c V , +   # 4 M v #     # n n ,     # 2 V 2 +                                                               ",
"        7 1         5 5         5 7 :         7 1         5 5 :                                                                 ",
"      M 4 =         c - 5       b 1 #         4 = 5       b - :                                                                 ",
"M   K 2 # # c     n # + 2 V   V , + # n     c # # 2     n , + , V                                                               ",
", M x #     # n V ,     # 2 K 2 +     , V n #     # n V , +   + 2 V                                                             "
};
