/* XPM */
static char *New_Project__6_1682523425[] = {
/* columns rows colors chars-per-pixel */
"64 64 139 2 ",
"   c None",
".  c #141413",
"X  c #171616",
"o  c #181716",
"O  c #191716",
"+  c #1B1A19",
"@  c #1C1C1B",
"#  c #1E1E1E",
"$  c gray12",
"%  c #231F13",
"&  c #2B2414",
"*  c #332913",
"=  c #202020",
"-  c #202021",
";  c #212122",
":  c #222425",
">  c #242526",
",  c #242628",
"<  c #252728",
"1  c #26292A",
"2  c #27292A",
"3  c #2C2D2C",
"4  c #2A2E31",
"5  c #2D3235",
"6  c #2F3438",
"7  c #2F3538",
"8  c #303639",
"9  c #32383C",
"0  c #333B3F",
"q  c #3C3F3C",
"w  c #423414",
"e  c #473819",
"r  c #493B1C",
"t  c #523E14",
"y  c #614407",
"u  c #614915",
"i  c #6B4E12",
"p  c #715314",
"a  c #715415",
"s  c #725415",
"d  c #7F5E15",
"f  c #745718",
"g  c #75581A",
"h  c #76591B",
"j  c #785C1E",
"k  c #454131",
"l  c #584F32",
"z  c #705732",
"x  c #7B6022",
"c  c #7B6124",
"v  c #7D6933",
"b  c #343C40",
"n  c #343C41",
"m  c #353D42",
"M  c #384146",
"N  c #394247",
"B  c #3A4449",
"V  c #3D484D",
"C  c #3D484E",
"Z  c #434644",
"A  c #444846",
"S  c #42494C",
"D  c #404D53",
"F  c #495050",
"G  c #4C5250",
"H  c #4C5455",
"J  c #4E5556",
"K  c #45535A",
"L  c #4A565A",
"P  c #525754",
"I  c #545855",
"U  c #525A5B",
"Y  c #575B58",
"T  c #545B5A",
"R  c #5D625F",
"E  c #5E625F",
"W  c #69635F",
"Q  c #495960",
"!  c #646966",
"~  c #656A66",
"^  c #656A67",
"/  c #666A67",
"(  c #676E6C",
")  c #686E6B",
"_  c #696E6B",
"`  c #696F6D",
"'  c #6C736E",
"]  c #6C726F",
"[  c #667274",
"{  c #6B7270",
"}  c #6C7370",
"|  c #6F7673",
" . c #697475",
".. c #6F7775",
"X. c #717873",
"o. c #707875",
"O. c #777A79",
"+. c #727C7A",
"@. c #767D7A",
"#. c #855A00",
"$. c #885D02",
"%. c #805E15",
"&. c #8E6207",
"*. c #916509",
"=. c #93680C",
"-. c #966B0E",
";. c #876315",
":. c #906815",
">. c #996D10",
",. c #906B19",
"<. c #906B1B",
"1. c #9C7013",
"2. c #9F7315",
"3. c #8C6D26",
"4. c #826A2E",
"5. c #8A6D28",
"6. c #936F20",
"7. c #937731",
"8. c #76807F",
"9. c #7F8579",
"0. c #78817C",
"q. c #79817D",
"w. c #7C837F",
"e. c #80877C",
"r. c #82897E",
"t. c #7B8582",
"y. c #7B8583",
"u. c #7F8681",
"i. c #7F8783",
"p. c #7D8785",
"a. c #848B81",
"s. c #838B86",
"d. c #858C84",
"f. c #878E87",
"g. c #828C88",
"h. c #899089",
"j. c #8A928C",
"k. c #8E938E",
"l. c #8C948F",
/* pixels */
"4 <         0 4         0 4         8 8 <         n ,         0 7         7 b <         n 4         0 7         8 n             ",
"; <       C 6 ;       C 6 ; 8       b : 1       C 4 $         8 : 8       N < <       C 4 ;         8 ; 8       M 4             ",
"# 1 B     5 # ; B     5 # # 5     B # # 1 C   D 5 # $ B     b # @ 5 Q   B 1   1 D   Q 5 @ # b     B # # 5 D   C 1 @             ",
"  @ 1 D B #   + 1 D B #     # B D 1     @ 5 Q 7 #     1 B B -     # b D 1 +   # 5 D b #     $ B B 1     # 6 D 5 @               ",
"      0 4         0 4         0 8         7 b ,         0 4         8 7         7 0 <         0 4         8 8 <                 ",
"    C 4 ;       C 4 ;         6 : 7       N < 1       C 8 -         b ; 8       N 4 #         8 ; 8       N : <                 ",
"  D 5 @ # B   K 5 @ # B     B # @ 5 Q   D 1   1 B   Q 5 # # b     B $ # 5 D   D 1 + # B     b # # 5     B 1 @ 1 D               ",
"B 5 #     1 B N #     1 B B 1     - m C 5 #   # 1 D b #     # B D 1     # 5 Q 5 #     1 D B #     # B D 1 @   @ 5 D             ",
"4 <         8 4         0 4         8 8 <         b <         0 0         8 b <         0 4         0 7         8 0             ",
"; 1       C 8 ;       C 6 ; 8       b : <       C 4 $         8 ; 7       N 4 <       C 4 ;         6 : 9       N 4             ",
"# 1 B     5 # ; B     5 # # 5     B # # 1 C   C 5 @ # B     b # @ 5 Q   B 1   1 D   Q 5 # # b     b # # 5 D   D 1 @             ",
"  + 1 D B #   + 1 D B #     # B D 1     # 5 Q 7 #     1 B B $     $ b D 1 @   # 5 D b #     # N B 1     # 5 C 5 @               ",
"      b 4         0 4         0 8         7 b <         0 4         9 7         8 b <         0 4         8 8 <                 ",
"    C 4 ;       C 4 ;         6 : 8       N < <       C 8 ;         b : 8       M 4 $         7 ; 8       N : <                 ",
"  D 5 @ # B   K 5 @ # B     B 3 P +.l.l.g...! o.y.l.l.+.` ` @.l.l.y.{ E L   #.6.c f j 5.2.2.4.j i k     B 1 @ 1 D               ",
"B 5 #     1 B N #     1 B B 1 I +.p.l.l.l.l.l.l.l.l.l.l.l.l.l.l.h.h.l. .H D -.2.2.2.2.2.2.2.2.2.>.e B D 1 @   @ 5 D             ",
"4 <         0 4         0 3     f.f.o.} ` ` l.) q.X.! q.l.l.l.l.O.y.l.r.H 0 2.2.2.2.2.p s :.2.2.2.  0 6         8 n             ",
"; <       C 8 ;       C 7 - 8   h.h.T G Z A l.A ` T q ( l.l.l.O.W h.l.r.U 7 2.2.2.2.;.. * %.2.2.2.v 8 ; 8       M 4             ",
"# 1 N     5 # ; B     5 $ $ 5 [ l.l.q ( q.U q ( l.l.l.l.l.l.l.q.e.h.l.h.Z   2.7.3.2.& * :.2.2.2.2.l # # 5 D   C 1 @             ",
"  # 1 C B #   + 1 D B #     # U l.l.! q.s.o.! q.l.l.l.l.l.l.l.f.e.h.l.d.E   2.z ,.d . % w u 2.2.2.r     # 6 D 5 @               ",
"      0 4         0 4         J l.l.l.l.l.l.l.l.l.l.l.l.l.l.l.h.a.j.l.l.    2.$.>.2.2.d w %.2.2.2.        8 8 <                 ",
"    C 4 ;       C 4 ;         U l.l.! ) ] u.! l.l.l.l.l.l.l.l.j.a.h.l.l.    2.*.1.2.2.t t :.2.2.2.v       N : <                 ",
"  D 5 # # B   K 5 # $ B     B Z l.l.! ) } u.! l.l.l.l.l.l.l.l.j.h.l.l.l.[   2.*.1.2.2.t t :.2.2.2.l     B 1 @ 1 D               ",
"B 5 #     1 B N #     1 B B 1 E l.l.q q.( l.l.l.l.l.l.l.l.l.l.h.d.l.l.l.U D 2.>.2.2.2.:.:.2.2.2.2.r B D 1 @   @ 5 D             ",
"4 <         0 4         0 3     +.p.l.l.l.l.l.l.l.l.l.l.l.l.l.l.l.l.l. .F 0 -.=.2.2.2.2.2.2.2.2.>.  0 7         8 0             ",
"; <       C 6 ;       C 8 ; 7   ' @.! ! ` u.l.u.} ! ! @.l.l...^ ! } l.t.S 6 y f <.2.2.j s s x 2.&.  6 : 9       N 4             ",
"# 1 B     5 # ; B     5 # # 5     b + o # C   C 1 o + 0     6 o o 2 Q   b >   ; C   Q 1 X + 5     B # # 5 D   D 1 @             ",
"  @ 1 D B #   + 1 D B #     # N D 1     # 5 Q 5 #     1 B N $     # b D 1 @   @ 5 D b #     # N B 1     # 5 C 5 @               ",
"      0 4         0 4         0 8         8 b <         0 4         7 7         7 0 <         0 4         8 8 <                 ",
"    C 4 ;       C 4 ;         8 : 8       N < <       C 8 -         m : 8       N 4 #         8 ; 8       N : <                 ",
"  D 5 @ # B   K 5 @ # B     B # @ 5 Q   D 1   1 B   Q 5 # # b     B % # 5 D   D 1 + # B     b # # 5     B 1 @ 1 D               ",
"B 5 #     1 B N #     1 B B 1     # b D 5 @   @ 1 D b #     % C D 1     # 5 Q 5 #     1 D B #     # B D 1 @   @ 5 D             ",
"4 <         8 4         0 4         8 8 <         b <         0 9         7 m 1         n 4         0 7         8 n             ",
"; 1       C 8 ;       C 7 ; 8       b ; <       C 4 $         8 , 7       N , <       C 4 ;         8 ; 8       M 4             ",
"# 1 B     5 # ; B     5 # # 5     B # # 1 C   D 5 @ # B     b # @ 6 Q   N 1   1 D   Q 5 @ # b     B # # 5 D   C 1 @             ",
"  + 1 D B #   + 1 D B #     # N D 1     # 7 Q 5 #     1 B B #     $ b C 1 #   @ 5 D b #     $ B B 1     # 6 D 5 @               ",
"      b 4         0 4         0 8         8 b <         0 4         8 7         7 0 <         0 4         8 8 <                 ",
"    C 4 ;       C 4 ;         8 : 8       N < <       C 8 ;         m ; 9       N 4 #         8 ; 8       N : <                 ",
"  D 5 @ # B   K 5 @ # B     B $ # 5 Q   D 1   1 B   Q 5 # # b     B $ # 5 D   D 1 + # B     b # # 5     B 1 @ 1 D               ",
"B 5 #     1 B N #     1 B B 1     $ b D 5 @   # 1 D b #     $ N D 1     # 5 Q 5 #     1 D B #     # B D 1 @   @ 5 D             ",
"4 <         0 4         0 3         9 7 <         0 <         0 8         8 b ,         0 4         0 7         8 0             ",
"; <       C 8 ;       C 7 - 8       b ; 1       C 4 #         8 : 8       M < 1       C 4 ;         6 : 9       N 4             ",
"# 1 N     5 # ; B     5 $ $ 5     B # # 1 D   D 5 # # B     b # @ 5 Q   N 1   1 D   Q 5 # # b     B # # 5 D   D 1 @             ",
"  # 1 C B #   + 1 D B #     # N D 1     @ 5 Q 5 #     1 B B $     $ b D 1 #   # 5 D b #     $ N B 1     # 5 C 5 @               ",
"      0 4         0 4         0 8         7 b <         0 4         8 8         8 b <         0 4         8 8 <                 ",
"    C 4 ;       C 4 ;         8 : 8       N < <       C 8 ;         b ; 8       M 4 #         8 ; 8       N : <                 ",
"  D 5 # # B   K 5 @ # B     B # # 5 Q   D 1   1 B   Q 5 # # b     B - # 5 C   D 1 # # B     b # # 5     B 1 @ 1 D               ",
"B 5 #     1 B N #     1 B B 1     # b D 5 +   # 1 D b #     # N D 1     $ 5 Q 7 +     1 D B $     # B D 1 @   @ 5 D             ",
"4 <         0 4         0 4         8 8 <         n ,         0 7         7 b <         b 4         0 6         8 n             ",
"; <       C 6 ;       C 6 ; 8       b : 1       C 4 #         8 : 0       M < <       C 4 ;         8 ; 8       M 4             ",
"# 1 B     5 # ; B     5 # # 5     B # # 1 D   D 5 @ - B     b # @ 5 Q   B 1   1 D   Q 5 + # n     B # # 5 D   C 1 @             ",
"  @ 1 D B #   + 1 D B #     # B D 1     + 5 Q 5 #     1 B B -     # b C 1 #   # 5 D b #     $ N B 1     # 6 D 5 @               ",
"      0 4         0 4         0 7         7 b ,         0 4         8 8         8 b ,         0 4         8 8 <                 ",
"    C 4 ;       C 4 ;         6 : 7       M 1 1       C 8 -         b : 8       N 4 $         8 ; 8       N : <                 ",
"  D 5 @ # B   K 5 @ # B     B # # 5 Q   D 1   1 B   Q 5 # # b     B ; @ 5 D   C 1 # $ B     b # # 5     B 1 @ 1 D               ",
"B 5 #     1 B N #     1 B B 1     - b C 5 #   # 1 D b #     # B D 1     # 7 Q 5 +     1 D B $     # B D 1 @   @ 5 D             ",
"4 <         8 4         0 4         8 8 <         b <         0 8         7 b <         n 4         0 7         8 0             ",
"; 1       C 8 ;       C 6 ; 8       b : <       C 4 $         8 : 8       N < <       C 4 ;         6 : 9       N 4             ",
"# 1 B     5 # ; B     5 # # 5     B # # 1 C   C 5 @ # B     b # @ 5 Q   B 1   1 D   Q 5 @ # b     B # # 5 D   D 1 @             ",
"  + 1 D B #   + 1 D B #     # B D 1     # 5 Q 6 #     1 B B #     # b D 1 +   # 5 D b #     $ B B 1     # 5 C 5 @               ",
"      b 4         0 4         0 7         7 b <         0 4         8 7         7 0 <         0 4         8 8 <                 ",
"    C 4 ;       C 4 ;         6 : 7       M < <       C 8 ;         m ; 8       N 4 #         8 ; 8       N : <                 ",
"  D 5 @ # B   K 5 @ # B     B # # 5 Q   D 1   1 B   Q 5 # # b     B $ # 5 D   D 1 + # B     b # # 5     B 1 @ 1 D               ",
"B 5 #     1 B N #     1 B B 1     - b C 5 #   # 1 D b #     - B D 1     # 5 Q 5 #     1 D B #     # B D 1 @   @ 5 D             "
};
