/* XPM */
static char *New_Project__24_1682523942[] = {
/* columns rows colors chars-per-pixel */
"64 64 130 2 ",
"   c None",
".  c #141413",
"X  c #171616",
"o  c #181716",
"O  c #191716",
"+  c #1C1C1B",
"@  c #1E1E1E",
"#  c gray12",
"$  c #231F13",
"%  c #2B2414",
"&  c #332913",
"*  c #202020",
"=  c #212122",
"-  c #222425",
";  c #242526",
":  c #242628",
">  c #252728",
",  c #26292A",
"<  c #27292A",
"1  c #2A2E31",
"2  c #2D3235",
"3  c #2F3438",
"4  c #2F3538",
"5  c #303639",
"6  c #32383C",
"7  c #333B3F",
"8  c #3C3F3C",
"9  c #423414",
"0  c #473819",
"q  c #493B1C",
"w  c #523E14",
"e  c #614407",
"r  c #614915",
"t  c #6B4E12",
"y  c #715314",
"u  c #715415",
"i  c #725415",
"p  c #7F5E15",
"a  c #745718",
"s  c #75581A",
"d  c #76591B",
"f  c #785C1E",
"g  c #454131",
"h  c #584F32",
"j  c #705732",
"k  c #7B6022",
"l  c #7B6124",
"z  c #7D6933",
"x  c #343C40",
"c  c #343C41",
"v  c #353D42",
"b  c #384146",
"n  c #3A4449",
"m  c #3D484D",
"M  c #3D484E",
"N  c #434644",
"B  c #444846",
"V  c #42494C",
"C  c #404D53",
"Z  c #495050",
"A  c #4C5250",
"S  c #4C5455",
"D  c #4E5556",
"F  c #4A565A",
"G  c #525A5B",
"H  c #575B58",
"J  c #545B5A",
"K  c #5D625F",
"L  c #5E625F",
"P  c #69635F",
"I  c #495960",
"U  c #646966",
"Y  c #656A66",
"T  c #656A67",
"R  c #666A67",
"E  c #676E6C",
"W  c #686E6B",
"Q  c #696E6B",
"!  c #696F6D",
"~  c #6C726F",
"^  c #667274",
"/  c #6B7270",
"(  c #6C7370",
")  c #6F7673",
"_  c #697475",
"`  c #6F7775",
"'  c #717873",
"]  c #707875",
"[  c #777A79",
"{  c #727C7A",
"}  c #767D7A",
"|  c #855A00",
" . c #885D02",
".. c #805E15",
"X. c #8E6207",
"o. c #916509",
"O. c #93680C",
"+. c #966B0E",
"@. c #876315",
"#. c #906815",
"$. c #996D10",
"%. c #906B19",
"&. c #906B1B",
"*. c #9C7013",
"=. c #9F7315",
"-. c #8C6D26",
";. c #826A2E",
":. c #8A6D28",
">. c #936F20",
",. c #937731",
"<. c #76807F",
"1. c #7F8579",
"2. c #78817C",
"3. c #79817D",
"4. c #7C837F",
"5. c #80877C",
"6. c #82897E",
"7. c #7B8582",
"8. c #7B8583",
"9. c #7F8681",
"0. c #7F8783",
"q. c #848B81",
"w. c #838B86",
"e. c #858C84",
"r. c #878E87",
"t. c #828C88",
"y. c #899089",
"u. c #8A928C",
"i. c #8E938E",
"p. c #8C948F",
/* pixels */
"5 5 :         x :         6 5         4 v >         x 1         6 5         5 c                                                 ",
"v - :       M 2 +         5 - 5       n : <       M 1 =         5 - 5       b 1                                                 ",
"# + < C   M 4 # * n     v + + 2 I   n <   < M   I 2 + # v     n # + 2 C   C < +                                                 ",
"    + 2 I 4 +     < n n *     # v M < +   + 4 C c #     # n n <     + 3 C 2 +                                                   ",
"      5 v :         6 1         4 5         4 x :         6 1         4 5 :                                                     ",
"      b - <       M 5 =         v - 5       b 1 #         5 * 5       b - :                                                     ",
"I   C <   < n   I 2 + # v     n * + 2 C   C < + # n     v + # 2     n < + < C                                                   ",
"v M 4 +   + < M v #     * m M <     # 2 I 2 +     < C n #     # n C < +   + 2 C                                                 ",
"4 4 <         c :         6 5         4 v >         v 1         6 5         6 6                                                 ",
"v - <       M 1 #         5 - 5       n 1 <       M 1 *         5 - 5       b 2                                                 ",
"* + < M   C 2 + # n     v # + 2 I   n <   < M   I 2 + # v     v * + 2 C   C < #                                                 ",
"    + 2 I 2 #     < n n #     + v M < +   + 4 C v +     + n n <     + 2 M 4 +                                                   ",
"      5 v :         6 1         5 5         5 c :         6 1         5 5 :                                                     ",
"      b : :       M 4 =         v - 5       b 1 *         5 * 5       b - <                                                     ",
"p.p.t.` R ` 8.p.p.{ E ! 7.p.p.8./ K F   | >.l a f :.=.=.;.s t g     n < + < M                                                   ",
"p.p.p.p.p.p.p.p.p.p.p.p.u.p.y.y.u._ D C +.=.=.=.=.=.=.=.=.=.$.0 n C < +   + 4 M                                                 ",
"] ( ! W u.! 3.' U <.p.p.p.p.[ 9.p.6.D 6 =.=.=.=.=.y y #.=.=.=.  6 5         6 6                                                 ",
"J A B B p.B Q J 8 W p.p.p.[ P y.p.6.G 4 =.=.=.=.@.. & p =.=.=.z 5 - 5       b 1                                                 ",
"8 E 3.J 8 Q p.p.p.p.p.p.p.2.5.y.p.y.N   =.,.-.=.% & #.=.=.=.=.h + + 4 C   C < +                                                 ",
"R 3.t.` U 3.p.p.p.p.p.p.p.r.5.r.p.e.K   =.j &.p X $ 9 r =.=.=.q     + 2 C 2 +                                                   ",
"p.p.p.p.p.p.p.p.p.p.p.p.p.y.e.y.p.p.    =. .$.=.=...9 ..=.=.=.        6 5 :                                                     ",
"U Q ( 9.U p.p.p.p.p.p.p.p.y.e.y.p.p.    =.o.*.=.=.w w #.=.=.=.z       b - :                                                     ",
"U W / 9.U p.p.p.p.p.p.p.p.p.y.p.p.p.^   =.o.*.=.=.w w #.=.=.=.h     n < + < C                                                   ",
"8 3.E p.p.p.p.p.p.p.p.p.p.y.e.p.p.p.G C =.$.=.=.=.#.#.=.=.=.=.q m M < +   + 4 C                                                 ",
"p.p.p.p.p.p.p.p.p.p.p.p.p.p.p.p.p._ Z 7 +.O.=.=.=.=.=.=.=.=.$.  6 4         5 c                                                 ",
"T T Q 0.p.0./ T R } p.p.` R T ~ p.4.V 4 e s &.=.=.f i i l =.X.  5 - 5       b 1                                                 ",
"X X % M   M < o o x     2 X X < I   v ;   * M   I < X o 2     n # + 2 C   C < +                                                 ",
"    + 2 I 3 *     < n n *     # v M < +   + 2 C v +     * n n <     + 4 C 2 +                                                   ",
"      6 v :         6 1         6 5         5 7 <         6 1         4 5 :                                                     ",
"      b : :       M 6 =         v - 5       b 1 +         5 * 5       b - :                                                     ",
"I   C <   < n   I 2 # + v     n # + 4 C   C < + * n     v + # 2     n < + < C                                                   ",
"v M 3 #   + < M v +     # b C <     + 2 I 2 +     < C n *     # n C < +   + 2 C                                                 ",
"4 4 <         c :         6 5         4 v :         c 1         6 5         5 c                                                 ",
"v - <       M 1 #         5 - 5       b : <       M 1 *         5 - 5       b 1                                                 ",
"* + < M   C 4 + # n     v # + 2 I   n <   < C   I 2 + # v     n + + 4 C   C < +                                                 ",
"    + 2 I 2 +     < n n #     + v C < +   + 4 M v +     # n n <     + 4 C 2 +                                                   ",
"      5 v :         6 1         4 5         5 c :         6 1         4 5 :                                                     ",
"      b : :       M 5 *         v - 5       b 1 #         5 = 5       b - :                                                     ",
"I   C <   < m   I 3 # # v     n # + 2 C   C < + # n     v + # 2     n < + < C                                                   ",
"v M 2 +   + < M v +     # n C <     # 2 I 2 +     < C n #     # n C < +   + 2 C                                                 ",
"6 5 <         x :         6 5         5 v :         c 1         6 5         6 6                                                 ",
"v - <       M 1 *         5 - 5       b : :       M 1 *         5 - 5       b 2                                                 ",
"* + < M   C 2 + * n     v # + 2 I   m <   < C   I 2 + + v     b * + 2 C   C < #                                                 ",
"    + 2 I 4 +     < n n +     # v M < +   + 2 C v #     # b m <     + 2 M 4 +                                                   ",
"      4 v :         6 1         4 6         5 x :         6 1         5 5 :                                                     ",
"      b : :       M 5 =         v - 6       b 1 #         5 = 5       b - <                                                     ",
"I   C <   < n   I 2 * + v     m * + 2 M   M < + # n     v # # 2     n < + < M                                                   ",
"v C 2 +   + < C v +     * n M <     # 4 I 2 +     < C n #     + n C < +   + 4 M                                                 ",
"4 5 :         x :         6 5         4 v <         x 1         6 5         6 6                                                 ",
"v - <       M 2 *         5 - 5       n : :       M 1 =         5 - 5       b 1                                                 ",
"* + < M   M 4 + # n     v # + 2 I   n <   < M   I 2 + # v     n + + 4 C   C < +                                                 ",
"    + 4 I 2 #     < n n #     + v M < +   + 4 C x #     # n n <     + 2 C 2 +                                                   ",
"      5 v :         6 1         5 5         4 c :         6 1         6 5 :                                                     ",
"      b : <       M 5 =         v - 5       b 2 #         5 = 5       b - :                                                     ",
"I   C <   < n   I 2 + # v     n * + 2 C   C < + # n     v + # 2     n < + < C                                                   ",
"v M 4 +   + < M v #     # m M <     + 2 I 2 +     < C n #     # m M < +   + 4 C                                                 ",
"4 4 <         c :         6 5         3 v <         v 1         6 4         5 c                                                 ",
"v - <       M 1 #         5 - 5       n : >       M 1 =         5 - 5       b 1                                                 ",
"* + < M   C 2 + # n     v # + 2 I   n <   < M   I 2 + + v     n # + 2 C   C < +                                                 ",
"    + 2 I 2 #     < n n #     + v M < +   + 4 C v +     * n n <     + 4 C 2 +                                                   ",
"      5 v :         6 1         5 5         4 c :         6 1         4 5 :                                                     ",
"      b : :       M 6 =         v - 5       b 1 *         6 * 5       b - :                                                     ",
"I   C <   < n   I 2 # + v     n * + 2 C   C < + # n     v + + 4     n < + < C                                                   ",
"v M 2 +   + < C v +     # m M <     + 2 I 2 +     < C n *     + n C < +   + 2 C                                                 "
};
