/* XPM */
static char *New_Project__17_1682523572[] = {
/* columns rows colors chars-per-pixel */
"64 64 135 2 ",
"   c None",
".  c #141413",
"X  c #171616",
"o  c #181716",
"O  c #191716",
"+  c #1C1C1B",
"@  c #1E1E1E",
"#  c gray12",
"$  c #231F13",
"%  c #2B2414",
"&  c #332913",
"*  c #202020",
"=  c #212122",
"-  c #222425",
";  c #242526",
":  c #242628",
">  c #252728",
",  c #26292A",
"<  c #27292A",
"1  c #2C2D2C",
"2  c #2A2E31",
"3  c #2D3235",
"4  c #2F3438",
"5  c #2F3538",
"6  c #303639",
"7  c #32383C",
"8  c #333B3F",
"9  c #3C3F3C",
"0  c #423414",
"q  c #473819",
"w  c #493B1C",
"e  c #523E14",
"r  c #614407",
"t  c #614915",
"y  c #6B4E12",
"u  c #715314",
"i  c #715415",
"p  c #725415",
"a  c #7F5E15",
"s  c #745718",
"d  c #75581A",
"f  c #76591B",
"g  c #785C1E",
"h  c #454131",
"j  c #584F32",
"k  c #705732",
"l  c #7B6022",
"z  c #7B6124",
"x  c #7D6933",
"c  c #343C40",
"v  c #343C41",
"b  c #353D42",
"n  c #384146",
"m  c #3A4449",
"M  c #3D484D",
"N  c #3D484E",
"B  c #434644",
"V  c #444846",
"C  c #42494C",
"Z  c #404D53",
"A  c #495050",
"S  c #4C5250",
"D  c #4C5455",
"F  c #4E5556",
"G  c #4A565A",
"H  c #525754",
"J  c #545855",
"K  c #525A5B",
"L  c #575B58",
"P  c #545B5A",
"I  c #5D625F",
"U  c #5E625F",
"Y  c #69635F",
"T  c #495960",
"R  c #646966",
"E  c #656A66",
"W  c #656A67",
"Q  c #666A67",
"!  c #676E6C",
"~  c #686E6B",
"^  c #696E6B",
"/  c #696F6D",
"(  c #6C736E",
")  c #6C726F",
"_  c #667274",
"`  c #6B7270",
"'  c #6C7370",
"]  c #6F7673",
"[  c #697475",
"{  c #6F7775",
"}  c #717873",
"|  c #707875",
" . c #777A79",
".. c #727C7A",
"X. c #767D7A",
"o. c #855A00",
"O. c #885D02",
"+. c #805E15",
"@. c #8E6207",
"#. c #916509",
"$. c #93680C",
"%. c #966B0E",
"&. c #876315",
"*. c #906815",
"=. c #996D10",
"-. c #906B19",
";. c #906B1B",
":. c #9C7013",
">. c #9F7315",
",. c #8C6D26",
"<. c #826A2E",
"1. c #8A6D28",
"2. c #936F20",
"3. c #937731",
"4. c #76807F",
"5. c #7F8579",
"6. c #78817C",
"7. c #79817D",
"8. c #7C837F",
"9. c #80877C",
"0. c #82897E",
"q. c #7B8582",
"w. c #7B8583",
"e. c #7F8681",
"r. c #7F8783",
"t. c #7D8785",
"y. c #848B81",
"u. c #838B86",
"i. c #858C84",
"p. c #878E87",
"a. c #828C88",
"s. c #899089",
"d. c #8A928C",
"f. c #8E938E",
"g. c #8C948F",
/* pixels */
"  7 2         6 6 >         7 ,         7 6         7 v >         7 2         7 6         6 7                                   ",
"N 6 = 6       v - ,       N 2 #         6 - 5       n : >       M 3 =         6 - 6       n 2                                   ",
"3 @ @ 3     m @ + , Z   Z 3 + # m     v @ @ 3 G   m ,   , Z   T 3 + @ v     m @ + 3 Z   Z , +                                   ",
"@     @ m Z ,     + 3 T 3 @     , m m #     @ v N , @   + 3 Z v @     @ m m ,     @ 3 Z 3 +                                     ",
"        7 6         6 v >         7 2         5 7         6 8 >         7 2         6 6 >                                       ",
"        6 - 6       n > >       N 6 =         b - 6       n 2 #         6 = 6       n - >                                       ",
"m     m @ + 3 T   Z ,   , m   T 3 @ @ v     m = @ 3 N   Z , + @ m     v @ @ 3     m , + , N                                     ",
", m m ,     @ v Z 3 +   @ , Z v @     = m Z ,     @ 5 T 3 @     , Z m #     @ m Z , +   @ 5 Z                                   ",
"  7 2         6 6 >         7 ,         7 6         5 b ,         v 2         7 6         6 7                                   ",
"N 6 = 6       v - >       N 2 #         6 - 5       m 2 ,       N 2 =         6 - 6       n 3                                   ",
"3 @ @ 3     m # + , Z   Z 3 + # m     v @ @ 3 G   m ,   , N   T 3 + @ v     v @ + 3 Z   Z , +                                   ",
"@     # m Z ,     + 3 T 3 @     , m m #     @ v Z , @   @ 4 N v @     @ m m ,     @ 3 Z 3 +                                     ",
"        7 6         6 v >         7 2         6 7         6 8 :         7 2         6 6 >                                       ",
"        6 - 6       n > >       M 5 =         v - 5       m 2 %         6 = 6       n - >                                       ",
"m     m 1 H ..g.g.a.{ Q { w.g.g...! ! q.g.g.t.` U G   o.;.z s g 1.>.>.<.d y h     m , + , Z                                     ",
", m m , J ..t.g.g.g.g.g.g.g.g.g.g.g.g.g.g.s.s.g.[ G N =.>.>.>.>.>.>.>.>.>.=.q m Z , +   + 3 Z                                   ",
"  7 2     p.p.| ' ^ ^ g./ 7.} R 7.g.g.g.g. .r.g.0.F 8 >.>.>.>.>.u u *.>.>.>.  7 6         6 7                                   ",
"N 6 = 6   s.s.P S V B g.V ! P 9 ^ g.g.g. .Y i.g.0.K 5 >.>.>.>.&.. & +.>.>.>.x 6 - 6       n 2                                   ",
"3 @ @ 3 _ g.g.9 ! 7.P 9 ! g.g.g.g.g.g.g.6.9.g.g.s.B   >.3.,.>.% & *.>.>.>.>.j @ @ 3 Z   Z , @                                   ",
"@     @ K g.g.R 7.u.] R 7.g.g.g.g.g.g.g.i.5.p.g.i.U   >.k ;.a . $ 0 t >.>.>.w     @ 5 N 3 @                                     ",
"        F g.g.g.g.g.g.g.g.g.g.g.g.g.g.g.s.i.s.g.g.    >.O.=.>.>.+.0 +.>.>.>.        6 6 ,                                       ",
"        K g.g.R / ' r.R g.g.g.g.g.g.g.g.g.i.s.g.g.    >.#.:.>.>.e e *.>.>.>.x       n - ,                                       ",
"m     m B g.g.R / ' y.R g.g.g.g.g.g.g.g.s.s.g.g.g._   >.#.:.>.>.e e *.>.>.>.j     m , + , N                                     ",
", m m , U g.g.9 X.! g.g.g.g.g.g.g.g.g.g.s.i.g.g.g.K Z >.=.>.>.>.*.*.>.>.>.>.w m Z , +   + 5 Z                                   ",
"  7 2     ..t.g.g.g.g.g.g.g.g.g.g.g.g.g.g.g.g.g.[ A 7 %.$.>.>.>.>.>.>.>.>.=.  7 6         6 7                                   ",
"N 6 = 6   ( X.R R ^ u.g.r.( R R X.g.g.{ Q Q ` g.q.C 5 r d ;.>.>.g i i l >.@.  6 - 6       n 2                                   ",
"3 @ @ 3     v O X = M   N , X + v     3 o X , T   7 ;   @ N   T , O X 3     m @ + 3 Z   Z , +                                   ",
"@     @ m Z ,     + 3 G 3 @     , m m @     # v Z , @   @ 3 Z v @     @ m m ,     @ 3 Z 3 +                                     ",
"        7 6         5 v >         7 2         7 6         6 7 >         7 2         6 6 ,                                       ",
"        6 - 6       n > >       N 6 -         b - 6       n 2 =         6 = 6       n - >                                       ",
"m     m @ @ 3 T   Z ,   , m   T 3 @ @ v     m # @ 3 Z   Z , + @ m     v @ @ 3     m , + , N                                     ",
", m m ,     @ v Z 3 @   @ , N v @     % m Z ,     @ 3 T 3 +     , Z m =     @ m Z , +   @ 5 Z                                   ",
"  7 2         6 5 >         v -         7 6         6 v ,         7 2         7 6         6 7                                   ",
"N 6 = 6       v - >       N 2 =         6 - 6       n > ,       M 3 =         6 - 6       n 2                                   ",
"3 @ @ 3     m @ @ , Z   Z 3 + @ m     v @ @ 3 T   m ,   , N   T 3 + @ v     m @ + 3 Z   Z , +                                   ",
"@     # m Z ,     + 3 T 3 @     , m m @     @ v Z , +   @ 5 N v @     @ m m ,     @ 3 Z 3 +                                     ",
"        7 6         6 v :         7 2         6 6         6 7 :         7 2         6 6 >                                       ",
"        6 - 6       n > >       N 6 =         v - 6       n 3 @         6 = 6       n - >                                       ",
"m     m @ + 3 T   Z ,   , m   T 3 @ @ v     m @ @ 3 Z   Z , + = m     v @ @ 3     m , + , N                                     ",
", m m ,     @ v Z 3 +   @ , Z v @     @ m Z ,     @ 3 T 3 +     , Z m #     @ m Z , +   @ 5 Z                                   ",
"  7 2         6 6 >         7 >         7 6         6 v >         v 2         7 6         6 7                                   ",
"N 6 = 6       v - >       N 2 =         6 - 6       n > >       N 2 =         6 - 6       n 3                                   ",
"3 @ @ 3     m = + , Z   Z 3 + @ m     v @ + 3 T   m ,   , N   T 3 + @ v     m @ @ 3 Z   Z , +                                   ",
"@     @ m Z ,     @ 3 T 3 @     , m m =     @ v Z , +   @ 3 Z v @     @ m m ,     @ 3 Z 3 +                                     ",
"        7 6         6 v >         7 2         6 6         5 7 >         7 2         6 6 >                                       ",
"        6 - 6       n > >       N 6 =         v - 6       n 3 @         6 = 6       n - >                                       ",
"m     m @ + 3 T   Z ,   , m   T 3 @ @ v     m = + 3 Z   Z , @ @ m     v @ @ 3     m , + , Z                                     ",
", m m ,     @ v Z 3 +   + , Z v @     @ m Z ,     @ 3 T 3 +     , Z m @     @ m Z , +   + 3 Z                                   ",
"  7 2         6 6 >         7 ,         7 6         6 v >         v 2         7 6         6 7                                   ",
"N 6 = 6       v - ,       N 2 #         6 - 6       n > ,       N 2 =         6 - 6       n 2                                   ",
"3 @ @ 3     m @ + , Z   Z 3 + # m     v @ + 3 T   m ,   , N   T 3 + @ v     m @ @ 3 Z   Z , @                                   ",
"@     @ m Z ,     + 3 T 3 @     , m m =     @ v Z , @   @ 3 Z v @     @ m m ,     @ 5 N 3 @                                     ",
"        7 6         6 v >         7 2         5 6         6 7 >         7 2         6 6 ,                                       ",
"        6 - 6       n > >       N 6 =         v - 6       n 2 =         6 = 6       n - ,                                       ",
"m     m @ + 3 T   Z ,   , m   T 3 @ @ v     m = + 3 Z   Z , + @ m     v @ @ 3     m , + , N                                     ",
", m m ,     @ v Z 3 +   @ , Z v @     = m Z ,     @ 3 T 3 +     , Z m @     @ m Z , +   + 5 Z                                   ",
"  7 2         6 6 >         7 ,         7 6         5 b ,         v 2         7 6         6 7                                   ",
"N 6 = 6       v - >       N 2 #         6 - 5       m : >       N 2 =         6 - 6       n 2                                   ",
"3 @ @ 3     m @ + , Z   Z 3 + # m     v @ @ 3 G   m ,   , N   T 3 + @ v     m @ + 3 Z   Z , +                                   ",
"@     @ m Z ,     + 3 T 3 @     , m m @     @ v Z , @   + 5 N v @     @ m m ,     @ 3 Z 3 +                                     ",
"        7 6         6 v >         7 2         6 6         7 v :         7 2         6 6 ,                                       ",
"        6 - 6       n > >       N 6 =         v - 6       m 2 #         6 = 6       n - >                                       ",
"m     m @ + 3 T   Z ,   , m   T 3 @ @ v     m @ @ 3 Z   N , @ = m     v @ @ 3     m , + , N                                     ",
", m m ,     @ v Z 3 +   @ , Z v @     = m Z ,     @ 3 T 3 +     , Z m %     @ m Z , +   @ 5 Z                                   "
};
