/* XPM */
static char *New_Project__40_1682524263[] = {
/* columns rows colors chars-per-pixel */
"64 64 91 1 ",
"  c None",
". c #141413",
"X c #171616",
"o c #181716",
"O c #1C1C1B",
"+ c #1E1E1E",
"@ c gray12",
"# c #231F13",
"$ c #2B2414",
"% c #332913",
"& c #202020",
"* c #212122",
"= c #222425",
"- c #242526",
"; c #242628",
": c #252728",
"> c #26292A",
", c #27292A",
"< c #2A2E31",
"1 c #2D3235",
"2 c #2F3438",
"3 c #2F3538",
"4 c #303639",
"5 c #32383C",
"6 c #333B3F",
"7 c #423414",
"8 c #473819",
"9 c #493B1C",
"0 c #523E14",
"q c #614407",
"w c #614915",
"e c #6B4E12",
"r c #715314",
"t c #715415",
"y c #725415",
"u c #7F5E15",
"i c #745718",
"p c #75581A",
"a c #76591B",
"s c #785C1E",
"d c #454131",
"f c #584F32",
"g c #705732",
"h c #7B6022",
"j c #7B6124",
"k c #7D6933",
"l c #343C40",
"z c #343C41",
"x c #353D42",
"c c #384146",
"v c #3A4449",
"b c #3D484D",
"n c #3D484E",
"m c #434644",
"M c #42494C",
"N c #404D53",
"B c #495050",
"V c #4C5455",
"C c #4E5556",
"Z c #4A565A",
"A c #525A5B",
"S c #5D625F",
"D c #5E625F",
"F c #495960",
"G c #667274",
"H c #6B7270",
"J c #697475",
"K c #855A00",
"L c #885D02",
"P c #805E15",
"I c #8E6207",
"U c #916509",
"Y c #93680C",
"T c #966B0E",
"R c #876315",
"E c #906815",
"W c #996D10",
"Q c #906B19",
"! c #906B1B",
"~ c #9C7013",
"^ c #9F7315",
"/ c #8C6D26",
"( c #826A2E",
") c #8A6D28",
"_ c #936F20",
"` c #937731",
"' c #7C837F",
"] c #82897E",
"[ c #858C84",
"{ c #899089",
"} c #8C948F",
/* pixels */
"   4z:    l<    62    46                                        ",
"   c::   n<&    4=4   c<                                        ",
"F v> >N F1++z  v+O1N N>O                                        ",
"zN>O O1Nz+  +vv>  +1N1O                                         ",
"44    46:    6<    42:                                          ",
"z=4   c<@    4&4   c=:                                          ",
"&O1N N>O@v  z++1  v>+>N                                         ",
"  +1F1O  >Nv@  +vN>O O1N                                        ",
"   4z;    l<    62    46                                        ",
"   c<>   n<&    4=4   c<                                        ",
"F v> >N F1++z  z+O1N N>O                                        ",
"zN>O +2nz+  +vv>  +1N1O                                         ",
"44    4l:    6<    42:                                          ",
"z=4   c<@    4&4   c=:                                          ",
"HDZ K_jis)^^(aed  v>+>N                                         ",
"}JVNT^^^^^^^^^W8vN>O O1N                                        ",
"}]Vz^^^^^trE^^^ 54    46                                        ",
"}]A2^^^^R.%P^^^k4-4   c<                                        ",
"}{m ^`/^$$E^^^^f+O1N N>O                                        ",
"}[D ^gQP.$7w^^^8  +1N1O                                         ",
"}}  ^LW^^P7P^^^    44-                                          ",
"}}  ^U~^^00E^^^k   c=>                                          ",
"}}G ^U~^^00E^^^f  v>O>N                                         ",
"}}AN^W^^^EE^^^^9vN>O O1N                                        ",
"}JB6TY^^^^^^^^W 64    46                                        ",
"}'M2qa!^^stth^I 2=4   c<                                        ",
"F z- &n F>Xo1  v+O1N N>O                                        ",
"zN>O +2nz+  &vv>  +1N1O                                         ",
"44    2z:    6<    44:                                          ",
"z=l   c<@    2&4   c=:                                          ",
"$+1n n,O@v  z++1  v>O>N                                         ",
"  @1F2+  >Nv+  +vN>O O1N                                        ",
"   2x>    6<    64    46                                        ",
"   c;,   n<&    2=4   c<                                        ",
"F v> ,n F1++z  v+O1N N>O                                        ",
"zN>+ O2nz+  +vv>  +1N1O                                         ",
"44    6z:    6<    44:                                          ",
"z=4   c<+    4&4   c=:                                          ",
"@+2n n>+@v  z++1  v>O>N                                         ",
"  @2Z1O  >Nv@  +vN>O O1N                                        ",
"   4z:    l<    62    46                                        ",
"   c>-   n<=    4=4   c<                                        ",
"F v> >N F1+@z  v+O1N N>O                                        ",
"zN>O +1Nl@  +vv>  +1N1O                                         ",
"44    46;    6<    44:                                          ",
"z=4   c<@    4&4   c=:                                          ",
"&O1N N>O#n  z++1  v>O>N                                         ",
"  +1F1O  >Nv+  +vN>O O1N                                        ",
"   4z:    l<    62    46                                        ",
"   c::   n<&    4=4   c<                                        ",
"F v> >N F1++z  v+O1N N>O                                        ",
"zN>O O1Nz+  +vv>  +1N1O                                         ",
"44    46:    6<    42:                                          ",
"z=4   c<@    4&4   c=:                                          ",
"&O1N N>O@v  z++1  v>+>N                                         ",
"  +1F1O  >Nv@  +vN>O O1N                                        ",
"   3x,    l<    62    46                                        ",
"   c;,   n<&    4=4   c<                                        ",
"F v, ,n F1++z  v+O1N N>O                                        ",
"xN,O O2nz+  +vv>  +1N1O                                         ",
"32    6l:    6<    42:                                          ",
"x;4   c<@    4&4   c=:                                          ",
"@O2n n>+@v  z++1  v>+>N                                         ",
"  @2Z1O  >Nv@  +vN>O O1N                                        "
};
