/* XPM */
static char *New_Project__42_1682524264[] = {
/* columns rows colors chars-per-pixel */
"64 64 83 1 ",
"  c None",
". c #141413",
"X c #171616",
"o c #181716",
"O c #1C1C1B",
"+ c #1E1E1E",
"@ c gray12",
"# c #231F13",
"$ c #2B2414",
"% c #332913",
"& c #202020",
"* c #212122",
"= c #222425",
"- c #242526",
"; c #242628",
": c #252728",
"> c #26292A",
", c #27292A",
"< c #2A2E31",
"1 c #2D3235",
"2 c #2F3438",
"3 c #2F3538",
"4 c #303639",
"5 c #32383C",
"6 c #333B3F",
"7 c #423414",
"8 c #473819",
"9 c #493B1C",
"0 c #523E14",
"q c #614407",
"w c #614915",
"e c #6B4E12",
"r c #715314",
"t c #715415",
"y c #725415",
"u c #7F5E15",
"i c #745718",
"p c #75581A",
"a c #76591B",
"s c #785C1E",
"d c #454131",
"f c #584F32",
"g c #705732",
"h c #7B6022",
"j c #7B6124",
"k c #7D6933",
"l c #343C40",
"z c #343C41",
"x c #353D42",
"c c #384146",
"v c #3A4449",
"b c #3D484D",
"n c #3D484E",
"m c #434644",
"M c #42494C",
"N c #404D53",
"B c #495050",
"V c #4C5455",
"C c #4E5556",
"Z c #4A565A",
"A c #525A5B",
"S c #5E625F",
"D c #495960",
"F c #667274",
"G c #855A00",
"H c #885D02",
"J c #805E15",
"K c #8E6207",
"L c #916509",
"P c #93680C",
"I c #966B0E",
"U c #876315",
"Y c #906815",
"T c #996D10",
"R c #906B19",
"E c #906B1B",
"W c #9C7013",
"Q c #9F7315",
"! c #8C6D26",
"~ c #826A2E",
"^ c #8A6D28",
"/ c #936F20",
"( c #937731",
/* pixels */
" 4x;    l<    54    4l                                          ",
" c;;   n<*    4=4   c<                                          ",
"v, ,N D1O+x  v+O1N N,O                                          ",
",O O3nx+  +vv,  +1N1O                                           ",
"    46;    5<    44=                                            ",
"4   c<@    3*4   c=,                                            ",
"1N N,O@v  x++1  v,O,N                                           ",
"+1D1O  ,Nv@  +vN,O O1N                                          ",
" 4x;    6<    54    4l                                          ",
" c<;   n<*    4=4   c<                                          ",
"v, ,N Z3O+x  l+O1N N,O                                          ",
",O +1Nx+  +vv,  +1N1O                                           ",
"    35,    5<    44=                                            ",
"3   c<+    4*4   c=,                                            ",
"Z G/jas^QQ~aed  v,O,N                                           ",
"VNIQQQQQQQQQT8vN,O O1N                                          ",
"VxQQQQQrrYQQQ 54    45                                          ",
"A3QQQQU.%JQQQk4=4   c<                                          ",
"m Q(!Q$%YQQQQf+O1N N,+                                          ",
"S QgRu.#7wQQQ9  +1N1O                                           ",
"  QHTQQJ7JQQQ    43=                                            ",
"  QLWQQ00YQQQk   c=,                                            ",
"F QLWQQ00YQQQf  v,O,N                                           ",
"ANQTQQQYYQQQQ9vN,O O1N                                          ",
"B5TPQQQQQQQQT 54    3l                                          ",
"M3qaRQQstthQK 4=4   c<                                          ",
"x- &n D,Xo1  v+O1N N,O                                          ",
",O O1Nx+  &vv,  +1N1O                                           ",
"    45;    5<    43;                                            ",
"4   c1+    4*4   c=;                                            ",
"1N N,O+v  x++1  v,O,N                                           ",
"+1D1O  ,Nv+  +vN,O +1N                                          ",
" 4x;    l<    54    55                                          ",
" c;;   n<*    4=4   c<                                          ",
"v, ,N D1O+l  v+O1N N,O                                          ",
",O O1Nx+  @vv,  +1N1O                                           ",
"    35,    5<    44;                                            ",
"4   c<+    4*4   c=,                                            ",
"1N N,O+v  x++1  v,O,N                                           ",
"+1D1+  ,Nv+  +vN,O O1N                                          ",
" 4x;    6<    54    45                                          ",
" c=,   n<*    4=4   c<                                          ",
"v, ,N D1O+x  v+O1N N,+                                          ",
",O O3nx+  +vv,  +1N1O                                           ",
"    4l;    5<    43=                                            ",
"5   c<&    4*5   c=,                                            ",
"3n n,++v  x++1  v,O,N                                           ",
"&3Z1O  ,Nv+  +nn,O O1N                                          ",
" 4x;    l<    54    4l                                          ",
" c;,   n<*    4=4   c<                                          ",
"v, ,N D1O+x  v+O1N N,O                                          ",
",O O3nx+  +vv,  +1N1O                                           ",
"    4l;    5<    44=                                            ",
"4   c<&    4*4   c=,                                            ",
"1N N,O+v  x++1  v,O,N                                           ",
"+1D1O  ,Nv+  +vN,O O1N                                          ",
" 4x;    51    54    46                                          ",
" c;;   n<*    4=4   c<                                          ",
"v, ,N D1O+x  v+O1N N,O                                          ",
",O O1Nx+  +vv,  +1N1O                                           ",
"    35:    5<    44;                                            ",
"4   c<&    4*4   c=;                                            ",
"1N N,O+v  x++1  v,O,N                                           ",
"+1D1+  ,Nv+  +vN,O O1N                                          "
};
