/* XPM */
static char *New_Project__22_1682523942[] = {
/* columns rows colors chars-per-pixel */
"64 64 133 2 ",
"   c None",
".  c #141413",
"X  c #171616",
"o  c #181716",
"O  c #191716",
"+  c #1C1C1B",
"@  c #1E1E1E",
"#  c gray12",
"$  c #231F13",
"%  c #2B2414",
"&  c #332913",
"*  c #202020",
"=  c #212122",
"-  c #222425",
";  c #242526",
":  c #242628",
">  c #252728",
",  c #26292A",
"<  c #27292A",
"1  c #2A2E31",
"2  c #2D3235",
"3  c #2F3438",
"4  c #2F3538",
"5  c #303639",
"6  c #32383C",
"7  c #333B3F",
"8  c #3C3F3C",
"9  c #423414",
"0  c #473819",
"q  c #493B1C",
"w  c #523E14",
"e  c #614407",
"r  c #614915",
"t  c #6B4E12",
"y  c #715314",
"u  c #715415",
"i  c #725415",
"p  c #7F5E15",
"a  c #745718",
"s  c #75581A",
"d  c #76591B",
"f  c #785C1E",
"g  c #454131",
"h  c #584F32",
"j  c #705732",
"k  c #7B6022",
"l  c #7B6124",
"z  c #7D6933",
"x  c #343C40",
"c  c #343C41",
"v  c #353D42",
"b  c #384146",
"n  c #3A4449",
"m  c #3D484D",
"M  c #3D484E",
"N  c #434644",
"B  c #444846",
"V  c #42494C",
"C  c #404D53",
"Z  c #495050",
"A  c #4C5250",
"S  c #4C5455",
"D  c #4E5556",
"F  c #4A565A",
"G  c #525754",
"H  c #525A5B",
"J  c #575B58",
"K  c #545B5A",
"L  c #5D625F",
"P  c #5E625F",
"I  c #69635F",
"U  c #495960",
"Y  c #646966",
"T  c #656A66",
"R  c #656A67",
"E  c #666A67",
"W  c #676E6C",
"Q  c #686E6B",
"!  c #696E6B",
"~  c #696F6D",
"^  c #6C736E",
"/  c #6C726F",
"(  c #667274",
")  c #6B7270",
"_  c #6C7370",
"`  c #6F7673",
"'  c #697475",
"]  c #6F7775",
"[  c #717873",
"{  c #707875",
"}  c #777A79",
"|  c #727C7A",
" . c #767D7A",
".. c #855A00",
"X. c #885D02",
"o. c #805E15",
"O. c #8E6207",
"+. c #916509",
"@. c #93680C",
"#. c #966B0E",
"$. c #876315",
"%. c #906815",
"&. c #996D10",
"*. c #906B19",
"=. c #906B1B",
"-. c #9C7013",
";. c #9F7315",
":. c #8C6D26",
">. c #826A2E",
",. c #8A6D28",
"<. c #936F20",
"1. c #937731",
"2. c #76807F",
"3. c #7F8579",
"4. c #78817C",
"5. c #79817D",
"6. c #7C837F",
"7. c #80877C",
"8. c #82897E",
"9. c #7B8582",
"0. c #7B8583",
"q. c #7F8681",
"w. c #7F8783",
"e. c #7D8785",
"r. c #848B81",
"t. c #838B86",
"y. c #858C84",
"u. c #878E87",
"i. c #828C88",
"p. c #899089",
"a. c #8A928C",
"s. c #8E938E",
"d. c #8C948F",
/* pixels */
"    5 5 :         c >         6 5         5 v :         6 1         6 5         5 6                                             ",
"    v - ,       M 1 #         5 - 5       b > >       M 1 =         5 - 5       b 1                                             ",
"  n # + , M   M 2 + # n     v # + 2 U   n ,   , C   U 2 + # v     n # + 2 C   C , +                                             ",
"C ,     # 4 U 2 #     , n n #     # v C , +   + 4 M x #     # n n ,     # 2 C 2 +                                               ",
"5         6 v >         6 1         5 5         5 c >         6 1         5 5 >                                                 ",
"- 5       n > -       M 5 =         v - 5       b 1 #         4 = 5       b - >                                                 ",
"+ 2 F   M ,   > n   F 2 # # v     n # + 2 C   C , + # n     v # # 2     n , + , C                                               ",
"  # v M 4 #   # , C x #     # n C ,     # 2 U 2 +     , C n #     # n C , +   + 2 C                                             ",
"    5 5 >         x >         6 5         5 v >         6 1         6 5         5 6                                             ",
"    v - >       M 1 #         5 - 4       b 1 >       m 2 =         5 - 6       n 1                                             ",
"  n # + , M   C 2 # # n     v # + 2 U   n >   , C   U 2 + # v     v # + 2 M   M , #                                             ",
"C ,     # 4 U 2 @     , n n #     # v C , #   + 2 C x #     # n n ,     # 4 C 2 +                                               ",
"5         5 v :         6 1         5 5         5 6 ,         6 1         5 5 >                                                 ",
"- 5       b > >       M 5 =         v - 5       b 1 @         5 = 5       b - >                                                 ",
"G | d.d.i.] E ] 0.d.d.| ~ ~ 2.d.d.0.^ P F   ..<.l d f ,.;.;.>.d t g     n , + , C                                               ",
"| e.d.d.d.d.d.d.d.d.d.d.d.d.d.d.p.u.d.' D C #.;.;.;.;.;.;.;.;.;.&.0 n C , +   + 2 C                                             ",
"u.u.{ / ! ! d.Q 4.{ E 4.d.d.d.d.} q.d.8.D x ;.;.;.;.;.y y %.;.;.;.  6 4         5 7                                             ",
"p.p.H A B B d.B ~ J 8 Q d.d.d.} I u.a.8.H 4 ;.;.;.;.$.. & o.;.;.;.z 5 - 5       b 1                                             ",
"d.d.8 W 4.K 8 W d.d.d.d.d.d.d.2.3.a.d.p.N   ;.1.:.;.% & %.;.;.;.;.h # + 2 C   C , +                                             ",
"d.d.E 4.t.] E 4.d.d.d.d.d.d.d.u.3.p.d.u.P   ;.j *.p . $ 9 r ;.;.;.q     # 2 C 2 +                                               ",
"d.d.d.d.d.d.d.d.d.d.d.d.d.d.d.p.r.a.d.d.    ;.X.&.;.;.o.9 p ;.;.;.        5 5 -                                                 ",
"d.d.Y Q _ q.E d.d.d.d.d.d.d.d.a.u.p.d.d.    ;.+.-.;.;.w w %.;.;.;.z       b - ,                                                 ",
"d.d.E Q ) q.Y d.d.d.d.d.d.d.d.p.u.d.d.d.(   ;.+.-.;.;.w w %.;.;.;.h     n , + , C                                               ",
"d.d.8 4.W d.d.d.d.d.d.d.d.d.d.p.y.d.d.d.H C ;.&.;.;.;.%.%.;.;.;.;.q n C , +   + 2 C                                             ",
"| e.d.d.d.d.d.d.d.d.d.d.d.d.d.d.d.a.d.' Z 6 #.@.;.;.;.;.;.;.;.;.&.  6 5         3 7                                             ",
"^  .E E ! q.d.q.) E E  .d.d._ Q E ^ a.q.V 3 e d =.;.;.f i i k ;.O.  5 - 5       b 2                                             ",
"  v X X = m   M , X o v     2 o X , U   v -   # M   U , X o 2     n # + 2 C   C , +                                             ",
"C ,     + 2 U 2 #     , n n #     # v C , +   # 2 C v #     # n n ,     # 2 C 2 #                                               ",
"5         6 v :         6 1         4 4         5 6 >         6 1         5 5 >                                                 ",
"- 5       n > -       m 5 =         v - 5       b 2 #         4 = 5       b - >                                                 ",
"+ 2 F   M ,   , n   U 2 # # x     n @ # 2 M   C , + # n     v # # 2     n , + , M                                               ",
"  # c M 4 #   # , C v #     # n C ,     # 2 U 3 +     , C n #     # n C , +   + 3 C                                             ",
"    5 5 ,         6 >         6 5         4 v >         7 1         6 5         5 6                                             ",
"    v - ,       M 1 #         5 - 5       b : >       M 1 =         5 - 5       b 1                                             ",
"  n # + , M   M 2 # # n     v # + 2 U   n ,   , C   F 2 + # v     n # + 2 C   C , +                                             ",
"C ,     # 4 U 2 #     , n n @     # v C , +   # 2 C c #     = n n ,     # 2 C 2 +                                               ",
"5         5 v :         5 1         5 5         6 x :         6 1         5 5 >                                                 ",
"- 5       b , >       M 4 =         v - 6       b 1 #         5 = 5       b - >                                                 ",
"+ 2 U   M ,   , n   U 2 # # v     n # + 2 M   C , + # n     c # # 2     n , + , C                                               ",
"  # v C 2 #   # , M x #     # n C ,     # 2 U 2 +     , M n #     # n C , +   + 2 C                                             ",
"    5 5 >         c :         6 5         6 v :         c 1         6 5         5 6                                             ",
"    v - >       M 1 *         4 - 5       n : :       M 1 =         5 - 6       n 1                                             ",
"  n # + , C   C 2 + = n     v # + 2 F   n ,   , C   U 2 + # c     n # + 2 M   M , #                                             ",
"C ,     + 2 U 2 *     , n n #     # v M , #   + 4 M c #     # n n ,     # 4 C 2 +                                               ",
"4         5 v >         6 1         5 5         5 6 ,         6 1         5 5 >                                                 ",
"- 6       b : >       M 5 =         v - 4       b 1 @         4 = 5       b - >                                                 ",
"# 2 F   C ,   , n   F 2 # # v     n # + 2 C   C , + # n     c # # 2     n , + , C                                               ",
"  # v C 2 +   + , M c #     # n C ,     # 2 U 2 +     , C n *     # n C , +   + 2 C                                             ",
"    5 5 :         c >         6 5         5 v :         6 1         6 4         5 7                                             ",
"    v - ,       M 1 #         5 - 5       b > >       M 1 =         5 - 5       b 1                                             ",
"  n # + , M   M 2 + # n     v # + 2 U   n ,   , C   U 2 + # v     n # + 2 C   C , +                                             ",
"C ,     # 4 U 2 #     , n n #     # v C , +   + 4 M x #     # n n ,     # 2 C 2 +                                               ",
"5         6 v >         6 1         5 5         5 c >         6 1         5 5 -                                                 ",
"- 5       n > -       M 5 =         v - 5       b 1 #         4 = 5       b - ,                                                 ",
"+ 2 F   M ,   > n   F 2 # # v     n # + 2 C   C , + # n     v # # 2     n , + , C                                               ",
"  # v M 4 #   # , C x #     # n C ,     # 2 U 2 +     , C n #     # n C , +   + 2 C                                             ",
"    5 5 >         x >         6 5         5 v :         6 1         6 5         3 7                                             ",
"    v - >       M 1 #         5 - 5       b > >       m 2 =         5 - 5       b 2                                             ",
"  n # + , M   C 2 # # n     v # + 2 U   n ,   , C   U 2 + # v     n # + 2 C   C , +                                             ",
"C ,     # 4 U 2 @     , n n #     # v C , +   + 2 C x #     = n n ,     # 2 C 2 #                                               ",
"5         5 v :         6 1         5 5         5 6 ,         6 1         5 5 >                                                 ",
"- 5       b > >       M 5 =         v - 6       b 1 @         5 = 5       b - >                                                 ",
"+ 2 U   C ,   , n   F 2 # # v     n # + 2 C   M > # * n     x # # 2     n , + , M                                               ",
"  # v C 2 +   # , C x #     # n C ,     # 2 U 2 +     , M n #     # n C , +   + 3 C                                             "
};
