/* XPM */
static char *New_Project__29_1682524008[] = {
/* columns rows colors chars-per-pixel */
"64 64 122 2 ",
"   c None",
".  c #141413",
"X  c #171616",
"o  c #181716",
"O  c #191716",
"+  c #1C1C1B",
"@  c #1E1E1E",
"#  c gray12",
"$  c #231F13",
"%  c #2B2414",
"&  c #332913",
"*  c #202020",
"=  c #212122",
"-  c #222425",
";  c #242526",
":  c #242628",
">  c #252728",
",  c #26292A",
"<  c #27292A",
"1  c #2A2E31",
"2  c #2D3235",
"3  c #2F3438",
"4  c #2F3538",
"5  c #303639",
"6  c #32383C",
"7  c #333B3F",
"8  c #3C3F3C",
"9  c #423414",
"0  c #473819",
"q  c #493B1C",
"w  c #523E14",
"e  c #614407",
"r  c #614915",
"t  c #6B4E12",
"y  c #715314",
"u  c #715415",
"i  c #725415",
"p  c #7F5E15",
"a  c #745718",
"s  c #75581A",
"d  c #76591B",
"f  c #785C1E",
"g  c #454131",
"h  c #584F32",
"j  c #705732",
"k  c #7B6022",
"l  c #7B6124",
"z  c #7D6933",
"x  c #343C40",
"c  c #343C41",
"v  c #353D42",
"b  c #384146",
"n  c #3A4449",
"m  c #3D484D",
"M  c #3D484E",
"N  c #434644",
"B  c #444846",
"V  c #42494C",
"C  c #404D53",
"Z  c #495050",
"A  c #4C5455",
"S  c #4E5556",
"D  c #4A565A",
"F  c #525A5B",
"G  c #575B58",
"H  c #5D625F",
"J  c #5E625F",
"K  c #69635F",
"L  c #495960",
"P  c #646966",
"I  c #656A66",
"U  c #656A67",
"Y  c #666A67",
"T  c #676E6C",
"R  c #686E6B",
"E  c #696F6D",
"W  c #6C726F",
"Q  c #667274",
"!  c #6B7270",
"~  c #6F7673",
"^  c #697475",
"/  c #6F7775",
"(  c #717873",
")  c #777A79",
"_  c #727C7A",
"`  c #767D7A",
"'  c #855A00",
"]  c #885D02",
"[  c #805E15",
"{  c #8E6207",
"}  c #916509",
"|  c #93680C",
" . c #966B0E",
".. c #876315",
"X. c #906815",
"o. c #996D10",
"O. c #906B19",
"+. c #906B1B",
"@. c #9C7013",
"#. c #9F7315",
"$. c #8C6D26",
"%. c #826A2E",
"&. c #8A6D28",
"*. c #936F20",
"=. c #937731",
"-. c #76807F",
";. c #7F8579",
":. c #78817C",
">. c #79817D",
",. c #7C837F",
"<. c #80877C",
"1. c #82897E",
"2. c #7B8582",
"3. c #7B8583",
"4. c #7F8783",
"5. c #848B81",
"6. c #858C84",
"7. c #878E87",
"8. c #899089",
"9. c #8A928C",
"0. c #8E938E",
"q. c #8C948F",
/* pixels */
"    7 :         7 3         5 c :         7 1         7 5         5 7                                                           ",
"  M 1 #         5 - 5       b : :       M 1 =         3 - 5       b 1                                                           ",
"M 2 + # n     c # + 2 L   b ,   , C   L 2 + # c     n # + 2 C   C , +                                                           ",
"3 #     , n n #     # x C , #   + 2 C c #     # n n ,     # 2 C 2 +                                                             ",
":         7 1         5 5         5 7 :         7 1         5 5 :                                                               ",
",       m 3 =         c - 5       b 1 #         5 * 5       b - :                                                               ",
", n   L 2 # # x     n # + 2 C   C , + # n     c # # 2     n , + , C                                                             ",
"+ , C c #     # n C ,     # 2 L 2 +     , C n #     # n C , +   + 2 C                                                           ",
"    7 :         7 5         5 c :         7 1         6 5         5 7                                                           ",
"  M 1 #         5 - 5       b 1 :       M 1 =         4 - 5       b 1                                                           ",
"C 2 + # n     c # + 2 L   b ,   , C   L 2 + # c     c # + 2 C   C , +                                                           ",
"2 #     , n n #     # x C , #   + 2 C c #     # n n ,     # 2 C 2 +                                                             ",
"-         7 1         5 5         5 7 :         7 1         5 5 :                                                               ",
",       m 4 *         c - 5       b 1 #         3 = 5       b - ,                                                               ",
"/ 3.q.q._ E T 2.q.q.3.! H D   ' *.l a f &.#.#.%.d t g     n , + , C                                                             ",
"q.q.q.q.q.q.q.q.q.8.8.q.^ A C  .#.#.#.#.#.#.#.#.#.o.0 n C , +   + 2 C                                                           ",
"R >.( P >.q.q.q.0.) 4.0.1.A x #.#.#.#.#.y y X.#.#.#.  7 3         5 7                                                           ",
"B T G 8 T q.q.q.) I 6.0.1.F 4 #.#.#.#.... & p #.#.#.z 5 - 5       b 1                                                           ",
"T q.q.q.q.q.q.q.>.;.8.q.8.N   #.=.$.#.% & X.#.#.#.#.h # + 2 M   C , +                                                           ",
">.q.q.q.q.q.q.q.7.;.8.q.6.J   #.j O.p . $ 9 r #.#.#.q     # 3 C 2 +                                                             ",
"q.q.q.q.q.q.q.q.6.5.q.q.q.    #.]  .#.#.[ 9 [ #.#.#.        5 5 :                                                               ",
"q.q.q.q.q.q.q.q.q.5.8.q.q.    #.} #.#.#.w w X.#.#.#.z       b - :                                                               ",
"q.q.q.q.q.q.q.q.q.8.q.q.q.Q   #.} o.#.#.w w X.#.#.#.h     n , + , C                                                             ",
"q.q.q.q.q.q.q.q.8.6.q.q.q.F C #.o.#.#.#.X.X.#.#.#.#.q n C , +   + 2 C                                                           ",
"q.q.q.q.q.q.q.q.q.q.q.q.^ Z 7  . .#.#.#.#.#.#.#.#.o.  7 5         5 7                                                           ",
"4.W P P ` q.q.~ P P W q.,.V 3 e a +.#.#.f y i k #.{   3 - 5       b 1                                                           ",
"M , O O c     2 O X < L   c ;   = M   L , X O 2     n # + 2 C   C , +                                                           ",
"2 #     , n n #     # c C , +   + 2 C c #     # n n ,     # 2 C 2 +                                                             ",
";         7 1         5 5         5 7 :         7 1         5 5 :                                                               ",
",       m 3 =         c - 5       b 1 #         5 * 5       b - ,                                                               ",
", n   L 2 # # x     n # # 2 M   C : + # n     c # # 2     n , + , C                                                             ",
"+ , C c #     # n C ,     # 3 L 2 #     , C n #     # n C , +   + 2 C                                                           ",
"    7 :         7 5         5 c ,         7 1         7 5         5 7                                                           ",
"  M 1 #         3 - 5       b : :       M 1 =         4 - 5       b 1                                                           ",
"C 2 + # n     c # + 2 L   n ,   , C   L 2 + # x     n # + 2 C   C , +                                                           ",
"2 #     , n n #     # c C , +   # 2 M x #     # n n ,     # 2 C 2 +                                                             ",
"-         7 1         5 5         5 7 :         7 1         5 5 :                                                               ",
",       m 4 *         c - 5       b 1 #         3 = 5       b - :                                                               ",
", n   L 2 # # c     n = + 2 C   C , + # n     x # # 2     n , + , C                                                             ",
"+ , C c #     # n C ,     # 2 L 2 +     , C n #     # n C , +   + 2 C                                                           ",
"    7 :         7 3         5 c :         7 1         7 4         5 7                                                           ",
"  M 1 #         4 - 5       b : :       M 1 =         5 - 5       b 1                                                           ",
"C 2 + # n     c # + 2 L   n ,   , C   L 2 + # c     n # + 2 M   C , +                                                           ",
"2 #     , n n #     # c C , +   + 2 C c #     # n n ,     # 3 C 2 +                                                             ",
":         7 1         5 5         5 7 :         5 1         5 5 :                                                               ",
",       M 5 =         c - 5       b 1 #         4 = 5       b - ,                                                               ",
", n   L 2 # # x     n # + 2 C   C , + # n     c # # 2     n , + , C                                                             ",
"# , M x #     # n C ,     # 2 L 2 +     , C n #     # n C , +   + 2 C                                                           ",
"    7 :         7 3         5 c :         7 1         7 5         5 7                                                           ",
"  M 1 #         5 - 5       b : :       M 1 =         3 - 5       b 1                                                           ",
"M 2 + # n     c # + 2 L   b ,   , C   L 2 + # c     n # + 2 C   C , +                                                           ",
"3 #     , n n #     # x C , #   + 2 C c #     # n n ,     # 2 C 2 +                                                             ",
":         7 1         5 5         5 7 :         7 1         5 5 :                                                               ",
",       m 3 =         c - 5       b 1 #         5 * 5       b - :                                                               ",
", n   L 2 # # x     n # + 2 C   C , + # n     c # # 2     n , + , C                                                             ",
"+ , C c #     # n C ,     # 2 L 2 +     , C n #     # n C , +   + 2 C                                                           ",
"    7 :         7 5         5 c :         7 1         7 5         5 7                                                           ",
"  M 1 #         5 - 5       b : :       M 1 =         4 - 5       b 1                                                           ",
"C 2 + # n     c # + 2 L   b ,   , C   L 2 + # c     n # + 2 C   C , +                                                           ",
"2 #     , n n #     # x C , #   + 2 C c #     # n n ,     # 2 C 2 +                                                             ",
"-         7 1         5 5         5 7 :         7 1         5 5 :                                                               ",
",       m 4 *         c - 5       b 1 #         3 = 5       b - ,                                                               ",
", n   L 2 # # c     n # + 2 C   C , + # n     c # # 2     n , + , C                                                             ",
"+ , C c #     # n C ,     # 2 L 2 +     , C n #     # n C , +   + 2 C                                                           "
};
