/* XPM */
static char *New_Project__44_1682524264[] = {
/* columns rows colors chars-per-pixel */
"64 64 71 1 ",
"  c None",
". c #141413",
"X c #171616",
"o c #181716",
"O c #1C1C1B",
"+ c #1E1E1E",
"@ c gray12",
"# c #231F13",
"$ c #2B2414",
"% c #332913",
"& c #202020",
"* c #212122",
"= c #222425",
"- c #242628",
"; c #252728",
": c #26292A",
"> c #27292A",
", c #2A2E31",
"< c #2D3235",
"1 c #303639",
"2 c #32383C",
"3 c #333B3F",
"4 c #423414",
"5 c #473819",
"6 c #493B1C",
"7 c #523E14",
"8 c #614407",
"9 c #614915",
"0 c #6B4E12",
"q c #715314",
"w c #715415",
"e c #725415",
"r c #7F5E15",
"t c #745718",
"y c #75581A",
"u c #76591B",
"i c #785C1E",
"p c #454131",
"a c #584F32",
"s c #705732",
"d c #7B6022",
"f c #7B6124",
"g c #7D6933",
"h c #343C40",
"j c #343C41",
"k c #353D42",
"l c #384146",
"z c #3A4449",
"x c #3D484D",
"c c #3D484E",
"v c #404D53",
"b c #495960",
"n c #855A00",
"m c #885D02",
"M c #805E15",
"N c #8E6207",
"B c #916509",
"V c #93680C",
"C c #966B0E",
"Z c #876315",
"A c #906815",
"S c #996D10",
"D c #906B19",
"F c #906B1B",
"G c #9C7013",
"H c #9F7315",
"J c #8C6D26",
"K c #826A2E",
"L c #8A6D28",
"P c #936F20",
"I c #937731",
/* pixels */
"k-    3,    31    33                                            ",
"--   x,*    <=1   l,                                            ",
" >v b<O+k  z++<v v>O                                            ",
" O<vk+  +zz>  +<c<O                                             ",
"  13-    3,    11-                                              ",
"  l,@    1*1   l=-                                              ",
" v>O@z  k++<  z>O>v                                             ",
"b<O  >vz+  +xc>O O<v                                            ",
"k-    3,    31    33                                            ",
",-   x,*    <=1   l,                                            ",
" >v b<O+k  k+O<v v>O                                            ",
" O<vk+  +zz>  +<c<O                                             ",
"  13-    3,    11>                                              ",
"  l,+    1*1   l==                                              ",
"nFfuiLHHKu0p  z>+>v                                             ",
"CHHHHHHHHHS5zv>O +<v                                            ",
"HHHHHwqAHHH 3<    13                                            ",
"HHHHZ.%rHHHg1=1   l,                                            ",
"HIJG$%AHHHHa++<v v>O                                            ",
"HsFZ.#49HHH6  +<v<O                                             ",
"HnSHHr4rHHH    11-                                              ",
"HBGHH77AHHHg   l=-                                              ",
"HBGHH77AHHHa  z>O>v                                             ",
"HSHHHAAHHHH6zv>+ O<v                                            ",
"SVHHHHHHHHS 3<    13                                            ",
"8uFHHiqwdHN 1=1   l,                                            ",
" *x b>Xo<  z+O<v v>O                                            ",
" O<vk+  +zz>  +<v<O                                             ",
"  13-    3,    11-                                              ",
"  l,+    1*1   l=>                                              ",
" v>O&z  k++<  z>O>c                                             ",
"b<O  >vz+  +zv>O O<v                                            ",
"k>    3,    31    13                                            ",
"->   x,*    1=3   l,                                            ",
" >c b<O+k  z+O<c v>O                                            ",
" O1ck+  +zz>  +<v<O                                             ",
"  1h-    3,    11=                                              ",
"  l,&    1*1   z=>                                              ",
" c>O+z  k++<  z>O>v                                             ",
"b<O  >vz+  +zc>O +<v                                            ",
"k>    k,    3<    13                                            ",
"->   c,*    1=1   l,                                            ",
" >c b<O+k  z++<v v>O                                            ",
" +<vk+  +zz>  +<v<O                                             ",
"  13-    3,    11-                                              ",
"  l,+    1&1   l=-                                              ",
" v>O@z  k++<  z>O>v                                             ",
"b<+  >vz@  +zv>O O<v                                            ",
"k-    3,    31    13                                            ",
"--   x,*    <=1   z,                                            ",
" >v b<O+k  z++<v v>+                                            ",
" O<vk+  +zz>  +<c<O                                             ",
"  13-    3,    11=                                              ",
"  l,@    1*1   l=>                                              ",
" v>O@z  k++<  z>O>v                                             ",
"b<O  >vz+  +xc>O O<v                                            ",
"k>    3,    31    13                                            ",
"->   x,*    1=1   z,                                            ",
" >c b<O+k  z+O<v v>+                                            ",
" O1ck+  +zz>  +<c<O                                             ",
"  1h-    3,    11=                                              ",
"  l,&    1*1   l=>                                              ",
" c>O+z  k++<  z>O>v                                             ",
"b<O  >vz+  +xc>O O<v                                            "
};
