/* XPM */
static char *New_Project__56_1682524656[] = {
/* columns rows colors chars-per-pixel */
"64 64 14 1 ",
"  c None",
". c #1C1C1B",
"X c #1E1E1E",
"o c #222425",
"O c #242628",
"+ c #252728",
"@ c #26292A",
"# c #2A2E31",
"$ c #2D3235",
"% c #303639",
"& c #333B3F",
"* c #384146",
"= c #3A4449",
"- c #404D53",
/* pixels */
"%    %&                                                         ",
"o%   *#                                                         ",
".$- -@.                                                         ",
" X$-$.                                                          ",
"  %%O                                                           ",
"  *oO                                                           ",
" =@.@-                                                          ",
"-@. .$-                                                         ",
"%    %&                                                         ",
"o%   *#                                                         ",
".$- -@.                                                         ",
" X$-$.                                                          ",
"  %%O                                                           ",
"  *o@                                                           ",
" =@.@-                                                          ",
"-@. .$-                                                         ",
"%    %&                                                         ",
"o%   *#                                                         ",
".$- -@.                                                         ",
" X$-$.                                                          ",
"  %%O                                                           ",
"  *oO                                                           ",
" =@.@-                                                          ",
"-@. .$-                                                         ",
"%    %&                                                         ",
"o%   *#                                                         ",
".$- -@.                                                         ",
" X$-$.                                                          ",
"  %%O                                                           ",
"  *o@                                                           ",
" =@.@-                                                          ",
"-@. .$-                                                         ",
"%    %&                                                         ",
"o%   *#                                                         ",
".$- -@.                                                         ",
" X$-$.                                                          ",
"  %%O                                                           ",
"  *oO                                                           ",
" =@.@-                                                          ",
"-@. .$-                                                         ",
"%    %&                                                         ",
"o%   *#                                                         ",
".$- -@.                                                         ",
" X$-$.                                                          ",
"  %%O                                                           ",
"  *o@                                                           ",
" =@.@-                                                          ",
"-@. .$-                                                         ",
"%    %&                                                         ",
"o%   *#                                                         ",
".$- -@.                                                         ",
" X$-$.                                                          ",
"  %%O                                                           ",
"  *oO                                                           ",
" =@.@-                                                          ",
"-@. .$-                                                         ",
"%    %&                                                         ",
"o%   *#                                                         ",
".$- -@.                                                         ",
" X$-$.                                                          ",
"  %%O                                                           ",
"  *o@                                                           ",
" =@.@-                                                          ",
"-@. .$-                                                         "
};
