/* XPM */
static char *New_Project__52_1682524655[] = {
/* columns rows colors chars-per-pixel */
"64 64 27 1 ",
"  c None",
". c #1C1C1B",
"X c #1E1E1E",
"o c #212122",
"O c #222425",
"+ c #242628",
"@ c #252728",
"# c #26292A",
"$ c #2A2E31",
"% c #2D3235",
"& c #303639",
"* c #32383C",
"= c #333B3F",
"- c #473819",
"; c #493B1C",
": c #6B4E12",
"> c #76591B",
", c #454131",
"< c #584F32",
"1 c #7D6933",
"2 c #343C40",
"3 c #384146",
"4 c #3A4449",
"5 c #404D53",
"6 c #8E6207",
"7 c #996D10",
"8 c #9F7315",
/* pixels */
"   *&    &*                                                     ",
"   &O&   3$                                                     ",
"  4X.%5 5#.                                                     ",
"44#  X%5%.                                                      ",
"*$    &&#                                                       ",
"&o&   3O@                                                       ",
"XX%  4#.#4                                                      ",
"  X45#. X&5                                                     ",
"   **    **                                                     ",
"   *O*   3$                                                     ",
"  2X.%5 5#.                                                     ",
"44#  X&4%X                                                      ",
"*$    *&#                                                       ",
"&o&   4+@                                                       ",
">:,  4#X#4                                                      ",
"87-44#. X&5                                                     ",
"88 *&    &*                                                     ",
"881&O&   3%                                                     ",
"88<X.%5 5#.                                                     ",
"88;  X%5%.                                                      ",
"88    &&@                                                       ",
"881   3O@                                                       ",
"88<  4#.#5                                                      ",
"88;45#. .%5                                                     ",
"87 *&    &=                                                     ",
"86 &O&   3$                                                     ",
"  4X.%5 5#.                                                     ",
"44#  X%5%.                                                      ",
"*$    &&@                                                       ",
"&o&   3O@                                                       ",
"XX%  4#.#5                                                      ",
"  X45#. .%5                                                     ",
"   *&    &*                                                     ",
"   &O&   3%                                                     ",
"  4X.%5 5#.                                                     ",
"44#  X%5%.                                                      ",
"*$    &&@                                                       ",
"&o&   3O@                                                       ",
"XX%  4#.#5                                                      ",
"  X45#. .%5                                                     ",
"   *&    &*                                                     ",
"   &O&   3%                                                     ",
"  4X.%5 5#.                                                     ",
"44#  X%5%.                                                      ",
"*$    &&@                                                       ",
"&o&   3O@                                                       ",
"XX%  4#.#5                                                      ",
"  X45#. .%5                                                     ",
"   *&    &*                                                     ",
"   &O&   3$                                                     ",
"  4X.%5 5#.                                                     ",
"44#  X%5%.                                                      ",
"*$    &&#                                                       ",
"&o&   3O@                                                       ",
"XX%  4#.#4                                                      ",
"  X45#. X&5                                                     ",
"   **    **                                                     ",
"   *O*   3$                                                     ",
"  4X.%5 5#.                                                     ",
"44#  X&4%X                                                      ",
"*$    *&#                                                       ",
"&o&   4+@                                                       ",
"XX%  4#X#4                                                      ",
"  X44#. X&5                                                     "
};
