/* XPM */
static char *New_Project__51_1682524655[] = {
/* columns rows colors chars-per-pixel */
"64 64 31 1 ",
"  c None",
". c #1C1C1B",
"X c #1E1E1E",
"o c gray12",
"O c #212122",
"+ c #222425",
"@ c #242628",
"# c #252728",
"$ c #26292A",
"% c #2A2E31",
"& c #2D3235",
"* c #303639",
"= c #32383C",
"- c #333B3F",
"; c #473819",
": c #493B1C",
"> c #6B4E12",
", c #76591B",
"< c #454131",
"1 c #584F32",
"2 c #7B6022",
"3 c #7D6933",
"4 c #343C40",
"5 c #343C41",
"6 c #384146",
"7 c #3A4449",
"8 c #404D53",
"9 c #8E6207",
"0 c #996D10",
"q c #9F7315",
"w c #826A2E",
/* pixels */
"    **    *=                                                    ",
"    *+*   6%                                                    ",
"5  7o.&8 8$.                                                    ",
"o77$  o&8&o                                                     ",
" =%    **@                                                      ",
" *O*   6+$                                                      ",
"5oo&  7$.$8                                                     ",
"o  o78$. .&8                                                    ",
"    =*    *=                                                    ",
"    *+*   6%                                                    ",
"5  5o.&8 8$.                                                    ",
"o77$  o&8&.                                                     ",
" =%    =*@                                                      ",
" *O*   7+$                                                      ",
"w,><  7$o$8                                                     ",
"qq0;77$. .&8                                                    ",
"qqq =*    *-                                                    ",
"qqq3*+*   6%                                                    ",
"qqq1o.&8 8$.                                                    ",
"qqq:  o&8&.                                                     ",
"qqq    **@                                                      ",
"qqq3   6+@                                                      ",
"qqq1  7$.$8                                                     ",
"qqq:78$. .&8                                                    ",
"qq0 **    *4                                                    ",
"2q9 *+*   6%                                                    ",
"&  7o.&8 8$.                                                    ",
"o77$  o&8&.                                                     ",
" =%    **@                                                      ",
" *O*   6+@                                                      ",
"5oo&  7$.$8                                                     ",
"o  o78$. .&8                                                    ",
"    =*    *=                                                    ",
"    *$=   6%                                                    ",
"5  7o.&7 8$.                                                    ",
"o77$  o&8&o                                                     ",
" =%    **@                                                      ",
" *O*   6+$                                                      ",
"4oo&  7$.$8                                                     ",
"o  o78$. .&8                                                    ",
"    =*    *=                                                    ",
"    *+*   6%                                                    ",
"5  7o.&8 8$.                                                    ",
"o77$  o&8&.                                                     ",
" =%    **@                                                      ",
" *O*   6+$                                                      ",
"5oo&  7$.$8                                                     ",
"o  o78$. .&8                                                    ",
"    **    *=                                                    ",
"    *+*   6%                                                    ",
"5  7o.&8 8$.                                                    ",
"o77$  o&8&o                                                     ",
" =%    **@                                                      ",
" *O*   6+$                                                      ",
"5oo&  7$.$8                                                     ",
"o  o78$. .&8                                                    ",
"    =*    *=                                                    ",
"    *+*   6%                                                    ",
"5  7o.&8 8$.                                                    ",
"o77$  o&8&.                                                     ",
" =%    =*@                                                      ",
" *O*   7+$                                                      ",
"4oo&  7$o$8                                                     ",
"o  o77$. .&8                                                    "
};
