/* XPM */
static char *New_Project__43_1682524264[] = {
/* columns rows colors chars-per-pixel */
"64 64 74 1 ",
"  c None",
". c #141413",
"X c #171616",
"o c #181716",
"O c #1C1C1B",
"+ c #1E1E1E",
"@ c gray12",
"# c #231F13",
"$ c #2B2414",
"% c #332913",
"& c #202020",
"* c #212122",
"= c #222425",
"- c #242526",
"; c #242628",
": c #252728",
"> c #26292A",
", c #27292A",
"< c #2A2E31",
"1 c #2D3235",
"2 c #2F3438",
"3 c #2F3538",
"4 c #303639",
"5 c #32383C",
"6 c #333B3F",
"7 c #423414",
"8 c #473819",
"9 c #493B1C",
"0 c #523E14",
"q c #614407",
"w c #614915",
"e c #6B4E12",
"r c #715314",
"t c #715415",
"y c #725415",
"u c #7F5E15",
"i c #745718",
"p c #75581A",
"a c #76591B",
"s c #785C1E",
"d c #454131",
"f c #584F32",
"g c #705732",
"h c #7B6022",
"j c #7B6124",
"k c #7D6933",
"l c #343C40",
"z c #343C41",
"x c #353D42",
"c c #384146",
"v c #3A4449",
"b c #3D484D",
"n c #3D484E",
"m c #404D53",
"M c #495960",
"N c #855A00",
"B c #885D02",
"V c #805E15",
"C c #8E6207",
"Z c #916509",
"A c #93680C",
"S c #966B0E",
"D c #876315",
"F c #906815",
"G c #996D10",
"H c #906B19",
"J c #906B1B",
"K c #9C7013",
"L c #9F7315",
"P c #8C6D26",
"I c #826A2E",
"U c #8A6D28",
"Y c #936F20",
"T c #937731",
/* pixels */
"4x;    x<    54    4x                                           ",
"c;;   n1*    4=4   v<                                           ",
", ,m M1++x  v+O1m n,O                                           ",
"O O1nx@  @vv,  +1m1O                                            ",
"   46;    5<    34;                                             ",
"   c<@    4*4   c=,                                             ",
"m m,O@v  x++1  v,O,m                                            ",
"1M1O  ,nv+  +bn,O O1m                                           ",
"3x,    6<    54    4x                                           ",
"c1,   n<*    4=4   v<                                           ",
"> ,n M1O+x  x+O1m n,O                                           ",
"O +1nx+  @vv,  +1m1O                                            ",
"   46;    5<    34;                                             ",
"   c<+    4*4   c=,                                             ",
" NYjpsULLIaed  v,O,m                                            ",
"mSLLLLLLLLLG8bn,O +1m                                           ",
"5LLLLLtrFLLL 54    45                                           ",
"4LLLLD.%VLLLk4=4   c1                                           ",
" LTPK$%FLLLLf++1m m,O                                           ",
" LgJu.$7wLLL9  +1m1O                                            ",
" LBGLLu7VLLL    33,                                             ",
" LZKLL00FLLLk   c=,                                             ",
" LZGLL00FLLLf  b,O,n                                            ",
"mLGLLLFFLLLL9vn,+ O1m                                           ",
"xSALLLLLLLLG 54    45                                           ",
"3qiJLLhttjLC 3=4   c<                                           ",
"- @n M,oo1  v++1m m,O                                           ",
"O +1nx@  @vv,  +3n1O                                            ",
"   45,    5<    44>                                             ",
"   c<@    4*4   c=,                                             ",
"m m,O@v  x++1  v,+,n                                            ",
"1M1O  ,nv@  +vm,O O1m                                           ",
"3x,    5<    54    35                                           ",
"c;>   n<*    4=4   c1                                           ",
", ,n M1++x  v+O1m m,o                                           ",
"+ +3nx+  +vv,  +1m1+                                            ",
"   4x=    5<    44,                                             ",
"   c<@    4*4   c=;                                             ",
"m m,O+v  x++1  v,O,m                                            ",
"1M1O  ,mv+  +vm,O O1m                                           ",
"4x,    l<    54    46                                           ",
"c;,   n<*    4=4   c<                                           ",
", ,n M1o+x  v+O1m m,O                                           ",
"O O1mx*  @vv,  +1m1O                                            ",
"   35;    5<    33,                                             ",
"   c1+    4*4   c=,                                             ",
"m m,++v  x++1  b,O,n                                            ",
"1M1O  ,mv@  +vn,+ O1m                                           ",
"4x;    x<    54    4x                                           ",
"c;;   n1*    4=4   v<                                           ",
", ,m M1++x  v+O1m n,O                                           ",
"O O1nx@  @vv,  +1m1O                                            ",
"   46;    5<    34;                                             ",
"   c<@    4*4   c=,                                             ",
"m m,O@v  x++1  v,O,m                                            ",
"1M1O  ,nv+  +bn,O O1m                                           ",
"3x,    6<    54    4x                                           ",
"c>,   n<*    4=4   v<                                           ",
", ,n M1O+x  v+O1m n,O                                           ",
"O +1nx+  @vv,  +1m1O                                            ",
"   46;    5<    34;                                             ",
"   c<+    4*4   c=,                                             ",
"m m,++v  x++1  v,O,m                                            ",
"1M1O  ,mv+  +bn,O O1m                                           "
};
