/* XPM */
static char *New_Project__53_1682524656[] = {
/* columns rows colors chars-per-pixel */
"64 64 26 1 ",
"  c None",
". c #1C1C1B",
"X c #1E1E1E",
"o c #212122",
"O c #222425",
"+ c #242628",
"@ c #252728",
"# c #26292A",
"$ c #2A2E31",
"% c #2D3235",
"& c #303639",
"* c #32383C",
"= c #333B3F",
"- c #473819",
"; c #493B1C",
": c #6B4E12",
"> c #454131",
", c #584F32",
"< c #7D6933",
"1 c #343C40",
"2 c #384146",
"3 c #3A4449",
"4 c #404D53",
"5 c #8E6207",
"6 c #996D10",
"7 c #9F7315",
/* pixels */
"  *&    *1                                                      ",
"  &O*   2%                                                      ",
" 3X.%3 3#.                                                      ",
"3#  o&4%.                                                       ",
"$    &&@                                                        ",
"o&   2O@                                                        ",
"X%  3#.#4                                                       ",
" X34#. .%4                                                      ",
"  *&    &1                                                      ",
"  &O*   2$                                                      ",
" 1XX&4 4#.                                                      ",
"3#  X%3%.                                                       ",
"$    &&@                                                        ",
"o&   2O@                                                        ",
":>  3#.#4                                                       ",
"6-34#. .%4                                                      ",
"7 *&    &*                                                      ",
"7<&O&   2$                                                      ",
"7,X.%4 4#.                                                      ",
"7;  X%4%.                                                       ",
"7    &&@                                                        ",
"7<   2O@                                                        ",
"7,  3#.#4                                                       ",
"7;34#. .%4                                                      ",
"6 *&    **                                                      ",
"5 &O*   3%                                                      ",
" 3X.%3 3#X                                                      ",
"3#  o&4%.                                                       ",
"$    &&@                                                        ",
"o&   2O@                                                        ",
"X%  3#.#4                                                       ",
" X34#. .%4                                                      ",
"  &&    &=                                                      ",
"  &O&   2$                                                      ",
" 3XX%4 4#.                                                      ",
"3#  X%4%.                                                       ",
"$    &&O                                                        ",
"o&   2O#                                                        ",
"X%  3#.#4                                                       ",
" X34#. .%4                                                      ",
"  &&    &=                                                      ",
"  &O&   2$                                                      ",
" 3XX%4 4#.                                                      ",
"3#  X%4%X                                                       ",
"$    &&@                                                        ",
"o&   2O@                                                        ",
"X%  3#X#4                                                       ",
" X34#. .%4                                                      ",
"  *&    *1                                                      ",
"  &O*   2%                                                      ",
" 3X.%3 3#.                                                      ",
"3#  o&4%.                                                       ",
"$    &&@                                                        ",
"o&   2O@                                                        ",
"X%  3#.#4                                                       ",
" X34#. .%4                                                      ",
"  *&    &1                                                      ",
"  &O*   2$                                                      ",
" 3XX&4 4#.                                                      ",
"3#  X%3%.                                                       ",
"$    &&@                                                        ",
"o&   2O@                                                        ",
"X%  3#.#4                                                       ",
" X34#. .%4                                                      "
};
