/* XPM */
static char *New_Project__60_1682524657[] = {
/* columns rows colors chars-per-pixel */
"64 64 11 1 ",
"  c None",
". c #1C1C1B",
"X c #242628",
"o c #252728",
"O c #26292A",
"+ c #2A2E31",
"@ c #2D3235",
"# c #303639",
"$ c #333B3F",
"% c #384146",
"& c #404D53",
/* pixels */
" #$                                                             ",
" %+                                                             ",
"&O.                                                             ",
"@.                                                              ",
"X                                                               ",
"X                                                               ",
"O&                                                              ",
".@&                                                             ",
" #$                                                             ",
" %+                                                             ",
"&O.                                                             ",
"@.                                                              ",
"X                                                               ",
"O                                                               ",
"O&                                                              ",
".@&                                                             ",
" #$                                                             ",
" %+                                                             ",
"&O.                                                             ",
"@.                                                              ",
"X                                                               ",
"X                                                               ",
"O&                                                              ",
".@&                                                             ",
" #$                                                             ",
" %+                                                             ",
"&O.                                                             ",
"@.                                                              ",
"X                                                               ",
"O                                                               ",
"O&                                                              ",
".@&                                                             ",
" #$                                                             ",
" %+                                                             ",
"&O.                                                             ",
"@.                                                              ",
"X                                                               ",
"X                                                               ",
"O&                                                              ",
".@&                                                             ",
" #$                                                             ",
" %+                                                             ",
"&O.                                                             ",
"@.                                                              ",
"X                                                               ",
"O                                                               ",
"O&                                                              ",
".@&                                                             ",
" #$                                                             ",
" %+                                                             ",
"&O.                                                             ",
"@.                                                              ",
"X                                                               ",
"X                                                               ",
"O&                                                              ",
".@&                                                             ",
" #$                                                             ",
" %+                                                             ",
"&O.                                                             ",
"@.                                                              ",
"X                                                               ",
"O                                                               ",
"O&                                                              ",
".@&                                                             "
};
