/* XPM */
static char *New_Project__45_1682524264[] = {
/* columns rows colors chars-per-pixel */
"64 64 67 1 ",
"  c None",
". c #141413",
"X c #171616",
"o c #181716",
"O c #1C1C1B",
"+ c #1E1E1E",
"@ c gray12",
"# c #231F13",
"$ c #2B2414",
"% c #332913",
"& c #202020",
"* c #212122",
"= c #222425",
"- c #242628",
"; c #252728",
": c #26292A",
"> c #27292A",
", c #2A2E31",
"< c #2D3235",
"1 c #303639",
"2 c #32383C",
"3 c #333B3F",
"4 c #423414",
"5 c #473819",
"6 c #493B1C",
"7 c #523E14",
"8 c #614915",
"9 c #6B4E12",
"0 c #715314",
"q c #715415",
"w c #725415",
"e c #7F5E15",
"r c #745718",
"t c #75581A",
"y c #76591B",
"u c #785C1E",
"i c #454131",
"p c #584F32",
"a c #705732",
"s c #7B6022",
"d c #7B6124",
"f c #7D6933",
"g c #343C40",
"h c #343C41",
"j c #384146",
"k c #3A4449",
"l c #3D484D",
"z c #3D484E",
"x c #404D53",
"c c #495960",
"v c #885D02",
"b c #805E15",
"n c #8E6207",
"m c #916509",
"M c #93680C",
"N c #876315",
"B c #906815",
"V c #996D10",
"C c #906B19",
"Z c #906B1B",
"A c #9C7013",
"S c #9F7315",
"D c #8C6D26",
"F c #826A2E",
"G c #8A6D28",
"H c #936F20",
"J c #937731",
/* pixels */
"-    3,    3<    13                                             ",
"-   l,*    1=1   k,                                             ",
">x c<O@h  k@O<x z:@                                             ",
"O<xh@  @kk>  @<x<O                                              ",
" 13-    3,    11>                                               ",
" j,@    <*1   j=>                                               ",
"x>O@k  h@@<  k>O>z                                              ",
"<O  >zl@  @kx>O O<x                                             ",
">    3,    3<    23                                             ",
"-   l,*    1=1   k,                                             ",
":x c<O@g  h@O<x z>@                                             ",
"@<zg@  *kk>  @<x<O                                              ",
" 13-    3,    11;                                               ",
" j,@    <*1   j=>                                               ",
"HdruGSSFy9i  k>O>z                                              ",
"SSSSSSSSSV5kx>O @<x                                             ",
"SSSS00BSSS 3<    23                                             ",
"SSSN.%bSSSf1=1   j,                                             ",
"JDS$%BSSSSp@@<z x>O                                             ",
"aCe.#48SSS6  @<x<O                                              ",
"vVSSb4bSSS    11-                                               ",
"mASS77BSSSf   j=>                                               ",
"mASS77BSSSp  k>O>z                                              ",
"VSSSBBSSSS6lz>O @<x                                             ",
"MSSSSSSSSV 31    13                                             ",
"tCSSuqqsSn <=1   j,                                             ",
"*l c>Xo<  k@O<x z>O                                             ",
"O<xh@  @kk>  @<x1O                                              ",
" 13-    3,    11-                                               ",
" j,@    1&1   j=>                                               ",
"x>O@k  h@@<  k>O>z                                              ",
"<O  >zl@  @kx>O O<x                                             ",
"-    3,    21    13                                             ",
">   l,*    1=3   j,                                             ",
">z c<@@g  k@O<z x>O                                             ",
"O1zg@  @kk>  @1z<O                                              ",
" 1h-    3<    21-                                               ",
" j,@    <*1   j=-                                               ",
"z>O@k  g@@<  k>@>x                                              ",
"1O  >xk@  @kz>O O<x                                             ",
"-    3,    3<    13                                             ",
">   z<*    1=1   j,                                             ",
">z c<O@h  k@@<z x>O                                             ",
"O<xh@  @kk>  @<x<O                                              ",
" 13-    2,    11-                                               ",
" j,@    1*1   j=>                                               ",
"x>O@k  h@@<  k>O>z                                              ",
"<O  >xk@  @lz>O @<x                                             ",
"-    3,    3<    1h                                             ",
"-   l,*    1=1   k,                                             ",
">x c<O@h  k@O<x z:@                                             ",
"O<xh@  @kk>  @<x<O                                              ",
" 13-    3,    11>                                               ",
" j,@    <*1   j=>                                               ",
"x>O@k  h@@<  k>O>z                                              ",
"<O  >zl@  @kx>O O<x                                             ",
"-    3,    3<    13                                             ",
">   l,*    1=1   k,                                             ",
">z c<@@g  k@O<x z:@                                             ",
"O1zg@  @kk>  @<x<O                                              ",
" 1h-    3,    11>                                               ",
" j,@    <*1   j=>                                               ",
"z>O@k  h@@<  k>O>z                                              ",
"1O  >xk@  @kx>O O<x                                             "
};
