/* XPM */
static char *New_Project__38_1682524263[] = {
/* columns rows colors chars-per-pixel */
"64 64 102 2 ",
"   c None",
".  c #141413",
"X  c #171616",
"o  c #181716",
"O  c #1C1C1B",
"+  c #1E1E1E",
"@  c gray12",
"#  c #231F13",
"$  c #2B2414",
"%  c #332913",
"&  c #202020",
"*  c #212122",
"=  c #222425",
"-  c #242526",
";  c #242628",
":  c #252728",
">  c #26292A",
",  c #27292A",
"<  c #2A2E31",
"1  c #2D3235",
"2  c #2F3438",
"3  c #2F3538",
"4  c #303639",
"5  c #32383C",
"6  c #333B3F",
"7  c #423414",
"8  c #473819",
"9  c #493B1C",
"0  c #523E14",
"q  c #614407",
"w  c #614915",
"e  c #6B4E12",
"r  c #715314",
"t  c #715415",
"y  c #725415",
"u  c #7F5E15",
"i  c #745718",
"p  c #75581A",
"a  c #76591B",
"s  c #785C1E",
"d  c #454131",
"f  c #584F32",
"g  c #705732",
"h  c #7B6022",
"j  c #7B6124",
"k  c #7D6933",
"l  c #343C40",
"z  c #343C41",
"x  c #353D42",
"c  c #384146",
"v  c #3A4449",
"b  c #3D484D",
"n  c #3D484E",
"m  c #434644",
"M  c #42494C",
"N  c #404D53",
"B  c #495050",
"V  c #4C5455",
"C  c #4E5556",
"Z  c #4A565A",
"A  c #525A5B",
"S  c #5D625F",
"D  c #5E625F",
"F  c #69635F",
"G  c #495960",
"H  c #656A66",
"J  c #6C726F",
"K  c #667274",
"L  c #6B7270",
"P  c #697475",
"I  c #777A79",
"U  c #855A00",
"Y  c #885D02",
"T  c #805E15",
"R  c #8E6207",
"E  c #916509",
"W  c #93680C",
"Q  c #966B0E",
"!  c #876315",
"~  c #906815",
"^  c #996D10",
"/  c #906B19",
"(  c #906B1B",
")  c #9C7013",
"_  c #9F7315",
"`  c #8C6D26",
"'  c #826A2E",
"]  c #8A6D28",
"[  c #936F20",
"{  c #937731",
"}  c #7F8579",
"|  c #7C837F",
" . c #80877C",
".. c #82897E",
"X. c #7B8582",
"o. c #7B8583",
"O. c #848B81",
"+. c #858C84",
"@. c #878E87",
"#. c #899089",
"$. c #8A928C",
"%. c #8C948F",
/* pixels */
"4         4 z :         l <         5 4         4 5                                                                             ",
"= 4       c : :       n < *         4 = 4       c <                                                                             ",
"O 1 G   v >   > N   G 1 + + z     v + + 1 N   N > +                                                                             ",
"  + z N > O   O 1 N z +     + v v >     + 1 N 1 O                                                                               ",
"    4 4         4 5 :         5 <         4 3 :                                                                                 ",
"    z = 4       v < +         4 * 4       c = :                                                                                 ",
"  v + + 1 N   N > O * v     z + + 1     v > O > N                                                                               ",
"N >     + 1 G 1 O     > N v +     @ v n > +   O 1 N                                                                             ",
"4         4 z :         5 <         5 4         3 5                                                                             ",
"= 4       c < :       n 1 *         4 = 4       v 1                                                                             ",
"O 1 G   v >   > N   G 1 + + z     z + O 1 N   N > O                                                                             ",
"  + z N > O   + 1 N z +     + v v >     + 1 N 1 O                                                                               ",
"    4 4         3 l :         5 <         4 3 :                                                                                 ",
"    z = 4       c < +         4 = 4       c = :                                                                                 ",
"%.o.L D Z   U [ j i s ] _ _ ' a e d     v > O > N                                                                               ",
"#.#.%.P V N Q _ _ _ _ _ _ _ _ _ ^ 8 v n > +   O 1 N                                                                             ",
"I o.%...V 5 _ _ _ _ _ r r ~ _ _ _   5 4         4 5                                                                             ",
"F @.%...A 3 _ _ _ _ ! . % T _ _ _ k 4 = 4       c <                                                                             ",
"..#.%.#.m   _ { ` _ $ $ ~ _ _ _ _ f + O 1 N   N > O                                                                             ",
"} #.%.@.D   _ g ( u . $ 7 w _ _ _ 9     + 1 N 1 O                                                                               ",
"+.$.%.%.    _ Y ^ _ _ T 7 u _ _ _         4 4 :                                                                                 ",
"@.#.%.%.    _ E ) _ _ 0 0 ~ _ _ _ k       c = :                                                                                 ",
"@.$.%.%.K   _ E ) _ _ 0 0 ~ _ _ _ f     v > O > N                                                                               ",
"@.%.%.%.A N _ ^ _ _ _ ~ ~ _ _ _ _ 9 v N > O   O 1 N                                                                             ",
"$.%.%.P B z Q W _ _ _ _ _ _ _ _ ^   5 4         4 x                                                                             ",
"H L %.| M 1 q a ( _ _ s y y h _ R   4 = 4       c <                                                                             ",
"o , G   z -   * n   Z > X o 1     v + O 1 N   n > O                                                                             ",
"  @ z N > O   O 3 n x @     @ v v >     + 3 N 1 O                                                                               ",
"    4 4         4 x :         5 <         4 4 :                                                                                 ",
"    z = 4       c < @         4 * 4       c = :                                                                                 ",
"  v @ O 1 N   N > O @ v     z + + 1     v > O > N                                                                               ",
"N >     @ 1 G 1 O     > N v @     + v N > O   O 1 N                                                                             ",
"4         3 z :         5 <         4 3         4 6                                                                             ",
"= 4       c : :       n 1 *         4 = 4       c <                                                                             ",
"+ 1 G   v >   > N   G 1 O + z     v + + 1 N   N > O                                                                             ",
"  + z n > +   + 1 N z +     * v v >     + 1 N 1 O                                                                               ",
"    4 4         4 5 >         5 <         4 4 =                                                                                 ",
"    z = 4       c < @         4 * 4       c = >                                                                                 ",
"  v * O 1 N   n > + @ v     z + + 1     v > O > N                                                                               ",
"N >     @ 1 G 1 O     > N v +     + v N > O   O 1 N                                                                             ",
"4         4 z :         x <         4 4         4 6                                                                             ",
"= 4       c : :       n < *         4 = 4       c <                                                                             ",
"O 1 G   v >   > N   G 1 O + z     v + + 1 N   N > O                                                                             ",
"  + z N > O   + 1 N z +     + v v >     + 1 N 1 O                                                                               ",
"    4 3         4 5 :         5 <         4 4 :                                                                                 ",
"    z = 4       c < @         4 * 4       c = >                                                                                 ",
"  v + + 1 N   N > O * v     z + + 1     v > O > N                                                                               ",
"N >     + 1 G 1 O     > N v +     + v N > O   O 1 N                                                                             ",
"4         5 z ;         l <         5 4         4 5                                                                             ",
"= 4       c ; :       n < *         4 = 4       c <                                                                             ",
"O 1 G   v >   > N   G 1 + + z     v + + 1 N   N > +                                                                             ",
"  + z N > @   @ 1 N z @     @ v v >     + 1 N 1 O                                                                               ",
"    2 2         4 5 :         5 <         4 3 :                                                                                 ",
"    x = 5       v < +         4 * 4       c = :                                                                                 ",
"  v $ + 1 n   n > O * v     z + + 1     v > O > N                                                                               ",
"N >     @ 1 G 3 O     > N v +     @ v n > +   O 1 N                                                                             ",
"4         3 z :         5 <         5 4         4 6                                                                             ",
"= 4       c : :       n 1 *         4 = 4       c <                                                                             ",
"+ 1 G   v >   > N   G 1 + + z     v + + 1 N   N > O                                                                             ",
"  + z n > +   O 1 N z +     + v v >     + 1 N 1 O                                                                               ",
"    4 4         4 5 :         5 <         4 4 =                                                                                 ",
"    z = 4       v < +         4 * 4       c = >                                                                                 ",
"  v * O 1 N   N > O * v     z + @ 1     v > O > N                                                                               ",
"N >     + 1 G 1 O     > N v +     @ v n > +   O 1 N                                                                             "
};
