/* XPM */
static char *New_Project__41_1682524264[] = {
/* columns rows colors chars-per-pixel */
"64 64 90 1 ",
"  c None",
". c #141413",
"X c #171616",
"o c #181716",
"O c #1C1C1B",
"+ c #1E1E1E",
"@ c gray12",
"# c #231F13",
"$ c #2B2414",
"% c #332913",
"& c #202020",
"* c #212122",
"= c #222425",
"- c #242526",
"; c #242628",
": c #252728",
"> c #26292A",
", c #27292A",
"< c #2A2E31",
"1 c #2D3235",
"2 c #2F3438",
"3 c #2F3538",
"4 c #303639",
"5 c #32383C",
"6 c #333B3F",
"7 c #423414",
"8 c #473819",
"9 c #493B1C",
"0 c #523E14",
"q c #614407",
"w c #614915",
"e c #6B4E12",
"r c #715314",
"t c #715415",
"y c #725415",
"u c #7F5E15",
"i c #745718",
"p c #75581A",
"a c #76591B",
"s c #785C1E",
"d c #454131",
"f c #584F32",
"g c #705732",
"h c #7B6022",
"j c #7B6124",
"k c #7D6933",
"l c #343C40",
"z c #343C41",
"x c #353D42",
"c c #384146",
"v c #3A4449",
"b c #3D484D",
"n c #3D484E",
"m c #434644",
"M c #42494C",
"N c #404D53",
"B c #495050",
"V c #4C5455",
"C c #4E5556",
"Z c #4A565A",
"A c #525A5B",
"S c #5D625F",
"D c #5E625F",
"F c #495960",
"G c #667274",
"H c #697475",
"J c #855A00",
"K c #885D02",
"L c #805E15",
"P c #8E6207",
"I c #916509",
"U c #93680C",
"Y c #966B0E",
"T c #876315",
"R c #906815",
"E c #996D10",
"W c #906B19",
"Q c #906B1B",
"! c #9C7013",
"~ c #9F7315",
"^ c #8C6D26",
"/ c #826A2E",
"( c #8A6D28",
") c #936F20",
"_ c #937731",
"` c #7C837F",
"' c #82897E",
"] c #858C84",
"[ c #899089",
"{ c #8C948F",
/* pixels */
"  4x>    z<    64    46                                         ",
"  c;>   n<&    4=4   c<                                         ",
" v> >n Z1++x  v+O1N N>O                                         ",
"N>O O2Nx+  +vv>  +1N1O                                          ",
"4    46;    6<    44;                                           ",
"=4   c<&    2&4   c=>                                           ",
"O1N N>O+n  z++1  v>O>N                                          ",
" +1F1O  >nn#  +vN>O O1N                                         ",
"  3x>    x<    64    46                                         ",
"  v<>   n<&    4=4   c<                                         ",
" n> >n F1++x  l+O1N N>O                                         ",
"n;+ +2nz@  +vv>  +1N1O                                          ",
"6    46>    6<    44;                                           ",
"=3   c<#    2&4   c=;                                           ",
"SZ J)jis(~~/aed  v>O>N                                          ",
"HVNY~~~~~~~~~E8vN>O O1N                                         ",
"'V6~~~~~rrR~~~ 62    46                                         ",
"]A3~~~~T.%L~~~k4=4   c<                                         ",
"[m ~_^~$%R~~~~f+O1N N>O                                         ",
"]S ~gWu.#7w~~~9  +1N1O                                          ",
"{  ~KE~~L7L~~~    44;                                           ",
"{  ~I!~~00R~~~k   c=;                                           ",
"{G ~I!~~00R~~~f  v>O>N                                          ",
"{AN~E~~~RR~~~~9cN>O O1N                                         ",
"HB6YU~~~~~~~~E 64    46                                         ",
"`M3qpQ~~stth~P 4=4   c<                                         ",
" x- &n Z>XX1  v+O1N N>O                                         ",
"N>O O2Nx+  &vv>  +1N1O                                          ",
"4    46;    6<    44;                                           ",
"=4   c<&    4&4   c=>                                           ",
"O1N N>O+v  x++1  v>O>N                                          ",
" +1F1O  >Nv+  +vN>O O1N                                         ",
"  4x;    x<    64    46                                         ",
"  c;;   n<&    4=4   c<                                         ",
" v> >N F1O+x  v+O1N N>O                                         ",
"N>O O1Nx+  +vv>  +1N1O                                          ",
"4    46;    6<    44;                                           ",
"=4   c<+    4&4   c=;                                           ",
"O1N N>++v  x++1  v>O>N                                          ",
" +1F1O  >Nv+  +vN>O O1N                                         ",
"  4x;    z<    64    46                                         ",
"  c;>   n<&    4=4   c<                                         ",
" v> >N F1O@x  v+O1N N>O                                         ",
"N>O +2nx@  @vv>  +1N1O                                          ",
"4    46;    6<    44;                                           ",
"=4   c<+    4&4   c=>                                           ",
"O1N N>O@n  x++1  v>O>N                                          ",
" +1F1O  >nn#  +vN>O O1N                                         ",
"  4x;    6<    64    46                                         ",
"  c;;   n<&    4=4   c<                                         ",
" v> >N F1O+x  v+O1N N>O                                         ",
"N>O O1Nx+  @vv>  +1N1O                                          ",
"4    46;    6<    44;                                           ",
"=4   c<@    2&4   c=>                                           ",
"O1N N>O@n  z++1  v>O>N                                          ",
" +1F1O  >nn#  +vN>O O1N                                         ",
"  4x>    x<    64    46                                         ",
"  c;>   n<&    4=4   c<                                         ",
" v> >n F1++x  v+O1N N>O                                         ",
"N>O +3nx@  +vv>  +1N1O                                          ",
"4    4z;    6<    44;                                           ",
"=4   v<+    2&4   c=;                                           ",
"O1N n>+&n  z++1  v>O>N                                          ",
" +1F1+  >nn#  +vN>O O1N                                         "
};
