/* XPM */
static char *New_Project__32_1682524059[] = {
/* columns rows colors chars-per-pixel */
"64 64 116 2 ",
"   c None",
".  c #141413",
"X  c #171616",
"o  c #181716",
"O  c #191716",
"+  c #1C1C1B",
"@  c #1E1E1E",
"#  c gray12",
"$  c #231F13",
"%  c #2B2414",
"&  c #332913",
"*  c #202020",
"=  c #212122",
"-  c #222425",
";  c #242526",
":  c #242628",
">  c #252728",
",  c #26292A",
"<  c #27292A",
"1  c #2A2E31",
"2  c #2D3235",
"3  c #2F3438",
"4  c #2F3538",
"5  c #303639",
"6  c #32383C",
"7  c #333B3F",
"8  c #3C3F3C",
"9  c #423414",
"0  c #473819",
"q  c #493B1C",
"w  c #523E14",
"e  c #614407",
"r  c #614915",
"t  c #6B4E12",
"y  c #715314",
"u  c #715415",
"i  c #725415",
"p  c #7F5E15",
"a  c #745718",
"s  c #75581A",
"d  c #76591B",
"f  c #785C1E",
"g  c #454131",
"h  c #584F32",
"j  c #705732",
"k  c #7B6022",
"l  c #7B6124",
"z  c #7D6933",
"x  c #343C40",
"c  c #343C41",
"v  c #353D42",
"b  c #384146",
"n  c #3A4449",
"m  c #3D484D",
"M  c #3D484E",
"N  c #434644",
"B  c #42494C",
"V  c #404D53",
"C  c #495050",
"Z  c #4C5455",
"A  c #4E5556",
"S  c #4A565A",
"D  c #525A5B",
"F  c #5D625F",
"G  c #5E625F",
"H  c #69635F",
"J  c #495960",
"K  c #646966",
"L  c #656A66",
"P  c #656A67",
"I  c #666A67",
"U  c #676E6C",
"Y  c #696F6D",
"T  c #6C726F",
"R  c #667274",
"E  c #6B7270",
"W  c #6F7673",
"Q  c #697475",
"!  c #777A79",
"~  c #727C7A",
"^  c #767D7A",
"/  c #855A00",
"(  c #885D02",
")  c #805E15",
"_  c #8E6207",
"`  c #916509",
"'  c #93680C",
"]  c #966B0E",
"[  c #876315",
"{  c #906815",
"}  c #996D10",
"|  c #906B19",
" . c #906B1B",
".. c #9C7013",
"X. c #9F7315",
"o. c #8C6D26",
"O. c #826A2E",
"+. c #8A6D28",
"@. c #936F20",
"#. c #937731",
"$. c #76807F",
"%. c #7F8579",
"&. c #78817C",
"*. c #79817D",
"=. c #7C837F",
"-. c #80877C",
";. c #82897E",
":. c #7B8582",
">. c #7B8583",
",. c #848B81",
"<. c #858C84",
"1. c #878E87",
"2. c #899089",
"3. c #8A928C",
"4. c #8E938E",
"5. c #8C948F",
/* pixels */
":         6 5         5 c ;         6 1         6 5         5 7                                                                 ",
"#         4 - 5       b : ,       M 1 -         5 - 5       b 1                                                                 ",
"# n     c # + 2 J   n ,   : V   J 2 + # c     n # + 2 V   V , +                                                                 ",
"  , n n #     # c V , +   # 2 V x #     # n n ,     # 2 V 2 +                                                                   ",
"    6 1         4 6         5 6 :         6 1         5 5 :                                                                     ",
"  M 5 *         c - 6       b 2 #         5 * 4       b - :                                                                     ",
"J 2 # # c     n * + 2 M   M , + # n     c # # 2     n , + , V                                                                   ",
"c #     # n V ,     # 3 J 2 +     , V n #     # n V , +   + 2 V                                                                 ",
":         6 5         6 c -         v 1         6 6         4 6                                                                 ",
"#         5 - 5       b 1 >       M 1 *         4 - 6       b 1                                                                 ",
"# n     c # + 2 J   n ,   , V   S 2 + # c     c @ + 2 M   V , +                                                                 ",
"  , n n #     # c V , +   + 3 V v #     * n n ,     # 2 V 2 #                                                                   ",
"    6 1         5 5         5 7 :         6 1         6 4 ;                                                                     ",
"  M 5 *         c - 6       b 1 *         5 * 6       b - ,                                                                     ",
"5.~ T Y $.5.5.>.E F S   (  .l s f +.X.X.O.s t g     n , + , V                                                                   ",
"5.5.5.5.5.5.3.3.5.Q A M ] X.X.X.X.X.X.X.X.X.} q n M , +   + 3 V                                                                 ",
"K &.5.5.5.4.! >.5.;.A 7 X.X.X.X.X.y y { X.X.X.  6 5         5 6                                                                 ",
"8 U 5.5.5.! H 1.5.;.D 3 X.X.X.X.[ . & ) X.X.X.z 4 - 5       b 1                                                                 ",
"5.5.5.5.4.$.%.5.5.1.N   X.#.o.X.% % { X.X.X.X.h # + 2 V   V , +                                                                 ",
"5.5.5.5.5.1.%.2.5.1.G   X.j  .p . % 9 r X.X.X.q     # 2 V 2 +                                                                   ",
"5.5.5.5.5.3.;.3.5.5.    X.( } X.X.) 9 ) X.X.X.        5 5 ;                                                                     ",
"5.5.5.5.5.3.,.3.5.5.    X.` ..X.X.w w { X.X.X.z       b - ,                                                                     ",
"5.5.5.5.5.3.2.5.5.5.R   X.` ..X.X.w w { X.X.X.h     n , + , V                                                                   ",
"5.5.5.5.5.3.,.5.5.5.D V X.} X.X.X.{ { X.X.X.X.q n V , +   + 2 V                                                                 ",
"5.4.5.5.5.5.5.5.5.Q C c ] ' X.X.X.X.X.X.X.X.}   6 5         5 7                                                                 ",
"L ^ 5.5.W L L T 5.&.B 5 e s  .X.X.f i i k X._   5 - 5       b 1                                                                 ",
"O c     2 O X , J   x ;   * M   S , X o 2     n # + 2 V   V , +                                                                 ",
"  , n n #     # c V , +   + 3 V v #     # n n ,     # 2 V 2 +                                                                   ",
"    6 1         5 5         5 6 :         6 1         5 5 :                                                                     ",
"  M 5 *         c - 5       b 1 *         5 * 4       b - :                                                                     ",
"J 2 # # c     n * + 2 V   V , + * n     c # # 2     n , + , V                                                                   ",
"c #     # n V ,     # 2 J 2 +     , V n *     # n V , +   + 2 V                                                                 ",
":         6 5         4 c ,         v 1         6 6         4 6                                                                 ",
"#         5 - 5       b : ,       M 1 *         4 - 6       b 1                                                                 ",
"# n     c # + 2 J   n ,   , M   J 2 + # c     n @ + 2 M   V , +                                                                 ",
"  , n n #     # c V , +   # 3 V x #     * n n ,     # 2 V 2 #                                                                   ",
"    6 1         5 5         5 6 :         6 1         6 4 ;                                                                     ",
"  M 5 *         c - 5       b 1 #         5 * 5       b - ,                                                                     ",
"S 2 # # c     n # + 2 V   V , + # n     c # # 3     n , + , V                                                                   ",
"v #     # n V ,     # 2 J 2 +     , V n @     * n M , +   + 3 V                                                                 ",
":         6 5         5 c :         6 1         6 5         5 6                                                                 ",
"#         5 - 5       b : ,       M 1 *         4 - 5       b 1                                                                 ",
"# n     x # # 2 J   n ,   , V   J 2 + # c     n # + 2 V   V , +                                                                 ",
"  , n n #     # c V , +   + 2 V c #     * n n ,     # 2 V 2 +                                                                   ",
"    6 1         4 4         4 6 ,         6 1         5 5 ;                                                                     ",
"  M 4 *         v - 5       b 1 #         5 * 5       b - ,                                                                     ",
"J 2 # # c     n # # 2 V   V , + # n     v # # 2     n , + , V                                                                   ",
"x #     # n V ,     # 2 J 2 #     , M n #     # n V , +   + 2 V                                                                 ",
":         6 5         5 c ;         6 1         6 5         5 7                                                                 ",
"#         4 - 5       b : ,       M 1 -         5 - 5       b 1                                                                 ",
"# n     c # + 2 J   n ,   : V   J 2 + # c     n # + 2 V   V , +                                                                 ",
"  , n n #     # c V , +   # 2 V x #     # n n ,     # 2 V 2 +                                                                   ",
"    6 1         4 6         5 6 :         6 1         5 5 :                                                                     ",
"  M 5 *         c - 6       b 2 #         5 * 4       b - :                                                                     ",
"J 2 # # c     n * + 2 M   M , + # n     c # # 2     n , + , V                                                                   ",
"c #     # n V ,     # 3 J 2 +     , V n #     # n V , +   + 2 V                                                                 ",
":         6 5         6 c :         6 1         6 6         6 6                                                                 ",
"@         5 - 4       b - ,       M 1 -         4 - 6       b 1                                                                 ",
"* n     c # + 3 J   n ,   , V   J 2 + # c     n # + 2 M   V , +                                                                 ",
"  , n n @     @ c V , +   + 2 V x #     # n n ,     # 2 V 2 +                                                                   ",
"    6 1         4 6         5 7 :         6 1         5 5 ;                                                                     ",
"  M 6 *         c - 6       b 1 #         5 * 4       b - ,                                                                     ",
"S 2 # # c     n @ # 2 M   V , + # n     c # # 2     n , + , V                                                                   ",
"v #     @ n V ,     # 2 J 2 +     , V n #     # n V , +   + 2 V                                                                 "
};
