/* XPM */
static char *New_Project__49_1682524655[] = {
/* columns rows colors chars-per-pixel */
"64 64 42 1 ",
"  c None",
". c #171616",
"X c #181716",
"o c #1C1C1B",
"O c #1E1E1E",
"+ c gray12",
"@ c #332913",
"# c #212122",
"$ c #222425",
"% c #242628",
"& c #252728",
"* c #26292A",
"= c #2A2E31",
"- c #2D3235",
"; c #303639",
": c #32383C",
"> c #333B3F",
", c #423414",
"< c #473819",
"1 c #493B1C",
"2 c #523E14",
"3 c #614915",
"4 c #6B4E12",
"5 c #715314",
"6 c #715415",
"7 c #725415",
"8 c #76591B",
"9 c #454131",
"0 c #584F32",
"q c #7B6022",
"w c #7D6933",
"e c #343C40",
"r c #343C41",
"t c #384146",
"y c #3A4449",
"u c #404D53",
"i c #805E15",
"p c #8E6207",
"a c #906815",
"s c #996D10",
"d c #9F7315",
"f c #826A2E",
/* pixels */
">=    >;    ;>                                                  ",
"=#    -$;   t=                                                  ",
"o+r  y+o-u u*o                                                  ",
"  +yy*  +-u-o                                                   ",
"   >=    ;;&                                                    ",
"   ;#;   t$&                                                    ",
"  r++-  y*o*u                                                   ",
"uy+  +yu*o o-u                                                  ",
">=    ;;    >>                                                  ",
"=#    ;$;   t=                                                  ",
"o+e  r+o-y u*o                                                  ",
"  #yy*  +-u;o                                                   ",
"   >=    ;;&                                                    ",
"   -#;   t$&                                                    ",
"ddf849  y*o*u                                                   ",
"dddds<yu*o o-u                                                  ",
"7addd >;    >>                                                  ",
"@idddw;#>   t=                                                  ",
"adddd0+o-y y*o                                                  ",
",3ddd1  #;u-o                                                   ",
",iddd    ;;&                                                    ",
"2adddw   t$&                                                    ",
"2addd0  y*o*u                                                   ",
"adddd1yu*o o-u                                                  ",
"dddds >;    ;>                                                  ",
"77qdp -$;   t=                                                  ",
".X-  y+o-u u*o                                                  ",
"  +yy*  +-u-o                                                   ",
"   >=    ;;&                                                    ",
"   ;#;   t$&                                                    ",
"  r++-  y*o*u                                                   ",
"uy+  +yu*o o-u                                                  ",
">=    ;;    ;>                                                  ",
"=#    ;$;   t=                                                  ",
"o+e  y+o-u u*o                                                  ",
"  #yy*  +-u-o                                                   ",
"   >=    ;;&                                                    ",
"   -#;   t$&                                                    ",
"  r++-  y*o*u                                                   ",
"uy+  +yu*o o-u                                                  ",
">=    >-    >>                                                  ",
"=#    ;$>   t=                                                  ",
"o+e  y+o-y y*o                                                  ",
"  +yy*  #;u-o                                                   ",
"   ;=    ;;&                                                    ",
"   ;#;   t$&                                                    ",
"  r++-  y*o*u                                                   ",
"uy+  +yu*o o-u                                                  ",
"e=    >;    ;>                                                  ",
"=#    -$;   t=                                                  ",
"o+r  y+o-u u*o                                                  ",
"  +yy*  +-u-o                                                   ",
"   >=    ;;&                                                    ",
"   ;#;   t$&                                                    ",
"  r++-  y*o*u                                                   ",
"uy+  +yu*o o-u                                                  ",
">=    ;;    >>                                                  ",
"=#    ;$;   t=                                                  ",
"o+e  y+o-y u*o                                                  ",
"  #yy*  +-u;o                                                   ",
"   >=    ;;&                                                    ",
"   -#;   t$&                                                    ",
"  r++-  y*o*u                                                   ",
"uy+  +yu*o o-u                                                  "
};
