/* XPM */
static char *New_Project__59_1682524656[] = {
/* columns rows colors chars-per-pixel */
"64 64 12 1 ",
"  c None",
". c #1C1C1B",
"X c #222425",
"o c #242628",
"O c #252728",
"+ c #26292A",
"@ c #2A2E31",
"# c #2D3235",
"$ c #303639",
"% c #333B3F",
"& c #384146",
"* c #404D53",
/* pixels */
"  $%                                                            ",
"  &@                                                            ",
" *+.                                                            ",
"*#.                                                             ",
"$o                                                              ",
"Xo                                                              ",
".+*                                                             ",
" .#*                                                            ",
"  $%                                                            ",
"  &@                                                            ",
" *+.                                                            ",
"*#.                                                             ",
"$o                                                              ",
"X+                                                              ",
".+*                                                             ",
" .#*                                                            ",
"  $%                                                            ",
"  &@                                                            ",
" *+.                                                            ",
"*#.                                                             ",
"$o                                                              ",
"Xo                                                              ",
".+*                                                             ",
" .#*                                                            ",
"  $%                                                            ",
"  &@                                                            ",
" *+.                                                            ",
"*#.                                                             ",
"$o                                                              ",
"X+                                                              ",
".+*                                                             ",
" .#*                                                            ",
"  $%                                                            ",
"  &@                                                            ",
" *+.                                                            ",
"*#.                                                             ",
"$o                                                              ",
"Xo                                                              ",
".+*                                                             ",
" .#*                                                            ",
"  $%                                                            ",
"  &@                                                            ",
" *+.                                                            ",
"*#.                                                             ",
"$o                                                              ",
"X+                                                              ",
".+*                                                             ",
" .#*                                                            ",
"  $%                                                            ",
"  &@                                                            ",
" *+.                                                            ",
"*#.                                                             ",
"$o                                                              ",
"Xo                                                              ",
".+*                                                             ",
" .#*                                                            ",
"  $%                                                            ",
"  &@                                                            ",
" *+.                                                            ",
"*#.                                                             ",
"$o                                                              ",
"X+                                                              ",
".+*                                                             ",
" .#*                                                            "
};
