/* XPM */
static char *New_Project__48_1682524655[] = {
/* columns rows colors chars-per-pixel */
"64 64 48 1 ",
"  c None",
". c #141413",
"X c #171616",
"o c #181716",
"O c #1C1C1B",
"+ c #1E1E1E",
"@ c gray12",
"# c #231F13",
"$ c #332913",
"% c #212122",
"& c #222425",
"* c #242628",
"= c #252728",
"- c #26292A",
"; c #27292A",
": c #2A2E31",
"> c #2D3235",
", c #303639",
"< c #32383C",
"1 c #333B3F",
"2 c #423414",
"3 c #473819",
"4 c #493B1C",
"5 c #523E14",
"6 c #614915",
"7 c #6B4E12",
"8 c #715314",
"9 c #715415",
"0 c #725415",
"q c #76591B",
"w c #785C1E",
"e c #454131",
"r c #584F32",
"t c #7B6022",
"y c #7D6933",
"u c #343C40",
"i c #343C41",
"p c #384146",
"a c #3A4449",
"s c #3D484E",
"d c #404D53",
"f c #805E15",
"g c #8E6207",
"h c #906815",
"j c #996D10",
"k c #9F7315",
"l c #826A2E",
"z c #8A6D28",
/* pixels */
" 1:    1>    ,1                                                 ",
"s:%    ,&,   p:                                                 ",
">++i  a++>d d-O                                                 ",
"+  +aa-  +>d>O                                                  ",
"    1:    ,,*                                                   ",
"    ,%,   p&*                                                   ",
"a  i++>  a-O-d                                                  ",
"-da+  +ad-O O>d                                                 ",
" i:    <,    ,1                                                 ",
"s:%    ,&,   p:                                                 ",
">O+i  i+O>d d-O                                                 ",
"+  +aa-  +>d>O                                                  ",
"    1:    ,,*                                                   ",
"    ,%,   p&-                                                   ",
"zkklq7e  a-O-d                                                  ",
"kkkkkj3ad-O O>d                                                 ",
"88hkkk 1,    ,1                                                 ",
".$fkkky>&,   p:                                                 ",
"$hkkkkr+O>d d-O                                                 ",
"#26kkk4  +>d>O                                                  ",
"f2fkkk    ,,*                                                   ",
"55hkkky   p&-                                                   ",
"55hkkkr  a-O-d                                                  ",
"hhkkkk4ad-O O>d                                                 ",
"kkkkkj 1,    ,1                                                 ",
"w00tkg ,%,   p:                                                 ",
"-Xo>  a+O>d d-O                                                 ",
"+  %aa-  +>d>O                                                  ",
"    1:    ,,*                                                   ",
"    ,%,   p&*                                                   ",
"a  i++>  a-O-d                                                  ",
"-da+  +ad-O O>d                                                 ",
" i:    1,    ,1                                                 ",
"s:%    ,&,   p:                                                 ",
">O+i  a+O>d d-O                                                 ",
"+  +aa-  +>d>O                                                  ",
"    1:    ,,*                                                   ",
"    ,%,   p&-                                                   ",
"a  i++>  a-O-d                                                  ",
"-da+  +ad-O O>d                                                 ",
" i:    1,    ,1                                                 ",
"s:%    ,&,   p:                                                 ",
">O+i  a+O>d d-O                                                 ",
"+  +aa-  +>d>O                                                  ",
"    1:    ,,*                                                   ",
"    >%,   p&*                                                   ",
"a  i++>  a-O-d                                                  ",
"-ds#  +ad-O O>d                                                 ",
" i:    1>    ,1                                                 ",
"s:%    ,&,   p:                                                 ",
">+@i  a++>d d-O                                                 ",
"+  @aa-  +>d>O                                                  ",
"    1:    ,,*                                                   ",
"    ,%,   p&*                                                   ",
"a  i++>  a-O-d                                                  ",
"-da@  +ad-O O>d                                                 ",
" i:    1,    ,1                                                 ",
"s:%    ,&,   p:                                                 ",
">O+i  a+O>d d-O                                                 ",
"+  +aa-  +>d>O                                                  ",
"    1:    ,,*                                                   ",
"    ,%,   p&-                                                   ",
"a  i++>  a-O-d                                                  ",
"-da+  +ad-O O>d                                                 "
};
