/* XPM */
static char *New_Project__54_1682524656[] = {
/* columns rows colors chars-per-pixel */
"64 64 21 1 ",
"  c None",
". c #1C1C1B",
"X c #1E1E1E",
"o c #222425",
"O c #242628",
"+ c #252728",
"@ c #26292A",
"# c #2A2E31",
"$ c #2D3235",
"% c #303639",
"& c #32383C",
"* c #333B3F",
"= c #473819",
"- c #493B1C",
"; c #454131",
": c #584F32",
"> c #7D6933",
", c #343C40",
"< c #384146",
"1 c #3A4449",
"2 c #404D53",
/* pixels */
" &%    %&                                                       ",
" %o%   <$                                                       ",
"1X.$2 2@.                                                       ",
"@  X$2$.                                                        ",
"    %%+                                                         ",
"%   <o+                                                         ",
"$  1@.@2                                                        ",
"X12@. .$2                                                       ",
" &%    %&                                                       ",
" %o%   <$                                                       ",
",X.$2 2@.                                                       ",
"@  X$2$.                                                        ",
"    %%+                                                         ",
"%   <o+                                                         ",
";  1@.@2                                                        ",
"=12@. .$2                                                       ",
" &%    %&                                                       ",
">%o%   <#                                                       ",
":X.$2 2@.                                                       ",
"-  X$2$.                                                        ",
"    %%+                                                         ",
">   <o+                                                         ",
":  1@.@2                                                        ",
"-12@. .$2                                                       ",
" &%    %&                                                       ",
" %o%   <$                                                       ",
"1X.$2 2@.                                                       ",
"@  X$2$.                                                        ",
"    %%+                                                         ",
"%   <o+                                                         ",
"$  1@.@2                                                        ",
"X12@. .$2                                                       ",
" &%    %*                                                       ",
" %o%   <#                                                       ",
"1X.$2 2@.                                                       ",
"@  X$2$.                                                        ",
"    %%+                                                         ",
"%   <o+                                                         ",
"$  1@.@2                                                        ",
"X12@. .$2                                                       ",
" &%    %*                                                       ",
" %o%   <#                                                       ",
"1X.$2 2@X                                                       ",
"@  X$2$.                                                        ",
"    %%+                                                         ",
"%   <o+                                                         ",
"$  1@.@2                                                        ",
"X12@. .$2                                                       ",
" &%    %&                                                       ",
" %o%   <$                                                       ",
"1X.$2 2@.                                                       ",
"@  X$2$.                                                        ",
"    %%+                                                         ",
"%   <o+                                                         ",
"$  1@.@2                                                        ",
"X12@. .$2                                                       ",
" &%    %&                                                       ",
" %o%   <$                                                       ",
"1X.$2 2@.                                                       ",
"@  X$2$.                                                        ",
"    %%+                                                         ",
"%   <o+                                                         ",
"$  1@.@2                                                        ",
"X12@. .$2                                                       "
};
