/* XPM */
static char *New_Project__26_1682524008[] = {
/* columns rows colors chars-per-pixel */
"64 64 129 2 ",
"   c None",
".  c #141413",
"X  c #171616",
"o  c #181716",
"O  c #191716",
"+  c #1C1C1B",
"@  c #1E1E1E",
"#  c gray12",
"$  c #231F13",
"%  c #2B2414",
"&  c #332913",
"*  c #202020",
"=  c #212122",
"-  c #222425",
";  c #242526",
":  c #242628",
">  c #252728",
",  c #26292A",
"<  c #27292A",
"1  c #2A2E31",
"2  c #2D3235",
"3  c #2F3438",
"4  c #2F3538",
"5  c #303639",
"6  c #32383C",
"7  c #333B3F",
"8  c #3C3F3C",
"9  c #423414",
"0  c #473819",
"q  c #493B1C",
"w  c #523E14",
"e  c #614407",
"r  c #614915",
"t  c #6B4E12",
"y  c #715314",
"u  c #715415",
"i  c #725415",
"p  c #7F5E15",
"a  c #745718",
"s  c #75581A",
"d  c #76591B",
"f  c #785C1E",
"g  c #454131",
"h  c #584F32",
"j  c #705732",
"k  c #7B6022",
"l  c #7B6124",
"z  c #7D6933",
"x  c #343C40",
"c  c #343C41",
"v  c #353D42",
"b  c #384146",
"n  c #3A4449",
"m  c #3D484D",
"M  c #3D484E",
"N  c #434644",
"B  c #444846",
"V  c #42494C",
"C  c #404D53",
"Z  c #495050",
"A  c #4C5455",
"S  c #4E5556",
"D  c #4A565A",
"F  c #525A5B",
"G  c #575B58",
"H  c #545B5A",
"J  c #5D625F",
"K  c #5E625F",
"L  c #69635F",
"P  c #495960",
"I  c #646966",
"U  c #656A66",
"Y  c #656A67",
"T  c #666A67",
"R  c #676E6C",
"E  c #686E6B",
"W  c #696E6B",
"Q  c #696F6D",
"!  c #6C726F",
"~  c #667274",
"^  c #6B7270",
"/  c #6C7370",
"(  c #6F7673",
")  c #697475",
"_  c #6F7775",
"`  c #717873",
"'  c #707875",
"]  c #777A79",
"[  c #727C7A",
"{  c #767D7A",
"}  c #855A00",
"|  c #885D02",
" . c #805E15",
".. c #8E6207",
"X. c #916509",
"o. c #93680C",
"O. c #966B0E",
"+. c #876315",
"@. c #906815",
"#. c #996D10",
"$. c #906B19",
"%. c #906B1B",
"&. c #9C7013",
"*. c #9F7315",
"=. c #8C6D26",
"-. c #826A2E",
";. c #8A6D28",
":. c #936F20",
">. c #937731",
",. c #76807F",
"<. c #7F8579",
"1. c #78817C",
"2. c #79817D",
"3. c #7C837F",
"4. c #80877C",
"5. c #82897E",
"6. c #7B8582",
"7. c #7B8583",
"8. c #7F8681",
"9. c #7F8783",
"0. c #848B81",
"q. c #838B86",
"w. c #858C84",
"e. c #878E87",
"r. c #828C88",
"t. c #899089",
"y. c #8A928C",
"u. c #8E938E",
"i. c #8C948F",
/* pixels */
":         c ;         6 5         5 c :         7 1         6 4         6 c                                                     ",
":       M 1 *         4 ; 4       b < ;       M 1 =         5 ; 5       b 1                                                     ",
"< C   C 2 + * n     c # + 2 P   n <   < C   P 2 + # c     n # + 2 M   C < +                                                     ",
"+ 2 P 2 #     , n n #     # c C < +   # 2 C c #     # n n <     # 2 C 2 +                                                       ",
"  5 c :         6 1         5 5         6 6 :         6 1         4 4 ;                                                         ",
"  b ; <       M 5 =         c ; 6       b 1 #         4 = 5       b ; <                                                         ",
"C <   < n   P 2 # # c     n # + 2 M   M < + # n     c # # 2     n < + < C                                                       ",
"2 +   + < M v *     # n C <     # 4 P 2 +     < C n #     # n C < +   + 2 C                                                     ",
",         6 :         6 5         5 c ;         7 1         6 4         4 c                                                     ",
",       M 1 #         4 ; 4       b 1 <       M 1 =         4 ; 4       b 1                                                     ",
", M   M 2 # # n     c # + 2 P   n <   < C   P 2 + # c     c # + 2 C   C < +                                                     ",
"# 4 D 2 #     < n n #     # c C < +   # 2 C c #     # n n <     # 2 C 2 +                                                       ",
"  5 v :         6 1         5 5         6 6 :         6 1         5 4 :                                                         ",
"  b : <       M 5 =         c ; 6       b 1 #         5 = 5       b - <                                                         ",
"r._ Y _ 7.i.i.[ Q Q ,.i.i.7.^ J D   } :.l a f ;.*.*.-.d t g     n < + < C                                                       ",
"i.i.i.i.i.i.i.i.i.i.i.i.t.t.i.) S M O.*.*.*.*.*.*.*.*.*.#.0 n C < +   + 2 C                                                     ",
"R E i.E 2.` I 2.i.i.i.i.] 8.i.5.S 6 *.*.*.*.*.i i @.*.*.*.  6 4         6 6                                                     ",
"B B i.B R H 8 E i.i.i.] I e.i.5.H 5 *.*.*.*.+.. &  .*.*.*.z 4 ; 5       b 1                                                     ",
"2.H 8 R i.i.i.i.i.i.y.2.4.t.i.t.N   *.>.=.*.% & @.*.*.*.*.h # + 2 C   C < +                                                     ",
"q.' I 2.i.i.i.i.i.i.i.e.4.e.i.w.K   *.j $. .. $ 9 r *.*.*.q     # 2 C 2 +                                                       ",
"i.y.i.i.i.i.i.i.i.i.i.t.0.y.i.i.    *.| #.*.*. .9  .*.*.*.        5 5 :                                                         ",
"^ 0.I i.i.i.i.i.i.i.i.y.w.t.i.i.    *.X.#.*.*.w w @.*.*.*.z       b ; :                                                         ",
"^ 8.I i.i.i.i.i.i.i.i.y.t.i.i.i.~   *.X.*.*.*.w w @.*.*.*.h     n < + < C                                                       ",
"R i.i.i.i.i.i.i.i.i.i.t.w.i.i.i.F C *.#.*.*.*.@.$.*.*.*.*.q n M < +   + 2 C                                                     ",
"i.i.i.i.i.i.i.i.i.i.i.i.i.i.i.) Z 6 O.O.*.*.*.*.*.*.*.*.#.  6 4         6 7                                                     ",
"Q 8.i.9.! I I { i.i.` I I ^ i.8.V 5 e a %.*.*.f u u l *...  5 ; 5       b 1                                                     ",
"= M   M < X o c     2 o X , P   c ;   = M   D < X o 2     n # + 2 M   C < +                                                     ",
"+ 2 P 2 #     < n M $     @ c C < +   + 4 M v #     * n n <     # 2 C 2 +                                                       ",
"  5 c :         x 1         5 5         6 c :         6 1         4 4 ;                                                         ",
"  b : :       M 4 =         c - 5       b 1 #         4 = 5       b ; <                                                         ",
"C <   < n   P 2 @ @ c     n @ # 2 M   C < + # n     c # # 2     n < + < C                                                       ",
"2 +   + < C c #     @ n C ,     # 2 P 2 +     < C n *     # n C < +   + 2 C                                                     ",
"<         x <         6 4         5 c :         c 1         6 4         6 7                                                     ",
"<       M 1 *         4 ; 6       b : :       M 1 =         4 ; 5       b 1                                                     ",
"< M   M 2 + = n     c # + 2 P   n <   < C   P 2 + # c     n # + 2 M   C < +                                                     ",
"+ 4 P 2 #     , n n #     # b M < #   + 2 C x #     * n n <     # 2 C 4 +                                                       ",
"  5 v :         6 1         6 5         4 c ;         6 1         4 4 ;                                                         ",
"  b : <       M 5 =         v ; 4       b 1 *         5 = 4       b ; <                                                         ",
"M <   < n   D 2 # # c     n * # 2 C   C < + # n     c # * 2     n < + < C                                                       ",
"4 +   + , M c #     # n M <     # 2 P 2 +     < C n #     * n M < +   + 2 C                                                     ",
":         c :         6 5         5 c :         6 1         6 4         4 c                                                     ",
"<       M 2 *         5 ; 5       b : :       M 1 @         4 ; 4       b 1                                                     ",
"< M   M 2 # @ n     x # + 2 P   n <   < C   P 2 # # c     n @ # 2 C   C < +                                                     ",
"+ 2 P 4 #     , n b #     # c M < +   + 2 C c #     * n n ,     # 2 C 2 +                                                       ",
"  4 c ;         6 1         4 4         5 7 :         6 2         5 4 :                                                         ",
"  b : <       M 4 =         c ; 5       b 1 #         5 * 6       b - <                                                         ",
"C ,   < n   P 2 # # c     n # + 2 C   C < + # n     x # # 2     n < + < C                                                       ",
"2 #   # , M x #     * n C <     # 2 P 2 +     < C b #     # n M < +   + 2 C                                                     ",
";         7 :         6 5         5 c ;         6 1         6 4         6 6                                                     ",
":       M 1 #         4 ; 4       b : <       M 2 =         5 ; 5       b 1                                                     ",
"< C   C 2 + * n     c # + 2 P   n <   < C   P 2 + # c     n # + 2 C   C < +                                                     ",
"+ 2 P 2 #     < n n #     # c C < +   # 2 C c #     # n n <     # 2 C 2 +                                                       ",
"  5 c :         6 1         5 5         5 7 :         6 1         5 5 :                                                         ",
"  b : :       M 5 =         c ; 6       b 1 #         4 = 5       b ; :                                                         ",
"C <   < n   P 2 # # c     n # + 2 M   C < + # n     c # # 2     n < + < C                                                       ",
"2 #   + < M v *     # n C <     # 2 P 2 +     < C n #     # n C < +   + 2 C                                                     ",
"<         x <         6 5         5 c :         7 1         6 4         6 7                                                     ",
"<       M 1 *         4 ; 4       b < ;       M 1 =         4 ; 5       b 1                                                     ",
"< M   M 2 + = n     c # + 2 P   n <   < C   P 2 + # c     n # + 2 M   C < +                                                     ",
"+ 4 P 2 #     , n n #     # c C < +   # 2 C c #     # n n <     # 2 C 2 +                                                       ",
"  5 v :         6 1         5 5         6 6 :         6 1         4 4 ;                                                         ",
"  b : <       M 5 =         c ; 6       b 1 #         5 = 4       b ; <                                                         ",
"M <   < n   D 2 # # c     n # + 2 M   M < + # n     c # # 2     n < + < C                                                       ",
"4 +   + , M c #     # n C <     # 4 P 2 +     < C n #     * m M < +   + 2 C                                                     "
};
