/* XPM */
static char *New_Project__46_1682524655[] = {
/* columns rows colors chars-per-pixel */
"64 64 59 1 ",
"  c None",
". c #141413",
"X c #171616",
"o c #181716",
"O c #1C1C1B",
"+ c #1E1E1E",
"@ c gray12",
"# c #231F13",
"$ c #2B2414",
"% c #332913",
"& c #212122",
"* c #222425",
"= c #242628",
"- c #252728",
"; c #26292A",
": c #27292A",
"> c #2A2E31",
", c #2D3235",
"< c #303639",
"1 c #32383C",
"2 c #333B3F",
"3 c #423414",
"4 c #473819",
"5 c #493B1C",
"6 c #523E14",
"7 c #614915",
"8 c #6B4E12",
"9 c #715314",
"0 c #715415",
"q c #725415",
"w c #7F5E15",
"e c #745718",
"r c #76591B",
"t c #785C1E",
"y c #454131",
"u c #584F32",
"i c #7B6022",
"p c #7B6124",
"a c #7D6933",
"s c #343C40",
"d c #343C41",
"f c #384146",
"g c #3A4449",
"h c #3D484D",
"j c #3D484E",
"k c #404D53",
"l c #495960",
"z c #805E15",
"x c #8E6207",
"c c #876315",
"v c #906815",
"b c #996D10",
"n c #906B19",
"m c #906B1B",
"M c #9C7013",
"N c #9F7315",
"B c #8C6D26",
"V c #826A2E",
"C c #8A6D28",
/* pixels */
"    2>    2<    <2                                              ",
"   j>&    <*<   f>                                              ",
"k l,O+d  g+O,k k;O                                              ",
",kd+  +fg;  +,k,O                                               ",
"<2*    2>    <<=                                                ",
"f>&    <&<   f*=                                                ",
";O+g  d++,  g;O;k                                               ",
"O  ;kg&  +gk;O O,k                                              ",
"    d>    2<    <2                                              ",
"   j>*    <*<   f>                                              ",
"k l,O+d  d+O,k k;O                                              ",
",kd+  $fg;  +,k,O                                               ",
"1d=    2>    <<=                                                ",
"f>+    <&<   f*=                                                ",
"petCNNVr8y  g;O;k                                               ",
"NNNNNNNNb4gk;O O,k                                              ",
"NNN99vNNN 2<    <d                                              ",
"NNc.%zNNNa,*<   f>                                              ",
"BN$%vNNNNu+O,k k;O                                              ",
"mw.#37NNN5  +,k,O                                               ",
"bNNz3zNNN    <<=                                                ",
"MNN66vNNNa   f*;                                                ",
"MNN66vNNNu  g;O;k                                               ",
"NNNvvNNNN5gk;O O,k                                              ",
"NNNNNNNNb 2<    <2                                              ",
"mNNtqqiNx <*<   f>                                              ",
"j l;Xo,  g+O,k k;O                                              ",
",kd+  +gg;  +,k,O                                               ",
"<2=    2>    <<=                                                ",
"f>+    <&<   f*=                                                ",
";O#j  d++,  g;O;k                                               ",
"O  ;kj+  +gk;O O,k                                              ",
"    2>    2<    <2                                              ",
"   j>&    <*<   f>                                              ",
"k l,O+s  g+O,k k;O                                              ",
",kd+  +gg;  +,k,O                                               ",
"<2=    2>    <<=                                                ",
"f>#    <&<   f*;                                                ",
";+&g  d++,  g;O;k                                               ",
"O  ;kg+  +gk;O O,k                                              ",
"    d>    2<    <2                                              ",
"   j>*    <&<   f>                                              ",
"k l,++d  g+O,k k;O                                              ",
",kd+  +gg;  +,k,O                                               ",
"<d=    2>    <<=                                                ",
"d,#    ,&<   f*=                                                ",
";++g  d++,  g;O;k                                               ",
"+  ;kg&  +gk;O O,k                                              ",
"    2>    2<    <2                                              ",
"   j>&    <*<   f>                                              ",
"k l,O+d  g+O,k k;O                                              ",
",kd+  +gg;  +,k,O                                               ",
"1d=    2>    <<=                                                ",
"d>+    <&<   f*=                                                ",
";++g  d++,  g;O;k                                               ",
"+  ;kg+  +gk;O O,k                                              ",
"    d>    2<    <2                                              ",
"   j>*    <*<   f>                                              ",
"k l,O+d  g+O,k k;O                                              ",
",kd+  &dg;  +,k,O                                               ",
"<2=    d>    <<=                                                ",
"g>+    d&<   f*=                                                ",
";++g  d++,  g;O;k                                               ",
"O  ;jg$  +gk;O O,k                                              "
};
