/* XPM */
static char *_e9f4c3b88e14f32982703a6447f762freRLmvus8sQSS4hV[] = {
/* columns rows colors chars-per-pixel */
"64 64 249 2 ",
"   c #020202",
".  c #02040E",
"X  c #05090F",
"o  c #0B0B0B",
"O  c #170C0D",
"+  c #020C15",
"@  c #080C16",
"#  c #1A0D15",
"$  c #091117",
"%  c #04141D",
"&  c #0C131B",
"*  c #131314",
"=  c #1B1415",
"-  c #14141B",
";  c #1B151B",
":  c #151A1C",
">  c #1B1B1C",
",  c #330F0E",
"<  c #280D14",
"1  c #360D18",
"2  c #261518",
"3  c #231C1D",
"4  c #2B1B1B",
"5  c #381616",
"6  c #321B1C",
"7  c #3B1D1B",
"8  c #2B211F",
"9  c #3B211E",
"0  c #120E2B",
"q  c #031524",
"w  c #0B1425",
"e  c #031B25",
"r  c #0B1D24",
"t  c #02132A",
"y  c #021D29",
"u  c #151825",
"i  c #1D1C22",
"p  c #251A25",
"a  c #301226",
"s  c #02212C",
"d  c #0B242E",
"f  c #152228",
"g  c #062935",
"h  c #142634",
"j  c #0A323D",
"k  c #1B343C",
"l  c #232324",
"z  c #2C2122",
"x  c #262629",
"c  c #27272B",
"v  c #2B2B2D",
"b  c #342422",
"n  c #3A2828",
"m  c #262333",
"M  c #2E2F31",
"N  c #352B30",
"B  c #2F3133",
"V  c #273338",
"C  c #333335",
"Z  c #363639",
"A  c #3B363B",
"S  c #37383A",
"D  c #3A3B3D",
"F  c #490E0E",
"G  c #500D0F",
"H  c #57120D",
"J  c #550E13",
"K  c #461715",
"L  c #4C1413",
"P  c #431C1A",
"I  c #4A1C1A",
"U  c #571715",
"Y  c #541C1A",
"T  c #5D1B1B",
"R  c #630E0F",
"E  c #641916",
"W  c #761B19",
"Q  c #44221E",
"!  c #48221C",
"~  c #59241E",
"^  c #53321F",
"/  c #67241C",
"(  c #74241C",
")  c #4C1624",
"_  c #601C23",
"`  c #482825",
"'  c #542A25",
"]  c #582825",
"[  c #48312E",
"{  c #5A312B",
"}  c #492A30",
"|  c #4A3838",
" . c #583835",
".. c #652322",
"X. c #652924",
"o. c #682B27",
"O. c #752A26",
"+. c #65322D",
"@. c #75362A",
"#. c #6A3A35",
"$. c #753834",
"%. c #56423E",
"&. c #68433D",
"*. c #74433D",
"=. c #1F2F42",
"-. c #053945",
";. c #153946",
":. c #263D46",
">. c #323A43",
",. c #3E3E41",
"<. c #423A46",
"1. c #144855",
"2. c #26424B",
"3. c #3F4043",
"4. c #36484E",
"5. c #25525D",
"6. c #3A535B",
"7. c #0A5869",
"8. c #195A68",
"9. c #275965",
"0. c #375C69",
"q. c #16616E",
"w. c #0C6577",
"e. c #156676",
"r. c #266A78",
"t. c #356975",
"y. c #3E717C",
"u. c #424345",
"i. c #454649",
"p. c #494648",
"a. c #47484B",
"s. c #4A4A4D",
"d. c #564846",
"f. c #454B52",
"g. c #4D4E51",
"h. c #405157",
"j. c #4F5053",
"k. c #525255",
"l. c #595456",
"z. c #555659",
"x. c #57585C",
"c. c #5A5A5D",
"v. c #644C48",
"b. c #72524B",
"n. c #465E64",
"m. c #555D63",
"M. c #5D5E61",
"N. c #46636C",
"B. c #5F6063",
"V. c #58666D",
"C. c #4D7079",
"Z. c #616265",
"A. c #626265",
"S. c #6E6864",
"D. c #656669",
"F. c #67686B",
"G. c #6A6A6D",
"H. c #726D6C",
"J. c #77736A",
"K. c #626C72",
"L. c #6D6E71",
"P. c #6E7074",
"I. c #727275",
"U. c #757679",
"Y. c #797678",
"T. c #797A7D",
"R. c #891D1C",
"E. c #8E332D",
"W. c #994936",
"Q. c #A85337",
"!. c #875851",
"~. c #826056",
"^. c #B06B4B",
"/. c #867773",
"(. c #C37A52",
"). c #BC9A79",
"_. c #CA917F",
"`. c #107389",
"'. c #276E81",
"]. c #277888",
"[. c #357887",
"{. c #4A7A87",
"}. c #4F7B89",
"|. c #6B7C84",
" X c #757D82",
".X c #7D7F82",
"XX c #15859B",
"oX c #2F8697",
"OX c #378798",
"+X c #138EA6",
"@X c #2897AD",
"#X c #3895A7",
"$X c #3DA0B4",
"%X c #5A828C",
"&X c #498593",
"*X c #568896",
"=X c #518E9A",
"-X c #778389",
";X c #6A8892",
":X c #68949C",
">X c #79949D",
",X c #4A94A4",
"<X c #5C93A4",
"1X c #709DA9",
"2X c #55A5B7",
"3X c #77A5AF",
"4X c #6AA7B1",
"5X c #77AABA",
"6X c #6BB2C2",
"7X c #7BB7C5",
"8X c #868689",
"9X c #95908F",
"0X c #868D91",
"qX c #879497",
"wX c #AA9690",
"eX c #9EA397",
"rX c #879BA4",
"tX c #9CA7AC",
"yX c #8BACB5",
"uX c #98ADB5",
"iX c #86B3BE",
"pX c #95B3BC",
"aX c #A8ABAC",
"sX c #A5B7BB",
"dX c #B3B9BC",
"fX c #C1B8AF",
"gX c #DBC6BC",
"hX c #88B9C5",
"jX c #98BAC4",
"kX c #AFBEC5",
"lX c #95C4CE",
"zX c #B9C5CA",
"xX c #A7CCD6",
"cX c #AECAD1",
"vX c #B7CDD4",
"bX c #99D0E8",
"nX c #ACD8EB",
"mX c #B9D8E6",
"MX c #C5C7C9",
"NX c #C7D0D0",
"BX c #CCD6DA",
"VX c #D5DADD",
"CX c #EAD6C9",
"ZX c #E1E0DF",
"AX c #CDDDE3",
"SX c #D0E5ED",
"DX c #E6E8E9",
"FX c #E7F0F4",
"GX c #F7F8F9",
/* pixels */
"8XU.F.z.F.T.F.G.T.U.8XL.z.U.U.T.I.T.-XL.c.T.8X.XT.G.F.g.c..XI.U.T.L.F.z.Z.8X8X8X8XT.F.M.k.I.T..X8XU.G.L.D.8X8XT.U..XT.F.F.8X8X.X",
"P.M.x.k.Z.L.Z.Z.D.Z.M.i.s.F.B.M.M.D.Z.k.s.F.D.M.M.Z.c.,.k.F.c.M.B.F.Z.s.Z.U.D.F.L.Z.M.j.z.U.F.D.M.c.Z.z.k.G.Z.B.M.D.L.z.c.U.D.D.",
"M.k.g.D s.x.x.z.x.Z.k.,.a.M.x.z.c.k.k.u.a.Z.z.g.k.M.s.S s.Z.c.g.k.c.g.a.k.Z.M.g.g.a.u.,.s.c.k.c.z.k.z.a.a.c.k.k.z.B.c.Z s.M.z.g.",
"s.a.s.Z u.j.s.s.x.c.g.D u.M.c.k.g.s.g.,.i.x.k.s.z.k.a.D s.c.c.z.k.a.u.D a.c.k.a.g.s.g.a.s.g.g.z.k.j.k.a.u.c.k.g.j.z.a.Z k.M.g.g.",
"C M Z Z D D C Z ,.,.Z C u.s.,.C C S D Z S ,.Z B Z C C Z D u.u.D u.,.Z v i.a.M M C C ,.i.D ,.S Z Z Z ,.S Z a.,.D D S C C u.a.S C ",
"s.g.s.c.D.c.k.u.k.c.c.Z.F.Z.z.D i.x.k.x.c.B.x.a.s.Z.Z.Z.Z.c.j.i.k.c.k.k.x.c.c.a.s.c.c.g.x.c.x.a.s.Z.Z.c.M.Z.M.s.u.k.z.x.Z.M.s.Z ",
"P.F.Z.L.Z.Z.F.k.Z.L.F.F.L.L.Z.s.B.I.L.F.B.D.I.k.B.T.L.D.Z.Z.k.u.k.c.Z.M.D.U.I.x.Z.T.I.M.F.F.D.z.Z.T.F.F.I.U.L.M.M.T.I.I.U.U.c.,.",
"M.z.z.x.g.g.s.D k.z.z.z.M.M.k.s.M.Z.z.g.s.c.c.u.k.Z.c.z.k.M.k.,.a.a.s.z.B.Z.M.s.k.c.a.g.x.M.z.u.k.Z.j.z.M.M.M.g.g.L.D.M.B.z.s.Z ",
"c.a.u.i.a.g.u.C a.s.g.k.M.M.M.k.z.z.g.g.j.g.a.u.k.Z.M.j.u.u.D v M C S g.j.g.s.Z a.j.g.z.Z.M.g.S s.c.x.c.M.M.c.a.s.Z.M.g.g.g.g.C ",
"k.D ,.S C D D v S D S D u.,.3.Z s.a.3.a.u.,.D C S u.D c > * o o o o * > l M Z M ,.3.D a.,.D S M D u.,.u.a.,.D Z u.k.,.Z D u.3.C ",
"B.j.s.D C Z u.D s.g.a.s.D ,.u.u.s.u.u.i.D D a.u.D c * o                 X * c Z s.s.u.u.Z Z i.i.g.s.u.g.a.S u.s.k.s.D 3.D i.a.D ",
"I.D.c.x.u.g.I.L.L.L.L.U.c.s.D.L.F.Z.D.D.z.k.I.L.a.l o                       > i.F.G.L.L.z.z.U.I.T.L.D.F.c.s.Z.I.U.L.D.M.u.k.Z.c.",
"M.z.c.k.Z s.x.B.>XD.0X0Xu.u.Z.M.M.c.x.z.k.c.I.a.> o                           l s.k.z.z.s.k.Z.z.B.Z.F.F.g.s.Z.D.B.B.M.j.S i.k.g.",
"x.c.Z.k.D s.%XC.8.r.V.sX,.a.M.c.c.c.z.k.s.g.k.c o                             o v i.g.j.a.a.k.g.k.M.Z.z.u.i.z.j.z.c.k.s.S s.z.g.",
"u.a.u.u.D B 9.r % ;.:.pXu.s.c.k.s.a.a.g.3.D C *         o o o o O 5 X.@.{ O     * Z a.a.,.S u.a.s.s.3.3.D D a.3.a.u.,.a.D s.g.u.",
"D Z S S Z B $ :.2.0.<XhX>.a.s.D S Z S S S S >       o * * c c 6 T E.W.^.^.^.^     l D Z C D s.i.D D D 3.S ,.g.D S u.3.u.a.k.s.M ",
"D.F.I.Z.c.f.$ X @ k &XjXB.F.x.D s.F.D.M.c.k.l       * * * c z ] X.E.W.Q.^.^.(.9   c B.Z.D.G.U.c.g.L.F.L.F.L.G.z.s.I.F.F.U.T.x.C ",
"D.Z.F.Z.Z.z.k d e h N.nXx.Z.x.S s.Z.Z.M.c.a.>     o * * * l K T ..@.O.E.E.W.Q.W.  l Z.F.F.D.Z.a.k.L.F.Z.Z.Z.z.a.a.D.c.B.D.D.s.C ",
"Z.z.c.k.k.g.c r %XC.>XSXa.g.s.Z g.M.k.g.g.u.>     o * * o = P U E W W W W W R.E.O c z.z.k.z.g.S a.c.x.k.k.z.c.s.a.c.z.k.k.s.D M ",
"Z.k.a.a.u.u.,.$ 6.lXGXFXa.k.a.Z k.x.g.g.j.s.i     o o o o , I ' I P P T ..R.R.W < * D s.g.j.g.Z u.z.k.g.g.z.k.a.a.c.s.a.k.s.D C ",
"g.D Z Z Z C C V y.=X1XDXM.D D B ,.D D u.u.M *   * l c c l 5 P ` j. XrX}.{.3X|.O.< > Z Z Z D Z M D a.,.u.u.Z C C Z i.S C ,.S C C ",
"Z.z.z.g.S s.c.k.h.{.}.yXMXu.k.k.M.Z.Z.z.a.C > > S s.i.i.M ` n s.8XY.8Xc.;XVX>Xf.# l s.k.a.s.M.z.c.D.D.Z.s.u.M.Z.M.c.k.k.u.s.z.k.",
"F.F.F.M.,.M.U.M.M.t.&X&XSXdXF.D.F.G.I./.J.Z.s.l > l c l 2 ' { | ` ' ' ` I !  X5.o c c.Z.s.k.I.F.F.I.P.D.k.c..XL.L.L.F.B.a.Z.F.c.",
"z.c.Z.z.D M.F.k.g.s.{.=X6XGX Xc.J.J.M.c.a.u.c   o > > 3 5 I 9 9 Q 7 7 5 K L I c X > s.a.S s.Z.z.j.x.x.x.g.k.D.z.x.M.c.k.u.B.D.z.",
"z.z.c.u.C k.k.s.g.z.n.,X,XcXVXg.c.c.z.M.k.i.l     o o 2 Q 5 9 7 7 7 7 5 G L L G O - a.s.u.s.k.k.k.k.M.c.s.s.Z.c.c.M.M.k.,.z.M.z.",
"S D u.Z C s.3.,.a.g.a.,X,X,XBXwXu.,.3.u.D C ;   o * 3 { ] n 4 4 6 6 6 F G J R H O * D u.C S u.3.a.g.g.u.S u.g.a.i.u.a.D C i.u.,.",
"s.a.u.D u.k.D Z i.x.k.C.,X,X:XCXaXs.s.a.D C *   o >  .&. .[ N 4 4 6 6 F L L J R L > s.a.u.g.j.u.a.s.u.i.s.s.k.u.D i.a.u.a.g.,.C ",
"T.T.L.Z.L.I.c.3.Z.I.Z.n.hX,X=X).gXfXG.F.Z.s.p   o 9 *.b.*. .[ b b 4 5 P P 5 G R , l c.Z.Z.I.I.M.c.L.F.L.L.D.L.Z.c..XT.I.I.L.s.C ",
"F.D.c.k.c.c.a.3.B.z.z.g.:X5X,X1XrXNX9Xz.k.u.>   O X.+.&.b.%.| n b n b 9 9 ' X.T   > k.c.z.M.B.k.k.Z.M.z.x.z.z.g.k.F.M.c.Z.c.u.B ",
"Z.c.g.s.g.g.g.s.x.z.z.c.6.7X,X#XuX5XcX8XA C : + ` / X.{  .&.%.| ` Q ` ` ] +...| j.F.p.a.s.k.z.D u.c.k.j.M.x.c.g.s.M.M.M.z.g.u.C ",
"g.s.g.s.a.s.a.D i.g.k.g.a.[.6XoX4XyX[.;.}  .;.;.Y O.X.X.{  .%.d. . . .+.+.| OX<XzXdX>.<.1.2.,.Z u.k.z.M.z.a.a.,.a.M.c.g.a.a.,.C ",
"z.u.D B S S D S ,.,.D C Z >.@X#X#X<Xe d j -.h Y J E.X.X.{  .| %.v.v.v.#. .~.qXrXaXV.-.-.-.2.<.c u.a.u.D C C D D ,.a.,.S Z D S Z ",
"U.L.M.u.k.F.B.x.c.Z.M.a.s.L.V.=X=Xk q s q 6 E J J ..O.+.+.#.b.b.v.S.!.#.b.wX8XMX0X;.-.-.1.1.2.:.C s.x.k.3.k.F.D.L.U.Z.a.s.G.F.F.",
"D.Z.Z.u.c.T.F.c.c.D.F.k.c.T.M.[.;X% + @ K T U F K ` $.R O.*.#.#.&.l.n.v._./.MXsX;.-.g -.-.-.;.k V >XSXGXBXT.F.D.I.U.F.s.c..XL.D.",
"z.c.k.Z s.B.k.k.z.c.k.g.k.c.g.f.0.+ < Y U L P L L ] { X.o.{ {  .1.8.N.C.Z.ZXeX%Xg e s j -.-.j -.k jXmXFXGXFXL.x.M.M.M.,.g.D.z.g.",
"s.z.k.Z s.z.s.k.z.a.u.u.a.z.k.u.b Y T L U L P H U ..Y +.I o.[ r.9.e.y.-XGXqX4X-.j j d e e g j j 2.4.BXGXGXGXVXL.z.z.g.D k.M.g.g.",
"i.a.u.M u.a.Z ,.u.Z C v S a.n Y L K I 1 , J Y U H T T $.+.i.9.7.e.[.%XvXqXhXr.N.j y + + + + + % 2.pXZXGXGXFXVXD.,.D a.D s.s.D ,.",
"g.g.u.i.k.k.s.S ,.s.i.a.z.j.# o . . . . . . X o < n A >.9.5.C.t.#X5XlXtXvX[.sX:.s s s % $ S V 5XbXnXmXFXGXDXzXZ Z s.s.s.c.k.,.C ",
"G.F.M.D.F.I.D.i.c.L.L.U..XT.a.@ . . . . . . . + -.r.q.r.[.OXy.y.7X2XuXVX{.jX9Xs s s s f l k.M.xXnXnXAXAXBXrXD.c.x.U.L.L.U.F.c.,.",
"L.z.g.s.g.k.s.D k.c.z.M.c.k.k.,.a.u.X . . . ;.w.8.9.].oX].$X6.V.*XDXNX].xX Xm s e y s f > 3.|.zXaXmXvXVX0Xz.B.z.k.F.M.c.z.z.k.S ",
"D.M.k.k.z.k.a.D k.M.M.k.g.k.z.,.z.M.4.-.1.j 8.7.e.].@XXX@XOXyX}.VXtX3X:Xd.$ p r e e s r : }.vXMXMXzXzXMXx.z.c.u.s.L.M.z.z.z.g.C ",
"z.s.u.s.s.a.a.S a.x.s.a.i.s.g.,.g.6.q.w.q.1.9.].XX].@XoX2XcX6XsXrX2X:XwXL e i i q % s y r 3XzXNX0XvXkXZ.a.g.s.,.a.k.a.a.a.g.u.M ",
"s.D s.a.S D <.S s.s.D u.Z Z D 3.F.&Xt.q.7.7.+XXX`.+XoXhX3XjXzXBX4XsXP., L r > a y q r y 1.%XkXD.BXkXrXD D Z D p.a.s.a.i.Z Z S D ",
"D.F.I.Z.s.g.D.Z.G.M.M.M.g.k.P.C.sX`.q.8.7.1.:X@X6X2X1XhXAXzXxX$XeXJ.7 L L e > 6 u e f r 4.[.N.qX-XcXF.U.F.s.c.F.L.U.F.c.s.k.Z.L.",
"G.F.c.g.Z k.F.k.g.j.z.k.u.U.hXVX3X+Xw.].w.m.7XsXlX1XlX5XiX4XlXMX~.' / E L $ 3 2 6 i d : i.f.m.4.K.|.M.F.z.s.L.L.P.F.c.c.k.c.c.c.",
"z.k.k.s.S k.M.a.i.g.j.k.0XpXzXcXw.`.5.'.'.a.yX7XmXxXpXhXhXDXaXgX/ 5 ( ( U @ i 4 b = i i ,.i.B.s.D g.x.g.,.u.F.F.c.z.g.k.u.s.s.a.",
"a.u.a.s.u.a.s.a.a.M K.zXNXVXuX2X`.w.r.OXN.G /.lX;X7XcXSXxXzXDX .7 6 ( X./ P u 3 5 < i v a.<.k.a.a.g.s.u.i.u.j.a.u.u.u.u.Z D a.u.",
"Z D a.u.Z D 3.S ,.D Z ,.k.0X0X9.9.<XN.5.p u F S.CXNXAXtXGXaXU 5 Q l O.$.+.K & : ; 2 p c D u.s.C Z S D u.,.S u.Z Z S D S Z D D v ",
"M.M.M.k.k.Z.c.u.g.Z.M.k.z.Z.H.G.c.Z.m.5.5 5 H < { v.m.eXV & G ) Y [ #.X./ H , & < = z Z c.F.Z.a.a.c.Z.Z.c.Z.F.s.g.Z.Z.M.Z.F.z.C ",
"D.Z.c.M.F.L.c.,.c.G.c.z.Y.9XY.a.k.F.:X8.2 u U 1 p X.7 ; u y R _ U 4 [  .' ~ , ; O # z s.F.F.c.u.z.G.Z.c.Z.L.M.a.z.F.M.F.U.U.c.C ",
"M.c.x.z.M.B.a.Z z.z.c.J.S.c.g.D j.-X%X>.w w E 5 4 ( ( W n ' T H 1 6 z +.Q Q X q @ 5 l g.c.z.s.D s.M.x.z.x.x.g.3.s.Z.j.M.F.D.s.v ",
"M.z.k.g.k.g.a.u.c.z.k.g.k.g.a.D K.dX[.n u p E F w E O.$._ 5 H i u 5 r [ ! ! @ % X < u.z.z.g.a.D s.Z.z.z.k.g.s.u.s.Z.j.g.z.k.,.c ",
"k.u.S S u.D u.a.s.u.,.,.3.Z D L.dXtX'.3 t t E G i o.O.] N Q E ) u < i z { ` = % + i u.s.u.,.i.S u.g.D Z Z S D S i.g.a.D Z Z B c ",
"D.c.k.s.D i.k.x.x.k.k.k.D ,.V.sX<XDX9.p t q ] X.p J W ~ r b / ) u @ p u { ' 2 % + C k.s.D D g.g.M.c.s.g.i.,.k.x.c.x.k.a.S D i.u.",
"F.D.D.c.,.c.T.U.Z.B.F.Z.D  XMX<X0.M.b 5 h =.m F ; 1 W E e f ] Y i % 2 r Q X.z + + a.Z.Z.a.s.D.G.L.D.F.L.c.k.G.P.I.F.Z.z.u.x.F.c.",
"g.g.g.u.S c.Z.g.a.s.c.z.,.g.c.k.g.a.]  .h t t 2 a u E ` p e ` ` i % < ; > +.P + X g.c.g.u.s.z.z.x.k.j.x.s.s.Z.z.z.z.k.a.C z.Z.s.",
"g.s.s.s.D k.z.s.g.g.g.s.S g.Z.z.D.z.O.J t t t t 1 - E / 5 q ` ' ; $ $ # : ` ' o o g.g.s.u.s.c.k.g.g.g.k.s.s.Z.M.z.z.k.s.D Z.Z.g.",
"k.s.,.D M ,.u.,.,.D ,.,.C u.M.F.c.p T a y w q p t - R W H & 9 ' i % - = : b ] = o a.s.u.B ,.k.s.u.,.u.3.D u.z.k.k.s.a.u.u.z.s.D ",
"u.u.D u.g.g.a.S Z S ,.,.j.H.c.u.a.w T a t 0 q % t t K E E 2 3 ' z % 5 - ; 3 ~ 2 > a.u.,.Z u.s.D Z u.s.u.,.s.g.3.S u.s.s.s.k.a.Z ",
"z.M.F.P.G.D.c.,.x.Z.H./.T.U.D.i.M q Y p 0 0 0 t w - 4 Y ~ 5 * ' ` $ 6 b 3 * 8 2 c L.G.F.D.F.F.g.k.U.U.G.G.U.I.c.g.F.G.L.P.L.z.D ",
"k.k.M.c.g.a.u.Z M.J.S.D.D.Z.M.a.C q 6 p u 0 ; t & w 3 ! ~ U = b n e 2 7 b * = 4 c F.k.k.c.z.k.a.z.L.Z.M.D.F.M.g.g.D.M.M.c.z.s.C ",
"M.k.g.s.a.k.a.D Z.D.M.x.k.k.c.a.v q u P % w 1 q & ; & : I ~ 6 3 ` u % z n 3 = z c z.k.z.x.z.g.u.k.Z.c.z.M.c.z.s.g.D.z.s.g.g.u.C ",
"M.g.s.s.g.k.,.C k.k.a.u.u.a.a.Z i & % P - & 6 ; $ ; * - 2 T K - I 7 $ 3 b b 8 3 D z.k.z.g.s.s.S u.k.g.g.g.s.a.u.i.c.k.k.g.s.,.B ",
"Z v v M M M v v Z C C C Z C v c M M v c c v M v v v c v v M v c M c c v M v v v C C v M C C C v C Z B M M Z C v C Z Z S C C C c "
};
