/* XPM */
static char *_31697550710[] = {
/* columns rows colors chars-per-pixel */
"64 64 254 2 ",
"   c #2D0C03",
".  c #360B01",
"X  c #3B1307",
"o  c #441304",
"O  c #461807",
"+  c #4C1D0C",
"@  c #541D06",
"#  c #531D0B",
"$  c #4D1010",
"%  c #471E11",
"&  c #4F220E",
"*  c #582006",
"=  c #54220D",
"-  c #5B230C",
";  c #4B2315",
":  c #532513",
">  c #5B2511",
",  c #5C2A14",
"<  c #542B1A",
"1  c #582C19",
"2  c #5C311C",
"3  c #63280D",
"4  c #732B07",
"5  c #632B13",
"6  c #662A16",
"7  c #6A2D14",
"8  c #642E19",
"9  c #742B1A",
"0  c #663114",
"q  c #6C3116",
"w  c #64321C",
"e  c #6C341C",
"r  c #723215",
"t  c #73351A",
"y  c #7A3619",
"u  c #75391D",
"i  c #7C3B1D",
"p  c #512F23",
"a  c #5E3423",
"s  c #583324",
"d  c #633522",
"f  c #693622",
"g  c #653926",
"h  c #6D3A24",
"j  c #6F322F",
"k  c #6C3D29",
"l  c #743C23",
"z  c #7B3D22",
"x  c #743C28",
"c  c #575D11",
"v  c #704E1B",
"b  c #667E1A",
"n  c #6C412D",
"m  c #7D4126",
"M  c #7A4725",
"N  c #73422C",
"B  c #7C432B",
"V  c #6E4432",
"C  c #734532",
"Z  c #774936",
"A  c #7C4A34",
"S  c #7B4E3A",
"D  c #7C513E",
"F  c #737022",
"G  c #6C3D52",
"H  c #4B3768",
"J  c #613560",
"K  c #365773",
"L  c #7A4D4E",
"P  c #706141",
"I  c #77655D",
"U  c #4E5076",
"Y  c #4E646F",
"T  c #5D6864",
"R  c #802D1B",
"E  c #863C1A",
"W  c #823D1C",
"Q  c #833E21",
"!  c #873A28",
"~  c #893931",
"^  c #84401E",
"/  c #8C421D",
"(  c #96461C",
")  c #A34B1E",
"_  c #844225",
"`  c #8B4524",
"'  c #8E4826",
"]  c #83452A",
"[  c #8A462A",
"{  c #86492D",
"}  c #8C4A2C",
"|  c #924624",
" . c #934A25",
".. c #9B4C24",
"X. c #92462B",
"o. c #934C2B",
"O. c #9A4E2B",
"+. c #8D522A",
"@. c #9E5027",
"#. c #95502E",
"$. c #9C512D",
"%. c #844C33",
"&. c #8B4D33",
"*. c #854C38",
"=. c #924E31",
"-. c #9A4C35",
";. c #8D5135",
":. c #84523B",
">. c #89533A",
",. c #8D543A",
"<. c #945234",
"1. c #9B5433",
"2. c #9C5834",
"3. c #94553A",
"4. c #9A5639",
"5. c #955A3D",
"6. c #9B5A3C",
"7. c #A34E26",
"8. c #A25126",
"9. c #A3532C",
"0. c #AB562C",
"q. c #B55A2D",
"w. c #A54E33",
"e. c #A35533",
"r. c #A85634",
"t. c #A45935",
"y. c #AC5A34",
"u. c #A35B3B",
"i. c #AB5E3B",
"p. c #B35C33",
"a. c #B95E33",
"s. c #90712E",
"d. c #B8602F",
"f. c #A5613C",
"g. c #AC613C",
"h. c #BA6237",
"j. c #B4633C",
"k. c #BB653B",
"l. c #C86437",
"z. c #C3653A",
"x. c #C36A3C",
"c. c #CC6C3D",
"v. c #D16C3C",
"b. c #D5733E",
"n. c #885845",
"m. c #945C42",
"M. c #9B5D42",
"N. c #874856",
"B. c #A25E42",
"V. c #AA5D42",
"C. c #8F6149",
"Z. c #9C6145",
"A. c #94644C",
"S. c #9C644A",
"D. c #99664D",
"F. c #9B6C54",
"G. c #A46345",
"H. c #AC6344",
"J. c #A96846",
"K. c #A3654A",
"L. c #AC6549",
"P. c #A3694D",
"I. c #AC6A4C",
"U. c #B36542",
"Y. c #B56A45",
"T. c #BC6B46",
"R. c #B36C4B",
"E. c #BB714C",
"W. c #A46D53",
"Q. c #AA6E55",
"!. c #A87258",
"~. c #AB735A",
"^. c #B57457",
"/. c #896F62",
"(. c #957667",
"). c #A67B66",
"_. c #B37C62",
"`. c #C36D44",
"'. c #C86E43",
"]. c #D56D44",
"[. c #CD7244",
"{. c #C4734C",
"}. c #CA774B",
"|. c #CB754D",
" X c #D47544",
".X c #D77649",
"XX c #D3794B",
"oX c #DB7B4B",
"OX c #C97A54",
"+X c #D47D53",
"@X c #DB7D54",
"#X c #E47D4A",
"$X c #E57852",
"%X c #3C9C25",
"&X c #56921D",
"*X c #50B417",
"=X c #47A72C",
"-X c #6CA724",
";X c #3AD613",
":X c #1EFF07",
">X c #1FFD1A",
",X c #3AE20A",
"<X c #25FF02",
"1X c #2CFE04",
"2X c #26FD0B",
"3X c #30EC15",
"4X c #1FDF3C",
"5X c #35CF2D",
"6X c #23D33D",
"7X c #2BD13B",
"8X c #1FEA2A",
"9X c #23E929",
"0X c #21F224",
"qX c #21E533",
"wX c #46D718",
"eX c #63C620",
"rX c #30975F",
"tX c #52A245",
"yX c #27C842",
"uX c #8D8C2F",
"iX c #B68367",
"pX c #AF8772",
"aX c #A88575",
"sX c #BC917C",
"dX c #CC815C",
"fX c #DC8153",
"gX c #D38259",
"hX c #DA845B",
"jX c #DD895D",
"kX c #E7824D",
"lX c #EB8553",
"zX c #E98956",
"xX c #E58C5D",
"cX c #F38A55",
"vX c #EF9158",
"bX c #F3925D",
"nX c #CA8863",
"mX c #D98962",
"MX c #E68E62",
"NX c #EC9464",
"BX c #E99568",
"VX c #F49867",
"CX c #EA9F71",
"ZX c #F9A46A",
"AX c #F7A775",
"SX c #FAB37D",
"DX c #3D5185",
"FX c #444B85",
"GX c #4B578A",
"HX c #5B5485",
"JX c #5E6289",
"KX c #B89480",
"LX c #C39A83",
"PX c #F9B481",
/* pixels */
"6.OXMXBXBXCXBXMXNXMXMXMXVXOX{.fX#X X X#XcXZXZXZXvXvXNXZXxXfXk.f.`.{.E.E.f.9.$.( 8.9.n.!.iXpXiX^.W.C.F.F.!.iX^._.iXD.P.Z.,.m.D.D.",
"dXOXmXVXAXBXAXNXxXMXMXjXvX{.{. XcXlX Xc.#XcXvXvXvXvXvXxXXXg.$.2.2.f.2.#.` ` ` / 9.@.A.F.!.F.Z.A.A.D.A.D.!.iXiXiX!.S.,.,.Z.A.!.D.",
"+X+XgXMXBXBXBXAXvXNXMXhXzXE.}.kXbXvXcXlXkXkXvXcXvXlXfXk.d.9. .' @.#...$.#.#.^ $.h.d.F._.iX!.P.A.A.F.F.!.W.S.:.:.>.%.B A Z.A.n.!.",
",.,.,.Y.mXmXmXVXVXMXMXhXzXT.{.T.[..XoX#XzXfXc.fXkXfXy.e : 8 w e q , w { <.$.#._ o.j.W.F.,.A < ; 1 D D.!.P.;.2 = M ;.] { %.B l <.",
"x *.J.E.OXmXmXOXjXxXOXg.j.U.k.' ! 9.y.y.i.j.i.[ j.k.| =   . . O 3 0 , X O , q 3 i ` M.m.B l w k n n >.A A B f ; + > 5 > = u _  .",
"g.3.;.} %.m.B.U.Y.U.U.g.H.u.j.XX[.'.T.{.}.fX+X}.j.f.<.u 8 8 8 M x M N B w w { &.B ] :.m.%.N k N n n C k n C N k f w w x ;.;.B ;.",
"a.9.T.@X+X+X@X.X.X.X.X.X#X$XbXcXcXVXVXVXbXvXjXhXOXk.g.1.3.1.x *.6.6.u.H.H.L.Y.T.T.E.T.Y.J.Z.3.,.,.M.G.H.u.,.,.,.;.3.,.%.{.T.}.}.",
"7.8.u.{.@X@X.X'.z.z.l.v.].].#XcXcXcX$XcXNXbXzX}.Y.J.u.1.{ [ B B =.e.H.H.i.i.u.j.k.T.U.j.u.u.B.6.;.+.u.G.L.u.u.u.u.u.u.4.[. X[.[.",
") | -.r.'.'.].v.a.0.y.a.l.l..X$XlXlXzXzX$X@X^.J.-.! ~ m.~ -.x z ! } w.e.-.V.i.V.V.V.V.V.6.u.u.6.B.&.<.u.u.&.z o.[ 1.U.6. X X}.[.",
"q.O. .O.0.h.l.h.p.y.r.y.a.`.'.].$XlX$X XuXwXtXL b 5X;XwXtXw.&X;X;X5XT &.wX;XwX5X5XI 4.4.B.1.u.u.6.2.} O.[ -.B z 1.e.i.<.'. X[.x.",
"q. .=.o.0.w.7.p.r.o.1.r.-.r.'..X#X#X#X-X2X<XyXHX3X<X3X2X7XU ,X2X0X<X8XJXwX>X>X<X9XGX;.M.4.1.O.o.=.o._ 6.6.t.2.-.<.i.i.4.k.[.c.k.",
"7._ z [ 7.w.Q z X.X.o.p.p.i.a.y.k.v.].eX7X2X7XJX1X6XU wX3XU 1X6XU ,X0XGX>.n.D <XyXH z z ] =. .` -.e.] &.f.u.O.o.o.$.e.3.x.k.d.y.",
"( i m z 1.1.e.-.` X.O.r.y.e.1. .z o.-.f.n.2X6XU %XY L ,X0XY *XY G wX0XK > R s.:XrXU 7 e { =.u.u.3.4.%.#.t.2.u.e.e.r.u.M y.y.9.$.",
"..` &.] e ] 1.' -.u.i.o.o.-.X.e.e.' ` -.t.1X6XU r ! -X1X5XU ~ N.-X1XqXFXx ~ -X:XrXL e w } _ <.J.,.;.;.2.t.r.i.e.e.e.$.u | 9.$.9.",
" .i x l ! ] Q _ _ 1.1.r.O.Q ` o.O.X.y Q M 1X6XHXw.F :X<X7XU E F :X2XyXHXM.~ *X>XK L u.=.Q [ _ &.;.{ ` ` Q O.r.r.i.k.9.n / 0.0.2.",
"( i > l =.<.t z 8 # > Q e.| r 9 t ! o.` +.1XyXHXw.v %X3X0XU 9 v =X3X0XGXV.w.wX>XGXm.o.[ ` o.z r r y y [ ` E / q.a.y.$.e ` f.9.9.",
".._ _ ] } 3 3 9 9 7 q 7 ! y.e.' X.X. .! ^ 1X7XHXw.w.~ wX>XU ~ ! =.wX0XGXu.+.1X6XHXe.p.-.o.Q 6 y y ' [ ` 7.-.O.q.q.0.7.x i ' y.g.",
"( i { ] W Q i m l t t t 7 y X.-.u.e.! y v 1XyXU -X=XN.wX0XHX&X%XG ,X0XGX~ v <XyXH t i E ! i W z ` 9.i.$.r.0.q.q.a.l.r._ $.i / 8.",
"..^ } <.w.u.2.} Q z Q l - @ @ # > } o.[ m <X7XH <XqXY ,X0XY 1XqXK 1X0XDX! b <XrXJ r 7 t W Q ` [ X.$.y.p.q.0.0.l.l.l.a.] @.y.9.9.",
"( ( B B.i.u.4.e.u.3.} Q [ e.r.u.9 - 6 9 e :X4XFX;X:X<X2X7XHXwX:X2X<XyXFXy *X:XrXG E l e [  .o.r.r.p.p.y.0.a.z.z.v.l.a.X.q.j.XX[.",
"(  .&.1.e.=.U.i.i.V.4.=.B.H.u.H.i.X.Q [ M &X%XH c %X%XtXT N.F &X%X%XU L W c =XU j W ! ] o.w.9.y.p.a.a.p.k.z.v.]. Xv.d.} c.k.XXb.",
"E / 3.l ] 2.1.} } &.3.<.1.<.l 8 8 f %.&.} ~ j j 6 $ $ j 3.u.-.! ~ 9 9 6 t 9 9 l _ ' Q z i O.9.e.9.0.a.l.a.0.q.y.a.l.k.+. Xc.h.g.",
"4 E ] u e x x t > # 6 z l l ! , o o X + d d o + : o .   % , w 0 > O   X o : , 5 6 - # @ + 7 i ` | O.| E .. .7.7.7.a.q.#. X[.k.t.",
"h M k A *.*.N j k d 1 d h x k k k 1 % ; X   ; : < < ; % X % ; ; < < 1 a < < < ; ; a 1 1 2 w k w x h 8 e f B *.3.3.1.2.5.R.f.J.G.",
"u.L.I.L.L.L.L.L.B.V.L.M.6.u.6.4.m.M.3.-.<.f B 6.-.=.&.} } 1.1.3.m.m.m.M.M.B.M.B.6.M.4.M.M.K.Q.Q.P.Z.,.Y.R.Q.I.E.|.+XNXVXNXBXmX|.",
"<.4.2.3.u.6.B.u.3.;.u.V.B.L.L.L.V.B.V.6.=.d x &.3.4.4.M.6.#. .3.-.&.3.M.M.K.W.K.P.5.G.K.K.K.J.G.J.Z.%.R.I.G.u.Y.|.hXmXVXVXVXBXOX",
"&.3.3.&.;.;.*.{ [ &.%.=.3.1.4.3.6.u.M.u.1.w m x =.&.} } ;.3.} 3.4.6.3.3.,.n.S.m.m.3.5.Z.m.S.P.K.G.Z.V A.^.^.^.E.dXmXhXzXBXmXmX+X",
"] >.=.&.<.;.;.} } *.&.&.%.;.;.&.&.&.=.[ &.f ] ! =.=.3.-.<.5.<.&.4.<.<.4.M.m.S.M.,.Z.S.S.S.K.F.K.Z.m.C ,.6.2.f.J.^.OX+XjXbX+XnXmX",
"] %.;.;.{ %.*.<.&.%.&.} &.&.3.5.3.3.=.i z k %.] =.4.<.1.3.1.4.3.4.#.#.#.&.,.4.M.Z.S.5.D.D.S.P.M.3.%.g :.f.5.6.G.^.OXmXMXVXBXmXOX",
"B ] &.*.&.&.&.;.=.%.%.&.&.*.;.3.3.} ] _ } d z z =.<.3.4.<.<.3.<.3.{ <.<.] Z %.6.Z.D.Z.Z.P.Z.Z.Z.f.3.d k C.Z.5.J.^.mXAXAXAXZXVXMX",
"%.] &.} ;.&.{ *.%.&.%.&.{ &.<.*.;.<.z _ 3.x m ] o.=.&.1.1.1.3.;.f.{ ] ;.;.&.M A ,.5.Z.Z.Z.Z.Z.5.4.m.k C :.Z.G.E.+XMXCXAXAXZXAXVX",
"*.{ ;.*.*.&.%.&.] ] ] &.} &.} %.&.;._ ] <.h ] &.=.1.=.<.3.#.2.B N &.u { { B { %.S Z.Z.5.3.M.Z.5.Z.m.a N Z.K.I.^.mXBXMXSXPXSXAXVX",
"%.%.] &.] &.%.%.m ] z &.&.{ } &.3.3.] ] =.x ] &.<.o.3.o.1.#.o.{ i i m z &.} m N %.m.M.M.4.Z.M.5.M.%.N A 5.P.R.E.mXCXBXSXSXSXZXVX",
"%.%.] &.&.&.>.%.} ] ] } <.3.{ M l 8 z } &.x l ] =.o.<.=.o.1.#.1.1.[ { z e _ ] B A ,.Z.G.f.6.M.6.4.;.C A %.5.6.f.{.jXjXZXAXAXBXfX",
"%.,.,.} &.3.] ] ] B x x z e - = # # e e _ x z 6 # 6 i e > : , q z z m o._ i _ ] %.&.] f h _ ] &.2.;.d f : 1 u _ l <.E.gXBXxXj.` ",
"k g : : : # : < 6 8 : = + # , e t l t t f < 8 8 e > > 5 5 e e , , , 0 w e e i x 2 : , 8 , 1 1 w h Z 2 : + + 0 <.Y.|.OXOXOX{.Y.2.",
"% ; ; X p a a k V V V L S L Z L L S Z L n.V V V C V g k C C S L V B x N A S :.S V n A :.:.n.:.n.S :.A A S :.:.m.W.OXnXnXdXE.4.M ",
"-.] ! h n.W.F.!._._.!.W.~.~.^.~.~.~.~.^.K.M.M.S.G.L.Q.P.K.P.!.~.%.o.$.<.1.2.G.u.G.G.G.I.R.R.I.I.R.G.H.f.M.6.J.E.gXVXZXAXZXNX+XH.",
" .Q _ h L L m.n.m.Q.S.S.Z.K.M.,.m.D.Z.f.M.K.L.B.-.M.K.Q.Q.!.W.Z.A 2.$.#.` ' [ o.#.2.1.2.f.6.2.#.=.3.1.2.$.6.f.j.}.zXVXZXBXfX{.Y.",
"Q _ [ x n.n.n.S ,.B.M.m.%.] B S.W.K.Z.4.M.M.5.M.B.M.M.m.n.Z.Z.Z.A <.$.$.$.o.#.<.` { ` { =.<.1.y.2.<.2.$.2.u.j.k.T.xXxXxXbXxXx.f.",
"O.X.O.] n.m.n.n.%.3.3.>.%.} ,.S.5.%.3.<.,.5.A.P.F.W.!.!.W.S.m.Z.A #.2.#.#. .o.<.' ` } <.6.f.$.#.' ]  .#.6.f.g.[.XX+XxXfXXXgX}.g.",
"i.r.w.&.A.!.P.>.f l l x >.w B B %.%.w e e 8 w B A :.A.W.Z.A.,.A.%.#.t.2.2.$. .$.<.o.<.#.2.$.#.^ ] ` m ' ' W ..x.fX+XoXfX[.g.f.$.",
"W r.z.1.W._.I.>.N k f w k h 1 a C l l + h e 8 w N 2 ; O g C.C.F.A #.t.$.i ` 9.9.1.#.} { ' ] m ] ' <.#.] M ` #.$.g.j.y. .f.f.+.t.",
"3 7  .2.!._.V.>.C N h Z g A m.C d g x x h { S N n 2 : : : 2 :.F.A r M ^ { z q r r i t 6 > 5 _ [ ] u t t @ - 0 , 0 M B M M u 0 ` ",
"} -.e.B.W.m.n.,.k g g a s ; < k V s < d 1 : < : < k S :.S k < n n u M [ =.=.{ N u e e M e 0 > 0 , = + & & O = 2 , , w : = w M M ",
"B.V.Y.V.L.R.I.L.<.k S S C C g a k C Z C A S C S k Z n.L n.P S S A D :.:.S %.>.S %.A B A Z a A %.&.B N n A *.%.>.,.C B 2 V %.%.] ",
"U.`.|.+X@X|.'.U.y.x x 3.&.[ =.3.,.n.,.=.;.3.;.3.6.M.Z.Z.m.G.K.5.3.5.5.5.6.u.g.6.6.<.2.2.;.B u.i.t.1.4.5.4.B.5.%.3.5.m.k B &.o.$.",
"B.{.|.|.@X+X'.U.-.h 8 z } ] z l r e e B { _ i M ] o.[ [ [ 3.4.#.+.] +.;.#.+.o.4.3.,.4.#.' h _ 1.$.#.} #.&.} o.+.4.<.1.N e u W / ",
"i.T..X@X@X[.{.U.r.x 9 ] _ z ] [ [ o.} z r t u z x $.1.<.2.<.;.;.+.] { +.+.<.<.<.{ [ $. . .l { ' o.$.1.1.1.#.1.} o.o.o.h ] ] ^  .",
"u.U.|.@X+X|.`.L.-.l l ' o.o.o.-.#. . .} { } o.] Q  .o.O.=.#.+.{ M `  .#.=.#.#.#. .`  . .[ h  .( ..$.o.o.o.' $.' [ $.#.e N <.[ ^ ",
"e.1.T.+X|.{.{.U.e.l t Q [  . . .o.} [ <.3.<. ._ i $.<.O.' ' ;.;.` ` ' ` ' #. . . .$.$. .` e W | ` $.e.1.2.$.@.../ / @.e e z i ' ",
"e.w.e.r.U.{.R.u.} l l [ o.| o.<.1.$.#.#.o.#.o.o.} 1. .o.#.} o.o.o.#.o.o...#.$...` $.9.` [ w i [ O.$.$.<.2.2.8.8...`  .u w e u $.",
"j.U.u.e.U.U.O.` [ i t [  . .<.o.$.#.#.o.o.o. .' [  .o.o. .o.|  .o.#.#. ./ '  . .@.9.y.8. .e w i _ e.2.8./ ^ / ( ..@.8.u m o.1.g.",
"U.r.r.r.4.i.-.} <.x l  .o.o. .o. .` y i _ z i t [ ` ` ( o. .` `  . . . ./ W | $.j.p.d.y.$.M m u u o. .(  .i m ..8.@.8.w & e m &.",
"[ =.r.1.X.=._ } <.l z <.o. .o.o...^ y u y _ Q Q 7 - - q 7 t t Q ^ W  .` ` ` ' O.8.@.@.0.` l #.2.1...$...@.| ( / 9.f.@.e { <.u.`.",
"[ e.u.4.} &.3.<.<.w > ' `  .o.O.^ y q 5 5 ^ ' _ q r 5 q z t l q y / ^ ..9.y.9.8.y.9.9.../ i ' @.e./ E y q W ^ ]  .g.y.u [ y.0.c.",
"e &.&.&.&.=.3.&.} e @ ^ [ ` o.y 3 7 r e q 6 # O O > : # r ` _ m y  .w.k.'.c.b.b.c.l.d.8. .i / / W E / $.@. .$.$.9.@.q.^  .x.c.XX",
"O + 6 r _ } ] ] _ h 6 0 ^ ` r 7 0 ^  .o. .i i W t 5 > + . . . .   . o 3 ( ( ` ` / E E ( 8./ ..) / $.@.r.i.u.i.9.( ( d.+.2.XXfXfX",
"z l f 8 ] [ } z } k q i y r * 3 W `  .o. .o.1.=. .o.X.` z t i W Q | 0.....7.| E ^ 7 * q 8.^ / (  .$.1.#.@.e.@.@...p.c.0.h.oXlXfX",
"! [ m %.%.=.} [ { f 3 t - @ q W ` ' `  .1.t.o.` [ [ ` ` ` ` o.$.a.z.c.oXlXlXkXoX Xx.p.9.0./ 8.d.y.9.o.{ #...@.( 9.p.b.d.y.oX XfX",
"] _ B x _ { m z _ h 5 = 5 y `  . .$.$.i.i.e.$. .` ` ^ ` ' o.9.p.h.[.oXlXlXkXcXlX#Xc.k.q.d...@.a.k.j.t.#.( ' ( @.q.l.oXT.x.zXfXfX",
"w l O O X . O , _ h i ^ ^ [ ` u q _ [ _ E z i y _ ' Q i y E ..d.c. X#XkXcXcXkX#XoXc.0...y.$.$.1.j.j.k.$.M y t / / q.#Xk.T.bXNXjX",
". . . O o o o o 5 = * * @ 3 3 t q 3 5 3 5 - * * @ = 3 3 3 7 r W | 0.d.j.k.k.l.d.t.+.m t i ' 1.f.<.+.{ #.{ M r 7 u M 2.e.j.gXgXT.",
"I I I I I I I I /.I I /./././.(./.(.(.(.(.(.(./././.(.(.(.).aXpX(.aXsXLXsXLXLXLXnXpXaX).aXsXKXKXKXsXaXaXaXaXaXaX(.aXKXKXnXLXLXKX"
};
