/* XPM */
static char *_2483e8838d047b1c4438ee4dcc4daf3VXNJ9anwWcbUJugA[] = {
/* columns rows colors chars-per-pixel */
"64 64 242 2 ",
"   c #000000",
".  c #0C0806",
"X  c #180D08",
"o  c #181818",
"O  c #351811",
"+  c #17361E",
"@  c #262626",
"#  c #3A2E22",
"$  c #373635",
"%  c #501211",
"&  c #6D1215",
"*  c #46281A",
"=  c #552B1B",
"-  c #692C18",
";  c #65361F",
":  c #793A1F",
">  c #681F20",
",  c #48332B",
"<  c #4B3528",
"1  c #593826",
"2  c #683A25",
"3  c #773E24",
"4  c #783E39",
"5  c #1E4C22",
"6  c #145524",
"7  c #155A26",
"8  c #175C28",
"9  c #2F5529",
"0  c #176129",
"q  c #1A642C",
"w  c #1A6C2E",
"e  c #1A712F",
"r  c #1E6D31",
"t  c #1C7231",
"y  c #286834",
"u  c #286A37",
"i  c #277439",
"p  c #5A4D31",
"a  c #66442B",
"s  c #6D432A",
"d  c #774325",
"f  c #73452B",
"g  c #7D452B",
"h  c #75492D",
"j  c #7B4B2E",
"k  c #6A4934",
"l  c #754C34",
"z  c #7B4D33",
"x  c #7A4C39",
"c  c #695930",
"v  c #7C5136",
"b  c #74533B",
"n  c #795539",
"m  c #7B543C",
"M  c #4E6A35",
"N  c #736737",
"B  c #2E7940",
"V  c #387848",
"C  c #494847",
"Z  c #574E45",
"A  c #585858",
"S  c #66584C",
"D  c #795945",
"F  c #427A4F",
"G  c #487B54",
"H  c #796150",
"J  c #76685A",
"K  c #5B7C63",
"L  c #686868",
"P  c #7D7062",
"I  c gray46",
"U  c #7B7B7B",
"Y  c #8F161A",
"T  c #A7161B",
"R  c #B4171D",
"E  c #B6181D",
"W  c #BC191E",
"Q  c #9A2F1D",
"!  c #82371F",
"~  c #83381F",
"^  c #883E1F",
"/  c #A13F1D",
"(  c #8F2F2E",
")  c #843823",
"_  c #AC2D2F",
"`  c #C1191E",
"'  c #80411E",
"]  c #95401F",
"[  c #A1421F",
"{  c #AE441F",
"}  c #A1491E",
"|  c #85482A",
" . c #9A4221",
".. c #944B25",
"X. c #994A27",
"o. c #91512C",
"O. c #854D32",
"+. c #8A4D32",
"@. c #845334",
"#. c #8D5433",
"$. c #8E5937",
"%. c #84553A",
"&. c #8B563C",
"*. c #83593E",
"=. c #8E5A3B",
"-. c #915134",
";. c #9C5433",
":. c #955A3A",
">. c #A74421",
",. c #AA4B28",
"<. c #B54621",
"1. c #B14926",
"2. c #A6512C",
"3. c #B55629",
"4. c #A35434",
"5. c #A85635",
"6. c #AE5C3C",
"7. c #B75B33",
"8. c #B05C3F",
"9. c #99633A",
"0. c #A3613E",
"q. c #AE653C",
"w. c #AD693E",
"e. c #B86137",
"r. c #B3643E",
"t. c #BA633E",
"y. c #C15929",
"u. c #CE6A31",
"i. c #CA663B",
"p. c #C4693B",
"a. c #C2703F",
"s. c #D2703F",
"d. c #A93F43",
"f. c #845C42",
"g. c #8C5D43",
"h. c #845E4A",
"j. c #975D44",
"k. c #B35554",
"l. c #8B6346",
"z. c #85624B",
"x. c #8B624A",
"c. c #90644B",
"v. c #996348",
"b. c #946A4D",
"n. c #8B6854",
"m. c #936B54",
"M. c #986C56",
"N. c #997359",
"B. c #A76746",
"V. c #B56645",
"C. c #BD6340",
"Z. c #B96B47",
"A. c #B56B4C",
"S. c #BB7142",
"D. c #B6724A",
"F. c #AA6C54",
"G. c #B16B53",
"H. c #A97558",
"J. c #B77757",
"K. c #866F62",
"L. c #887969",
"P. c #977A69",
"I. c #A97A67",
"U. c #B47962",
"Y. c #B37471",
"T. c #C25054",
"R. c #C46B44",
"E. c #CE6844",
"W. c #C87549",
"Q. c #D27445",
"!. c #D57648",
"~. c #C37656",
"^. c #C67B65",
"/. c #D27B62",
"(. c #3A844C",
"). c #478957",
"_. c #508A5E",
"`. c #598B66",
"'. c #589567",
"]. c #679C74",
"[. c #76927D",
"{. c #6DA27B",
"}. c #A4845A",
"|. c #9B836B",
" X c #978775",
".X c #AC8369",
"XX c #BA8568",
"oX c #A98C77",
"OX c #C7835E",
"+X c #D18453",
"@X c #C58469",
"#X c #C88874",
"$X c #D19473",
"%X c #769E80",
"&X c #79A283",
"*X c #848484",
"=X c #8B8B8B",
"-X c #949494",
";X c #9B9B9B",
":X c #A99886",
">X c #B79087",
",X c #89B093",
"<X c #B7A38E",
"1X c #A9A29F",
"2X c #BCA692",
"3X c #9BBAA3",
"4X c #A4A4A4",
"5X c #A8A8A7",
"6X c #ABABAB",
"7X c #B7ACAA",
"8X c #B4B4B4",
"9X c #BBB4B0",
"0X c #BCBCBC",
"qX c #D0978A",
"wX c #D5AB8F",
"eX c #C5AD96",
"rX c #CAB39C",
"tX c #D5BEA5",
"yX c #C6B9B9",
"uX c #E4BAA0",
"iX c #9FC3A8",
"pX c #A9C7B1",
"aX c #B4CABA",
"sX c #DBC3A9",
"dX c #E5C8AC",
"fX c #E8CDB2",
"gX c #ECD2B6",
"hX c #F1D6B9",
"jX c #C0BFC0",
"kX c #BCD2C1",
"lX c #C4C4C4",
"zX c #C4CBC6",
"xX c #CBCBCB",
"cX c #C8D9CC",
"vX c #D4D4D4",
"bX c #D0DED3",
"nX c #D9D9D9",
"mX c #D6E4D9",
"MX c #E6E9E6",
"NX c #EDF2EE",
"BX c #F4F6F5",
"VX c #FCFCFC",
/* pixels */
"u.u.u.u.u.u.u.#.a.u.u.u.u.u.u.u.u.u.n Q.Q.Q.Q.Q.Q.s.s.s.p.l } } } } } } } } } ' j.6.6.6.8.8.8.8.8.8.s ~.Q.Q.Q.Q.Q.Q.Q.Q.Q.v u.u.",
"u.u.u.u.u.u.u.#.u.u.u.u.u.u.u.u.u.u.j Q.Q.Q.Q.Q.s.Q.s.s.p.d } } } } } } } } } ' :.6.6.8.8.8.8.8.8.8.s Q.Q.Q.Q.Q.Q.Q.Q.Q.Q.j u.u.",
"f f 1 m.m.m.n.h.D m m z z a x.x.x.f.m m l l d s D m.m.m.z.h.D m m z a z.m.m.m.z.z.D m n n a b.b.b.x.f.f.v v j j a z.z.z.f.m n l ",
"} } f J.V.C.C.C.C.C.C.C.C.m 4.>.{ { { { { { { ] m.V.t.t.C.C.C.C.C.C.O..XS.S.S.S.S.S.S.S.S.z D.7.y.y.y.y.y.y.y.y.f.;.X.} } } } } ",
"} } f A.C.C.C.C.C.C.C.C.C.b { { { { { { { { { ] x.C.C.C.C.C.C.C.C.C.O.J.S.S.S.S.S.S.S.S.S.b e.y.y.y.y.y.y.y.y.y.*.} } } } } } } ",
"} } f C.C.C.C.C.C.C.C.C.C.s { { { { { { { { { ] :.C.C.C.C.t.C.C.C.C.O.B.S.S.S.S.S.S.S.S.S.b 3.y.y.y.y.y.y.y.y.y.j } } } } } } } ",
"' ' 1 -.-.-.-.-.-.-.-.-.-.; ^ ^ ^ ^ ^ ^ ^ ^ ^ : f -.-.-.-.-.-.-.-.-.s @.$.$.$.$.$.$.$.$.$.a ....................2 ' ' ' ' ' ' : ",
"g.&.&.O.O.g g s H.F.v.B.0.:.;.;.....b XXXXXXOXOX~.J.D.D.B.x.XXJ.J.~.~.Z.Z.V.r.#.I.XXXXXXOXOX~.~.D.D.h #XJ.J.J.~.D.Z.Z.r.t.k M.c.",
"~ ~ ~ ~ ~ ~ ~ s B.} } } } } } } } } m W.Q.Q.Q.Q.Q.Q.Q.Q.R.x.i.i.i.i.i.i.i.i.i.;.H.!.!.!.!.!.!.!.!.!.j ~.i.i.i.i.i.i.i.i.i.b | ~ ",
"~ ~ ~ ~ ~ ~ ~ s ;.} } } } } } } } } m Q.Q.Q.Q.Q.Q.Q.Q.Q.R.m i.i.i.i.i.i.i.i.i.;.D.!.!.!.!.!.!.!.!.!.j Z.i.i.i.i.i.i.i.i.i.l ) ~ ",
") ~ ~ ~ ~ ~ ~ s X.} } } } } } } } } h Q.Q.Q.Q.Q.Q.Q.Q.Q.R.O.i.i.i.i.i.i.i.i.i.;.V.!.!.!.!.!.!.!.!.!.j p.i.i.i.i.i.i.i.i.i.s ~ ~ ",
"f 3 2 m m m m b %.%.z z g s *.*.*.*.D c.c.g.g.@.%.g.g.g.=.n =.=.@.@.d %.&.&.&.m %.=.&.@.O.h l.l.c.c.m g.g.&.@.@.j &.&.&.&.l z z ",
"{ { f @XA.A.V.V.C.C.C.C.C.z.#X@X^.^.^././././.G.M.Z.t.e.7.7.y.y.y.y.| G.8.5.2.,.1.<.<.<.<.f XXJ.J.D.D.S.S.S.S.S.g.B.5.5.,.,.{ { ",
"{ { f A.C.C.C.C.C.C.C.C.C.H /././././././././.G.g.y.y.y.y.y.y.y.y.y.| 6.<.<.<.<.<.<.<.<.<.f D.S.S.S.S.S.S.S.S.S.f.>.{ { { { { { ",
"{ { f V.C.C.C.C.C.C.C.C.C.D /././././././././.G.-.y.y.y.y.y.y.y.y.y.| 4.<.<.<.<.<.<.<.<.<.f S.S.S.S.S.S.S.S.S.S.z { { { { { { { ",
"[ [ 2 6.6.6.6.6.6.6.6.6.6.l ~.~.~.~.~.~.~.~.~.B.| 3.3.3.3.3.3.3.3.3.d  .>.>.>.>.>.>.>.>.>.2 w.w.w.w.w.w.w.w.w.w.d [ [ [ [ [ [ [ ",
"g.&.%.O.| | | 2 n.h.h.m m l l f f 2 < k 1 < < k v.j.:.:.-.D N.m.m.x.x.g.g.:.:.f m.N.N.b.b.v.v.9.0.4.s P.m.m.x.x.g.g.:.:.O.< k x.",
"{ { { { >.>.{ g j.~ ) ~ ) ! - O X               # ;.E.E.t.n.C.C.C.C.C.C.t.t.C.-.H.s.s.s.Q.Q.s.Q.s.s.g ^.t.t.t.4.2 = O X     % { ",
"{ { { { >.{ { g +.) ! = = Q Y % .                   X = 2 k 6.6.;.+.3 2 = * O X . . . . . . . X O ; * l 1 O .               - { ",
"{ { { { { { / l 2 3 - =  Xh.( ` E &                       =X=XC                           C o lXU                           [ { ",
": : : : : = p P J D H oXtXS eXY W W R O                 L VX8XVXA . =X-X*XA     L -XvX  L VXL VX$                         . : : ",
"X.} h $XJ.D  XP L.1 D tXeXJ sXx W W E E %             o NXnXL VXA A VX=X4XMX  @ VXlXBX  @ VXMXnX                          O ;.;.",
"} } h ~.s dXZ J L.l., sXP.tX XoXT & wX_ T &           lXVX0X0XL   xXVX;XMXA   *XBXI VX.   MXVXI                           = } } ",
"} } h #.wX X<XJ P  XK.L.J gX XhXx > fXfXM.Y &       L NX6X      C VX6XVXC   . NXnX5XVX@   4XVX$                 o C L *X*XO.} } ",
"} } s v.gXL.2XtXoXS $XJ eX2XtXeXrX( G.rXsX& T &                 0XVX@ MXvX  L VX5X8XVXC   8X;X.           $ A *XU I *X4XlXU.} } ",
"x.f.k S gXL.2XgX<X$ D :XsXrXgX<XgXrX( tXgX( T E k.;XA o         $ @   C A . *X=Xo C A o     . X @ C U 4XlXlX4X=XU U -X0XvX:Xx.x.",
"C.t.< H.eX:XsXgXeXS S dXsXgXfX XgXsX:XhXgXk.T E W T.yX0X=XA @                 o C L L U =X;X5X8X0XxXvXvXvX0X4X=XU *X4XxXvX9XG.V.",
"C.O.N.dXtXdXgXgXdXrXH $XgXgX:XsXtXrXgXgXgXk.R E W W _ 7X0XlXvXxX6X-XU L U 4XxXnXnXvXxX0X6X4X6X8XlXxXvXvXxX8X;X=XU =X8XxXxX8XV.C.",
"t.< wXgXgXgXgXgXgXgX<XD.gXgXfXgX2XgXgXgXfX( R W W W E T Y.0XlXvXvXnXvX8X4XlXnXnXnXnXvX0X6X5X8X0XxXvXvXvX0X6X;X=X*X;X8XlXlX7XC.C.",
";.1 l rXgXgXgXgXgXgXgXXXeXgXgXhXsXgXgXgX:XT E W W W E R T _ 7XxXvXvXvXlX4X8XvXnXnXnXvX0X6X6X8XlXvXvXvXzX0X5X;X-X-X4X8XlXlX7X4.4.",
"2.2.< , :XgXgXgXgXgXgXgXP.>XgXgXgXgXgXgXoXE E W W W W R T T T Y.xXvXvXvX6X5XxXnXnXnXvX0X6X8X0XxXvXvXxXlX8X5X;X;X;X6X8X0X0X7X0.4.",
"y.y.j G.2 H fXgXgXgXgXgXgXS U.gXgXgXgXgX^.E E W W W W R T T T T eXvXvXvX0X4XlXnXnXnXvX0X8X8XlXvXvXvXxXlX8X6X4X4X5X8X8X0X0X2Xy.y.",
"y.y.j V.C.;.1 eXgXgXgXgXgXfX* uXgXgXgXgX^.W W W W W W E R T T k.lXxXvXvXlX4X8XvXnXnXvX0X8X0XvXnXvXvXxXlX0X8X8X8X8X8X8X8X8X>Xy.y.",
"y.y.f t.C.C.t.1 eXgXgXgXgXgXZ #XgXgXgXgXqXE W W W W W E T d.<X0XlXxXvXnXxX5X6XvXnXnXvX0X8XlXvXvXvXxXxXlXlX0X0X0X0X8X8X8X6XXXy.y.",
"j j a l l h d s , fXgXgXgXgXP I.gXgXgXgXfXY W W W W W R >X0X0X0XlXzXvXvXlX5X5XxXnXnXvX0X0XvXnXvXvXvXxXxXxXlXlXlX0X8X8X6X5Xz.j j ",
"A.A.V.C.C.C.C.%.M.XXgXgXgXgXL.P.gXgXgXgXgX4 W W W W W >X0X0X0X0XlXxXvXvXlX4X6XvXnXnXxX0XlXvXnXvXvXvXvXvXvXxXlX0X8X6X5X4X5Xz.U.J.",
"C.C.C.C.C.C.C.%.A.z gXgXgXgX Xn.gXgXgXgXgXJ R W W T.yX0X0X0X0X0XlXvXvXxX8X4X8XvXnXvXxX0XxXnXnXzX,X].'.).).)._.`.[.;X4X4X1Xm V.C.",
"C.C.C.C.C.C.C.%.Z.2 fXgXgXgX X> uXgXgXgXgXrX% Q c ).'.q 0 q u G %X3XzXjX5X4XlXvXnXvXaXaXxX,XV t t t t w w q 0 8 7 6 u K |.v C.C.",
"6.6.6.6.6.6.6.v 7.2 dXgXgXgXP.O ( gXgXgXgXgXZ q t t VXaX`.8 8 q w w q B G [.aXxXvXzX,X`.B t ).{.,X'.,X`.].q 8 7 6 6 6 6 c s 6.6.",
":.:.a n.z.h.D m b , dXgXgXgXK.Y % .XgXgXgXgX<X+ t e bXaXpXbXq V ).r 0 6 8 w B _.].).&XmXcX'.,XVX'.,XkX3XBX&XaX`.u 6 6 8 n.c.c.j.",
"E.E.z &.~ ~ ~ ~ : = fXgXgXgXz.a # 9 dXgXgXgXgXC q w {.3X{.kXu cXBX{.V MXw t iXmXaXG pXmXBX,X(.BXt 3X,XbX,XBX&XMXaX`.6 M E.E.E.E.",
"E.E.z | ~ ~ ~ ~ : f gXgXgXgXn.6.;.1 @XgXgXgXgXeX+ w B i 8 6 V VXaXmXV NXi B pXMXaX`.aXcX3Xi ).].e (.).{.i 3X`.NXaXG 7 9.E.E.E.E.",
"E.E.l ) ~ ~ ~ ~ : =.gXgXgXgXM.8.6.1 4.uXgXgXgXgXJ c M r 7 6 V ).V 3X`.pXiX,X].].].V 7 u t t t B t t t r i r F G pXu 9 E.E.E.E.E.",
"+.+.1 ; ; ; ; ; ; m.gXgXgXgXN.j j h < x.fXgXgXgXdX, +.O.9 5 8 w w B V t i e ).w q 6 5 9 9 9 9 9 u t t w w 0 u 7 G 7 p +.+.+.+.+.",
"^.J.J.A.A.V.V.%.$XwXdXuX$X@XJ.D.D.S.a J.wXgXgXgXgX2X2 ,. .n.N.M u q q r i M N c .XqXqX$X#X#X@X@X^.^.b }.M q 8 6 6 9 Z.R.p.m #X@X",
"C.C.C.C.C.C.C.%.OXS.S.S.S.S.S.S.S.S.m 2.7.fXgXgXgXgXoX/ [ z.C.C.C.B.B.C.C.C.C.-.I./././././././././.v ~.i.p.N 9 6 9.i.i.i.m A.C.",
"C.C.C.C.C.C.C.%.D.S.S.S.S.S.S.S.S.S.l { { $XgXgXgXdXuXV.[ m C.C.t.t.C.C.t.C.C.-.J./././././././././.v Z.i.i.i.p.9.i.i.i.i.m C.C.",
"C.C.C.C.C.C.C.%.S.S.S.S.S.S.S.S.S.S.s { { 1.@X~.7.{ { { [ z C.C.t.t.C.C.C.C.C.-.G./././././././././.v p.i.i.i.i.i.i.i.i.i.h C.C.",
"%.@.s g.g.g.g.f.%.%.z j g k g.g.g.g.m z z g g : m c.c.c.x.z.f.*.%.%.f g.c.c.c.x.f.g.*.%.%.k m.m.m.m.x.g.g.%.%.#.l b.b.b.b.z.f.f.",
"Q.Q.v A.,.,.<.<.<.<.<.<.<.m 5.,.,.{ { { { { { ] N.~.W.Q.!.!.!.!.!.!.-.XXR.R.E.E.E.E.E.E.E.v @XW.W.Q.Q.Q.Q.Q.Q.Q.b.~.W.W.Q.Q.Q.Q.",
"Q.Q.v 5.<.<.<.<.<.<.<.<.<.b { { { { { { { { { ] b.!.!.!.!.!.!.!.!.!.#.~.E.E.E.E.E.E.E.E.E.v ~.Q.Q.Q.Q.Q.Q.Q.Q.Q.x.Q.Q.Q.Q.Q.Q.Q.",
"Q.Q.v 1.<.<.<.<.<.<.<.<.<.s { { { { { { { { { ] v.!.!.!.!.!.!.!.!.!.#.Z.E.E.E.E.E.E.E.E.E.v Q.Q.Q.Q.Q.Q.Q.Q.Q.Q.*.Q.Q.Q.Q.Q.Q.Q.",
"q.q.s  . . . . . . . . . .; ] ] ] ] ] ] ] ] ] ~ #.r.r.r.r.r.r.r.r.r.j 4.6.6.6.6.6.6.6.6.6.s q.q.q.q.q.q.q.q.q.q.j q.q.q.q.q.q.q.",
"H.H.D.D.A.V.V.z H.v.v.j.:.4.4.X.X. .k F.v.v.j.:.4.;.X.X.] D F.F.B.B.0.0.5.4.2.| P.I.I.I.I.U.U.H.G.G.k XXH.H.H.H.D.D.B.B.q.b .XH.",
"!.!.!.!.!.!.!.$.C.<.<.<.<.<.<.<.<.<.z 5.<.<.<.<.<.<.<.<.>.l.y.y.y.y.y.y.y.y.y...I./././././././././.v OXQ.Q.Q.Q.Q.Q.Q.Q.Q.f.~.!.",
"!.!.!.!.!.!.!.$.5.<.<.<.<.<.<.<.<.<.l <.<.<.<.<.<.<.<.<.>.v y.y.y.y.y.y.y.y.y...U./././././././././.v ~.Q.Q.Q.Q.Q.Q.Q.Q.Q.f.!.!.",
"!.!.!.!.!.!.!.$.1.<.<.<.<.<.<.<.<.<.s <.<.<.<.<.<.<.<.<.>.g y.y.y.y.y.y.y.y.y...G./././././././././.v W.Q.Q.Q.Q.Q.Q.Q.Q.Q.v !.!.",
":.$.@.$.$.$.$.l | | | | 3 3 g g g g a g g g 3 3 g | | | g h +.+.+.| d O.O.O.O.h *.g.g.g.&.%.g.g.g.g.k $.$.$.$.#.@.=.=.=.=.k =.=.",
"/./.m A.8.5.5.2.,.,.{ { { b j.=.+.+.| | ) ~ ~ : M.Z.Z.t.t.7.7.3.y.y.| XXJ.J.A.A.V.V.C.C.C.z OXW.W.W.a.p.p.u.u.u.m.#X#X@X@X^.^./.",
"/./.m 5.{ { { { { { { { { b ) ~ ~ ~ ~ ~ ! ~ ~ : l.y.y.y.y.y.y.y.y.y.| J.C.C.C.C.C.C.C.C.C.z W.u.u.u.u.u.u.u.u.u.m./././././././.",
"/./.m ,.{ { { { { { { { { a ~ ~ ~ ~ ~ ~ ~ ~ ~ : -.y.y.y.y.y.y.y.y.y.| B.C.C.C.C.C.C.C.C.C.z p.u.u.u.u.u.u.u.u.u.f./././././././.",
"/./.z { { { { { { { { { { 1 ~ ~ ! ~ ~ ~ ~ ~ ~ : ..y.y.y.y.y.y.y.y.y.| 6.C.C.t.C.C.C.C.C.C.h u.u.u.u.u.u.u.u.u.u.&./././././././.",
"l.f.m v @.O.o.s b.b.l.l.*.m @.@.O.o.a m.m.z.x.*.*.%.%.#.O.k l.z.m m l l f f : ; D n.z.D D m b l l j 1 M.M.x.z.f.f.%.%.@.#.a b.b.",
"u.u.u.u.u.u.u.#.+Xu.u.u.u.u.u.u.u.u.*.W.Q.Q.Q.Q.Q.Q.Q.Q.p.f.} } } } } } } } } ' M.8.8.8.8.8.8.8.8.8.s $XQ.Q.Q.Q.Q.Q.Q.Q.Q.*.W.u."
};
