/* XPM */
static char *_6631c2a0a2242a0e9be5eeeb19d562e7Xt1txSfcufpv5N7[] = {
/* columns rows colors chars-per-pixel */
"64 64 206 2 ",
"   c #030202",
".  c #0C0404",
"X  c #0C0C0C",
"o  c #0D0907",
"O  c #120404",
"+  c #1B0405",
"@  c #1A0B0B",
"#  c #140709",
"$  c #131313",
"%  c #1A1616",
"&  c #1B1B1C",
"*  c #181718",
"=  c #121A0E",
"-  c #230C0C",
";  c #2A0B0C",
":  c #37070A",
">  c #3C0D12",
",  c #261212",
"<  c #2B1313",
"1  c #281A19",
"2  c #321313",
"3  c #3C1414",
"4  c #321B1B",
"5  c #3B181C",
"6  c #1A2514",
"7  c #2D2B1A",
"8  c #1E1E20",
"9  c #201F21",
"0  c #381F25",
"q  c #232325",
"w  c #262729",
"e  c #27282A",
"r  c #2B2B2D",
"t  c #3D2422",
"y  c #2E2E31",
"u  c #302F31",
"i  c #2E3132",
"p  c #333335",
"a  c #363639",
"s  c #37383A",
"d  c #3A3B3D",
"f  c #3B3934",
"g  c #47090B",
"h  c #570406",
"j  c #45170D",
"k  c #4B1316",
"l  c #4E1A1B",
"z  c #431616",
"x  c #531B1C",
"c  c #591718",
"v  c #531C0D",
"b  c #621A1D",
"n  c #7A181B",
"m  c #700611",
"M  c #4A2D1C",
"N  c #471E25",
"B  c #541F23",
"V  c #651B22",
"C  c #701E22",
"Z  c #472725",
"A  c #592426",
"S  c #5E3132",
"D  c #632425",
"F  c #6B2325",
"G  c #672B2C",
"H  c #7A2728",
"J  c #692F31",
"K  c #753538",
"L  c #6E3235",
"P  c #3B562A",
"I  c #3D402A",
"U  c #5C5115",
"Y  c #6F5B1C",
"T  c #756719",
"R  c #7F7317",
"E  c #445733",
"W  c #555A3D",
"Q  c #635020",
"!  c #4A6536",
"~  c #486536",
"^  c #4A7534",
"/  c #52723E",
"(  c #526C3D",
")  c #726C27",
"_  c #3E3E41",
"`  c #3F4043",
"'  c #424345",
"]  c #454649",
"[  c #47484B",
"{  c #4A4A4D",
"}  c #4D4E51",
"|  c #4F5054",
" . c #515255",
".. c #55565A",
"X. c #57585C",
"o. c #5A5A5D",
"O. c #5F5944",
"+. c #6E5552",
"@. c #576941",
"#. c #5B7244",
"$. c #5A7A44",
"%. c #5C7946",
"&. c #496F42",
"*. c #657F4D",
"=. c #667B56",
"-. c #5D5E61",
";. c #5F6064",
":. c #616266",
">. c #626265",
",. c #66676A",
"<. c #656569",
"1. c #67686C",
"2. c #6A6A6D",
"3. c #6A6A6D",
"4. c #6D6E71",
"5. c #6F7073",
"6. c #727275",
"7. c #757679",
"8. c #77787B",
"9. c #797A7D",
"0. c #726B6C",
"q. c #921E25",
"w. c #84272A",
"e. c #912E33",
"r. c #893135",
"t. c #94373A",
"y. c #8C272A",
"u. c #AC363E",
"i. c #AB3038",
"p. c #C62E36",
"a. c #88762E",
"s. c #943F43",
"d. c #A63D42",
"f. c #B13C42",
"g. c #9A4245",
"h. c #995256",
"j. c #93464C",
"k. c #AB464C",
"l. c #83685F",
"z. c #867775",
"x. c #C94B52",
"c. c #CF424B",
"v. c #5E824A",
"b. c #64884B",
"n. c #6A8754",
"m. c #6D9553",
"M. c #729859",
"N. c #66904D",
"B. c #7CA55F",
"V. c #7D9461",
"C. c #7EA961",
"Z. c #AF9E32",
"A. c #B6AE2F",
"S. c #C7B923",
"D. c #E3D632",
"F. c #EEE537",
"G. c #B9AC43",
"H. c #8F9D6C",
"J. c #83AC64",
"K. c #80B064",
"L. c #BED252",
"P. c #D5C848",
"I. c #E5DE43",
"U. c #FFF946",
"Y. c #FFFF55",
"T. c #EEE84B",
"R. c #D4C26F",
"E. c #7D7E81",
"W. c #7F8083",
"Q. c #828285",
"!. c #858689",
"~. c #8A8A8D",
"^. c #868988",
"/. c #989483",
"(. c #8D8D91",
"). c #959599",
"_. c #90908D",
"`. c #A49B8A",
"'. c #9EB582",
"]. c #ABA798",
"[. c #B8A696",
"{. c #BDB19E",
"}. c #BBAFA4",
"|. c #BBB3A8",
" X c #AFB3A3",
".X c #C6B59E",
"XX c #CBBBAC",
"oX c #C7B4A8",
"OX c #C8BFB0",
"+X c #D4BFAF",
"@X c #D2C093",
"#X c #C7C4B5",
"$X c #D5C9B7",
"%X c #D5D8B2",
"&X c #E2DBA9",
"*X c #FBFAAE",
"=X c #CEC8C2",
"-X c #DAD3C9",
";X c #DCCFCA",
":X c #E9DDDB",
">X c #E0E6D9",
",X c #EFEEE3",
"<X c #F4ECE3",
"1X c #F7F4E9",
"2X c #FFFFFE",
"3X c #FFFFF2",
/* pixels */
"!.9.4.} 3.E.1.3.Q.7.(.7.} Q.7.!.6.Q.!.7. .!.).!.E.3.6.[ X.~.6.9.Q.3.3.X.-.).~.!.(.W.3.:.[ 8.8.Q.~.9.3.7.:.~.~.9.8.!.Q.3.<.(.~.Q.",
"7.X.X.X.>.7.-.:.3.-.;.a ] 5.-.X.X.<.:.{ d 4.>.X.-.:.>.p  .4. .-.-.4.3._ <.E.-.4.6.-.<.}  .!.3.<...X.3. .} 6.-.-.-.:.6. .o.E.-.<.",
"-.| } p [ X.X.X. .<. .s ' :... .-.}  ._ ' 3. .} } <.' p { 3.X.] } -.{ [  .:.:.] ] ' a a ] X.{ X.X.} X.] _ -.} |  .:.-.w [ X.X.{ ",
"{ { X.y ] X.} { :.:. ._ ` 4.:.X.| { X._ ] :.X.{ -.X.{ s { :.o.:.X.] [ s ] :.X.{ X. .X.{ { X.| ;.X.X.-.[ ` <.X.} ..-.} y -.<.}  .",
"e q y r p p w p a p r w s ] p e e y a r i a e w r q q y p s _ p s s p & ] ' & w r w p ] p a y r r r p p e ' p a s y e w d _ y i ",
"{  .] :.7.o.X.d  .:.o.<.6.<.-.a ] :.{ -.-.1.-.' [ 4.<.1.<.>. .] o.:. .X.X.X.:.[ ' -.:.[ o.:.-.] ' 3.3.-.:.3.<.{ s X.X.X.<.-.{ p ",
"9.6.>.8.:.1.9.} 3.7.6.4.4.7.3.' <.E.7.7.:.<.Q.} >.~.6.3.<.<..._ X.;.3.-.<.E.Q...3.!.Q.-.5.4.4.X.<.!.4.3.E.Q.6.:.:.~.6.7.W.Q.:._ ",
"-. .X.X.[ { { p X...} } X.X.{ ' :.<.| { ` -.:.p  .-.|  .{ <.X.s { ] ' X.:.:.;.[ } -.a ]  .X.X.s X.<.' } X.X.-.{ ] 6.:.X.:. .{ y ",
":.] ` ] [ X.] e { { | X.3.;.4. .X.X.|  .X. .' _ -.3.1.X.{ ] ' r p a d X.X.| } r [ X.| -.6.<. .p { :.;.;.<.1.>.] ] 3.:.}  . .X.y ",
" .p _ a i d s e p s p a ' a _ r { ] d ] ] _ s r p ' d q * X     o X $ * 9 i s e d _ p ] s p a e p ' s _ ] s a y ' X.a r s ' _ y ",
":.{ { p r p d p { } _ ] p ` s a ] d s _ p a ' s d w X o                   X r p { ] d s e p _ d } { a } ] p _ ] { [ p _ s ] ] s ",
"9.6.X.<.`  .~.9.7.7.E.~.<.] 6.W.6.<.4.7.-.{ Q.!. .q X     X .   . .         q { E.7.9.!.X.X.~.E.!.7.1.7.:.{ 4.E.!.8.4.4._ X.3.:.",
"X.| X.X.r { :.-.;.-.} :.s a 3. .-.X.X.X.} X.Q.' $ o       : h 3 t 5 1 @ #     q { } | | ] { <.{ -.-.<.6.{ ' 3.<.X.-.-.} p ' X.] ",
"-.-.5.X.p  .4.X...} -.X.p ] <.X.X.:.X.X.{ } X.8       . o h w.N 5 N 5 t %       r { } ..] [ X.}  .:.3.X.' ' o.} X.:. .| p [ -. .",
"_ { ' ' s } <._ ' } _ a p { <.X.} ] ' X._ a a X     + ; 3 k : v U T Q 0 x < o   o s { } ' p ] ' } { s _ ` a ] s } s s { a {  .' ",
"p e r p w { p q r r p q r ' ] p p e y r r s *     . 2 5 c V M T.Y.D.Y.) m H @     & s r w p ' ' p p p s r p  .p p s a s d { [ w ",
"4.8.Q.3.:.6...s <.!.3.4.6.6.:.a { 9.6.<.<.:.&     + z Z l > R U.T.G.U.G.k b 1 X   e 6.<.4.7.~.-.{ E.6.9.6.9.8.X.[ ~.6.6.!.(.-.r ",
"1.:.4.:.3. .[ [ 1.6.X.X.X.<.:.y { :.<.;.-.] *   O g g c k j I.S.&X;XZ.F.) : k -   * 5.6.6.:.:.s { 7.1.;.:.<. ._ _ 4. .;.<.4.{ p ",
":. .-. . .| ] p  .X.X.-.{ { { y  .:.| [ } ] *   O g > n e.j T.P.,X2XR.Y.a.m H ;   & -.{ ]  .| p [ -.X.| }  .:.{ ' -.X. . .' a r ",
"4...{ ] ` ' | y  .1.} '  .-.{ p o.:.| } X.X.q   + : : z Z O R D.@X|.P.A.Z b x 2 O $ _ } X.X.X.y _ :.X.}  .;.X.[ ] 3.} ] X. .' p ",
"{ y r i p w r w ' p r r p p p q s r r ' ' r X o < > m G ^.> M L.*X=X*XY V F c H < $ p r i p e q s ' y d ` r w w r ' y w d p e r ",
"3. .-. .y { <. .<.X.{ X.' ] X. .<.3.3.X.] p & o 4 z h l.{., 7 &.#X{.1Xz.F K c H , * X.X.] [ 1.X.o.3.3.3.[ s 1.3.<.o. .X.' { o.X.",
"4.6.4.1.a >.!.o.:.4.4.E. .:.Q.<.6.4.4.3.} ] p . < x : #X<XW ^ *.1X<X[.<X+.c F z ; q 3.3.}  .E.6.3.E.7.3.} X.).4.8.7.4.3.d 4.6.X.",
"} X.:.-.y 1.5.} { ] } { p ] 3. .-.| } X.` ' e . < w.V ].2X].^ '.2X,XOX2X=XD g.x : * } ' y [ <.} { .. .X.} } 3.{  .X.X...s <.3. .",
":.X.<.' w X.X.{  .X.<.X.y ] -. .-.:.X.3.X.} w   ; x x `.{.=.P `.$X|.XXXXXXA x l + $  .} ] | X.X.X. .<.:.{ ] 4.-.;.<.<.X.s -.;.X.",
"p p ' p r } d _ ] { } ` a { ] _ s a s d s y *   1 A t.-X$Xm.b.<X;X#X2X#X>Xh.n J < X _ ] e p _ d ]  . ._ y ' } ] ] _ { a e ] ' _ ",
"] _ s p d  .p y _ X. ._ s  .] s p _ ] ' p p $   4 D F ]..Xn.! /.XX+X-X;X/.G x S 2 *  .' s  .} s ' ' a d ] [ } s p s d s ' { s y ",
"!.!.E.3.9.E.<.a 4.Q.:.:.1.9.6. .3.).~.4.4. .q   2 g.b _.<X#.b.P M.3XXXOX+.q.w.3 - q 4.3.3.Q.Q.:.o.W.6.9.9.3.E.4.X.).~.E.Q.E. .r ",
">.<.X.{ X.X._ p 3.} ..X.} ] ] p } X.{ X. ._ *   3 k.L 0.2X%.B./ b.V.{.#X; f.w.l 1 & X.X. .X.-. . .:.-. . ...| ] { 5...| ;.-.s y ",
"3.-.{ { } [  .{ o.X.X.-.} { { s ] -.X.X.X.X.& o 2 A g z. XP ~ ! ~ ~ N.@.r.F F D @ &  . .]  .-.p d :.{ { >.X.:. .] :.X.:.X.} ] r ",
"} { X.} ] } { s ] } o. .| .. .r } :.} }  .' & o 4 Z q.K @.C.b.m.m.n.J.W k.t.t.s.; % _ a '  .] p ' X.o.1.X.' { d ] <.:. .] { ' p ",
" .p p w p r a r s a p w i p r r _ s r a p q $ o 5 L C V O.V.#.( #.P %.E J H H J 4 % p p p p w r s s p p w e p p p d y p r p r y ",
"Q.9.3.d  .7.:.-.:.1.3.] ] W.3.3.9.8.5.:.] X.w   B x.J w.h.=.N.%.#.! M.M.F r.h.G 1 q <.X.{ 3.o.4.Q.7.3.X.s X.7.3.8.Q.4.] { 9.6.7.",
"<.:.3.d :.~.4.X.X.1.6.} X.~.<.7.9.4.9.} } :.9   l t.x p.j.n.J.*.M.C.~ b.D A h.A , & o. .] 4.6.7.6.4.<.X.X.3.4.<.7.9.6.' -.(.4.<.",
" .X...e ] :.}  . .;. .{  .X.'  .{ '  .' X.3.8   < x e.b x }.V.P %.b.~ E F w.x D - * X.a p :. .{ } ' { s ' 4. . .X.-.:.p { 3. .{ ",
"{ X.X.y } -.{ X.-.[ ' [ ] -.X. .} X.X. . .X.q   1 A c.d.F :X#Xm.%.~ K.W c.f.w.d.; $ { y s 4. .}  .X.:. .' :. .3.X.X. .p X.3.}  .",
"' ] ' q ' ] r _ ' r p & p ] p ] ] } [ p ' ' $   4 A y.r.B |.oXH.$.P $.I V F H r.- $ p w p  .' _ a a s s s _ ' ] d p { p ] { p _ ",
"[ { s '  .} ] p p [ _ ' X.X.' s ' { { '  .d $ X < K A i.k./.2XOX#.~ / v.3 f.u.l @ * ] ' X.X.[ d i ] s ] ]  .] p e ] ] ] :. .s r ",
"6.7.:.6.7.Q.9.s 1.9.E.E.(.~.6.{ X.9.<.3.4.X.q o , L K u.s.`.3X:X%XN./ m.4 u.x.F o & 6.9.7.<.-.} o.~.~.E.4.9.E.-.X.(.8.9.Q.7.:.d ",
"6.} ] ` ' } ' a X.X.} X.X.] | a -.8.;.X.X.' $     @ @ ; - % f f f 6 = 6 o + ; o   X ] -.X.{ X.s  .:.-.X. ...-.X.{ 3...X.}  .X.p ",
"<.<.X.X.-...[ p X.<.:. .}  .;.p X.<...-.<.X.q p p p p i i r e e e r u r p i i p p p { { { { } ] [ 8. . .X.X.:.s ] Q.;.X.X.X. .r ",
"o.[ a } { [ } p ] ;.{ ] ] } X.s  .} ] ' _ _ _ X.X.X.X.o.o.o.o.o.o.o.X.X.X.X.X.X.X.{ ] ] { ] ' y ` X.] } [  .{ s ]  ._ [ ] X.] r ",
"] r } _ r s s r ] ] y d r e p s ' d p r s p p p p s s _ s p s s ' d s s p p d s d ' s r e e _ ' ' ' a y y r p ] _ ' ' ' r r y p ",
"3.5.E.6.{ { 6.3.W.:.1.3.| ..Q.6.6.6.7.~.-.' 6.7.<.4.E.3.s o.7.7.8.4.8.7.{  .8.<.6.9.7.<.<.X.Q.3.6.!.Q.~.9.{ :.5.7.Q.6.-.' X.4.E.",
"5.4.X.} r  .6.{ ] } X.} _ o.4.X.:.6.<.<.{ { E.4.X. .-. .a X.<.X. .:.-.X.' -.7.} } ;.} X.{ } 9. . .} X.4.X.' 7.3.7.4.X.-.X.<.X.X.",
".. . .} r X.:.` ' } } 1.d d  ...X.| } }  .X.4. . . .X.X.p X.1.X. .] {  .' o.1. .} X.} { p _ 3.] } } -.{ a s 7.6.X.X.} X._ ] ] ] ",
"{ ] ] } ] [ { { }  .X.X.i ' -.-.' _ ..<.' s { } X.X.<.] s X.<.X.] { X. .s ' -.} } { X.-.{ s X.] ] X.{ ' { _  .' ` ] ' ] y d } ' ",
"r p ] ' r p s p s a w s e s d w e ' s p p w d r p p r r q ' ' r e w y s p p p y d p r y p s ] w p r i s s r s y r y p p r p s q ",
"1.<.<.X.} 4.<.' } 3.3. .X.6.>.p [ 3.-.o. .<.8.} } 6.:.-.3.9.o.a :.4.3.<.4.8.<.d X.1.<.3.o.7.4.] ' :.4.4.X.1.Q.{ { 6.3.:.<.6.-.r ",
"<.1.X.:.7.6.-.p -.9.X.X.5.9.1.'  .4.6.4.:.3.3.} X.9.4.3.<.5.-.' 9.~.Q.W.6.3.6.{ 9.6.:.4.6.4.:._ o.8.-.X.<.7.;._ o.6.X.3.E.E.;.y ",
"-.X.X.| ;.<._ w -.} ] | | X.} p  .-.} } ..{ { s ] X. .X.-. .] a <.<.-.X.] { <.[  . .] ] X. .[ p [ -.X.| X.X.} d ' 3.] -.4.3.{ e ",
":.X.X.|  . .[ _ :.X.} X.X.| { p X.4.X.-.-.:.X.p  .<.X.-.-.<...s :.X.X. .{ <.:.p { X.} -.X.| } s { 6.X.-.X.| } ` } 4.}  .X.X._ w ",
"{ s r y ' a _ ] { s a a ' r p ' { a y y a s a ' [ | s p d ' _ a } i r p ] ' y w ] ] d } _ s ] i d { y y r a p y ' } ' p p p r q ",
"3.:.| [ s ' } X.X. .} X.p p  . . .{ { { ' ' X.o.-. .{ ] p  .<. .X. . .| [ } X.] 1.3. .[ p p  .[ <.X.] } ] s X.X.o.X.X.[ p a ' ] ",
"6.3.6.3.p :.(.!.3.>.7.4.d X.9.:.6.:.9.9.-.<.9.:.7.8.9.-.{ 4.:.o.7.Q.!.3._ <.E.7.9.:.<.4.[ { 6.7.8.1.9.E.:. .7.9.9.7.<.:.d :.9.;.",
"{ { { _ i >.-.' s ] X.X.a { :.} ' } { -.} {  .{ } -.X.{ s :.X. .:.X.]  .w [ X.] s | :.] d ] X.} X.{ ] X.` ] <.}  . . .' w X.>.` ",
"| { }  .d X.-.[ X.| }  .p  .4.X.-.<.<.;.p ' 4...;.X.:.X.r 3.3.<.-.}  . .s  .X.} |  .{  .'  .:. .} |  .X.} ] 3.:...X.X.} p 4.4.| ",
"X. .s s q d ` _ _ s d ' e d } ] } X.X.] w _ X._ ' ' ` p w }  .s y i d ' p ] } ' ] [ } ' w s X.} ] s _ _ a ' X. .-.} ] _ d o.] a ",
"d d r s  .} ' s r y d p s { ] d ] ' e p d } X.y p  ._ s '  .p p p p s ' r { } p [ d p p e d ] p e d ' d p ' { a r p ] ' ' } ' p ",
"o.1.6.E.7.6.1.a <.4.3.6.4.!.7.d X.3.4.6.E.Q.6.' o.3.4.7.4.4.X.s 1.Q.9.<.:.3.X.[ X.9.E.6.6.7.9.{  .!.!.7.7.Q.Q.-.} 9.7.9.E.9.;.s ",
" .{ :.X.] _ ' e :.<.X.<.3.-.-.' { -.X.X.:.-.X._ X.-.} -. .X.X. .3...}  . .] { { :.6.' } X.} | ' X.6.-.X.;.4.-.{ ] 3.X.-.X. .{ r ",
":...{ { ' X.] s 4.3.;.X.| } :.] { -.X.<.X.X.X._ X.;.-.-.] X.X.s X.<.X. .[  .-.r }  . .X.X.-.} _ } 3.X.X.:.X.X.] { 4.X.' } } ' p ",
"<. .} }  .;.' e X.X.] ' ' [ | r [ :.|  .} } } p { X.{ ] .. .{ r X.<.{ } :.X.{ _ } -.o.-. .}  .p ] -.} | X.{ } ' ' 1.X.X.X.| ` r ",
"p w w r r e e e p y y y p p w w r e y w e r p r r r e r y y r r p q w y p w p r p y q r y r y r p p r r e p y w r p y p r p p e "
};
