/* XPM */
static char *_c22d4e6ca67454dba3e0a3bbcabc278FP6TKAeulVZ59BIe[] = {
/* columns rows colors chars-per-pixel */
"64 64 216 2 ",
"   c #010101",
".  c #080404",
"X  c #070708",
"o  c #090708",
"O  c #0B0A0B",
"+  c #160407",
"@  c #120C0C",
"#  c #110F10",
"$  c #141313",
"%  c #191616",
"&  c #1A1718",
"*  c #1D1B1B",
"=  c #300007",
"-  c #231D1E",
";  c #222022",
":  c #242223",
">  c #2A2425",
",  c #262729",
"<  c #2C2B2D",
"1  c #302425",
"2  c #332C2D",
"3  c #2F2F31",
"4  c #332F31",
"5  c #2F3032",
"6  c #323335",
"7  c #3C3434",
"8  c #363639",
"9  c #37383A",
"0  c #3A3B3D",
"q  c #553226",
"w  c #403737",
"e  c #443C3C",
"r  c #493E3E",
"t  c #783735",
"y  c #014D2A",
"u  c #01542B",
"i  c #005B2C",
"p  c #104A31",
"a  c #0A5733",
"s  c #195B39",
"d  c #274737",
"f  c #00632F",
"g  c #026333",
"h  c #016B33",
"j  c #0B6939",
"k  c #17693D",
"l  c #007434",
"z  c #007C36",
"x  c #0A7B3A",
"c  c #19763E",
"v  c #23613D",
"b  c #3D6233",
"n  c #3E3E41",
"m  c #483D41",
"M  c #743B43",
"N  c #3F4043",
"B  c #364C44",
"V  c #2C5742",
"C  c #355948",
"Z  c #1C6B40",
"A  c #1D7242",
"S  c #296643",
"D  c #326C49",
"F  c #267345",
"G  c #39774B",
"H  c #397453",
"J  c #424345",
"K  c #4D4444",
"L  c #464649",
"P  c #464848",
"I  c #47484B",
"U  c #4A4A4D",
"Y  c #5F4546",
"T  c #44564D",
"R  c #4D4E51",
"E  c #4F5053",
"W  c #4A5A53",
"Q  c #525255",
"!  c #555659",
"~  c #57585C",
"^  c #5A5A5D",
"/  c #644647",
"(  c #76464E",
")  c #735150",
"_  c #4C6A56",
"`  c #487B54",
"'  c #5D5E61",
"]  c #5F6063",
"[  c #5E6860",
"{  c #5A7368",
"}  c #616265",
"|  c #626265",
" . c #626C66",
".. c #656669",
"X. c #67686C",
"o. c #6A6A6D",
"O. c #63736D",
"+. c #6D6E71",
"@. c #6F7073",
"#. c #727275",
"$. c #757679",
"%. c #77787B",
"&. c #7A7A7D",
"*. c #8E0618",
"=. c #9B0017",
"-. c #85171F",
";. c #97151F",
":. c #A70F1F",
">. c #B9041E",
",. c #841C21",
"<. c #951721",
"1. c #B40D20",
"2. c #BB0B21",
"3. c #AB1221",
"4. c #A71823",
"5. c #B81523",
"6. c #B61D35",
"7. c #8C2327",
"8. c #962728",
"9. c #962A3B",
"0. c #903034",
"q. c #AC2227",
"w. c #B6292A",
"e. c #A8332E",
"r. c #AB3C34",
"t. c #BB3831",
"y. c #DC011F",
"u. c #CB0521",
"i. c #C30821",
"p. c #D50120",
"a. c #DA0020",
"s. c #D00A20",
"d. c #C23832",
"f. c #B9493B",
"g. c #C94639",
"h. c #D0503F",
"j. c #8B3543",
"k. c #D53B4D",
"l. c #884B4B",
"z. c #B24F54",
"x. c #936856",
"c. c #90757A",
"v. c #B8686D",
"b. c #C65645",
"n. c #D65845",
"m. c #D9634D",
"M. c #DD6B53",
"N. c #E2644D",
"B. c #E66C53",
"V. c #E47158",
"C. c #EA755A",
"Z. c #EB795E",
"A. c #EC7B60",
"S. c #008037",
"D. c #008138",
"F. c #2F8951",
"G. c #498456",
"H. c #4B8557",
"J. c #55885C",
"K. c #57935F",
"L. c #5A8B65",
"P. c #4E936A",
"I. c #5D9463",
"U. c #669769",
"Y. c #709D75",
"T. c #73A473",
"R. c #78A877",
"E. c #7DAC7A",
"W. c #9A966B",
"Q. c #80AD7C",
"!. c #82B17E",
"~. c #7E7E82",
"^. c #7C8F83",
"/. c #838386",
"(. c #87878A",
"). c #8D8A8D",
"_. c #938E91",
"`. c #959195",
"'. c #989297",
"]. c #9B959A",
"[. c #9E9B9E",
"{. c #A0999E",
"}. c #85B481",
"|. c #95BA94",
" X c #A29DA1",
".X c #A5A2A4",
"XX c #AAA5A9",
"oX c #ADA9AD",
"OX c #B0AAAF",
"+X c #B3AEB2",
"@X c #B5B2B5",
"#X c #BAB6BA",
"$X c #DEA6A0",
"%X c #C9B4B4",
"&X c #A0C59E",
"*X c #C2BEC2",
"=X c #C5C2C5",
"-X c #C8C3C7",
";X c #C9C6CA",
":X c #CDCBCE",
">X c #CFCDD0",
",X c #D2CFD3",
"<X c #DCCCD0",
"1X c #D4D1D5",
"2X c #D8D6D9",
"3X c #DCDADE",
"4X c #DFDEE1",
"5X c #E0DFE1",
"6X c #E4E3E5",
"7X c #E7E6E9",
"8X c #EBEAEC",
"9X c #EFEEF0",
"0X c #F0EFF1",
"qX c #F4F4F5",
"wX c #F7F7F8",
"eX c #FDFDFD",
/* pixels */
"/.%.X.! X.%.X.o.&.%./.+.! %.%.&.#.&.^.+.^ &.).~.%.o.X.R ^ ~.#.%.&.+.X.! } ).(./.(.&.X.' Q #.%.~./.%.o.+..././.%.%.~.&.X.X.)./.~.",
"@.' ~ Q } +.} } ..} ' L U X.] ' ' ..} Q I X...' ' } ^ n Q X.^ ' ] X.} U } %...X.+.} ' E ! %.X...' ^ } ! Q o.} ] ' ..+.! ^ %.....",
"' Q R 0 U ~ ~ ! ~ } Q n I ' ~ Q ^ Q Q J I } ! R Q ' U 9 U } ^ R Q ^ R I Q } ' R R I J n U ^ Q ^ ! Q ! I I ^ Q Q ! ] ^ 8 U ' ! R ",
"U I U 8 J E U U ~ ^ R 0 J ' ^ Q R U R n L ~ Q U Q Q I 0 I ^ ^ ! Q I J 0 I ^ Q I R U R I I R R ! Q E Q I J ^ Q R E Q I 8 Q ' R R ",
"6 3 8 8 0 0 6 8 n n 8 6 J U n 6 6 8 0 8 9 n 8 5 8 6 6 8 0 J J 0 J n 8 < L I 3 3 6 6 n L 0 n 9 8 8 8 n 9 8 I n 0 0 9 6 6 J I 9 6 ",
"U R U ^ ..^ Q J Q ^ ^ } X.} ! 0 L ~ Q ~ ^ ] ~ I U } } } } ^ E L Q ^ Q Q ~ ^ ^ I I ^ ^ R ~ ^ ~ I I } } ^ ' } ' U J Q ! ~ } ' U 8 ",
"@.X.} +.} } X.Q } +.X.X.+.+.} U ' #.o.X.} ..#.Q ] &.+...} } Q L Q ^ } ' ..$.#.~ } %.#.' ..X...! } %.X.X.#.%.+.' ' &.#.#.%.$.^ n ",
"' ! ! ~ R R U 0 Q ! Q ! ' ' Q U ' } ! R U ^ ^ N Q } ^ ! Q ' Q n U I U ! ] } ] U Q ^ I R ~ ' ! J Q } E Q ' ' ' R R +...' ] ! U 8 ",
"^ I J L I R J 6 I U R Q ] +.#.! ~ ( 9.9.9.M M r ( l.M l.x.x.) Y / ( j.0.t t ) / Y / / M j.6.7.m ' ..! ^ ' ' ^ I I } ' R R R R 6 ",
"Q 0 n 9 6 0 0 < 9 0 9 n I ..X.U W b s.a.a.y.y.y.u.<.7.f.C.B.d.5.p.p.1.-.,.r.V.Z.n.w.3.2.p.=.@ Q #.U 9 J I n 0 8 J Q n 8 0 J N 6 ",
"] E I 0 6 8 J 0 U R I U 0 9 < : d z b a.y.y.y.y.3.<.r.M.C.g.5.u.a.i.;.-.8.m.A.m.t.4.1.p.*.  O 8 6 : : I I 9 J I Q U 0 N 0 L I n ",
"#...^ ~ J R #.+.+.+.#.%.^ J n 0 V z S.b y.y.y.>.<.8.n.Z.n.w.i.a.u.:.-.7.b.Z.B.g.q.3.u.=..   $ I I 9 J } ^ U } #.%.+...' J Q } ^ ",
"' ! ^ Q 8 U ..} ] ' ^ ' J n ^ Q D D.D.S.t y.i.;.8.g.Z.N.d.2.p.p.1.-.,.f.V.C.n.w.3.i.=..     * R ! Q ' X.R I } ..] ] ' E 9 L Q R ",
"~ ^ } Q 0 R ..^ Q E ! Q 0 I ' ^ D S.S.S.S.t :.<.r.V.C.g.5.u.a.2.;.,.e.M.Z.n.t.3.2.>.+       ; R Q ' } ! J L ! E ! ^ Q U 9 I ! R ",
"J I J J 0 U ^ J J I J 9 8 I ^ Q C z S.S.z f q e.m.Z.n.w.i.a.u.;.-.8.b.A.B.d.4.1.>.=       o : L U U N N 0 0 I N I J n I 0 I R J ",
"0 8 9 9 8 I 0 < 8 0 0 6 8 I U 0 d z S.S.h u s x.Z.N.w.2.p.p.3.-.7.f.C.C.h.q.3.>.=         & 7 L 0 0 0 N 9 n R 0 9 J N J I Q I 3 ",
"..X.#.} ^ } R J ' #.} } ..X.~ 0 T x S.l i a G E.W.f.5.u.a.2.-.,.r.M.Z.n.w.3.3.=         # 2 K ! R +.X.+.X.o.X.Q U #.X.X.%.&.~ 6 ",
"..} X.} } ! U I } +.' ' ^ } ^ 9 U x z f u S Y.!.H.k 4.a.u.;.-.8.n.Z.N.t.4.*.+         O : e e J R +.X.} } } ! I I ..^ ] ....U 6 ",
"} ! ^ Q Q R I 0 Q ' ! ~ R R U 8 T x h u s L.!.I.c h c k.3.-.7.z.Z.V.g.q.z..         . & 7 e > 8 I ^ ~ Q Q ! ^ U I ^ ! Q Q U 0 3 ",
"} Q I I J J I 8 R ^ R I R Q I 8 C l i a ` E.T.F h l F.<X7.,.r.V.Z.n.w.v.oX          $ 2 r 2 * 6 J ! Q R R ! Q I I ^ U I Q U 0 6 ",
"R 0 8 8 8 6 6 6 J n 6 6 8 0 0 3 d i u D T.E.H.j l z Y.+Xc.e.m.A.m.t.v.3X).        O > e 7 & $ 3 0 I n J J 8 6 6 8 L 9 6 n 9 6 6 ",
"} ! ! R 9 U ^ Q ' ! U Q L I Q Q C u k U.!.K.k h z l L.'. X$XZ.B.g.v.1XqX&.      . - e e : o : Q ^ ....} U J ' } ' ^ Q Q J U ! Q ",
"X.X.X.' n ' %.' ' ....X.Q ^ #..._ a H.Q.U.F h z z f H ].;XwX$Xh.z.-X9XeX`.      $ 7 r 2 O   : X.X.#.@...Q ^ ~.+.+.+.X.] I } X.^ ",
"Q ^ } ! 0 ' X.Q R R Q R 0 U } ^ W G R.E.F.h l z h u V @XqXeXwX$X%X6XeXeX.X    O > r 7 $     % Q Q ! ~ ~ R Q ..! ~ ' ^ Q J ] ..! ",
"! Q ^ J 6 Q Q U R ! ^ R 8 I ! Q ^ U.!.J.j h z l i y S 6XeXeX3X-X2XwXeXqXXX  X - e e - .     O R Q Q ' ^ U U } ^ ^ ' ' Q n ! ' ! ",
"9 0 J 8 6 I N n I R R J 0 I I N I Q.U.A h z z f y a ` qXeX8X;X:XqXeXwX>X].. & 7 e > O       . 0 I R R J 9 J R I L J I 0 6 L J n ",
"I I J 0 J Q 0 8 L ~ Q L J Q U n U T.G h l z h u y D T.wXqX>X;X7XeXeX6XXX).$ 2 r 6 $         . 0 L I J L I U Q J 0 L I J I R n 6 ",
"&.%.+.} +.#.^ N } #.} ' } X...Q  .H.j l z l u y s I.|.wX2X-X3XeXeX0X#X'.).- e w & .         O ! ^ +.X.+.+...+.} ^ ~.&.#.#.+.U 6 ",
"X...^ Q ^ ^ I N ] ! ! ^ Q R U n W k h z l i y a H.!.&X7X-X,XqXeXwX;X[.].).7 e : O           $ U Q } ' ! ~ ! ! R Q X.' ^ } ^ J 5 ",
"} ^ R U R R R U ~ ! ! ^ R U I 0 V h l z f y y G R.!.|.:X;X8XeXeX3X.X'.@X_.K 2 @           . : 8 J ^ Q E ' ~ ^ R U ' ' ' ! R J 6 ",
"R U R U I I I 0 I R Q R U R I 6 V l z h u y S U.}.U.^.-X4XeXeX8X+X'.XX3X.X7 &             % 2 5 J Q ! ^ ! I I n I ' ^ R I I n 6 ",
"! J 0 5 9 9 0 9 n n 0 6 8 0 8 8 V z l i y s J.}.T.G H.2XwXeXqX=X].[.:XwX#X- o           O 2 7 6 J J N 0 6 6 0 0 n I n 9 8 0 9 8 ",
"%.+.' J Q X.] ~ ^ } ' I U +.} ..{ z f y u ` E.E.H.k F 0XeXeX1X X].#XqXeX:XO           . > e 2 ^ #.o.} Q J Q ....+.#.} I U o.X.X.",
"..} } J ^ &.X.^ ^ ..X.Q ^ &.X.+.O.h u y S Y.}.I.F g j qXeX7XoX'.oX6XeXeX>X            & e 7 % ^ +.X.} ! Q } X...@.%.X.I ^ ~.+...",
"! ^ Q 8 I ] Q Q ! ^ Q R Q ^ R Q T u y s L.}.T.G g g x qXqX#X]. X1XeXeX8X@X          # 7 e & o J E R R J I } ~ ~ ' ' ' n R ..! R ",
"U Q Q 8 U ! U Q ! I J J I ! Q R B y a ` Q.E.H.j g l F.wX:X[.].*XqXeXqX:X[.        o > e : . o n R Q ! U I ^ ! ' ! Q R 0 Q ' R R ",
"L I J 3 J I 8 n J 8 6 < 9 I n L B y D T.!.I.Z g h z P.5XXX'.+X8XeXeX2X*X`.        - e 2 O   @ 6 0 0 n n n I I I n 0 I 0 I U 0 n ",
"R R J L Q Q I 9 n I L I ! ~ I n d v U.}.U.D g g l z P.#X'..X2XeXeX6X=X,X[.      $ 7 7 $     @ 6 9 I L U U Q U 0 8 I U U ^ Q n 6 ",
"o.X.' ..X.#...L ^ +.+.$.~.&...U T H.!.R.H.j g l z l H {.[.-XwXeXqX;X;XqX.X    O 2 e - .     @ 0 ~ %.%.@.X.+.+.^ ~ %.+.+.%.X.^ n ",
"+.! R U R Q U 0 Q ^ ! ' ^ Q Q J [ R.!.J.k g h z z f S ].@X9XeXwX1X-X6XeX@X  . : e 2 O       + 6 Q ..} ' ~ ^ ] ! Q X.' ^ ! ! Q 9 ",
"..' Q Q ! Q I 0 Q ' ' Q R Q ! n [ }.U.F g h z z h u s XX4XeXeX5X*X2XeXeXoX  % e 7 $         @ 3 U X.! Q Q ! ^ J U +.' ! ! ! R 6 ",
"! U J U U I I 9 I ~ U I L U R n [ T.G g g l z l i y S :XwXeX8X-X:XqXeX8X_.O 4 e &         . 1 < J Q U U I R U n I Q I I I R J 3 ",
"U 0 U I 9 0 m 9 I U 0 J 8 8 0 J W H.k g h z z f y u ` qXeXwX:X-X8XeXqX#X).: e > o         - r 6 L U J 0 0 8 0 L I U I L 8 8 9 0 ",
"..X.#.} U R ..} o.' ' ' R Q +.X. .F g h z z h u y v U.eXeX3X=X3XeXeX,XXXoX7 7 @         $ e r I ..#.%.%.X.U ^ X.+.$.X.^ I Q } +.",
"o.X.^ R 8 Q X.Q R Q ! Q I ~ X.^ _ g g l z l i y s ` |.eX8X-X>XwXeX6XoX#X-X7 %         o 7 K r n Q ! ] X.! U +.+.@.X.^ ^ Q ^ ^ ^ ",
"! Q Q U 9 Q ' I I R Q ^ J J ! ! C g l z l i y a G Y.&XqX:X-X8XeXqX#XoX7X%X- .         : K K r 8 U Q ~ R n J X.X.^ ! R Q J I U I ",
"I J I U J I U I U R Q E 8 J ! Q B h z z f u y S U.}.|.2X*X5XeXwX;XXX,XeX@XO         % r K K r 6 I R I J L J E I J J J J 8 0 I J ",
"8 0 I J 8 0 N 9 n n 8 0 8 n J 6 d l z h u y s H.E.R.Y.-X1XwXeX3XXX*XwXeX[.        O 7 K K K e , 8 9 0 J n 9 J 8 8 9 0 9 8 0 0 < ",
"' ' ' Q Q } ^ J R } ' Q ~ ..^ 0 B z l i y a ` R.!.J.H ;XqXeX8X+X+X8XeX8X X      . > K K K K r 9 L ^ } } ^ } X.U R } } ' } X.! 6 ",
"..} ^ ' X.+.^ n ^ o.^ ! X.@.} I T z f u y S U.}.U.F Z 6XeXwX*XXX2XeXqX,X=X      & K K K K K K 0 ! o.} ^ } +.' I ! X.' X.%.%.^ 6 ",
"' ^ ~ Q ' ] I 8 ! ! R E ! ^ R 0 T h u y s J.!.T.G g A wXeX1XXX-XwXeX3X2X1X    @ e K K K K K K 0 U ' ~ Q ~ ~ R N U } E ' X...U < ",
"' ! Q R Q R I J ^ Q R Q Q R I 0 T i y a ` R.E.H.j g F.eX7XOX@X9XeX7X,XqX:X  . 2 K K K K K K K 0 U } ! ! Q R U J U } E R ! Q n < ",
"Q J 9 9 J 0 J I U J n n N 8 0 J B y p V J.E.I.Z i j H @X'.].2XqX0X;X:X#X(.& : K K K K K K J K 9 J R 0 8 8 9 0 9 L R I 0 8 8 5 , ",
"..^ Q I 0 L Q ~ ~ Q Q Q 0 9 Q Q Q U R U L I ~ W ~ ! R L 0 Q X.o.%.} Q R I E Q U ^ ^ Q U 0 0 R R ' ^ U R L n Q ~ ^ ~ Q I 9 0 L J ",
"X.....^ n ^ &.%.} ] X.} J Q X.} } } o.+.' ' o.} X.+.X.^ U } } ' +.%.#.] L ^ @.X.+.} } } I U ..o.+...X.+.^ Q o.@.#.X.} ! J ~ X.^ ",
"R R R J 9 ^ } R I U ^ ! n R ] Q R E Q ' R R ! Q Q ' ^ R J ' ^ ~ } ' Q R 8 U ~ R I Q ^ R J I ! Q ~ Q E ~ U U } ! ! ! Q I 6 ! } U ",
"R U U U 0 Q ! U R R R U 9 R } ! ^ ' ' ^ 0 I ] Q ~ ~ ^ R 9 ' } ' ! R R R 0 U Q R R R R U J U ^ Q R R R Q U U } ' ! ! Q U 0 } } R ",
"Q U n 0 3 n J n n 0 n n 6 J R U R ! Q I 6 J Q J J I J 9 6 R R n 8 8 n J 8 I U J I I U J 5 n Q U J n J N 0 J ! Q Q U I J J ! U 0 ",
"J J 0 J R R I 9 8 9 n 0 n U U J I I 0 n J Q ! 9 0 R I J L R n 8 8 n J L 9 U U n I I J 0 8 J U 0 8 J I J n I R N 9 J U U U Q I 8 ",
"! ' X.@.o...^ n ~ } } ..X.%...L Q } } ..@.%.X.I ! } ..X...} Q J ' @.X.' ^ } Q U ^ +.o.....X.X.R Q $.%.o.o.%.#.^ R X.o.+.@.+.! 0 ",
"Q Q ' ^ R I J 8 ' } ' ....} ' I R ^ ^ ' } } ! L ! ' ! ' ! ~ ! Q } ^ ! Q Q R R U ' X.Q Q ^ ! Q I ! +.} ' ..X.' R R ..' ' ^ ! U 6 ",
"' Q R U I Q I 0 } ..' ~ Q Q ^ I U ^ ~ ' ^ ! Q J Q ' ^ ! R ! ! J ! ' ~ Q R Q Q 0 U ! Q ! ~ ! R J Q } ^ ! ' ^ ! I R ..! U R R J 6 ",
"' R U U R Q n 6 Q Q I J J I I 8 L ! R R U U I 0 I Q U I R R I 8 E ~ U U ! Q I n U ! Q Q R U U 9 J Q R R R U I J L ^ Q Q R U n 5 ",
"8 < < 3 3 3 < < 8 6 6 6 8 6 < , 3 5 6 < < 6 8 3 6 6 < 3 6 6 3 < 6 < < 6 8 3 6 6 6 6 < 3 6 6 6 < 6 8 5 3 3 8 6 < 6 8 8 9 6 6 6 < "
};
