/* XPM */
static char *_a0fa588f07e4457e8e4f7ae043b2d02DBJKqJCecfRp9Gqk[] = {
/* columns rows colors chars-per-pixel */
"64 64 224 2 ",
"   c #010101",
".  c #0A0A06",
"X  c #0B0B0B",
"o  c #180000",
"O  c #181608",
"+  c #0F1010",
"@  c #131213",
"#  c #1A1916",
"$  c #171718",
"%  c #1B1B1C",
"&  c #2C0808",
"*  c #221F09",
"=  c #251A19",
"-  c #2A260A",
";  c #312C0A",
":  c #3A350C",
">  c #272516",
",  c #373417",
"<  c #1E1E20",
"1  c #201F22",
"2  c #232323",
"3  c #292727",
"4  c #262629",
"5  c #2B2B2D",
"6  c #362928",
"7  c #243B26",
"8  c #363427",
"9  c #2F2F31",
"0  c #302F33",
"q  c #2F3032",
"w  c #2E3C31",
"e  c #333335",
"r  c #383A34",
"t  c #363639",
"y  c #37383A",
"u  c #3B3B3D",
"i  c #510D0E",
"p  c #750404",
"a  c #6D140E",
"s  c #463D0E",
"d  c #413F1B",
"f  c #6B3C0F",
"g  c #5D1F20",
"h  c #52312F",
"j  c #4A3334",
"k  c #702F2E",
"l  c #753436",
"z  c #125312",
"x  c #165A17",
"c  c #2D5716",
"v  c #0C6A0C",
"b  c #037D03",
"n  c #097608",
"m  c #0A7B0A",
"M  c #157708",
"N  c #176917",
"B  c #137514",
"V  c #167917",
"C  c #254A27",
"Z  c #265D27",
"A  c #364739",
"S  c #2E5331",
"D  c #365738",
"F  c #1F6620",
"G  c #236B25",
"H  c #267727",
"J  c #356737",
"K  c #2F7A30",
"L  c #37783A",
"P  c #4B430E",
"I  c #4A4513",
"U  c #534B11",
"Y  c #564A15",
"T  c #5A5213",
"R  c #645616",
"E  c #635B16",
"W  c #6C6317",
"Q  c #756A19",
"!  c #7A711B",
"~  c #4A4A2E",
"^  c #555129",
"/  c #575837",
"(  c #704926",
")  c #4C6C25",
"_  c #706B32",
"`  c #3E3E41",
"'  c #403F42",
"]  c #6C3D40",
"[  c #3F4042",
"{  c #3E4A41",
"}  c #3E5642",
"|  c #3F6C42",
" . c #424344",
".. c #444845",
"X. c #454649",
"o. c #47484B",
"O. c #4A4A4C",
"+. c #554547",
"@. c #48534B",
"#. c #4D4E51",
"$. c #544F50",
"%. c #4F5053",
"&. c #4C5950",
"*. c #525255",
"=. c #575855",
"-. c #555659",
";. c #57585B",
":. c #5A5A5D",
">. c #734E51",
",. c #446A48",
"<. c #486F4B",
"1. c #58655C",
"2. c #58775B",
"3. c #6C6947",
"4. c #797759",
"5. c #5D5E61",
"6. c #615D61",
"7. c #5F6164",
"8. c #626365",
"9. c #636B66",
"0. c #656669",
"q. c #67686B",
"w. c #6A6B6D",
"e. c #667C6A",
"r. c #75756B",
"t. c #6D6E71",
"y. c #6F7073",
"u. c #727375",
"i. c #757679",
"p. c #77787B",
"a. c #7A7A7C",
"s. c #900D0E",
"d. c #A90909",
"f. c #BA0C0C",
"g. c #A30F10",
"h. c #A71516",
"j. c #B61515",
"k. c #823016",
"l. c #AA2D1A",
"z. c #B8241D",
"x. c #9E1C21",
"c. c #8D2C2D",
"v. c #983231",
"b. c #AC292C",
"n. c #C70B0B",
"m. c #D90909",
"M. c #D9130C",
"N. c #C61313",
"B. c #D9171A",
"V. c #E40101",
"C. c #E70909",
"Z. c #F30404",
"A. c #FD0000",
"S. c #E41212",
"D. c #E21419",
"F. c #C3282C",
"G. c #E83030",
"H. c #85781C",
"J. c #957F1C",
"K. c #866C6D",
"L. c #EA5959",
"P. c #ED6868",
"I. c #008000",
"U. c #118111",
"Y. c #2B882E",
"T. c #249127",
"R. c #27932A",
"E. c #28932B",
"W. c #2E8C31",
"Q. c #338737",
"!. c #349937",
"~. c #519153",
"^. c #48A34A",
"/. c #5AAC5C",
"(. c #6DA45E",
"). c #68B36A",
"_. c #9F881E",
"`. c #8D862B",
"'. c #968C21",
"]. c #9B9323",
"[. c #A79B25",
"{. c #AC9B30",
"}. c #ADA227",
"|. c #B4A627",
" X c #CDBB2D",
".X c #D5C32F",
"XX c #948E51",
"oX c #AEA64B",
"OX c #BBB567",
"+X c #A8A576",
"@X c #C3B748",
"#X c #C8C16E",
"$X c #7E7E81",
"%X c #7F8082",
"&X c #838484",
"*X c #87878A",
"=X c #8B8B8C",
"-X c #939393",
";X c #9B9B9B",
":X c #A0BB83",
">X c #A4A4A4",
",X c #A7ACA4",
"<X c gray67",
"1X c #B1B0AE",
"2X c #B4B4B4",
"3X c #BBBBBB",
"4X c #E19289",
"5X c #F1B0B0",
"6X c #9FC093",
"7X c #A7D2A8",
"8X c #D1CD90",
"9X c #D1CEBA",
"0X c #C4C5C4",
"qX c #CDCDCD",
"wX c #D4D4D4",
"eX c #DCDCDC",
"rX c #F1DBD7",
"tX c #D1E8D2",
"yX c #E3E3E3",
"uX c #ECECEC",
"iX c #E2F0E3",
"pX c #F4F4F4",
"aX c #F9F8F6",
"sX c #FCFCFC",
/* pixels */
"&Xi.q.-.q.p.q.w.a.i.&Xt.-.i.i.a.u.a.%Xt.:.a.=X$Xp.w.q.#.:.$X*.i.a.t.q.-.8.=X*X&X*Xa.q.5.*.u.p.$X&Xi.w.t.0.&X&Xp.i.$Xa.q.q.=X&X$X",
"y.5.;.-.8.t.8.8.0.8.5.X.O.q.7.5.5.0.8.*.o.q.0.5.5.8.:.` *.;.2 5.7.q.8.O.8.i.0.q.t.8.5.%.-.i.q.0.5.:.8.-.-.w.8.7.5.0.t.-.:.i.0.0.",
"5.*.#.u O.;.;.-.;.8.*.` o.5.;.-.:.*.*. .o.8.-.#.*.5.O.y O.8.@ 2  .:.#.o.*.8.5.#.#.o. .` O.:.*.:.-.*.-.O.o.:.*.*.-.7.:.t O.5.-.#.",
"O.o.O.t  .%.O.O.;.:.#.u  .5.:.*.#.O.#.` X.;.*.O.-.*.u 3 5 @ O > 8 5 t u o.:.*.o.#.O.#.o.o.#.#.-.*.%.*.o. .:.*.#.%.-.O.t *.5.#.#.",
"e 9 t t u u e t ` ` t e  .O.` e e y u t y ` t q 5 % *.r.3./ I P - P O - 5 X.9 9 e e ` X.u ` y t t t ` y t o.` u u y e e  .o.y e ",
"O.#.O.:.0.:.*. .*.:.:.8.q.8.-.u X.;.*.;.:.7.;.5 $.r.+X4._ W H.O O E T U P % *.o.o.:.:.#.;.:.;.o.o.8.8.:.5.0.5.O. .-.-.;.8.5.O.t ",
"y.q.8.t.8.8.q.*.8.t.q.q.t.t.8.O.7.u.t.q.7.0.X.q.r.8X3.oX_ : ! : . R ].I T T # *.8.p.u.5.q.q.0.-.8.a.q.q.u.i.t.5.5.a.u.u.i.i.:.` ",
"5.-.-.;.#.#.O.u *.-.-.-.5.5.*.O.5.8.-.#.O.X.8.r.8X~ #Xd _ ].; T O '.U T '.U U @ *.:.o.#.;.5.-. .-.8.%.-.5.5.5.#.#.t.0.5.7.-.O.t ",
":.o. .X.o.#. .e o.O.#.*.5.5.5.*.-.-.#.%.#.j -X:X/ XX/ oXO .X. W ; ].* }.E R R s 3 %.#.-.8.5.#.y o.:.;.1.:.5.:.o.o.8.5.#.#.#.#.e ",
"*.u ` y e u u 5 y u y u  .` [ t o.o.[ o.4 1X3.+X> #X, {.: [.  Q I '.- |.* [.H.s * ` u o.` u y 9 u  .` w ~.K A t  .*.` e u  .[ e ",
"7.%.o.u e t  .u O.#.o.O.u `  . .o. . . .:.r.8X# XX^ `.^ W !   ! E '.: [.-  XP R R 5  . .t t X.X.#.O. .3 2 :XY.o.*.O.`  .u X.o.` ",
"u.0.:.;. .#.u.t.t.t.u.i.#.5 *.t.q.8.0.o.2Xj +X  OX. oXO E E   W W '.: }.U [.: _.U 8 t.t.-.-.i.u.p.t.0.%   ,XT.e.i.t.0.5. .*.8.:.",
"5.-.:.*.t O.0.8.-.#.-.t < [ 8.5.5.:.-.t ,X/ ~ > ^ . @X  H.!   ].W W P Q T Q s }.; E -.-.O.*.8.-.7.8.#.    >X!.2.7.7.5.%.y X.-.#.",
";.:.8.*.u #.0.-.5 #.2 u y o.5.:.:.:.o.=.O.+X@ , / # _ O O @ % ~ 8 I : R H.U I Q O H.O.%.o.o.*.#.-.5.%     wX!.,.-.:.*.O.y o.-.#.",
" .o. . .u O.:.2 ` 5 e y t o.:.*.9  .t r.4.d > # X . . e O.;.8.8.:.o.4 $ X - ; J.s T ` o.` y  .o.O. .    @ pX/.Y.o. .` o.u o.#. .",
"u t y y t o.u < 5 3 u e t o.O.2  .$ 5 *.X.      @ O.p.u.wXpXsXsXsXpXqXo.$ 5 % O ; |.3 t e u O.X.y u .   @ pX7XR.Y.J D D ..*.o.9 ",
"0.q.u.8.:.8.y u X.u.8.8.0.q.y o.pXp.. wX:.    . u.&X>X8.2 2 &X0X0XwXpXpX3X*.% t X P 8 8.0.w.i.:.#.w.-.X   ;.wX7X).^.E.E.W.e.;.e ",
"0.8.q.8.8.-. .o.:.t.5.5.:.8.1 &X&Xp.% @ X   % 8.<XuXwX;X-X3 @ % 8.o.2X;X*X3X;.. ;.@ o.q.q.0.5. .#.t.q.5.%     3 ,XaX/.E.R.W.O.e ",
"8.-.:.*.*.#.o.u *.5.*.-.#.o.a.p.w.y 4     X q.-X<XqX<X8.% t 8.p.p. .X     $ w.@ X.y u *.#.*.#.y o.:.;.*.#..     . 0XtXR.E.E.S 9 ",
"8.*.o.o. . .o.t O.2 8.a.4 t aXyX*.2 3 4   X *.,X&X;XuX&Xo.2X-XyXuX-X8.X.5 -.X.2 o.y e o.#.%.#.t  .-.*.#.O..       -XaXE.E.E.J e ",
"#.u t t t e e e u  .sXuX0X:.sX2Xu % @ 5 %     % *.w.*X-X8.t @ . @ =.o.X.8.;X-.. o.% e t t u t 9 u o.`  .5         3XsX!.E.E.G e ",
"8.-.-.#.y O.:.*.:.*.aX2XuX0XuX,X .u ;X  e 2   u X.$   X $ X         $ 8.3XeX=X% % @ #.*.o.O.5.-.:.0.0.:.X       2 pXaX!.E.E.| *.",
"q.q.q.5.` 5.i.5.5. .eX<X,Xp.uX-X#.u pXu   3 4 u.<X4                 @   4 0.u o.  2 :.8.O.-.u.q.q.u.t.%         2XsXtXT.E.E.2.:.",
"-.:.8.-.u 5.q.*.#.2 ,X3X*X&X3X;.-.5 uXwXX % *.5 O.y .                 @     e $ . % O.o.u O.8.-.%.-.%         8.sXsX7XE.E.W.8.-.",
"-.-.:. .e *.-.o.4 O.yXaX<Xa.-X .e 5 a.3 w.uXqXy 3                   X $   t %   . $ o.O. .O.*.*.o.+         o.pXsXaX^.R.E.Q.5.-.",
"y u  .t e X.< X wXsXsX0X3X&XeXe X % 2 3XpXqX8.t % 3           X 3     X e o.  X . $ u  .e y t %           X.pXsXsX7XE.R.E.}  .` ",
"o.o. .u  .5 8.2XsXsXsXsX&X*XeX*.2 8.pX3Xq.*.y 8. .3 3             @     o.$ $ $ X $ 5 2 % X             ;.aXsXsXiX!.R.E.W.#.` e ",
"a.p.t.8.w.y aXsXsX3X2X0XpX&X>XsXsXaX2Xu.u X X t .  .2 e               % u . $ X                     . -XaXsXsXaX^.E.E.E.~.t.O.e ",
"q.0.:.*.*.8.sXsXsXsX-X-.2XpXu.<XqX;Xu.4   y ;X%   . u % 5             X.% X                       O.wXsXaXrXaX).R.E.E.Q.7.:. .q ",
"8.:.#.o.w.pXsXsX;XwXsX<XX.=X;Xw.u.O.2 5 O.6.4 3       u 4 5         t O.                    X ;.qXsXaX5XP.pX).R.E.E.E.1.-.#. .e ",
"#.O.#.y eXsXsXsXqXy 3XuX,Xi.&Xu   @ .   3     u X .     t 9 5     . 8.%                 3 K.5X5X4XP.S.G.rX/.E.E.E.E.L #.o.o.` e ",
"-. .u 5 -XaX<XuXsX>X2 u.yX:.u.% 8.o.    =Xu     5 X 4     e 5 e . q.X.            o p d.S.V.V.V.V.V.G.9X^.E.E.E.E.Y.u y t u y t ",
"i.t.5.u u.sX*.q.;XsX3XX.eX*.u.yXO.    :.sXaX>XX 4 X X t t X e t o.e X         o s.V.V.V.V.V.V.V.V.L.6X!.E.E.E.E.E.e.8.o.O.w.q.q.",
"0.8.8.` 8.aXt 2 -.<XeX*.=XX.=X-.     .pXsXsXsX3Xy -.e X . . e 8. .u       o p m.V.V.V.V.V.V.V.S.4X/.R.E.E.E.E.E.2.i.q.o.:.$Xt.0.",
"-.:.*.e y uXyXaX,X=X>Xt q.*X<X    t 0X*XsXaX0XqX*.*.-.&X-X&Xu q.+.r e o s.m.V.V.V.V.V.V.V.V.M.(.E.E.R.E.E.R.E.<.5.5.5.` #.0.-.#.",
"O.-.*.e @ pXsXpX&Xp.$ w.6.3 q.  u eXsX3X<X,Xp.*.y o.p.y     2 3 i c.j j d.V.V.V.V.V.V.V.V.V.) E.R.E.E.E.E.E.,.5.-.-.#.u *.5.#.#.",
"X.o. .9  .o.t `  .t e 5 y o.u o.o.#.o.`  .` $ . X $ > 2 -.,X;X<X<X=Xa.3 X X @ X . $ e 9 u %.o.[ u u ` ` ` o.o.o.` u o.u o.O.u ` ",
"#.#. .X.*.*.o.y ` o.X.o.-.;.o.u X.#.O.o.#.` $ . X % 2 % q.>X;X<X<X*X&X .X @ $ @ . %  .o.-.-.o.` y o.X.O.O.*.O.u t o.O.O.:.*.` e ",
"w.q.5.0.q.u.0.X.:.t.t.i.$Xa.0.O.;.t.0.8.0.#.2 . . X @ % p.-X=X;X-X&Xa.*.@ X X X . % 5.t.w.8.;.O.;.i.p.y.q.t.t.:.;.i.t.t.i.q.:.` ",
"t.-.#.O.#.*.O.u -.:.-.5.:.*.*. .:.t.8.:.:.X.% X . X X 9 *X&Xu.p.u.w.w.8.% . . . & a l 6.:.%.*. .*.0.8.5.;.:.7.-.*.q.5.:.-.-.*.y ",
"0.5.*.*.-.*.o.u *.5.5.*.#.*.-.` -.8.-.:.5.#.3 5 e e e X.w.8.;.:.:.;.:.8.y 4 6 s.n.A.A.b.#.O.O. .O.q.-.O.h l -. . .q.5.-.-.-.#.0 ",
"-.O. .O.O.o.o.y o.;.O.o.X.O.#.` #.#.o. . .` u O.#.O.O.*.*.*.*.*.*.*.*.*.o.j C.C.N.Z.Y S .. . .t  .*.X.s.m.m.g.i C.f.h o.X.#. .9 ",
"O.u O.o.y u ' y o.O.u  .t t u  .o.X.u u u y u  . . .X.X.` ` X.X.o.o.X.` @ i A.Z.l c b I.C t X.X.o.O.k n.Z.V.d.m.f.n.f.d.n.g y u ",
"0.q.u.8.O.#.0.8.w.5.5.5.#.*.t.q.q.q.t.u.:.o.0.q.7.8.w.5. .-.q.q.q.0.q.y   = B.v.m b b b V ;.u.8.0.u.v.j.A.Z.n.Z.M.s.j.C.A.N.N.>.",
"w.q.:.#.t *.q.*.#.*.-.*.o.;.q.:.8.q.0.0.*.*.u.q.:.-.5.*.` -.8.:.-.o.% %   X v.z.m I.I.I.b J t.:.*.-.b.h.f k.h.A.A.N.M.C.h.m.A.h.",
"-.*.*.O.t *.5.o.o.#.*.:. . .-.-.-.*.*.*.#.-.0.-.*.-.:.*.u -.8.-.#.$   2     6 C.z.( D b I.m 1.#.O.%.k P b b N +., j.A.Z.f.N.n.f.",
"o. .o.O. .o.O.o.O.#.*.%.t  .-.-.o. .#.;.o.` O.O.%.-.;.o.u *.5.*. .@   X @   X h.M.Y m I.I.I.G o.o.#.C I.b b B A v a A.Z.n.Z.Z.g.",
"t u o. .t u [ y ` ` t u t `  .e e  . .` y t  .t y u y t e o.o.t e 2     %     6 c I.I.I.I.b D e t 7 b b n z v n c a Z.n.n.C.V.s.",
"5.5.5.-.*.8.:. .#.8.5.*.;.8.:.u o.8.5.;.*.:.q.#.*.8.:.:.8.w.-.` :.8.y k v.v.c.~ I.I.I.I.I.K 8.o. .v I.n N z x = i & n.h.N.B.g.s.",
"0.8.:.5.q.t.:.` :.w.:.-.>.c.:.o.*.q.q.0.7.0.8.*.:.t.q.0.0.q.;.O.t.$XK.F.Z.A.S.V I.I.I.I.,.q.:. .*.N n v N B I.Z 2 O. .j h c.g 6 ",
"5.:.;.-.5.7.o.t -.-.#.$.F.x.< t #.5.-.*.-.*.#.` O.:.;.:.5.-.O.[ 8.q.8.5.>.Z.M.V I.I.I.G :.-.O.u O.A b I.b b I.n 9 -.%.o. . .' 3 ",
"5.-.*.#.*.#.o. .:.-.#.b.D.B.= @ e -.*.-.-.;.#.u #.5.-.-.:.5.#. .:.-.*.#.] A.C.c I.I.b | -.#.O.u O.8.C I.I.I.I.b  .*.%. . . .j 1 ",
"*. .y y  .u  .o.O. .c.B.D.D.h.@ + @ % 4 e u `  .O.#. .u ` o.o.` O.u t u X.k 3 7 I.I.I.D  .` X.y  .#.y z I.b b n w o.X.~  . .e 4 ",
"0.:.*.o.u  .#.o.;.>.B.D.D.D.D.x.= + + @ @ @ @ % % % % % 1 y :.-.:.-.*.#.o.2   7 I.I.I.S u u #.#.5.:.O.O.x n n B w u o. .u u `  .",
"q.0.0.:.2 5 *.O.>.B.D.D.D.D.D.D.F.+.0 % @ @ @ @ @ % 5 5 5 5 4 u q.i.u.7. .$   w U.I.V 1.o.O.0.w.t.0.q.t.%.z N x ..;.t t t u q.:.",
" .O.o.t %  .t 5 k.l.z.B.D.D.D.D.D.b.*.:.o. .o.o.#.:.:.#. .5.:.%.*.5.*.#.t %   % B b ,.@. .o.-.-.;.*.%.;.O.C N v ..e  .u y ` 8.O.",
"` ` X.t 9  .e t 7 b b b b M ) / =.6.5.;.u o.7.-.;.;.:.#.y 5.8.5.-.#.#.#.u `   @ V b } B  .O.:.*.#.#.#.*.O.e m b &.O.#. . .o.8.#.",
"O.< 5 t 2 2 4 < 4 C b I.b I.b b b m V N x Z J S D { { y e #.#.` t t `  .t e   X N m S N q ` *.O. .`  .[ u y n I.&.u  . . .O.O.u ",
" .$ % e 2 5 $ @ 1 y A N b I.I.I.I.I.b b I.I.I.I.b B F Z Z D A w A A  .X.y X.X . G N A A t  .O.u t  .o. .` A n b A e o. . . .o.t ",
"X.2 @ @  .9 % 2 @ :.8.0.9.2.L G G H H K L <.,.D =.8.0.q.0.8.*. .5.y.q.5.:.7.< . S 2.t.0.0.q.q.#.*.u.i.w.w.7.I.b @.:.q. . .u -.u ",
"4 @ @ $ 4 @ @ @ @ ` 5.0.0.8.5.o.#.:.:.5.8.8.-.X.-.5.-.5.-.;.-.*.8.:.-.-.*.#.%   O.q.*.*.:.-.*.o.-.t.8.5.0.:.I.b @.5.5. . .y O.e ",
"@ + @ 5 @ @ + + $ e 5.;.*.*.:.o.O.:.;.5.:.-.*. .*.5.:.-.#.-.-. .-.5.;.*.#.*.*.t #.-.*.-.;.-.#. .*.8.:.-.5.} I.I.@.0.-. . .u t e ",
"u 5 e 5 5 9 4 < u u o. . .o.o.t X.-.#.#.O.O.o.u o.*.O.o.#.#.o.t %.;.O.O.-.*.O.` O.-.*.-.#.O.O.y  .*.#.#.#.o.D A  .:.*.#.O.o.u q ",
"t 5 5 9 9 9 5 5 t e e e t e 5 4 9 q e 5 5 e t 9 e e 5 9 e e 9 5 e 5 5 e t 9 e e e e 5 9 e e e 5 e t q 9 9 t e 5 e t t y e e e 3 "
};
