/* XPM */
static const char *MTMzN19mbGc_[] = {
/* columns rows colors chars-per-pixel */
"64 64 176 2 ",
"   c #070707",
".  c #0C0C0C",
"X  c #021609",
"o  c #001A0B",
"O  c #16130A",
"+  c #041E10",
"@  c #141414",
"#  c #1C1C1C",
"$  c #2A0608",
"%  c #360306",
"&  c #3D0002",
"*  c #370F13",
"=  c #2C1616",
"-  c #00240E",
";  c #052513",
":  c #13291C",
">  c #003616",
",  c #003E16",
"<  c #033518",
"1  c #033B1B",
"2  c #093D1F",
"3  c #093F20",
"4  c #242424",
"5  c #292929",
"6  c #2C3C33",
"7  c #333333",
"8  c #363E36",
"9  c #3D3D3D",
"0  c #460209",
"q  c #570107",
"w  c #560A12",
"e  c #5D161D",
"r  c #610008",
"t  c #640710",
"y  c #760914",
"u  c #401D21",
"i  c #472326",
"p  c #512D30",
"a  c #513C3D",
"s  c #6F363A",
"d  c #00461C",
"f  c #004C1E",
"g  c #064422",
"h  c #0B4124",
"j  c #024A22",
"k  c #084C25",
"l  c #0A4E28",
"z  c #015225",
"x  c #095027",
"c  c #06542A",
"v  c #09522A",
"b  c #045D2C",
"n  c #085C2E",
"m  c #12522F",
"M  c #1A4F32",
"N  c #1B5636",
"B  c #1B5D38",
"V  c #264B36",
"C  c #27553B",
"Z  c #04612E",
"A  c #056532",
"S  c #056A35",
"D  c #1B653B",
"F  c #1C693E",
"G  c #3F3F40",
"H  c #355542",
"J  c #1E6B41",
"K  c #346247",
"L  c #444344",
"P  c #494847",
"I  c #4C4C4C",
"U  c #564748",
"Y  c #535353",
"T  c #535E58",
"R  c #5B5C5B",
"E  c #6D4144",
"W  c #6C4E50",
"Q  c #6B5254",
"!  c #635758",
"~  c #466655",
"^  c #5B635E",
"/  c #605F60",
"(  c #7C5D60",
")  c #5E6060",
"_  c #5D7C6B",
"`  c #646363",
"'  c #686767",
"]  c #666966",
"[  c #6C6C6C",
"{  c #786F6F",
"}  c #617B6B",
"|  c #6D7D72",
" . c #747474",
".. c #787777",
"X. c #737E77",
"o. c #7C7C7C",
"O. c #830A18",
"+. c #980717",
"@. c #9B0C1C",
"#. c #861925",
"$. c #9B1020",
"%. c #A31C2A",
"&. c #A53943",
"*. c #8D484E",
"=. c #81585C",
"-. c #805D61",
";. c #AF5962",
":. c #90686B",
">. c #837A7A",
",. c #A87579",
"<. c #728278",
"1. c #7D8A82",
"2. c #848484",
"3. c #878B88",
"4. c #8C8C8C",
"5. c #8B968E",
"6. c #918F90",
"7. c #8F9090",
"8. c #949494",
"9. c #919D95",
"0. c #9C9C9C",
"q. c #A38A8B",
"w. c #A59595",
"e. c #A09F9F",
"r. c #9AA09D",
"t. c #9FA2A1",
"y. c #A3A3A3",
"u. c #A5A5A5",
"i. c #A8A8A8",
"p. c #A8A9A8",
"a. c #ABABAB",
"s. c #ACACAC",
"d. c #AFAEAE",
"f. c #B6A2A3",
"g. c #B0AEAF",
"h. c #ACB3AF",
"j. c #AFAFB0",
"k. c #B0AFB0",
"l. c #AFB0B0",
"z. c #B0B0B0",
"x. c #B3B3B3",
"c. c #B6B6B6",
"v. c #B8B7B7",
"b. c #B7B8B7",
"n. c #B7BAB9",
"m. c gray72",
"M. c #BAB9B9",
"N. c #BCBCBC",
"B. c #BDBDBD",
"V. c #BFBFBF",
"C. c #C0BEBE",
"Z. c #CAB8B9",
"A. c #C1BEC0",
"S. c #BFC0C0",
"D. c #C2C2C2",
"F. c #C4C4C4",
"G. c #C8C6C7",
"H. c #C7C8C7",
"J. c #C6CACA",
"K. c #CACACA",
"L. c #CBCBCB",
"P. c #CDCDCD",
"I. c #D1CED0",
"U. c #CED3D2",
"Y. c #D2D2D2",
"T. c #D3D3D3",
"R. c #D5D5D5",
"E. c #D8D6D7",
"W. c #D5D9D8",
"Q. c #DBDBDB",
"!. c #E0DCDF",
"~. c #E1DFE0",
"^. c #E3E3E3",
"/. c #E9E7E8",
"(. c #EAEAEA",
"). c #F1F1F1",
/* pixels */
"y.4.y.F.m.d.0.4.8.4.2.0.c.u.c.K.m.m.F.F.d.c.z.V.8.2.i.m.d.F.D.z.c.m.i.0.2...R Y I 8.d.c.F.Y.V.c.0.4.4.y.i.4.8.`  .8.8.8.0.i.c.D.",
"z.0.0.D.D.d.4.2.0.4.4.0.c.z.z.K.V.V.D.F.i.V.d.c.8.2.z.m.i.D.F.m.D.m.d.y.o...R R Y 0.m.H.K.P.V.m.u.u.o.8.y.4.y.' ..0.o.o.0.d.c.F.",
"z.i.2.V.K.m.4.4.0.8.2.8.c.m.i.K.D.c.c.D.z.c.d.m.0.2.z.d.y.V.P.K.m.i.e.0...' ' [ R i.m.F.K.Y.m.V.z.c.o.o.8.4.0.` o.0.2.4.0.y.d.V.",
"z.z.8.F.Y.m.0.0.8.8...8.V.c.c.K.D.V.F.D.i.c.d.c.u.4.z.c.d.m.c.K.D.y.0.0.2...L # 7 K.R.^.(.^.m.D.c.i...o.8.4.0.` ..y.4.0.i.d.m.F.",
"i.i.0.F.D.m.4.o.8.0.o.0.m.i.c.K.V.D.F.D.0.y.z.i.0.8.m.V.i.i.d.K.P.0.y.u.8.` .   . Y ' `  .u.m.F.m.u.....4.4.0.` ..0.4.8.d.d.m.Y.",
"c.i.8.D.F.c.2.[ 8.u...4.V.d.y.D.D.D.c.D.i.u.y.i.0.4.c.V.y.z.z.P.F.8.d.4.9 @ . @ . @ . @ . # u.Y.d.i.4.[ ..o.8.) ..7.4.8.u.c.m.Y.",
"z.m.u.d.F.D.4.o.0.i.o.8.F.c.y.K.D.c.m.D.d.z.i.u.y.4.c.D.u.d.F.F.V.0.4.4 . @ @ @ @ 4 5 5 5 # 0.P.m.i.8...2...o.R [ 4.2.4.0.d.D.D.",
"g.D.m.z.V.F.4. .0.0...4.V.c.d.D.z.D.F.F.z.z.g.z.u.2.z.m.u.c.K.P.K.c.9 @ # @ @ @ @ 4 # 4 4 # 0.Y.F.c.8.4.4.....R [ 2.o.4.8.z.K.F.",
"m.m.i.m.D.V.8.o.8.y.o.2.V.m.d.F.z.F.K.V.u.d.z.z.0.2.c.m.i.m.K.P.K.0.5 # # # @ @ . # # 4 5 4 9 ..2.4.4.o..... .Y  .2.o.8.0.z.F.K.",
"V.c.z.c.F.V.0.2.0.u...o.F.c.u.K.m.m.K.R.m.0.i.z.u.4.d.m.i.V.Y.R.P.4.@ 4 # @ @ @ . # # 4 5 4 # # @ 4 4 Y o.' R I  .4.[ 2.8.i.D.K.",
"V.m.c.m.R.V.u.o.0.i...2.V.V.i.c.c.V.K.D.z.0.u.m.i.4.z.c.d.F.Y.F.Y.` @ 4 # @ # @ . 4 # 4 5 4 4 4 4 #   9 4. .` Y o.8.[ 2.0.m.F.P.",
"m.D.c.D.P.F.u.o.8.d.o.2.c.d.0.V.D.V.P.m.0.[ 0.y.y.4.u.c.d.m.P.P.y.# # 4 # # # @ . 4 4 4 4 4 4 5 4 # . L 4.2.[ R 0.0.o.8.u.F.K.m.",
"c.K.V.P.P.D.y.o.2.u.2.4.F.c.c.D.D.z.P.P.z.4.0.z.i.2.i.m.i.F.F.R.`   4 # # # @ . . 4 4 4 4 5 4 4 # # . 7 4.[ ..' 8.8.8.i.0.V.m. .",
"m.D.c.D.F.P.0...` o...8.d.0.y.F.V.z.K.K.z.i.m.V.c.o.i.V.z.m.R.^.... 4 4 # @ @ @ . # 4 5 5 5 4 4 4 # . 9 0.` [ ` 8.0.e.m.z.m.i...",
"c.V.m.m.F.Y.8.4.u.0.2.4.4.8.y.m.V.c.K.P.y.i.z.c.i.o.d.V.z.c.D.P.c.# 4 4 # @ @ @ . # 4 5 4 5 4 5 5 4 . 4 o.R ` ` 4.8.0.V.V.F.D.i.",
"V.D.m.c.Y.Y.8.2.4.d.4.8.d.V.z.V.D.D.R.P.i.0.u.m.m.o.y.c.z.d.d.F.2.@ 4 4 # @ @ @ . # 4 5 5 5 5 5 4 # . 4 ..R ' ` 0.0.0.D.m.K.R.V.",
"V.D.z.c.K.D.u.2.o.8.4.0.P.F.m.P.F.i.Y.Y.c.i.i.D.D.o.y.z.d.u.z...# @ 4 5 4 # @ . . 4 # 4 5 4 5 5 4 4 . 4 2.` ` R 0.y.8.c.m.F.P.m.",
"D.D.z.V.K.D.d.2.2.2...y.K.V.m.P.D.8.P.Q.z.u.z.c.m.o.i.V.c.d.u.# @ # 4 # # @ @ . . 4 4 4 5 4 5 5 5 4 . L 0.....` 4.4.8.z.z.F.K.P.",
"F.D.m.m.Y.F.c.2.4... .0.P.D.m.K.m.8.R.P.z.d.i.z.z...d.D.c.m.P.I @ 4 # @ # @ @ . . 4 4 5 5 4 5 5 5 4 . L 2.` ' ` 8.8.0.i.d.K.P.Y.",
"m.F.D.V.K.F.c.o.8.....0.z.V.D.K.D.z.Q.P.F.i.i.m.V.o.d.d.m.m.R.[ . 4 @ 4 4 . . @ . # 4 5 4 4 5 7 5 # . G ` Y I R 0.y.0.z.m.K.K.P.",
"D.F.V.V.K.D.i.' o. .2.4.z.d.u.K.P.D.Q.Q.F.V.i.m.c.2.0.0.i.d.z.4.4.y.4.4.` R `  .I 3.u.d.z.d.z.m.i.2.I ` [ R I R 8.0.8.y.z.F.D.P.",
"F.Y.D.D.K.F.>.' 8.....8.d.8.y.F.Y.F.Y.Y.F.d.u.D.V.2.u.m.d.4.d.z.d.R.P.0.8.d.i.0...d.R.^.).(.^.^.R.d.R '  .Y L I 8.0.2.0.m.F.D.F.",
"V.K.V.D.K.F.8. .2...o.4.m.F.d.K.R.F.R.P.m.i.0.D.c.2.u.u.i.u.D.F.8.D.V.z.G.K.P.y...d.D.R.Q.R.Q.(.K.y.R ` R Y L I 8.y.8.y.c.F.P.K.",
"F.P.D.V.D.K.0. .8.2.2.2.V.D.i.F.Q.Y.K.F.m.d.d.F.V...0.0.i.m.F.P.r.F.K.F.Q.P.z.0. .d.F.Q.(.K.R.(.P.0.Y ' [ Y L Y y.0.0.y.i.D.P.P.",
"F.K.F.D.F.F.0.2.u.2.2.2.z.F.K.Y.Q.D.Y.Y.z.0.i.m.c...0.u.0.c.K.m.>.H.Y.D.Q.D.m.u.[ i.F.Q.^.^.^.^.K.y.I R ` Y I Y u.u.4.0.y.D.K.F.",
"F.K.P.V.D.P.u.8.d.o.2.2.c.K.Q.P.Q.F.K.Y.0.4.c.c.v...0.d.c.v.K.g.e ,.Y.Y.R.F.c.u.[ i.P.Q.(.(.^.Q.K.y.Y R ` I Y R 0.8.o.e.y.V.F.F.",
"D.F.F.V.F.P.V.y.V.4.4.o.m.Y.P.D.Y.D.D.P.u.0.V.D.V. .u.u.z.D.F.i.w +.;.K.W.K.c.y. .z.K.Q.(.(.^.^.R.i.R R R I Y Y 0.8.8.y.0.c.V.D.",
"m.z.i.V.V.P.c.2.z.8.0. .z.Q.Y.F.F.m.K.K.i.8.0.F.c...z.u.c.V.V.n.s O.+.&.Z.U.F.y.' c.Y.^.(.).^.^.P.i.[ ' ' I Y Y 8.0.8.y.u.c.V.Y.",
"F.y.' 0.P.R.m.o.u.8.u.[ c.Y.Q.Y.Q.F.K.Y.0...2.m.i...z.c.d.d.m.F.q.O.$.@.%.,.z.y.' d.Y.^.(.(.^.Q.V.i.2...' I Y Y 4.0.4.d.z.c.D.K.",
"K.R.4. .Q.R.y.2.z.0.0...V.Y.Q.Q.^.V.c.P.d.4.d.V.2.` z.z.i.0.D.J.f.O.+.@.+.*.i.k.[ z.F.^.(.(.^.P.K.z.o.` R I ` Y 4.8.8.y.i.V.V.D.",
"F.R.c.0.K.Q.0...d.8.y.4.z.P.Q.Q.Q.i.3.i.0.8.8.c.0.' d.u.z.0.z.W w y #.y ,.z.d.8.` z.Q.(.(.(.(.c.m.V.4.[ [ R ` Y 4.4.8.d.c.z.F.Y.",
"C.Y.F.V.K.R.0...i.0.u.o.i.P.R.Y.Q.z.D.R.D.D.V.R.Y...0.0.d.u.u.i e :.Z.w.i.y.0.4.R z.Q.(.(.(.^.^.Q.P.0.[ [ R [ Y 8.0.8.m.K.m.V.Q.",
"c.F.D.m.P.Y.z.4.0.8.i...z.P.P.Y.R.d.K.^.F.0.c.d.y. .z.u.z.4.z.K.m.Q.Q.Y.z.8.8.2.R z.Q.(.^.^.^.Q.Q.D.0. .` R ' Y 0.y.8.i.c.d.D.R.",
"m.V.d.m.P.Y.m.8.u.0.z.o.z.P.P.K.Y.z.P.^.m.0.V.D.0.[ z.z.V.8.c.P.Q.Q.K.c.D.i.i...I u.W.^.(.(.^.Q.R.Y.0.' ` R ' Y 8.8.8.u.c.m.R.F.",
"V.F.D.K.P.K.V.y.C.d.l.o.z.P.P.D.Y.V.Y.^.F.y.c.D.z. .d.F.G.i.V.P.Q.Y.R.R.V.0.8.o.I i.R.^.(.(.Q.^.Q.K.0...' Y ` R 8.8.0.u.D.F.Y.Y.",
"V.K.P.Y.Y.Y.F.u.K.d.c...c.P.K.F.P.K.Y.^.F.y.c.d.d...0.m.D.d.V.P.Q.Y.Q.Q.y.4.0.2.Y u.Y.^.^.^.Q.^.Q.i.y.4.` R ' R 4.4.0.y.v.F.Q.Y.",
"d.K.D.V.P.F.c.z.P.d.c...z.F.Y.D.c.K.R.^.D.8.y.P.m.[ u.V.F.V.m.P.P.K.K.0.u.z.V.0.` i.R.^.(.^.^.^.K.y.z.o.` R [ Y o.2.0.y.m.F.R.R.",
"z.P.F.F.Y.K.c.i.P.c.i...z.F.P.D.y.D.R.Q.F.0.y.D.d...0.v.K.V.K.R.~.V.y.t.U.K.V.z. .i.P.R.^.^.R.Q.b.d.m...Y Y ' Y 8.2.8.y.y.F.R.Y.",
"c.K.D.F.F.K.m.u.F.d.V.o.z.K.P.D.z.m.m.F.m.0.z.c.d.[ 4.m.K.V.K./.h.V m B C B B N : M D F J F F D M d.m.2.I I Y I 4.2.0.0.8.c.P.R.",
"i.P.F.F.Y.Y.F.z.D.c.F...z.P.K.V.m.F.D.D.c.y.m.z.d.[ 4.m.V.S.E.9.1 j b z j > 1 ; o j Z Z A Z A z K v.d.8.L L I R 8.0.0.8.4.z.F.R.",
"d.K.D.m.Y.K.V.V.Y.c.F.2.m.K.F.H.V.F.Y.P.d.4.z.m.d.[ 0.V.V.Y.b.h j n A v A c 2 ; + k Z A S S S f } V.j.4.L L Y R y.u.8.0.u.V.Y.F.",
"i.K.V.V.R.K.z.i.F.D.V.4.m.K.0.{ z.m.P.P.d.8.d.D.c.' 8.V.m.A.| , b n S b A A l < + k Z A A S S f | 0.8.c.4.4. .` 0.0.0.d.z.m.Y.D.",
"d.K.F.F.F.K.d.u.K.V.i.4.m.P.W & Q z.P.Q.V.0.z.V.z.' 8.F.m.K.} , n A S n A c l 1 ; g n Z A S A j 1.u...z.0.0.2.` 0.8.0.i.z.i.K.D.",
"d.P.F.D.K.D.m.8.z.c.i.8.n.:.t q ( V.P.Q.V.u.c.D.V.[ 8.D.V.I._ d n A S A A l l 2 ; g Z Z A A j > r.i.[ 4.......` 0.8.0.z.g.z.K.K.",
"d.K.D.V.R.F.D.4.c.V.0.8.( t r E V.c.K.R.V.u.c.D.V.[ 8.K.b.C.K z n A S S A c k 3 ; g b b f v H ~ z.i.....R Y ` R y.8.0.d.z.d.P.R.",
"c.P.K.F.D.K.c.i.u.8.7.! 0 q =.m.K.i.V.Q.z.0.c.V.d. .8.K.D.5.1 b n S S S A c k h ; g z , ~ V.K.R.F.0...` I I I R 0.8.8.u.m.z.K.R.",
"c.Y.K.V.c.y.0...R ` I $ & -.K.c.P.z.V.^.z.u.d.u.z. .4.K.v.C d n Z S S n n c v h ; < 1 <.!./.K.Q.F.0.[ R Y ` ` ` u.0.0.i.m.F.R.Q.",
"z.K.Q.K.D.0.0.` ) ! * $ U V.D.V.Q.z.D.^.m.m.c.y.c...4.K.| > c Z A S A x b n v 2 o : 3.G.R.^.U.Q.F.y.' Y R [ [ ` i.8.0.d.d.D.R.Q.",
"z.P.F.u.4.` ..R U w 0 a i.K.F.F.R.c.F.Q.c.c.m.i.z. .8.c.H 1 l b b z z 1 j j 1 ; : ..D.c.P.(.^.Q.P.y.Y Y R R ` R y.8.0.i.V.F.P.Q.",
"m.Y.F.0...' R P u & p 2.d.P.D.F.Y.c.F.Q.z.z.V.c.m...0.F.^ - 1 g N C C V V V H T I 4.c.m.R.^.Q.Q.V.0.` Y Y R ` R i.4.0.z.V.K.R.R.",
"D.Y.K.K.y.R L = % % Q o.d.H.D.F.Q.V.F.Q.m.d.z.z.V...0.z.2.X.| 5.V.c.F.0.d.K.d.0.Y 2.z.c.Y.^.Y.R.m.4.R I I R ' R i.4.0.V.F.F.R.Q.",
"m.Q.Y.P.K.` = $ 0 $ 8 ` u.D.F.F.Q.V.K.^.c.c.z.z.c...8.d.i.K.F.Y.^.F.K.0.z.F.i.8.Y 2.y.d.P.(.R.Y.V.4.Y Y Y R ` R y.8.0.m.D.K.Q.Q.",
"c.Q.Y.V.P.[ $ % = X 6 / 4.z.0.D.Q.K.K.^.D.c.c.m.c. .8.F.V.F.m.P.R.V.P.0.z.F.d.8.Y 4.u.u.F.Q.Y.Q.K.4.R Y Y Y ` R y.8.y.z.V.P.Y.Q.",
"D.Q.K.m.D.4.U O - : [ R u.u.8.m.Q.P.Y.^.c.z.m.V.m. .0.K.D.D.c.P.Y.F.P.u.D.D.z.4.Y 8.y.y.P.R.V.R.K.4.` Y I I Y R u.2.4.i.V.D.Y.Q.",
"F.R.F.V.c.z.] X 6 R ..R i.i.2.V.R.F.F.Q.V.m.m.m.V. .0.K.c.D.z.m.Q.F.K.F.V.d.y.4.I 4.i.d.R.Q.K.Q.P.2.Y Y I I L Y i.4.0.u.z.m.R.R.",
"D.R.F.V.c.c.2.I 6.o.4.` d.m.8.D.Y.F.H.Q.m.z.d.m.D. .8.D.V.V.y.c.Q.D.Y.R.Y.z.0.4.L ..0.8.K.R.P.Q.F.0.` Y I I I Y u.4.8.0.d.D.Q.Q.",
"D.Y.F.m.i.0.2.4.2.4.4.` d.D.m.K.R.D.K.Q.c.d.z.c.V...4.D.V.m.c.P.Y.D.R.Q.Q.V.i...9 R ..4.m.Y.Y.R.D.2.Y I I L 9 Y u.4.4.y.m.K.Q.Q.",
"F.P.F.V.0.4.o.4.4.4.8.[ y.D.c.D.Y.V.d.Q.0.4.d.z.D...o.V.m.z.u.K.Y.K.F.Y.Q.K.c.4.I  .8.` 0.P.D.Y.D...Y I I L 9 Y 0...2.0.m.P.K.Y.",
"F.D.P.c.0. .o.2.0.4.y...4.V.i.V.P.F.F.Y.2...y.u.c...o.m.V.y.4.K.Y.K.K.Q.Q.D.z.8.I 2.R.y...d.c.K.Q.u.R I L L 7 Y u.2.2.8.i.z.4.u.",
"D.F.P.z.0.' ..2.0.4.y...0.V.u.D.Y.D.F.R.4.4.0.0.z...2.c.m.u.4.D.Y.V.F.Y.Q.D.4.4.I 2.d.z.F.D.8.0.Y.m.R L L 9 5 Y V.c.i.u.y.8.4.0.",
"V.K.F.m.0.4...4.8.4.u...0.V.i.D.Y.P.D.P.0.2.0.u.z...o.d.g.u.8.c.F.R.Y.P.R.c.2.2.Y y.z...0.Q.m.i.Y.z.L 9 9 7 5 Y v.m.V.m.D.m.P.F.",
"V.P.K.m.4.8.2.2.8.8.y...0.m.y.V.Q.F.K.Q.8.o.y.d.z.2.2.i.i.u.4.d.F.Y.Q.Q.^.F.2.2.Y 0.K.m.F.^.F.K.K.d.I L I I L R z.c.v.m.P.R.^.F.",
"c.K.D.V.2.`  .4.y.8.u...0.z.y.V.Q.F.F.^.0.[ 8.0.y.....0.z.i.2.d.m.K.R.Q.^.D.8.2.I 2.K.P.Q.(.K.F.4.2.` I I R R ` m.c.z.c.K.Q.Q.V.",
"D.Y.K.F.8.` o.0.d.u.z.8.u.m.d.F.Q.K.Y.^.d.2.8.8.8.2.4.y.c.i.0.z.c.P.P.R.Q.P.i.0.` 4.Y.Y.Q.^.Y.0.4.8.0.2... . .o.D.V.V.F.P.R.Q.Y."
};
