/* XPM */
static char *_9efb2d48ec34a91c8aeb52829394263H4v5360nw8wge4UZ[] = {
/* columns rows colors chars-per-pixel */
"64 64 226 2 ",
"   c #0A0C0A",
".  c #1B0C0A",
"X  c #1A180D",
"o  c #140F12",
"O  c #141514",
"+  c #121B12",
"@  c #1B1D14",
"#  c #151D19",
"$  c #1C1B1C",
"%  c #1B1416",
"&  c #0E1D0F",
"*  c #25150A",
"=  c #2C1D16",
"-  c #251B18",
";  c #391D05",
":  c #09290D",
">  c #03370B",
",  c #0C2B13",
"<  c #0C2716",
"1  c #132314",
"2  c #1C2415",
"3  c #1B2816",
"4  c #16241A",
"5  c #1C221D",
"6  c #142B1B",
"7  c #1A2B1B",
"8  c #132813",
"9  c #043A12",
"0  c #0A3B15",
"q  c #0E3C1B",
"w  c #083717",
"e  c #13331C",
"r  c #1B361D",
"t  c #143A1D",
"y  c #183A19",
"u  c #29221C",
"i  c #222D1C",
"p  c #282615",
"a  c #33251B",
"s  c #372919",
"d  c #24331B",
"f  c #2B3013",
"g  c #1E1D21",
"h  c #231D22",
"j  c #1C2D24",
"k  c #182B21",
"l  c #1A3522",
"z  c #143A23",
"x  c #1C3C25",
"c  c #1B3C2A",
"v  c #1B3326",
"b  c #242325",
"n  c #232A24",
"m  c #262629",
"M  c #2A272B",
"N  c #262B2A",
"B  c #2B2B2D",
"V  c #2C2B22",
"C  c #342A27",
"Z  c #223425",
"A  c #233B24",
"S  c #24342B",
"D  c #2A322D",
"F  c #233B2C",
"G  c #2B3B2D",
"H  c #2C3722",
"J  c #363628",
"K  c #2E2E31",
"L  c #322D33",
"P  c #2E3132",
"I  c #2D3C33",
"U  c #263E32",
"Y  c #333335",
"T  c #363639",
"R  c #3A353B",
"E  c #36393B",
"W  c #3A3B3D",
"Q  c #353835",
"!  c #4A341D",
"~  c #4F3014",
"^  c #473526",
"/  c #443A37",
"(  c #503824",
")  c #00410E",
"_  c #004815",
"`  c #0B441B",
"'  c #044C1A",
"]  c #0A4B1D",
"[  c #094416",
"{  c #14461C",
"}  c #03531D",
"|  c #01591F",
" . c #04521B",
".. c #0C4421",
"X. c #094C22",
"o. c #144324",
"O. c #1A4224",
"+. c #134C25",
"@. c #1B432B",
"#. c #154C2B",
"$. c #1B4C2D",
"%. c #174827",
"&. c #0B5424",
"*. c #055B25",
"=. c #0D5A26",
"-. c #0C5B2A",
";. c #095627",
":. c #145226",
">. c #13532B",
",. c #1A532C",
"<. c #135B2D",
"1. c #195C2D",
"2. c #1D4F31",
"3. c #1B5B33",
"4. c #195834",
"5. c #0D5F30",
"6. c #22432C",
"7. c #274728",
"8. c #33432A",
"9. c #25542D",
"0. c #244332",
"q. c #2B4334",
"w. c #234B34",
"e. c #2C4539",
"r. c #2B4B37",
"t. c #32443A",
"y. c #39443E",
"u. c #354938",
"i. c #235233",
"p. c #235B34",
"a. c #25543B",
"s. c #2A5439",
"d. c #245B3B",
"f. c #2A5436",
"g. c #34553B",
"h. c #05632B",
"j. c #0C622B",
"k. c #06652A",
"l. c #12642F",
"z. c #0C6631",
"x. c #136434",
"c. c #1A6235",
"v. c #136B35",
"b. c #1C643A",
"n. c #1A6C3A",
"m. c #0E7337",
"M. c #15733C",
"N. c #18743E",
"B. c #22653D",
"V. c #20763F",
"C. c #284418",
"Z. c #4A4435",
"A. c #56463C",
"S. c #6C4C2B",
"D. c #3E3E41",
"F. c #423D42",
"G. c #493F49",
"H. c #3E4143",
"J. c #394C42",
"K. c #2E5A41",
"L. c #3B5545",
"P. c #375946",
"I. c #1F6D41",
"U. c #1C7541",
"Y. c #1A7B41",
"T. c #2B6343",
"R. c #2A6945",
"E. c #246842",
"W. c #346448",
"Q. c #287649",
"!. c #386E51",
"~. c #387453",
"^. c #347E4E",
"/. c #424345",
"(. c #454649",
"). c #49454B",
"_. c #46494B",
"`. c #4A4A4D",
"'. c #524944",
"]. c #44534C",
"[. c #48564D",
"{. c #4D4E51",
"}. c #524E53",
"|. c #4E5154",
" X c #495A53",
".X c #525255",
"XX c #555659",
"oX c #57595B",
"OX c #5A5A5D",
"+X c #595559",
"@X c #5A5144",
"#X c #635D59",
"$X c #486457",
"%X c #54655D",
"&X c #427254",
"*X c #5D5E61",
"=X c #615D63",
"-X c #5F6164",
";X c #5B6C64",
":X c #576A64",
">X c #557465",
",X c #626265",
"<X c #656669",
"1X c #6B666D",
"2X c #67686B",
"3X c #6A6A6D",
"4X c #67706D",
"5X c #6D6E71",
"6X c #716D74",
"7X c #6E7173",
"8X c #727275",
"9X c #757679",
"0X c #77797B",
"qX c #7A7A7D",
"wX c #1C814A",
"eX c #26824D",
"rX c #7D7E81",
"tX c #817D84",
"yX c #7F8083",
"uX c #828285",
"iX c #858689",
"pX c #8A8B8D",
"aX c #87888B",
"sX c #8D8D91",
"dX c #949497",
"fX c #8F9093",
/* pixels */
"uXqX5X{.3XrX2X3XuX9XsX9X{.uX9XuX8XuXiX9X.XuXdXuXrX3X8X_.oXpX8XqXuX3X3XoX*XdXpXuXsXyX3X,X_.0X0XuXpXqX3X9X,XpXpXqX0XiXuX3X<XdXaXuX",
"9XoXoXoX,X9X*X,X3X*X-XT (.7X*XoXOX<X,X`.W 5X,XoX*X,X,XY .X5X.X*X*X5X3XD.<XrX*X5X8X*X<X{..XiX3X2XXXoX3X.X{.8X*X*X*X,X8X.XOXrX*X<X",
"*X|.{.Y _.oXOXoX.X<X.XE /.,XXX.X*X{..XD./.3X.X{.{.<X/.Y `.3XOX(.{.*X`._..X,X,X(.(./.T T (.OX`.XXXX{.oX(.D.*X{.|..X,X*Xm _.OXoX`.",
"`.`.oXK (.oX{.`.,X,X.XD.H.5X,XoX|.`.oXD.(.,XOX`.*XoX`.E `.,XOX,XoX(._.E (.,XoX`.oX.XoX`.`.XX X3.i.XX*X_.H.<XOX{.XX*X{.K *X<X{..X",
"M b K B Y Y m Y T Y B m E (.Y m M K T B P T M m B b b L Y W (.T E E Y $ (./.$ m B m Y (.Y 6.#.N.Q.m Y Y M /.Y T E K m m W D.K P ",
"`..X(.,X9XOXoXW .X,XOX<X8X<X*XT (.,X`.*X*X2X*X/._.5X2X2X2XOXc I OX=X.XOXOXoX,X_./.*X*X}.6.} 3.A Z F oX,X,X3X<X`.E oXoXOX<X*X`.Y ",
"qX8X,X0X,X2XqX{.3X9X8X5X5X9X3X/.<XrX9X9X,X<XuX{.<XpX8X3X1X~.m.,.oX;X3X*X<XrXuX.X3XiXyX,X%XR.c - p.m.W.1XrXuX8X,X,XpX8X9XyXuX,XD.",
"*X.XoXOX_.`.`.Y oXXX{.{.OXOX`./.,X<X|.`.H.*X,XY .X*X.X.X{.$X>.6.&.h.t..X,X<X,X_.{.*XT (..XW b = y <.S W oXoX*X`.(.8X,XOX,X.X`.K ",
",X(.H.(._.oX(.M `.`.|.oX3X-X5X.XoXOX|..XoX.X/./.*X3X2XOX`.q $.O q ` S *X.X_.{.M _.oX|.*X7X=X_.G ! h K {.<X2X,X(.(.3X,X{..X.XoXK ",
".XY D.T P W E m Y E Y T /.T D.B `.(.W (.(.D.E K Y /.H.T t.-.I.4 m @ * T K._ s.I H.D.Y _.E P x.N.A N Y W (.E T K /.oXT B E /.D.K ",
",X`.`.Y B Y W Y `.{.D.(.Y H.E T (.W E D.Y T (.E H.W Y W T q.6 %.q D - 4 ` b.3.> O.(.W E B L $.3.+.] l {.(.Y D.(.`._.Y D.E (.(.E ",
"qX8XOX<XH..XpXqX9X9XrXpX<X(.8XyX8X<X5X9X*X`.uXiXuXuX0X3X`..X.X] n. XL.h.R.G z <.q.=X0XiXoXT.W.V O.z.$.,X,X`.5XrXiX0X5X5XD.oX3X,X",
"OX|.OXoXB `.,X*X-X*X{.,XE T 3X.X*XoXoXoX{.oXuX*X{.oXOX*XY -X3Xu.w.b t.b.2.% a r $.t.}.].c.h.c.u b F m {.`./.3X<XOX*X*X{.Y /.oX(.",
"*X*X7XoXY .X5XOXXX{.*XOXY (.<XOXOX,XoXoX`.`.*X_.{.|.oX*XE OX<X{.Y Y / M   L '.y ] t x K.t.x 7 l E ).(.{././.OX{.OX,X.X|.Y _.*X.X",
"D.`././.E {.<XD./.{.D.T Y `.<XoX{.(./.OXD.T XX`._..XOX_.B {.*X`.`.XX@X( 4.!.+XH %.6 z E L . w eXR.).W D.H.T (.E {.E E `.T `..X/.",
"Y M B Y m `.Y b B B Y b B /.(.Y Y M K B B /.E E Y B T K Y _.E E y.r 9 C.'  .d X O $ m 4 F ^ z 4.l b Y E B Y .XY Y E T E W `._.m ",
"5X0XuX3X,X8X.XE <XuX3X5X8X8X-XY `.qX8X<X,X8X<X.X`.8X<X3X5XqX5X/.g.,.=.d 7.A O.v.R.,X-Xn.Y.8.1XY $ *X8XqX8XqX0XOX_.aX8X8XuXsX*XB ",
"2X,X5X,X3X.X_._.2X8XOXOXOX<X,XL `.,X<X,XOXoXoXD.*XaX3XoX,X<X*X/.=X_.e.X u = w.R.q.}.7Xd.9 l L.P D.5X2X-X,X<X.XD.D.5X.X-X<X5X`.Y ",
",X.X*X.X.X|.(.Y .XOXoX*X`.{.y.x [.*X|.`.`.oX|.F.Q ,.u.=X.X-X|.E *X}.T b ( f , 4 h oX<XW @ c.n.S ).*XoX|.{..X,X`./.*XoX.X.X/.T B ",
"5XXX`.(.H./.|.K .X2X{./..X*X4.z.W.+X.X{.XX<X.X(.2.' :.W.XX.X{.E `.].b.T.( { M.w.T {.D.{.^ #.d.# E ,XoX{..X-XOX_._.3X`.(.OX.X/.Y ",
"`.K B P Y m B m /.Y B B Y Y w.X.3 5 G /.D.Y b #.N.c.^.n.F Y E Y F.w.h.c.p 7 2.< K E S 6 V a   o Y /.K W H.B m m B H.L M D.P M B ",
"3X.X*X.XK `.<X.X<XoX`.oX/.(.`.M - t -.u.(.W ,Xi.> 8 A l # /.oX}.}.OX8.+ - a k l `.,XB.h.9.C oX{.OX3X3X3X_.E 2X3X<X*XP.$.W {.OXoX",
"5X8X5X2XT ,XiXOX,X5X5XrX.X,XuX.X).p.b.t./.OXdX-Xa.n * b h 3XyX&X!.7XZ.%.Q 8.wXT.,X9X$XR.Z S 0X8X3XrX9X3X{.oXdX8X9X4Xx.z.q.3X8XoX",
"{.oX,X*XK 2X7X{.`.(.{.`.Y `.].4.L.a # m K oX5Xw.&.,.y 9 I =X X_ | u.7. .0 H ` , E {.{.a 9 h.g.}._.XX.XoX{.{.3XH.0 +.6.+.4 OX3X.X",
",XoX<X/.m oXoX`..XOX<XoXK ).!.M.i.Y D.oXoX,X=Xt.` $.<.l.j *XOXo...p G 4.c.7.u g K ).}.^ p.B.S `.oX.X<X,X`.).6X XM.n.H i.b.|.*XOX",
"Y Y /.Y B {.W D.(.`.{.H.T `.W , t m E D.T E D.K A 4 j v O {.OXE $ * 5 ,.v.f.3 Z B e.u.a < < $ Y (..X.XD.L q.J.(.I +   >.#.m H.D.",
"(.D.E Y W .XY K D.oX.XD.W |.F.$.k.@.).(.Y W D.G _ [ m b Y _.W m B i } } l 7 ' ] k *.n.O.N.U.U T /./.Y D.H._ l.J a - M S O B E P ",
"iXiXrX3XqXrX<XT 5XuX,X<X%XQ.&X9.X.c %X;X6X&XB.1.3.x E 3X8XuX3XH.B.eX<.4.V n Q.w.Q T.%.H T.@.H.oXOXrX8XrXqX!.p.q.-.T.yX6X,X3X.XK ",
",X<XoX`.oXOXD.Y 3X{.XX*XL._ ` 3 < < } <.`.` | ` # b E oX*X3X{.E ..] i o u y 0 + T `.K = b g Y _..X1X*X.Xr.e $ 3  .` W .X,X*XE K ",
"3X*X`.`.{._..X`.OXoXoX,X{.0.7 # b N d.z R [.v # n H.{.{..X`.E 0.$.N 3 B / { Q.v {.:X>.f.^ (..XT Y s.P.].z.h.u.= j n Y *XOX{.(.B ",
"{.`.oX{.(.{.`.E (.{.*X_.J.F.r ;.i.J.R b E ).P 6 q X.J.XXoX/.H.j.x.G 9 %./.J N o ).q.| >.p u./.T 6.=.3.'.g.$.x %.e./.|.{.(.`./.Y ",
".XY Y m Y B T B E T L 3.m.7.7.;.l N M Y Y S N.x.<.+.# Y Y m Y o.%.A <.` 4.,.Z d.K.E i.1 $.j.6 Y Q O.p.1.X 4 x.*.$.Y P Y B Y B K ",
"uXqX3XW .X9X,X*X,X2X5Xs.<.J.s t D H.<X<X/.4X5.R.G m T P D.8XrXA.= n 0.j >.h.p.l.3..Xf.w 6 o.i.v.!./ B.Q.@.F.W.z $ OX8X/.`.qX8X9X",
"<X,X3XW ,XpX5XoXoX2X8X/.m Y w.z.i.3.T.$. X>Xd.- h Y `.Y .XiX>Xu.f _ 3.M A @.- d + = 7.e M P F ' 0 C S & 5 P..XM E <X9X/.*XsX5X<X",
".XOXXXM (.,X{..X.X-X.X`.(.`.e.>.Z r 9 x.P.L.] D H.OXOXB F.P.M.^.d E.2.S n.3.Q i.%.E (.b M +XD.w.f.j (.L q $.(.|.oX*X,XY `.3X.X`.",
"`.oXOXK {.*X`.oX*X_./._.).-XXXP 1 s s z G 6., ..b.%X,XP `.;X#.6.X P b v ;.` 8.*.h.J.G.B T :X[.3.v.a.|.|.H.H.E 2XoXOX.XY oX3X{..X",
"/.(./.b /.(.B D./.B Y $ P _.T t ) O.s * ,  .$.0 _ ] Y m `..Xz @ . m K b m @ . : z k $.Z S ' ` 7 : # o.+.Y L E (.W Y `.Y (.`.Y D.",
"_.`.E /..X{.(.Y Y _.D./. X|.F.6.E.0.C C I 2.x.N.4.w 5 _.OX`.e.Z %.I.J.$.g.C A N P w.l.+.L.<.0 $ h B B.x.S }._.Y M (.(.(.,X.XE B ",
"8X9X,X8X9XuXqXE 2XqXrXuXpXqX5X`.D L y.&.d.F.x ..< z r.9XtX2XE...-.<.i.v.&.9.-.O.oXOXG @.].H.$ S 3.>X8XW E 5XrX*XOXsX0XqXuX8X,XW ",
"8X{.(.H./.{./.T oXoX{.OXoX/.{.T {.1X].h.b.E F 9 z x n `..XE.j.> 8 + - r < 3 0 e T |.W D #.a./ p.Y.d..X(.(..X*XOX`.3XXXOX{..XoXY ",
"<X<XoXoX*XXX_.Y oX<X,X.X{..X-XT oX$Xy.G n Y F.@.:.$ K (.OXc.e 1 4 P s.l - V R.k F.,X.XP.j.X./ H $.I T .XoXoX,XE (.uX-XoXOXoX.XB ",
"OX_.T {.`._.{.Y (.-X`.(.(.{.oXW W.h.3.B U r.(.a.9 5 D./.D.Y $ ..<.%.} ;.J 7.*...F.oX|.H.6 + i b b M E {._..X`.E (..XD._.(.oX(.B ",
"(.B {.D.B E E B (.(.K W B M Y W t.>.6.+ *.k.q.&.X.X.` H.Y B B q ,.2 q e - p w < D c.>.P C w.U.i.W /.T K K B Y (.D./././.B B K Y ",
"3X5XtX8X`.`.8X3XyX,X2X3X|..XuX8X5X{.B 8.$.t W [.x z.>.J.D.,XtX#Xa % C C - P {.Y  XX.z.u.J y &.o.OXiXuXaXqX`.,X5X9XuX8X*X/.oX5XrX",
"7X5XoX{.B .X8X`.(.{.oX{.D.OX5XoX,X<X>.=.Z h _.$XS 1 + n ,.r.$XZ.p t ^ C Y .X<Xt._.P k :.-.2.6.g E {.OX5XoX/.9X3X9X5XoX*XoX<XOXoX",
".X.X.X{.B oX,XH./.{.{.2XW W .X.XOX{.4.<.i / $X} x.E - 7.| x.v.=.:.Y.y Y (.=X$XM.E.`.a t b.6.T B (.{.*X`.T E 9X8XoXoX{.oXD.(.(.(.",
"`.(.(.{.(._.`.`.{..XOXoXP /.*X*X/.D.`.I % H q.<.i.T T.&.#.0.o.6.x +.4 Y E /.$Xv.>.V H a.@.% /./._.oX`./.`.D..X/.H.(./.(.K W {./.",
"B Y (./.B Y E Y E T m E M E W m M /.T b $.} +.k O n > 1.l % o.r * .   B Y E L ` <.e =.l.X.B /.m Y B P E E B E K B K Y Y B Y E b ",
"2X<X<XoX{.5X<X/.{.3X3X.XOX8X,XY _.3X*X*XQ.j.i.h T.U.K.I X L.U.Q.g.,.t.d.*.]. XO.y &.-.e # }.3X(./.,X5X5XOX2XuX`.`.8X3X,X<X8X*XB ",
"<X2XoX,X9X8X*XY *XqXOXoX7XqX2X/..X5X4X7X_.c X C %.) e.R 7.c.0 A +.| s.W.=.R.v., n x.#.% L oX-XD.OX0X*XOX<X9X-XD.OX8XOX3XrXrX-XK ",
"*XOXOX|.-X<XD.m *X{.(.|.|.oX{.Y .X*X{._.}.R F ` q.B j +.:.` 4.i X , m T m z X.> 6.E $ B XX.X(.Y _.*XoX|.oXoX{.W /.3X(.*X5X3X`.M ",
",XoXOX|..X.X_.D.,XOX{.oXoX|.`.Y OX5XoXOX$X-Xd.V.W.C K.v.f.A e 2 * 4 F H.V u $ :.m.e.F.oXOX{.`.E `.8XoX*XOX|.{.H.{.5X{..XoXOXD.m ",
"`.E B K /.T D.(.`.E T T /.B Y /.`.E K L w.w.b 7 + +.] , e %.< = p _ ' o.:.d.b c o.5 T |.D.E (.P W `.K K B T Y K /.{./.Y Y Y B b ",
"3X,X|._.E /.{.oXOX.X{.oXY Y .X.X.X`.`.`.D.P `.D.H.3.<.S %.eXa.! a T.K.6.Q.%.Q W F./._.`.Y Y .X_.<XOX(.{.(.E oXOXOXoXoX_.Y T /.(.",
"8X3X8X3XY ,XfXuX3X,X9X5XW OXqX,X8X,XqXqX*XoX;XOX3X X2 5 <.:.5 ! s XXi 7 # b `.5X8XOX,X5X(.`.8X9X0X2XqXrX,X.X9XqXqX8X<X,XW ,XqX-X",
"`.`.`.D.P ,X*X/.E (.OXOXT `.,X{./.{.`.*X{.{._./.{.oXW :.-.A = ! u g.v.Q.5 E {.(.D..X,X(.W (.oX{.oX`.(.OXH.(.<X{..X.X.X/.m oX,XH.",
"|.`.{..XW oX*X_.oX|.{..XY .X5XOX*X<X<X-XY /.3X`.*X*XR.l.,.b ! ~ J 8.4.@.b {.oX{.{..X`..X/..X,X.X{.|..XOX{.(.3X,XXXOXoX{.Y 5X5X|.",
"OX.XE E b W H.D.D.E W /.M W {.(.{.oXOX(.m D.oXD.D./.l 0 1 $ ! ~ * O h $ $ /.{./.(._.{./.m E oX{.(.E D.D.T /.OX.X*X{.(.D.W OX(.T ",
"W W B E .X{./.E B K W Y E `.(.W (./.M Y W `.oXK Y .XD.m * B ^ ~ w 5.D D.M `.{.Y _.W Y Y M W (.Y M W /.W Y /.`.T B Y (././.{./.Y ",
"OX2X8XrX9X8X2XT <X5X3X8X5XiX9XW oX3X5X8XrXuX8X/.*X3X3X3XA.( A.; I d.].,X,X3XoX_.OXqXrX8X8X9XqX`..XiXiX8X9XuXuX*X{.qX8XqXrXqX-XE ",
".X`.,XOX(.D./.M ,X<XoX<X3X*X*X/.`.*XoXoX,X*XoXD.OX*X_.,X`.( A.s E W Y {..X(.`.`.,X8X/.{.oX{.|./.oX8X*XOX-X5X*X`.(.3XOX*XoX.X`.B ",
",XXX`.`./.oX(.E 5X3X-XOX|.{.,X(.`.*XoX<XOXoXoXD.oX,X*XOX_.Z.S.s T ,XoX.X`..X*XB {..X.XoXOX*X{.D.{.3XOXoX,XOXoX(.`.5XoX/.{.{./.Y ",
"<X.X{.{..X-X/.M OXoX(././._.|.B _.,X|..X{.{.{.Y `.OX`.(.oX/.~ * D.<X`.{.,XoX`.D.{.*XOX*X.X{..XY (.*X{.|.oX`.{././.2XoXOXoX|.H.B ",
"Y m m B B M M M Y K K K Y Y m m B M K m M B Y B B B m B K K s * b b m K Y m Y B Y K b B K B K B Y Y B B M Y K m B Y K Y B Y Y M "
};
