/* XPM */
static char *_f8fb07aa4744c7e9513ce4772d2d864kyBnIzXf7BTEil6z[] = {
/* columns rows colors chars-per-pixel */
"64 64 208 2 ",
"   c #0C0B0A",
".  c #13100A",
"X  c #0E1417",
"o  c #121314",
"O  c #17191C",
"+  c #201E1B",
"@  c #382A14",
"#  c #0F1B28",
"$  c #151D24",
"%  c #18222A",
"&  c #1A242C",
"*  c #0F2235",
"=  c #142434",
"-  c #1D2B33",
";  c #142639",
":  c #19273D",
">  c #15293D",
",  c #1A2B3D",
"<  c #232324",
"1  c #262728",
"2  c #272829",
"3  c #2B2C2D",
"4  c #373226",
"5  c #222E36",
"6  c #2E2E31",
"7  c #2F3032",
"8  c #23333C",
"9  c #28353E",
"0  c #323335",
"q  c #3C3A35",
"w  c #363639",
"e  c #37383A",
"r  c #3A3B3D",
"t  c #46371A",
"y  c #523D1C",
"u  c #483C22",
"i  c #4D421D",
"p  c #57431E",
"a  c #594A23",
"s  c #5E5024",
"d  c #48453C",
"f  c #634921",
"g  c #6A5426",
"h  c #775A29",
"j  c #78652E",
"k  c #7F6D31",
"l  c #152C44",
"z  c #1B2E42",
"x  c #172F49",
"c  c #1A3149",
"v  c #1D334B",
"b  c #1B3957",
"n  c #253742",
"m  c #263944",
"M  c #2A3B45",
"N  c #20364D",
"B  c #2C3E49",
"V  c #3E3E41",
"C  c #223653",
"Z  c #233B55",
"A  c #253D5B",
"S  c #1D3F61",
"D  c #283F62",
"F  c #2C424C",
"G  c #3F4043",
"H  c #32424E",
"J  c #2E4552",
"K  c #2A435B",
"L  c #334956",
"P  c #364A57",
"I  c #344C5B",
"U  c #38505F",
"Y  c #1E4265",
"T  c #2A4364",
"R  c #23466A",
"E  c #2C466B",
"W  c #334D6C",
"Q  c #385465",
"!  c #3B5464",
"~  c #3D596A",
"^  c #2A4B73",
"/  c #314D75",
"(  c #324F79",
")  c #38567A",
"_  c #424345",
"`  c #454649",
"'  c #47484B",
"]  c #4A4A4D",
"[  c #4D4E51",
"{  c #4F5053",
"}  c #525255",
"|  c #555659",
" . c #57585C",
".. c #5A5A5D",
"X. c #405664",
"o. c #445C6C",
"O. c #5D5E61",
"+. c #445E72",
"@. c #5F6063",
"#. c #436274",
"$. c #446679",
"%. c #4B6578",
"&. c #46697D",
"*. c #4C6A7E",
"=. c #506B7D",
"-. c #626265",
";. c #656669",
":. c #67686B",
">. c #6A6B6E",
",. c #6D6E71",
"<. c #6F7073",
"1. c #717275",
"2. c #757679",
"3. c #77787B",
"4. c #797A7D",
"5. c #805F2B",
"6. c #87642E",
"7. c #896B30",
"8. c #916C31",
"9. c #8A7634",
"0. c #977836",
"q. c #A57B38",
"w. c #9B843B",
"e. c #A8863C",
"r. c #B5863D",
"t. c #B58D40",
"y. c #AB9241",
"u. c #B39844",
"i. c #BBA047",
"p. c #C18F41",
"a. c #C99644",
"s. c #D29C47",
"d. c #D59E48",
"f. c #C9AA4C",
"g. c #D4A149",
"h. c #D9A14A",
"j. c #D0B24F",
"k. c #D7B651",
"l. c #E0BC54",
"z. c #E8C458",
"x. c #EDC95A",
"c. c #F1CD5B",
"v. c #F3D05D",
"b. c #2A5684",
"n. c #355583",
"m. c #355A89",
"M. c #3A5B8B",
"N. c #3C5F92",
"B. c #3D6195",
"V. c #3C649A",
"C. c #3C6BA5",
"Z. c #3F6EA9",
"A. c #4B6D82",
"S. c #516E81",
"D. c #4E7287",
"F. c #4E748A",
"G. c #547285",
"H. c #54748A",
"J. c #58788D",
"K. c #41669B",
"L. c #41669D",
"P. c #547C93",
"I. c #5A7D93",
"U. c #7E7E82",
"Y. c #436AA4",
"T. c #466EAA",
"R. c #4670AD",
"E. c #4872AF",
"W. c #4776B6",
"Q. c #4974B3",
"!. c #4D7ABB",
"~. c #4F7EC1",
"^. c #507FC3",
"/. c #5A829A",
"(. c #7F8082",
"). c #61849A",
"_. c #65889D",
"`. c #5C8BA5",
"'. c #5D8BA6",
"]. c #668CA3",
"[. c #6391AC",
"{. c #6C93AC",
"}. c #6596B2",
"|. c #6B96B2",
" X c #6699B6",
".X c #6C99B5",
"XX c #679BB9",
"oX c #6A9DBB",
"OX c #739BB6",
"+X c #6AA0BE",
"@X c #73A0BE",
"#X c #78A2BE",
"$X c #5180C5",
"%X c #5383CA",
"&X c #6DA4C3",
"*X c #79A6C3",
"=X c #7BADCC",
"-X c #7BB0D0",
";X c #858588",
":X c #81AECD",
">X c #83B0CF",
",X c #85B5D4",
"<X c #88B8D8",
"1X c #8ABBDC",
"2X c #8CBFE1",
"3X c #8EC2E4",
"4X c #90C2E4",
"5X c #93C6E9",
/* pixels */
";X2.:.| :.3.:.>.4.2.;X,.| 2.2.4.1.4.(.,...4.;XU.3.>.:.[ ..4.u ..4.+ } | -.;X;X;X;X4.:.O.} 1.3.U.;X2.>.,.;.;X;X3.2.U.4.:.:.;X;XU.",
"<.O. .} -.,.-.-.;.-.O._ ] :.@.O.O.;.-.} ' :.;.O.O.-...V } | w.q [ a d ] -.2.;.:.,.-.O.{ | 2.:.;.O...-.| } >.-.@.O.;.,.| ..2.;.;.",
"O.} [ r ]  . .|  .-.} V ' O. .} ..} } _ ' -.| [ } O.] e ] @.a u.0.w.e ' } -.O.[ [ ' _ V ] ..} ..| } | ' ' ..} } | @...w ] O.| [ ",
"] ' ] w _ { ] ]  ...[ r _ O...} [ ] [ V _  .} ] } } ' r ' ..} 4 w.0 _ r ' ..} ' [ ] [ ' ' [ [ | } { } ' _ ..} [ { } ' w } O.[ [ ",
"0 6 w w r r 0 w V V w 0 _ ] V 0 0 e r w e V w 7 w 0 0 w r _ _ < t w w 3 _ ' 6 6 0 0 V _ r V e w w w V e w ' V r r e 0 0 _ ' e 0 ",
"] [ ] ..;...} _ } ....-.:.-.| r _  .}  ...@. .' ] -.-.-.-...r h f.4 } }  .....' ' ....[  ... .' ' -.-...O.-.O.] _ } |  .-.O.] w ",
"<.:.-.,.-.-.:.} -.,.:.:.,.,.-.] @.1.,.:.@.;.1.} @.4.,.;.-.-.1 s.z.j | O.;.2.1. .-.3.1.O.:.:.;.} -.4.:.:.1.2.,.O.O.4.1.1.2.2...V ",
"O.| |  .[ [ ] r } | } | O.O.} ] O.-.| [ ] ...._ } -...| } O.w @ p + ] | @.-.O.] } ..' [  .O.| _ } -.{ } O.O.O.[ [ ,.;.O.@.| ] w ",
"..' _ ` ' [ _ 0 ' ] [ } O.O.O.} | | [ [ { [ ' _ } -.O.{ _ r o 0.u.o 0 ] { [ ] w ' { [ | -.O.[ e ' .. ...O.O...' ' -.O.[ [ [ [ 0 ",
"} r V e 0 r r 3 e r e r _ V G w ' ' G ' _ V r 0 e _ r <   . @ 7.9.@ .   O 6 w 7 V G r ' V r e 6 r _ V _ ' V r w _ } V w r _ G 0 ",
"@.{ ' r 0 w _ r ] [ ' ] r V _ _ ' _ _ _ r r ' _ r 1   t @ 0.g j.k.j i.i a   1 w ] ] _ _ w w _ _ [ ] _ [ ' e _ ' } ] r G r _ ' V ",
"1.;... ._ [ 1.,.,.,.1.3...] ;.,.:.-.;.;.| } 1.,.e   y q.r.h.0.c.c.w.x.j.e.j . 0 :.>.,.,.| | 2.1.3.,.;.:...] -.1.2.,.;.O._ } -...",
"O.| ..} w ] ;.-.@.O...O._ _ -.O.O... .| {  .<.0 t y 0.t f p @ s s t a g i y.s i 3 [ } | ] } -.| @.-.:.:.[ ' -.;.@.@.O.{ e _ } [ ",
" ...-.} r [ ;...} { | } r ' O.......| } ] ] 6   @ 5.0.6.d.a.y.x.x.f.f.x.y.e.w.t . < ] { ' ' } [ } O.-.| _ _ | { | ..} ] e ' | [ ",
"_ ' _ _ r ] .._ _ ' _ e w ' ..} ] ' ' [ V < t q.6.d.7.a.d.q.u.x.x.k.u.z.z.k x.0.u.f 1 ' V e _ ' ] ] G G r r ' G ' _ V ' r ' [ _ ",
"r w e e w ' r 3 w r r 0 w ' ] r e w e e 3 @ s.6.p.h.h q.6.y j 9.9.k s 0.y.j c.x.0.z.t 3 0 r ' _ r r r G e V [ r e _ G _ ' } ' 6 ",
";.:.1.-...-.[ _ O.1.-.-.;.:...r ] :.;...+ r.d.y 6.f @ 6.r.a r.k.z.z.9.j.w.t g 0.s x.k.+ -.>.2...[ ,.:.,.:.>.:.} ] 1.:.:.2.4. .0 ",
";.-.:.-.-.| ] ' -.,.O.O...-...e ] -.-.' f 0.y g a.h.5.s.d.f s.h.x.x.j c.x.e.z.l.9.i y.k ' ;.O._ [ ,.:.-.-.-.| ' ' ;...@.;.;.] 0 ",
"-.| ..} } [ ' r } O.|  .[ [ ] w [ O.} O f e.0.p.d.d.6.h.h.p s.s.d.l.h v.c.u.l.x.z.9.f.k O } [ e ' .. .} } | ..] ' ..| } } ] r 6 ",
"-.} ' ' _ _ ' w [ ..[ ' [ } ' w }  .' t h.d.8.r.5.p @ g h @ 6.8.8.6.@ h g i s 9.j.9.x.c.a ' [ w _ | } [ [ | } ' ' ..] ' } ] r 0 ",
"[ r w w w 0 0 0 _ V 0 0 w r r 7 V r 3 6.r.h @ g q.a.6.h.d.p d.d.d.d.f h.h.q.t.q.h @ 7.f.w.1 w 6 r ' V _ _ w 0 0 w _ e 0 V e 0 0 ",
"-.| | [ e ] ..} O.| ] } _ ' } } O.-.r y a p.g d.d.a.6.r.q.t q.q.q.q.y e.r.8.t.d.d.5.a.f f 3 O.| ..;.;.-.] _ O.-.O...} } _ ] | } ",
":.:.:.O.V O.2.O.O.;.;.:.} ..1.;.:.:.e r.s.r.@ y 4 3 H o.G./.)._._./.I.H.o.H 3 4 u t e.a.g.6 1.:.:.1.<.;.} ..U.,.,.,.:.@.' -.:...",
"} ..-.| r O.:.} [ [ } [ r ] ;...O.| 3 @ e ~ P.'.P.+.L n - - & & & & & - 8 L +.P.|.{.=.G u 2 @.} {  . . .[ } ;.|  .O...} _ @.;.| ",
"| } .._ 0 } } ] [ | ..[ w ' | } ' Q P.oX[.Q - J L K n.V.C.R.W.!.!.W.R.C.V.m.A M Q 8 U }.=X|.=.r } } O...] ] -.....O.O.} V | O.| ",
"e r _ w 0 ' G V ' [ [ _ r ' ' G 1 #.oXJ > ( K -X*.) C.C.R.$X$X$X$X$X$X$X$X$X) Q 5X+.L.N B oXI.< ' [ [ _ e _ [ ' _ _ ' r 0 _ _ V ",
"' ' _ r _ } r w _  .} _ _ } ] V r 7 1 c C.C.Z =X%.) C.C.C.Z.W.!.~.^.$X$X$X$XW ~ 5XQ %X$XA % 0 _ ' ' _ _ ' ] } _ r _ ' _ ' [ V 0 ",
"4.3.,.-.,.1...G -.1.-.O.-.:.-.[ ..2.O.Z V.V.N XXo.Q m.m.m.n.b.b.n.m.m.N.B.L.Z Q 1XK !.W.E ] :. . .,.:.,.,.;.,.-...U.4.1.1.,.] 0 ",
":.;...} ....' G @.| | ..[ e O $ U %.o.U H M 8 M H Q o.%.G.J.J.J.J.H.G.H.%.+.Q H B 8 M H U X.%.X.% < V } | | | [ } :.O...-..._ 7 ",
"-...[ ] [ [ [ ]  .} r % 5 =.].H.o.I L L L I Q o.~ Q U I I I L L L I Q Q ~ ~ ~ %.#.Q U I L L I o.H.].G.9 O e | [ ] O.O.O.| [ _ 0 ",
"[ ] [ ] ' ' ' 3 < M *.[.P.B 8 Q m /.|.>X,X1X2X3X4X3X4X4X5X5X5X4X3X1X1X,X>X>X1X4X4X2X1X1X>X*XOXn =.B M H.[.*.M < 0 ....[ ' ' V 0 ",
"| _ r 7 w % M *..XP.J - ~ }.&X&XI [.[.}..X.X|.{.|..XOX|.|.OX{.{.{.{.OXOX#X#X#X#XOXOX#X*X*X*X=XH 4X5X1XG.M F F.|.D.B < 0 w r e w ",
"2.,.O._ 0 #.&.8 n &. X&X X/.) K # m.B.V.L.Y.Y.T.T.Y.Y.T.V.B.M.n./ T D / T.Y.Y.T.T.T.Y.L.K.B.m.# ) H.|.,X3X1X).J 8 $.H.1 ] >.:.:.",
";.-.-._ } 0 Q  X&XP.Q K R ^ b.b.l !.$X$XT.^.$X$X!.!.$XT.n.R.T.E.W.!.!.E T.$X^.!.$X$X^.T.^.$X!.z $X^.R.K.n.+.{.4X<XJ.1 V ..U.,.;.",
"| ..} w ' V m W R R b.b.b.l > ^ l Q.^.C z A $XM., ; !.R.( M.N.N.B.B.M.A Q.~., , n.$XE z z !.!.v !.Z C !.$X!.Y.M.A.~ 0 V [ ;.| [ ",
"] } } w ] 0 b S ^ R = b Y N Z b x T.T.v Z , $X, Z c m.$X$X^.N.E D ( R.!.$XL.z Z ; ^.; Z N B.Q.v M.v Z ^ M.= B.E.n.B.1 r } O.[ [ ",
"` ' _ 6 _ 1 x = l l A > b Z Z b x Y.N.N Z : Q.z Z Z / $X^.E E Y.Y./ T ^.$XN.v Z , Y.= Z Z n.T.C n.v Z T T Z Z ^ ; n.$ r ' ] r V ",
"[ [ _ _ } 3 ; z > l A > b Z Z x x L.n.Z Z : T.c Z N ( $XV.m.) J I / N.n.$XB.v Z v B.= Z A ( T.C / N Z T A Z z T c A < ] ..} V 0 ",
">.:.O.;.:.V * z ; l A > b Z Z l x L.n.Z Z : Y.c Z v ( C N ^ /.&X&X'.( A C N.c Z v m.= Z Z / T.C E N Z T Z Z v A v Z 0 ,.2.:...V ",
",.| [ ] [ 6 * = = ; A ; b Z Z l v L.m.= = = L.# = # E ^ !.) &X&X&X&X~ Q.m.E # = % n.= ; = ( T.Z E N A A Z Z , A z A 3 ..| | } e ",
";.O.} } | 0 > # = = Z ; b Z Z l v Y.^.Y.K.R.^.R.Q.!.M.m.T./.&X&X&X&X}.N.V./ !.W.R.~.Q.V.Y.~.T.Z E N Z A C Z z C = E 6 | | | [ 0 ",
"| ] _ ] ] 6 l x b Y > b ^ ; = R v L.!.) ) ) ) ) ( W K K T A.&XoXoX+XP.K T Z W / ) ) ) ) ) Q.T.Z T.C C L.B.A B.N.E n.1 ' ' [ _ 6 ",
"] r ] ' e 1 # v b b b b b b b b = ^ ( Q ).).)._.].]._.{.{.L F - 8 5 m ].{._.].].]._.).).o.E ( : m.n.n.n.n.n.( ) / N 3 _ w w e r ",
";.:.1.-.] 0 L A. XF.P.P.F.F.$.F.Q H.*X:Xn n n I.F H Q Q %.$.F F J M Q Q #.U F ! S.m 8 9 *X=X].L OX&.{.#.OXP./..X/.G._ ..' } -.,.",
">.:...[ w w J &.XXF.F.'.P.'.&.'.#./.4X4X$.P.{.=X~ J.1XQ #.oXJ M F m }.#.*.1X#.! 1X'.&.G.4X4X*XQ 1XD.>X&.>XF.)..XI.*.r ..} ......",
"| } } ] e V M A.XXF.#.[.P.'.$.'.#./.2X4X#.H.|.=XQ J.2X~ A.&XJ M F m  X&.I.3X~ Q 3X'.#.=.4X4X*XX.1XA.>X#.,X#.].|.I.o.w } _ ' ] ' ",
"' _ ' ] _ 0 n &.XXF.~ '.P.'.#.'.$.P.,X4X$.A.#X=X~ *.3XQ %.&XF B F 8  X#.J.3XQ Q 4X}.~ =.4X4X#Xo.,X&.=X#.,X~ _.oXG.X.3 _ w r ' _ ",
"w r ' _ 0 % 8 % $.#.Q '.P./.#.'.$.P.&X4X+.&.OX-XQ o.2XQ #.&XF F B 8  X~ G.3XL Q 3X[.~ %.4X4X#Xo.,X&.#X$.>XQ S.A.- 8 5 6 w r r 3 ",
"O.O.O.} ] J XX'.&.m X - n $.Q '.$.P.&X2X~ A.{.=XI +.3XQ %.&XF F M m }.#.G.3XL Q 1X[.o.#.5X5X#Xo.,X~ ).- M X B G.|.*XQ ] -.:.| 0 ",
";.-...O.:.] 6 5 L F. X'.$.U 8 & X X % - $ - M L $ & F 5 M - U L H B - M 9 H % O U M & % 8 - $ X 5 M o.H.[.&XP.I 8 0 r ;.2.2...0 ",
"O... .} O.@.' w ] 0 < M I &.'.oXoX X}.}.}. XXX.X.X|.{._.I.O H P P H X D.P.].[.[..XoX@X@X@X@X*X=X=X|.A.U M 2 3 w ] -.{ O.:.;.] 3 ",
"O.| } [ } [ ' _ ..} [ { ' 3 O   O O O O O o o o O < $ 1 0 ] [ _ ..| _ 6 < < O o o o o O O O O o o < 6 ] } [ ] _ ] -.{ [ | } V 3 ",
"} _ e e _ r _ ' ] _ V V G w r _ ' V w w r V V _ ] [ V r V ' ' V ] r w r _ ' e 0 ' ] _ ] _ V _ w _ ] r w w e r e _ [ ' r w w 7 1 ",
";...} ' r _ }  . .} } } r e } } } [ [ ] _ ' | ....| [ _ r } ..} ..| } [ ' { } ] -.-.} ] r r [ [ O...] [ _ V }  ... .} ' e r _ _ ",
":.;.;...V ..4.2.-.@.:.-._ } :.-.-.@.>.,.O.O.>.-.:.,.:...] -.-.O.,.2.1.@._ ..<.:.,.-.-.-.' ] ;.>.,.;.:.,...} >.<.1.:.-.| _  .:...",
"[ [ [ _ e ..-.[ ' ] ..| V [ @.} [ { } O.[ [ | { } O...[ _ O... .-.O.} [ w ]  .[ ' } ..[ _ ' | }  .} {  .] ] -.| | | } ' 0 | -.] ",
"[ ] ] ] r } | ] [ [ [ ] r [ -.|  .O.O. .r ' @.}  . ...[ e O.-.O.| [ [ [ r ] } [ [ [ [ ] _ ] ..} [ [ [ } ] ] -.O.| | } ] r -.-.[ ",
"} ] V r 6 V _ V V r V V 0 _ [ ] [ | } ' 0 _ } _ _ ' _ e 0 [ [ V w w V _ w ' ] _ ' ' ] _ 7 V } ] _ V _ G r _ | } } ] ' _ _ | ] r ",
"_ _ r _ [ [ ' e w e V r V ] ] _ ' ' r V _ } | e r [ ' _ _ [ V w w V _ _ e ] ] V ' ' _ r w _ ] r w _ ' _ V ' [ G e _ ] ] ] } ' w ",
"| O.:.<.>.;...V  .-.-.;.:.2.;._ } -.-.;.<.2.:.' | -.;.:.;.-.} _ O.<.:.O...-.} ] ..,.>.;.;.:.:.[ } 2.2.>.>.2.1...[ :.>.,.<.,.| r ",
"} } O...[ ' _ w O.-.O.;.;.-.O.' [ ....O.-.-.| _ | O.| O.|  .| } -...| } } [ [ ] O.:.} } ..| } ' | ,.-.O.;.:.O.[ [ ;.O.O...| ] 0 ",
"O.} [ ] ' } ' r -.;.O. .} } ..' ] .. .O...| } _ } O...| [ | | _ | O. .} [ } } r ] | } |  .| [ _ } -...| O...| ' [ ;.| ] [ [ _ 0 ",
"O.[ ] ] [ } V 0 } } ' _ _ ' ' w _ | [ [ ] ] ' r ' } ] ' [ [ ' w {  .] ] | } ' V ] | } } [ ] ] e _ } [ [ [ ] ' _ _ ..} } [ ] V 7 ",
"w 3 3 6 6 6 3 3 w 0 0 0 w 0 3 1 6 7 0 3 3 0 w 6 0 0 3 6 0 0 6 3 0 3 3 0 w 6 0 0 0 0 3 6 0 0 0 3 0 w 7 6 6 w 0 3 0 w w e 0 0 0 3 "
};
