/* XPM */
static char *_63f16185227407eef6c751a940978f4B384hBK8FeQ93UAE[] = {
/* columns rows colors chars-per-pixel */
"64 64 137 2 ",
"   c #020202",
".  c #080807",
"X  c #0B0B0B",
"o  c #0F0F10",
"O  c #131313",
"+  c #171718",
"@  c #171818",
"#  c #1B1B1B",
"$  c #1F1F20",
"%  c #201F21",
"&  c #232324",
"*  c #262729",
"=  c #27282A",
"-  c #2B2B2D",
";  c #2E2E31",
":  c #2F3032",
">  c #333335",
",  c #363639",
"<  c #37383A",
"1  c #3A3B3D",
"2  c #3E3E41",
"3  c #3F4043",
"4  c #424345",
"5  c #454649",
"6  c #47484B",
"7  c #4A4A4D",
"8  c #4D4E51",
"9  c #4F5054",
"0  c #525255",
"q  c #55565A",
"w  c #57585C",
"e  c #5A5A5D",
"r  c #5D5E61",
"t  c #5F6064",
"y  c #616266",
"u  c #636466",
"i  c #636467",
"p  c #646466",
"a  c #626265",
"s  c #626368",
"d  c #636468",
"f  c #636569",
"g  c #666568",
"h  c #666668",
"j  c #676769",
"k  c #65666A",
"l  c #67676A",
"z  c #66676B",
"x  c #656569",
"c  c #67686A",
"v  c #67686C",
"b  c #686869",
"n  c #68696B",
"m  c #68686C",
"M  c #6A6A6C",
"N  c #68696E",
"B  c #696A6E",
"V  c #6A6A6E",
"C  c #6B6B6E",
"Z  c #6A6B6F",
"A  c #6B6C6E",
"S  c #6C6C6E",
"D  c #6C6C6F",
"F  c #6D6D6F",
"G  c #6A6A6D",
"H  c #6B6C70",
"J  c #6C6D70",
"K  c #6D6D70",
"L  c #6C6D71",
"P  c #6D6E71",
"I  c #6E6F72",
"U  c #6D6E71",
"Y  c #6F7074",
"T  c #6F7073",
"R  c #707175",
"E  c #717274",
"W  c #727274",
"Q  c #727275",
"!  c #727375",
"~  c #737376",
"^  c #727275",
"/  c #727378",
"(  c #737478",
")  c #747579",
"_  c #757579",
"`  c #757678",
"'  c #767678",
"]  c #76777A",
"[  c #77777A",
"{  c #757679",
"}  c #77787B",
"|  c #78787A",
" . c #79797B",
".. c #7B7C7E",
"X. c #7C7C7E",
"o. c #7A7A7D",
"O. c #7D7D80",
"+. c #7F7F83",
"@. c #7D7E81",
"#. c #7F8082",
"$. c #7F8083",
"%. c #808082",
"&. c #818184",
"*. c #818285",
"=. c #838486",
"-. c #848487",
";. c #848587",
":. c #858587",
">. c #828385",
",. c #848588",
"<. c #858688",
"1. c #868789",
"2. c #858689",
"3. c #87888C",
"4. c #88898B",
"5. c #8A8B8D",
"6. c #8A8B8E",
"7. c #8B8B8E",
"8. c #8B8C8E",
"9. c #8D8D8F",
"0. c #8A8B8C",
"q. c #8E8E91",
"w. c #8E8F92",
"e. c #8C8D90",
"r. c #8F9093",
"t. c #929395",
"y. c #939496",
"u. c #939393",
"i. c #979699",
"p. c #949598",
"a. c #9B9B9C",
"s. c #A4A4A4",
"d. c #ABABAB",
"f. c #B3B3B3",
"g. c #BABABA",
"h. c #C6C6C6",
"j. c gray81",
/* pixels */
"-.X.J 8 M +.n F *.' q.' 8 %.' -.! *.1.' 0 -.y.-.+.F ! 6 w 6.! X.*.F F w r p.6.-.q.#.A y 6 | | =.8.X.M ' y 8.6...| 1.*.M x t.4.*.",
"( w w w u ( r y M r t , 5 Y r w w d y 7 1 J u w r y s > 0 J 0 r r H M 2 x +.r J ! r d 8 0 1.M x q w M 0 8 ! r r r y / 0 e +.r d ",
"r 9 8 > 6 w w w 0 x 0 < 4 y q 0 r 8 0 2 4 M 0 8 8 d 4 > 7 M w 5 8 r 7 6 0 y y 5 5 4 , , 5 w 7 w w 8 w 5 2 r 8 9 0 y r * 6 w w 7 ",
"7 7 w ; 5 w 8 7 y y 0 2 3 H y w 9 7 w 2 5 y w 7 r w 7 < 7 y e y w 5 6 < 5 y w 7 w 0 w 7 7 w 9 t w w r 6 3 x w 8 q r 8 ; r x 8 0 ",
"= & ; - > > * > , > - * < 5 > = = ; , - : , = * - & & ; > < 2 > < < > # 5 4 # * - * > 5 > , ; - - - > > = 4 > , < ; = * 1 2 ; : ",
"7 0 5 y ' e w 1 0 y r x ! x r , 5 y 7 r r c r 4 6 J x n x u 0 5 e y 0 w w w y 6 4 r y 6 e y r 5 4 M M r y M p 7 < w w w x r 7 > ",
"o.! u } y c o.8 M ' ! J J ' M 4 x +.( ' y x *.8 u 6.! M x x q 2 w t M r x +.*.q F 1.*.r T J J w x 1.J M +.*.! y y 6.! ' $.*.y 2 ",
"r 0 w w 6 7 7 > w q 8 8 w w 7 4 y x 9 7 3 r y > 0 r 9 0 7 x w < 7 5 4 w y y t 6 8 r , 5 0 w w < w x 4 8 w w r 7 5 ! y w y 0 7 ; ",
"y 5 3 5 6 w 5 = 7 7 9 w M t J 0 w w 9 0 w 0 4 2 r M v w 7 4 3 - > > < w w 9 8 - 6 w 9 r ! x 0 > 7 y t t d v u 5 5 M y 8 0 0 w ; ",
"0 > 2 , : 1 < = > < > , 4 , 2 - 7 5 1 5 5 2 < - > 4 1 & @ X .   . X X + & ; < = 1 2 > 5 < > , = > 4 < 2 5 < , ; 4 w , - < 4 2 ; ",
"y 7 7 > - > 1 > 7 8 2 5 > 3 < , 5 1 < 2 > , 4 < 1 * X . .                 o - > 7 5 1 < = > 2 1 8 7 , 8 5 > 2 5 7 6 > 2 < 5 5 < ",
"o.! w x 3 0 6.o.' ' +.8.x 5 ! $.! x J ' r 7 =.1.0 & O                       & 7 +.' o.1.w w 8.+.1.' n ' y 7 J +.1.} J J 2 w F y ",
"w 9 w w - 7 y r t r 8 y < , M 0 r w w w 8 w *.4 O .                           & 7 8 9 9 5 7 x 7 r r x ! 7 4 M d w r r 8 > 4 w 5 ",
"r r Y w > 0 J w q 8 r w > 5 d w w y w w 7 8 w $ .             .                 - 7 8 q 5 6 w 8 0 y M w 4 4 e 8 w y 0 9 > 6 r 0 ",
"2 7 4 4 < 8 x 2 4 8 2 , > 7 x w 8 5 4 w 2 , , X       . . .   . .   . . .       . < 7 8 4 > 5 4 8 7 < 2 3 , 5 < 8 < < 7 , 7 0 4 ",
"> = - > * 7 > & - - > & - 4 5 > > = ; - - < +       X @ @ = - * = < < > O O .     # < - * > 4 4 > > > < - > 0 > > < , < 1 7 6 * ",
"J | *.M y E q < x -.M J ! ! y , 7 o.! p p y #     . O + . > - & - > > > + + X     = ! x J ' 6.r 7 +.! o.E o.| w 6 4.! ! -.q.r - ",
"c y J y M 0 6 6 n ! w w w x y ; 7 y x t r 5 +     . + + X = * & * * = = X + O     @ T ! ! y y < 7 ' v t y x 0 2 2 J 0 t x J 7 > ",
"y 0 r 0 0 9 5 > 0 w w r 7 7 7 ; 0 y 9 6 8 5 @   . X + O X & # O + * * @ X @ o .   @ r 7 5 0 9 > 6 r w 9 8 0 y 7 4 r w 0 0 4 , - ",
"H q 7 5 3 4 9 ; 0 v 8 4 0 r 7 > e y 9 8 w w &     . .   . O . > - . X . . X .     O 2 8 w w w ; 2 y w 8 0 t w 6 5 M 8 5 w 0 4 > ",
"7 ; - : > * - * 4 > - - > > > & < - - 4 4 - X   O = - - * = 7 g.d.4 . O + * & O O + > - ; > = & < 4 ; 1 3 - * * - 4 ; * 1 > = - ",
"M 0 r 0 ; 7 x 0 x w 7 w 4 5 w 0 p M M w 5 > $   & < > > * q d.>.4.s.1 . O # & O O # w w 5 6 n w e M F M 6 < n M p e 0 w 4 7 e w ",
"J ! J v , u 1.e y J J +.0 y *.x ! J J M 8 5 >   O & & & O p u.X.a.8.` . . X O . . $ A F 8 0 +.! A +.' M 8 w p.J } ( J M 1 J ! w ",
"8 w y r ; c Y 8 7 5 8 7 > 5 M 0 r 9 8 w 3 4 =   o # & * # < 8.%.s.X.4 . . O X . . + 8 4 ; 6 x 8 7 q 0 w 8 8 M 7 0 w w q < p M 0 ",
"y w d 4 * w w 7 0 w d w ; 5 r 0 r y w M w 8 *     . . O   p g.%.1.-.y   . . . .   O 0 8 5 9 w w w 0 x y 7 5 J r t x d w < r t w ",
"> > 4 > - 8 1 2 5 7 8 3 , 7 5 2 < , < 1 < ; +   . O & * O -.h.8.-.-.| X . X O . . X 2 5 = > 2 1 5 0 0 2 ; 4 8 5 5 2 7 , = 5 4 2 ",
"5 2 < > 1 0 > ; 2 w 0 2 < 0 5 < > 2 5 4 > > O   X * 1 > & d.f.u.a.u.-.* . @ = @ . + 0 4 < 0 8 < 4 4 , 1 5 6 8 < > < 1 < 4 7 < ; ",
"1.1.+.M o.+.x , J %.y y n o.! 0 M a.6.J J 0 &   . @ = @ * g.s.u.f.a.4.;   O + X   $ F M F %.*.y e #.! X.o.M +.H w a.6.+.*.+.0 - ",
"u x w 7 w w 2 > M 8 q w 8 5 5 > 8 w 6 w 0 2 @   . + * X < j.s.u.p.4.0.5   X O X   + w w 0 w r 0 0 y r 0 0 q 9 5 7 Y q 9 t r < ; ",
"M r 7 7 8 6 0 7 e w w r 8 7 7 < 5 r w w w q #     . O   0 g.p.p.8.E E 5   . . .   + q 0 5 0 r > 1 y 7 7 s w y 0 5 y w y w 8 5 - ",
"8 7 w 8 5 8 7 < 5 8 e 0 9 q 0 - 8 y 8 8 0 4 @     X O . . 4 d.d.8.p + .   X . .   O 2 > 4 0 5 > 4 w e v w 4 7 1 5 x y 0 5 7 4 > ",
"0 > > * > - , - < , > * : > - - 2 < - , > & O   # > > > * e f.s.u.` # . O = = + + + > > > > * - < < > > * = > > > 1 ; > - > - ; ",
"%.X.M 1 0 ' y r y n M 5 5 #.M F o.| T y 5 w *   # - - = # E d.a.p.4.- . X @ # X O # x w 7 A e J *.' M w < w ` M } *.J 5 7 o.! ' ",
"x y M 1 y 6.J w w v ! 8 w 8.x ( o.J o.8 8 y %   O & # # + -.d.s.a.8.4   . O O . . @ e 0 5 J ! ' ! J d r w M J x ( o.! 4 r e.J x ",
"0 w q = 5 y 8 0 0 t 0 7 0 w 4 0 7 4 0 4 w M $   . + @ @ @ a.s.d.d.8.w   . X X . . + w , > y 0 7 8 4 7 < 4 J 0 0 w r y > 7 M 0 7 ",
"7 w w ; 8 r 7 w r 6 4 6 5 r w 0 8 w w 0 0 w &     . . . * d.p.d.d.4.E .   .   .   + 7 ; < J 0 8 0 w y 0 4 y 0 M w w 0 > w M 8 0 ",
"4 5 4 & 4 5 - 2 4 - > # > 5 > 5 5 8 6 > 4 4 O   . @ * # 0 g.p.d.d.4.4.& . O @ O . O > * > 0 4 2 , , < < < 2 4 5 1 > 7 > 5 7 > 2 ",
"6 7 < 4 0 8 5 > > 6 2 4 w w 4 < 4 7 7 4 0 2 O   X & = . E f.u.f.f.-.u.2 . + @ O   O 5 4 w w 6 1 : 5 < 5 5 0 5 > = 5 5 5 y 0 < - ",
"! ' y ! ' *.o.< n ..+.+.t.6.! 7 w X.x M J w &     O O . -.a.4.s.a.X.%.q   X . .   @ ! o.( x r 8 e 4.3.O.J o.+.r w e.} o.*.( y 1 ",
"! 8 5 3 4 8 4 , w w 8 w w 5 9 , r } t w w 4 O     .   * s.%.E X.' n I E X         X 5 r w 7 w < 0 y r w 0 q r w 7 M q w 8 0 w > ",
"x x w w r q 6 > w d y 0 8 0 t > w x q r x w & > > > > 5 E e 0 e e q w n > # * - > > 7 7 7 7 8 5 6 } 0 0 w w y < 5 *.t w w w 0 - ",
"w 6 , 8 7 6 8 > 5 t 7 5 5 8 w < 0 8 5 4 2 2 2 w w w w q 0 0 0 0 0 0 0 0 0 0 0 0 w 7 5 5 7 5 4 ; 3 w 5 8 6 0 7 < 5 0 2 6 5 w 5 - ",
"5 - 8 2 - < < - 5 5 ; 1 - = > < 4 1 > - < > > > > < < 4 < > < < 4 1 < < > > 1 1 1 4 < - = = 2 4 4 4 , ; ; - > 5 2 4 4 4 - - ; > ",
"A J +.! 7 7 ! F #.y n F 9 q *.! ! E ' 4.r 4 E ' p J +.F < e ' ' | J | ` 7 q | p ! o.' x x w *.M E 1.*.3.o.7 y T ' *.! r 4 w J +.",
"Y J w 8 - 0 ! 7 5 8 w 8 2 e J w y ! d x 7 7 +.H w 0 r 0 , w d w 0 y e w 4 r ( 8 8 t 8 w 7 8 o.0 0 8 w I w 4 ' M ' J w r w p w w ",
"q 0 0 8 - w y 3 4 8 8 v 1 1 0 q w 9 8 8 0 w H 0 0 0 w w > w v w 0 5 7 0 4 e v 0 8 w 8 7 > 2 A 5 8 8 r 7 , < ' ! w w 8 w 2 5 5 5 ",
"7 5 5 8 5 6 7 7 8 0 w w : 4 r r 4 2 q x 4 < 7 8 w w x 5 < w x w 5 7 w 0 < 4 r 8 8 7 w r 7 < w 5 5 w 7 4 7 2 0 4 3 5 4 5 ; 1 8 4 ",
"- > 5 4 - > < > < , * < = < 1 * = 4 < > > * 1 - > > - - & 4 4 - = * ; < > > > ; 1 > - ; > < 5 * > - : < < - < ; - ; > > - > < & ",
"c p x w 8 J x 4 8 M M 0 w E u > 6 A r e 0 p | 8 8 ! y r M o.e , y J F x J | x 1 w n p M e ' J 5 4 y J J w n %.7 7 ! M y x ! r - ",
"x c w y ( ! r > r o.w w Y o.c 4 0 J ! J y M M 8 w o.H M x Y r 4 o.6.*.$.E M ! 7 X.! y J ! H y 2 e } r w x ' t 2 e ! w M +.+.t ; ",
"r w w 9 t x 2 * r 8 5 9 9 w 8 > 0 r 8 8 q 7 7 < 5 w 0 w r 0 5 , x x r w 5 7 d 6 0 0 5 5 w 0 6 > 6 r w 9 w w 8 1 4 M 5 r H M 7 = ",
"y w w 9 0 0 6 2 y w 8 w w 9 7 > w H w r r y w > 0 d w r r x q < y w w 0 7 x y > 7 w 8 r w 9 8 < 7 ! w r w 0 8 3 8 H 8 0 w w 2 * ",
"7 < - ; 4 , 2 5 7 < , , 4 - > 4 7 , ; ; , < , 4 6 9 < > 1 4 2 , 8 : - > 5 4 ; * 5 5 1 8 2 < 5 : 1 7 ; ; - , > ; 4 8 4 > > > - & ",
"F y 9 6 < 4 8 w w 0 8 w > > 0 0 0 7 7 7 4 4 w e r 0 7 5 > 0 p 0 w 0 0 9 6 8 w 5 n M 0 6 > > 0 6 p w 5 8 5 < w w e w w 6 > , 4 5 ",
"! M ! M > y r.-.M u ' J 1 w o.y E y o.o.r p o.y ( } o.r 7 J y e ' *.1.M 2 p +.' ..y x I 6 7 ! ' } n o.O.y 0 ' o.o.( x y 1 y o.t ",
"7 7 7 2 : u r 4 < 5 w w , 7 y 8 4 8 7 r 8 7 0 7 8 r w 7 < y w 0 y w 5 0 * 6 w 5 < 9 y 5 1 5 w 8 w 7 5 w 3 5 x 8 0 0 0 4 * w s 3 ",
"9 7 8 0 1 w r 6 w 9 8 0 > 0 H w r x x t > 4 J q t w y w - M M x r 8 0 0 < 0 w 8 9 0 7 0 4 0 y 0 8 9 0 w 8 5 M y q w w 8 > J J 9 ",
"w 0 < < & 1 3 2 2 < 1 4 = 1 8 5 8 w w 5 * 2 w 2 4 4 3 > * 8 0 < ; : 1 4 > 5 8 4 5 6 8 4 * < w 8 5 < 2 2 , 4 w 0 r 8 5 2 1 e 5 , ",
"1 1 - < 0 8 4 < - ; 1 > < 7 5 1 5 4 = > 1 8 w ; > 0 2 < 4 0 > > > > < 4 - 7 8 > 6 1 > > = 1 5 > = 1 4 1 > 4 7 , - > 5 4 4 8 4 > ",
"e n ! +.' E v , p J M ! J 1.' 1 w M J E +.=.! 4 e F J ' J J w < n *.o.p y F w 6 w o.+.! ! ' o.7 0 1.1.` ' *.*.r 8 o.( o.+.o.t < ",
"0 7 y w 5 2 4 = y d w x M r r 4 7 r w w y r w 2 w r 8 r 0 w w 0 M q 8 0 0 5 7 7 y ! 4 8 w 8 9 4 w ! r w t J r 7 5 M w r w 0 7 - ",
"y q 7 7 4 w 5 < J M t w 9 8 y 5 7 r w d w w w 2 w t r r 5 w w < w x w 0 6 0 r - 8 0 0 w w r 8 2 8 M w w y w w 5 7 J w 4 8 8 4 > ",
"x 0 8 8 0 t 4 = w w 5 4 4 6 9 - 6 y 9 0 8 8 8 > 7 w 7 5 q 0 7 - w d 7 8 y w 7 2 8 r e r 0 8 0 > 5 r 8 9 w 7 8 4 4 v w w w 9 3 - ",
"> * * - - = = = > ; ; ; > > * * - = ; * = - > - - - = - ; ; - - > & * ; > * > - > ; & - ; - ; - > > - - = > ; * - > ; > - > > = "
};
