/* XPM */
static char *tile0041682513878[] = {
/* columns rows colors chars-per-pixel */
"80 80 19 1 ",
"  c None",
". c #0C3F0F",
"X c #190F20",
"o c #6D1823",
"O c #0F5314",
"+ c #116116",
"@ c #3A4041",
"# c #5B5168",
"$ c #C2360F",
"% c #D64F5D",
"& c #67940F",
"* c #63AD45",
"= c #7EC262",
"- c #85BF13",
"; c #D48A19",
": c #CEB7B9",
"> c #C9B8BD",
", c #EFECEC",
"< c #F7F6F7",
/* pixels */
"                                                                                ",
"                                                                                ",
"                                                                                ",
"                                                                                ",
"                                                                                ",
"                                                                                ",
"                                                                                ",
"                                                                                ",
"                                                                                ",
"                                                                                ",
"                                                                                ",
"                                                                                ",
"                                  oooooooo                                      ",
"                                 oooooooooo                                     ",
"                                ooooooXXXXoo                                    ",
"                               oooooooooXXXoo                                   ",
"                              oooooooooooXXXoo                                  ",
"                              oXoooooXooooXooo                                  ",
"                              oXoooooXXooXX @o                                  ",
"                              oXXoooXXXoXXX @o                                  ",
"                              oXXXXXXXXooXXX@o                                  ",
"                              oXXXXXXXXoooXX@o                                  ",
"                             ooXXXXXXXXoooXXX                                   ",
"                             oXX,,X,,XXXoooXX                                   ",
"                             oXXXXXXXXXXXooXXX                                  ",
"                             oXXXXXXXXXXXooXXX                                  ",
"                             oXXXXXXXXXXXooXXX                                  ",
"                             ooXXXXXXXXXoooXXXX                                 ",
"                            oooXXXXXXXXoooXXXXX                                 ",
"                   $        ooooXXXXXXooooXXooXX                                ",
"                            XooooXXXXooooXXXoooo                                ",
"                   $       %XXoooXXXooooXXXoooooo                               ",
"                   ;      %ooXXooXoXooooXXoooooooo                              ",
"                   <     XooooXXoXooXooXXooXoooooo                              ",
"                       %XXXoooooXXooXoXXoooXXoooooo                             ",
"                   @@@%oooXXoooooXooXooooooXXoooooo                             ",
"                  :,:@oooooXooooooXoXoooooooXXXXXoo                             ",
"                  :,,:oooooXooooooooXooooooXXXXooXoo                            ",
"                  :,,,##oooXooooooooooooooXXooXXoooo                            ",
"                   >>#XXoooXoXooooooooooXXXooooXoooo                            ",
"                    @oXXoooooXoooooooooXoooooooXoooo                            ",
"                     oXXooooooXoXoooooXooooooooooooX                            ",
"                     oXXooXooXXoXoooo>>>>#XoooooooXX                            ",
"                     oXXooXooXXoXooo,,,,>#XooooooXXX                            ",
"                     oXXooXooXoXXoo.>,,,.*XoooooXXXX                            ",
"                     oXoooXooXoXooo.o:>:X*XooooXXXX                             ",
"                     oXooXXoooooXXX.ooXXX*XooooXXXX                             ",
"                     oXooXXXooooXooo.oXX*XXoooXXXXX                             ",
"                      XooXXXooXoXoXoo..*XXXooXXXXX                              ",
"                      oXoXXXXXXoXoXooo.XXXooXXXXXX                              ",
"                      oXoXXXXXooooXooO+=XXooXXXXXX                              ",
"                      oXooXXooooooXoO+++=XoXXXXXX                               ",
"                      o @o@XXooooXooO-&+=XXXXXXXX                               ",
"                      o@ o@XXXoooXooO-&+=XXXXXXXX                               ",
"                      oo@o  XXooXXooO-&+=XXXXXXXX                               ",
"                    o o o   XXooXXXoO+++=XXX@XXXX                               ",
"                     o       XooXoXoXO+=XXXX@@XXX                               ",
"                             XooXXXoXoXXXXXX@@@XX                               ",
"                             XXoXoXoXoXXXXXX@@@XX                               ",
"                             XXoXoXoXoXXXX@X@@@XX                               ",
"                              XoooXoXoXX@X X@@@XX                               ",
"                               XooXo@oXX    @@@X                                ",
"                               XXoXo@oXX       X                                ",
"                                XoXooo@X      XX                                ",
"                                XXXXoo@X      X                                 ",
"                                 XX  oo                                         ",
"                                      o                                         ",
"                                     o                                          ",
"                                                                                ",
"                                                                                ",
"                                                                                ",
"                                                                                ",
"                                                                                ",
"                                                                                ",
"                                                                                ",
"                                                                                ",
"                                                                                ",
"                                                                                ",
"                                                                                ",
"                                                                                "
};
