/* XPM */
static char *tile0001682513878[] = {
/* columns rows colors chars-per-pixel */
"80 80 15 1 ",
"  c None",
". c #0C3F0F",
"X c #190F20",
"o c #6D1823",
"O c #0F5314",
"+ c #116116",
"@ c #3A4041",
"# c #5B5168",
"$ c #67940F",
"% c #63AD45",
"& c #7EC262",
"* c #85BF13",
"= c #CEB7B9",
"- c #C9B8BD",
"; c #EFECEC",
/* pixels */
"                                                                                ",
"                                                                                ",
"                                                                                ",
"                                                                                ",
"                                                                                ",
"                                                                                ",
"                                                                                ",
"                                                                                ",
"                                                                                ",
"                                                                                ",
"                                                                                ",
"                                                                                ",
"                                                                                ",
"                                  oooooooo                                      ",
"                                 oooooooooo                                     ",
"                                ooooooXXXXoo                                    ",
"                               oooooooooXXXoo                                   ",
"                              oooooooooooXXXo                                   ",
"                              oXoooooXooooXoo                                   ",
"                              oXoooooXXooXX@o                                   ",
"                              oXXoooXXXoXXX@o                                   ",
"                              oXXXXXXXXooXXXo                                   ",
"                              oXXXXXXXXoooXXo                                   ",
"                             ooXXXXXXXXoooXXX                                   ",
"                             oXX;;X;;XXXoooXX                                   ",
"                             oXXXXXXXXXXXooXXX                                  ",
"                             oXXXXXXXXXXXooXXX                                  ",
"                             oXXXXXXXXXXXooXXX                                  ",
"                            oooXXXXXXXXXoooXXXX                                 ",
"                            oooXXXXXXXXoooXXXXX                                 ",
"                            ooooXXXXXXooooXXXooo                                ",
"                            XooooXXXXooooXXXoooo                                ",
"                          ooXXoooXXXooooXXXoooooo                               ",
"                          oooXXooXoXooooXXoooooooo                              ",
"                         oooooXXoXooXooXXooXoooooo                              ",
"                         oooooooXXooXoXXoooXooooooo                             ",
"                        ooooooooXXooXooooooXXoooooo                             ",
"                       ooooXoooXooooXooooooXXXXXXoo                             ",
"                       ooooXooooooooXoooooXXXXXooXoo                            ",
"                      oooooXoXoooooooooooXXXooXXoooo                            ",
"                      oooooXoXooooooooooXXXooooXoooo                            ",
"                      oooooXoXXooooooooXoooooooXoooo                            ",
"                      ooooooooXoXoooooXooooooooooooX                            ",
"                      ooooXXXXXoXoooo----#XoooooooXX                            ",
"                       ooXoooXXoXooo;;;;-#XooooooXXX                            ",
"                       oXoXXXXoXXoo.-;;;.%XoooooXXXX                            ",
"                       ooXXooooXooo.-=-=X%XooooXXXX                             ",
"                       oXXoooXoXoXX.ooXXX%XooooXXXX                             ",
"                        XooooXXXoXXo.oXX%XXoooXXXXX                             ",
"                       XoooooXXXoXXoo..%XXXooXXXXX                              ",
"                       XooooooXXoXXooo.XXXooXXXXXX                              ",
"                        XoooXoXXXoXooO+&XXooXXXXXX                              ",
"                         XoXXooXXoXoO+++&XoXXXXXX                               ",
"                          ooXooXXoXoO*$+&XXXXXXXX                               ",
"                          ooXooXXXXoO*$+&XXXXXXXX                               ",
"                          ooXooXoXXoO*$+&XXXXXXXX                               ",
"                           oXooXXXXoO+++&XXX@XXXX                               ",
"                            XXoXoXXoXO+&XXX@@XXX                                ",
"                            XXoXoXXoXoXXXXX@XXXX                                ",
"                             XoooXXoXoXXXXX@@XX                                 ",
"                              XooXXoXoXXXXX@@XX                                 ",
"                              XXoXXoXoXX@X@@XX                                  ",
"                               XoXXo@oXXX@@XX                                   ",
"                               XXXXo@oXX@@@X                                    ",
"                                XXXooo@X@@XX                                    ",
"                                  XXoo@X                                        ",
"                                     oo                                         ",
"                                      o                                         ",
"                                     o                                          ",
"                                                                                ",
"                                                                                ",
"                                                                                ",
"                                                                                ",
"                                                                                ",
"                                                                                ",
"                                                                                ",
"                                                                                ",
"                                                                                ",
"                                                                                ",
"                                                                                "
};
