/* XPM */
static char *tile0021682513878[] = {
/* columns rows colors chars-per-pixel */
"80 80 15 1 ",
"  c None",
". c #0C3F0F",
"X c #190F20",
"o c #6D1823",
"O c #0F5314",
"+ c #116116",
"@ c #3A4041",
"# c #5B5168",
"$ c #67940F",
"% c #63AD45",
"& c #7EC262",
"* c #85BF13",
"= c #CEB7B9",
"- c #C9B8BD",
"; c #EFECEC",
/* pixels */
"                                                                                ",
"                                                                                ",
"                                                                                ",
"                                                                                ",
"                                                                                ",
"                                                                                ",
"                                                                                ",
"                                                                                ",
"                                                                                ",
"                                                                                ",
"                                                                                ",
"                                 oooooooo                                       ",
"                                oooooooooo                                      ",
"                               ooooooXXXXoo                                     ",
"                              oooooooooXXXoo                                    ",
"                             oooooooooooXXXoo                                   ",
"                             oXoooooXooooX  o                                   ",
"                             oXoooooXXooXX   o                                  ",
"                             oXXoooXXXoXXX    o                                 ",
"                             oXXXXXXXXooXXX                                     ",
"                             oXXXXXXXXoooXX                                     ",
"                            ooXXXXXXXXoooXXX                                    ",
"                            oXX;;X;;XXXoooXX                                    ",
"                            oXXXXXXXXXXXooXXX                                   ",
"                            oXXXXXXXXXXXooXXX                                   ",
"                           ooXXXXXXXXXXXooXXX                                   ",
"                           XooXXXXXXXXXoooXXXX                                  ",
"                         ooXooXXXXXXXXoooXXXXX                                  ",
"                         ooXoooXXXXXXooooXXXoo                                  ",
"                        oooXXoooXXXXooooXXXoooo                                 ",
"                        ooooXXooXXXooooXXXooooo                                 ",
"                       ooooooXXoXoXooooXXooooooo                                ",
"                      XoooooooXoXooXooXXooXooooo                                ",
"                     XXooooooooXXXoXoXXoooXoooooo                               ",
"                     XXXXoooooooooXoXoooooXXoooooo                              ",
"                   XXXoooXoooooooooXoXooooXXXXXooo                              ",
"                   XoooooooooooooooooooooXXXXooXoo                              ",
"                   XooooooooXoooooooooooXXXoXXoXoo                              ",
"                   oooXXXXooXooooooooooXXXoooXooooo                             ",
"                   ooooooXooXXooooooooXoooooooXoooo                             ",
"                   oX####oXooXoooooooXooooooooooooX                             ",
"                   oX----XoooXooooooXXXXXXoooooooXX                             ",
"                   oX;;;XXXooXoXXooo----#XooooooXXX                             ",
"                   oXXXXXXXoooXoooo;;;;-#XoooooXXXX                             ",
"                   oXXXXXXoooXXooo.-;;;.%XooooXXXX                              ",
"                   ooXXXXoooXXXoXX.-=-=X%XooooXXXX                              ",
"                    oXXXoooXXXXoXX.ooXXX%XoooXXXXX                              ",
"                    oXXoXXXXooXoXXo.oXX%XXooXXXXXX                              ",
"                    oXXoXooXooXoXXoo..%XXooXXXXXXX                              ",
"                    oXXoXooXoXXXoXooo.XXXooXXXXXX                               ",
"                     oX@XXoXooXooXooO+&XXoXXXXXXX                               ",
"                     oX@@XooooXooXoO+++&XXXXXXXX                                ",
"                     oX@@XoXooXoXXoO*$+&XXXXXXXX                                ",
"                     oX@@XoXooXoXXoO*$+&XXXXXXXX                                ",
"                      oo@XoXooXoXXoO*$+&XXXXXXXX                                ",
"                        XXXXXoXoXXoO+++&XXX@XXXX                                ",
"                        X XXXoXoXXoXO+&XXXX@@XXX                                ",
"                          X@XoooXXoXoXXXXXXX@ XXX                               ",
"                          X XXooXXoXoXXXX   X XXXX                              ",
"                            XXXoXXoXoXX XX      XXX                             ",
"                            X XoXXo@oXX   X       XX                            ",
"                            X XXXXo@oXX            XX                           ",
"                               XXXooo X                                         ",
"                                 XXoo X                                         ",
"                                    oo                                          ",
"                                     o                                          ",
"                                    o                                           ",
"                                                                                ",
"                                                                                ",
"                                                                                ",
"                                                                                ",
"                                                                                ",
"                                                                                ",
"                                                                                ",
"                                                                                ",
"                                                                                ",
"                                                                                ",
"                                                                                ",
"                                                                                ",
"                                                                                "
};
