/* XPM */
static char *tile0061682513878[] = {
/* columns rows colors chars-per-pixel */
"80 80 19 1 ",
"  c None",
". c #0C3F0F",
"X c #190F20",
"o c #6D1823",
"O c #0F5314",
"+ c #116116",
"@ c #3A4041",
"# c #5B5168",
"$ c #C2360F",
"% c #D64F5D",
"& c #67940F",
"* c #63AD45",
"= c #7EC262",
"- c #85BF13",
"; c #D48A19",
": c #CEB7B9",
"> c #C9B8BD",
", c #EFECEC",
"< c #F8F8F8",
/* pixels */
"                                                                                ",
"                                                                                ",
"                                                                                ",
"                                                                                ",
"                                                                                ",
"                                                                                ",
"                                                                                ",
"                                                                                ",
"                                                                                ",
"                                                                                ",
"                                                                                ",
"                                                                                ",
"                                  oooooooo                                      ",
"                                 oooooooooo                                     ",
"                                %oooooXXXXoo                                    ",
"                               %ooooooooXXXoo                                   ",
"                              %ooooooooooXXXoo                                  ",
"                              %XoooooXooooXooo                                  ",
"                              %XoooooXXooXX  o                                  ",
"                              %XXoooXXXoXXX  o                                  ",
"                 $            %XXXXXXXXooXXX@o                                  ",
"                              %XXXXXXXXoooXX@o                                  ",
"                 ;           %%XXXXXXXXoooXXX                                   ",
"                             %XX,,X,,XXXoooXX                                   ",
"                             %XXXXXXXXXXXooXXX                                  ",
"                   $         %XXXXXXXXXXXooXXX                                  ",
"                   ;         %XXXXXXXXXXXooXXX                                  ",
"                  $         %%oXXXXXXXXXooXXXXX                                 ",
"                  ;$        %ooXXXXXXXXoooXXooX                                 ",
"                  $;$       %oooXXXXXXooooXXoooo                                ",
"                 $$;;$    %XXooooXXXXooooXXoooooo                               ",
"                 $;<;$   %%oXXoooXXXooooXXoooooooo                              ",
"                 $;<<$  X%oooXXooXoXooooXXoXoooooo                              ",
"                  $$$@ XXXooooXXoXooXooXXooXXoooooo                             ",
"                   @@@XXXXXoooooXXooXoXXoooXXoooooo                             ",
"                  :,,X%oooXooooooXooXoooooooXXXXXoo                             ",
"                  :,,:oooooXoooooXooXooooooXXXXooXoo                            ",
"                  :,,,##oooXooooooooXoooooXXooXXoooo                            ",
"                   >>#XXoooXoXooooooooooXXXooooXoooo                            ",
"                    @oXXoooXoXoooooooooXoooooooXoooo                            ",
"                    @oXXooooooXoXoooooXooooooooooooX                            ",
"                     oXXoooooXXoXoooo>>>>#XoooooooXX                            ",
"                     oXXoooooXXoXooo,,,,>#XooooooXXX                            ",
"                     oXXooXooXoXXoo.>,,,.*XoooooXXXX                            ",
"                     oXoooXooXoXooo.o:>:X*XooooXXXX                             ",
"                     oXooXXoooooXXX.ooXXX*XooooXXXX                             ",
"                     oXooXXXooooXooo.oXX*XXoooXXXXX                             ",
"                      XooXXXooXoXoXoo..*XXXooXXXXX                              ",
"                      oXoXXXXXXoXoXooo.XXXooXXXXXX                              ",
"                      oXoXXXXXooooXooO+=XXooXXXXXX                              ",
"                      oXooXXooooooXoO+++=XoXXXXXX                               ",
"                      o  oXXXooooXooO-&+=XXXXXXXX                               ",
"                      o  oXXXXoooXooO-&+=XXXXXXXX                               ",
"                      o  o  XXooXXooO-&+=XXXXXXXX                               ",
"                      o  o  XXooXXXoO+++=XXX@XXXX                               ",
"                      o      XooXoXoXO+=XXXX@@XXX                               ",
"                      o      XooXXXoXoXXXXXX@@@XX                               ",
"                             XXoXoXoXoXXXXXX@@@XX                               ",
"                             XXoXoXoXoXXXX X@@@XX                               ",
"                              XoooXoXoXX X X  @XX                               ",
"                               XooXo@oXX       X                                ",
"                               XXoXo@oXX       X                                ",
"                                XoXooo@X      XX                                ",
"                                XXXooo X      X                                 ",
"                                 XX  oo                                         ",
"                                      o                                         ",
"                                     o                                          ",
"                                                                                ",
"                                                                                ",
"                                                                                ",
"                                                                                ",
"                                                                                ",
"                                                                                ",
"                                                                                ",
"                                                                                ",
"                                                                                ",
"                                                                                ",
"                                                                                ",
"                                                                                ",
"                                                                                "
};
