/* XPM */
static char *tile0071682513878[] = {
/* columns rows colors chars-per-pixel */
"80 80 19 1 ",
"  c None",
". c #0C3F0F",
"X c #190F20",
"o c #6D1823",
"O c #0F5314",
"+ c #116116",
"@ c #3A4041",
"# c #5B5168",
"$ c #C2360F",
"% c #D64F5D",
"& c #67940F",
"* c #63AD45",
"= c #7EC262",
"- c #85BF13",
"; c #D48A19",
": c #CEB7B9",
"> c #C9B8BD",
", c #EFECEC",
"< c #F8F8F8",
/* pixels */
"                                                                                ",
"                                                                                ",
"                                                                                ",
"                                                                                ",
"                                                                                ",
"                                                                                ",
"                                                                                ",
"                                                                                ",
"                                                                                ",
"                                                                                ",
"                                                                                ",
"                                                                                ",
"                                                                                ",
"                                  %%oooooo                                      ",
"                 $               %%oooooooo                                     ",
"                                %oooooXXXXoo                                    ",
"                 ;             %ooooooooXXXoo                                   ",
"                              %%%ooooooooXXXoo                                  ",
"                              %X%ooooXooooXooo                                  ",
"                              %X%ooooXXooXX  o                                  ",
"                              %XX%ooXXXoXXX  o                                  ",
"                              %XXXXXXXXooXXX o                                  ",
"                    $         %XXXXXXXXoooXX@o                                  ",
"                    ;        %%XXXXXXXXoooXXX                                   ",
"                             %XX,,X,,XXXoooXX                                   ",
"                             %XXXXXXXXXXXooXXX                                  ",
"                   $         %XXXXXXXXXXXooXXX                                  ",
"                  $          %XXXXXXXXXXXooXXX                                  ",
"                   $$       %%oXXXXXXXXXoooXXXX                                 ",
"                  $;;$      %ooXXXXXXXXoooXXXXX                                 ",
"                  ;;<$      %oooXXXXXXooooXXooXX                                ",
"                 $;<;$    %XX%oooXXXXooooXXXoooo                                ",
"                 $$<;$   %%%XXoooXXXooooXXXoooooo                               ",
"                  $$$@  X%%ooXXooXoXooooXXoooooooo                              ",
"                    @  XXX%oooXXoXooXooXXooXoooooo                              ",
"                   @@@XXXXXoooooXXooXoXXoooXXoooooo                             ",
"                  ,,:X%%ooXooooooXooXooooooXXoooooo                             ",
"                  :,,:%ooooXoooooXooXoooooooXXXXXoo                             ",
"                  :,,,##oooXooooooooXooooooXXXXooXoo                            ",
"                   >>#XXoooXoXooooooooooooXXooXXoooo                            ",
"                     oXXoooXoXooooooooooXXXooooXoooo                            ",
"                     oXXooooooXoXooooooXoooooooXoooo                            ",
"                     oXXoooooXXoXoooooXooooooooooooX                            ",
"                     oXXooXooXXoXoooo>>>>#XoooooooXX                            ",
"                     oXXooXooXoXXooo,,,,>#XooooooXXX                            ",
"                     oXoooXooXoXooo.>,,,.*XoooooXXXX                            ",
"                     oXooXXoooooXXX.o:>:X*XooooXXXX                             ",
"                     oXooXXXooooXoo.ooXXX*XooooXXXX                             ",
"                      XooXXXooXoXoXo.oXX*XXoooXXXXX                             ",
"                      oXoXXXXXXoXoXoo..*XXXooXXXXX                              ",
"                      oXoXXXXXooooXooo.XXXooXXXXXX                              ",
"                      oXooXXooooooXooO+=XXooXXXXXX                              ",
"                      o  oXXXooooXooO+++=XoXXXXXX                               ",
"                      o  o@XXXoooXooO-&+=XXXXXXXX                               ",
"                      o  o  XXooXXooO-&+=XXXXXXXX                               ",
"                      o  o  XXooXXXoO-&+=XXXXXXXX                               ",
"                      o  o   XooXoXoO+++=XXX@XXXX                               ",
"                      o      XooXXXoXO+=XXXX@@XXX                               ",
"                      o      XXoXoXoXoXXXXXX@@@XX                               ",
"                             XXoXoXoXoXXXXXX@@@XX                               ",
"                              XoooXoXoXXXX X @@XX                               ",
"                               XooXoXoXX X X   XX                               ",
"                               XXoXo@oXX       X                                ",
"                                XoXo@oXX       X                                ",
"                                XXXooo@X      XX                                ",
"                                 XXXoo@X      X                                 ",
"                                     oo                                         ",
"                                      o                                         ",
"                                     o                                          ",
"                                                                                ",
"                                                                                ",
"                                                                                ",
"                                                                                ",
"                                                                                ",
"                                                                                ",
"                                                                                ",
"                                                                                ",
"                                                                                ",
"                                                                                ",
"                                                                                "
};
