/* XPM */
static char *tile0031682513877[] = {
/* columns rows colors chars-per-pixel */
"80 80 17 1 ",
"  c None",
". c #0C3F0F",
"X c #190F20",
"o c #6D1823",
"O c #0F5314",
"+ c #116116",
"@ c #3A4041",
"# c #5B5168",
"$ c #D64F5D",
"% c #67940F",
"& c #63AD45",
"* c #7EC262",
"= c #85BF13",
"- c #CEB7B9",
"; c #C9B8BD",
": c #EFECEC",
"> c #F7F6F7",
/* pixels */
"                                                                                ",
"                                                                                ",
"                                                                                ",
"                                                                                ",
"                                                                                ",
"                                                                                ",
"                                                                                ",
"                                                                                ",
"                                                                                ",
"                                                                                ",
"                                                                                ",
"                                                                                ",
"                                  oooooooo                                      ",
"                                 oooooooooo                                     ",
"                                ooooooXXXXoo                                    ",
"                               oooooooooXXXoo                                   ",
"                              oooooooooooXXXoo                                  ",
"                              oXoooooXooooXooo                                  ",
"                              oXoooooXXooXX @o                                  ",
"                              oXXoooXXXoXXX @o                                  ",
"                              oXXXXXXXXooXXX@o                                  ",
"                              oXXXXXXXXoooXX@o                                  ",
"                             ooXXXXXXXXoooXXX                                   ",
"                             oXX::X::XXXoooXX                                   ",
"                             oXXXXXXXXXXXooXXX                                  ",
"                             oXXXXXXXXXXXooXXX                                  ",
"                             oXXXXXXXXXXXooXXX                                  ",
"                            oooXXXXXXXXXoooXXXX                                 ",
"                            oooXXXXXXXXoooXXXXX                                 ",
"                            ooooXXXXXXooooXXooXX                                ",
"                          oXXooooXXXXooooXXXoooo                                ",
"                    @    oooXXoooXXXooooXXXoooooo                               ",
"                   >@@@ X$oooXXooXoXooooXXoooooooo                              ",
"                  @@@@@XXXooooXXoXooXooXXooXoooooo                              ",
"                  @@@@XXXXXoooooXXXoXoXXoooXXoooooo                             ",
"                  -:-X$oooXooooooooXoXoooooXXoooooo                             ",
"                  -::-oooooXoooooooXooXoooooXXXXXoo                             ",
"                  -:::##oooXoooooooooooooooXXXXooXoo                            ",
"                   ;;#XXoooXoXooooooooooooXXooXXoooo                            ",
"                    @oXXoooXoXooooooooooXXXooooXoooo                            ",
"                    @oXXoooXoXXooooooooXoooooooXoooo                            ",
"                     oXXooooooXoXoooooXooooooooooooX                            ",
"                     oXXooXooXXoXoooo;;;;#XoooooooXX                            ",
"                     oXXooXooXXoXooo::::;#XooooooXXX                            ",
"                     oXXooXooXoXXoo.;:::.&XoooooXXXX                            ",
"                     oXXoXXooooXooo.o-;-X&XooooXXXX                             ",
"                     oXXoXXooXoXoXX.ooXXX&XooooXXXX                             ",
"                      XXoXXXXXoXoXXo.oXX&XXoooXXXXX                             ",
"                      oXoXXXXooooXXoo..&XXXooXXXXX                              ",
"                      oXoXXooooooXXooo.XXXooXXXXXX                              ",
"                      oXooXXooooXoXooO+*XXooXXXXXX                              ",
"                      o@@oXXXoooXoXoO+++*XoXXXXXX                               ",
"                      o oo@XXooXXoXoO=%+*XXXXXXXX                               ",
"                     oo    XXooXXXXoO=%+*XXXXXXXX                               ",
"                            XooXoXXoO=%+*XXXXXXXX                               ",
"                            XooXXXXoO+++*XXX@XXXX                               ",
"                            XXoXoXXoXO+*XXXX@@XXX                               ",
"                            XXoXoXXoXoXXXXXX@@@XX                               ",
"                             XoooXXoXoXXXXXX@@@XX                               ",
"                              XooXXoXoXXXX@X@@@XX                               ",
"                              XXoXXoXoXX@X@X@@@XX                               ",
"                               XoXXo@oXX@@@@@@@X                                ",
"                               XXXXo@oXX@@@@@@@X                                ",
"                                XXXooo@X@@    XX                                ",
"                                  XXoo@X      X                                 ",
"                                     oo                                         ",
"                                      o                                         ",
"                                     o                                          ",
"                                                                                ",
"                                                                                ",
"                                                                                ",
"                                                                                ",
"                                                                                ",
"                                                                                ",
"                                                                                ",
"                                                                                ",
"                                                                                ",
"                                                                                ",
"                                                                                ",
"                                                                                "
};
