/* XPM */
static char *tile0011682513878[] = {
/* columns rows colors chars-per-pixel */
"80 80 15 1 ",
"  c None",
". c #0C3F0F",
"X c #190F20",
"o c #6D1823",
"O c #0F5314",
"+ c #116116",
"@ c #3A4041",
"# c #5B5168",
"$ c #67940F",
"% c #63AD45",
"& c #7EC262",
"* c #85BF13",
"= c #CEB7B9",
"- c #C9B8BD",
"; c #EFECEC",
/* pixels */
"                                                                                ",
"                                                                                ",
"                                                                                ",
"                                                                                ",
"                                                                                ",
"                                                                                ",
"                                                                                ",
"                                                                                ",
"                                                                                ",
"                                                                                ",
"                                                                                ",
"                                                                                ",
"                                  oooooooo                                      ",
"                                 oooooooooo                                     ",
"                                ooooooXXXXoo                                    ",
"                               oooooooooXXXoo                                   ",
"                              oooooooooooXXXoo                                  ",
"                              oXoooooXooooX oo                                  ",
"                              oXoooooXXooXX @o                                  ",
"                              oXXoooXXXoXXX@@o                                  ",
"                              oXXXXXXXXooXXX@o                                  ",
"                              oXXXXXXXXoooXX@                                   ",
"                             ooXXXXXXXXoooXXX                                   ",
"                             oXX;;X;;XXXoooXX                                   ",
"                             oXXXXXXXXXXXooXXX                                  ",
"                             oXXXXXXXXXXXooXXX                                  ",
"                             oXXXXXXXXXXXooXXX                                  ",
"                            oooXXXXXXXXXoooXXX                                  ",
"                          XXoooXXXXXXXXoooXXXX                                  ",
"                         ooXXoooXXXXXXooooXXXoo                                 ",
"                         oooXooooXXXXooooXXXoooo                                ",
"                        ooooXXoooXXXooooXXXooooo                                ",
"                        oooooXXooXoXooooXXooooooo                               ",
"                       oooooooXXoXooXooXXooXooooo                               ",
"                       oooXoooooXXooXoXXoooXoooooo                              ",
"                      oooooXoooooXooXooooooXXooooo                              ",
"                      oooooXoooooXoooXoooooXXXXXXoo                             ",
"                     ooooooXooooooooooooooXXXooooXo                             ",
"                     oooooXXoXoooooooooooXXXXXXoooo                             ",
"                    XoooXXXXoXooooooooooXXXoooXXooo                             ",
"                    XooXXooXoXXooXoooooXoooooooXooo                             ",
"                    oooXoXXoooXooXooooXooooooooXooo                             ",
"                    XooooXXXoXXooXoooXXXXXXoooooooX                             ",
"                    XXooXXXXXXXooXooo----#XooooooXX                             ",
"                    XXooXXX-XXoXXooo;;;;-#XoooooXXX                             ",
"                     XoXXX-ooooXooo.-;;;.%XooooXXXX                             ",
"                     XoXX-ooXooXoXX.-=-=X%XooooXXXX                             ",
"                     XXXXooXoooXoXX.ooXXX%XoooXXXXXX                            ",
"                       XooXooooXoXXo.oXX%XXooXXXXXX                             ",
"                       XXXoooXXXoXXoo..%XXooXXXXXXX                             ",
"                        XXooXoXXXoXooX.XXXooXXXXXXX                             ",
"                         XoXXXoXXoXooO+&XXoXXXXXXXX                             ",
"                         XXooXoXXoXoO+++&XXXXXXXXXX                             ",
"                          XooXoXXXXoO*$+&XXXXXXXXXX                             ",
"                          XooooXoXXoO*$+&XXXXXXXXXX                             ",
"                          XoXoooXXXoO*$+&XXXX@XXXX                              ",
"                          XXXXoooXXoO+++&XXX@@XXXX                              ",
"                           XXXoooXXoXO+&XXXXX@@XXX                              ",
"                           X XoooXXoXXoXXXX@X@@XXX                              ",
"                          X  XXooXXoXXoXXXX@X@@XXX                              ",
"                             XXXoXXoXXoX@@X@@@@@XX                              ",
"                             X XoXXo@@oX@ X@@@@@X                               ",
"                            X  XXXXo@@oX@ X @@@XX                               ",
"                              XXXXXoo@oX      XX                                ",
"                                 XXXoo@oX    XX                                 ",
"                                        o                                       ",
"                                                                                ",
"                                                                                ",
"                                                                                ",
"                                                                                ",
"                                                                                ",
"                                                                                ",
"                                                                                ",
"                                                                                ",
"                                                                                ",
"                                                                                ",
"                                                                                ",
"                                                                                ",
"                                                                                ",
"                                                                                "
};
